<svg width="20" height="20" viewBox="0 0 20 20" fill="none" xmlns="http://www.w3.org/2000/svg">
<g id="fluent:thumb-dislike-20-filled">
<path id="Vector" d="M12.4827 18.297C11.6837 19.134 10.3907 18.684 10.0517 17.707C9.77166 16.9 9.40766 15.935 9.05366 15.224C7.99366 13.098 7.37566 11.888 5.66966 10.374C5.41961 10.1635 5.1351 9.99774 4.82866 9.88402C3.69866 9.43802 2.63866 8.26902 2.91566 6.88002L3.26866 5.11502C3.35968 4.65965 3.57573 4.23862 3.8926 3.89914C4.20947 3.55967 4.61463 3.31516 5.06266 3.19302L10.6627 1.66602C11.2642 1.50215 11.8933 1.46508 12.51 1.55716C13.1266 1.64924 13.7174 1.86846 14.2449 2.20092C14.7724 2.53338 15.225 2.97183 15.574 3.48845C15.9231 4.00508 16.161 4.5886 16.2727 5.20202L16.9577 8.96402C17.0363 9.39641 17.019 9.8408 16.907 10.2658C16.795 10.6907 16.5909 11.0859 16.3093 11.4233C16.0277 11.7607 15.6754 12.0321 15.2774 12.2184C14.8793 12.4046 14.4451 12.5011 14.0057 12.501H13.1227L13.1327 12.553C13.2127 12.961 13.3087 13.523 13.3727 14.136C13.4377 14.746 13.4727 15.42 13.4217 16.048C13.3717 16.665 13.2377 17.298 12.9177 17.778C12.7868 17.9624 12.6413 18.1359 12.4827 18.297Z" fill="#808080"/>
</g>
</svg>
