<svg width="20" height="20" viewBox="0 0 20 20" fill="none" xmlns="http://www.w3.org/2000/svg">
<g id="fluent:thumb-like-20-filled">
<path id="Vector" d="M12.4827 1.70472C11.6837 0.867716 10.3907 1.31772 10.0517 2.29472C9.77166 3.10072 9.40766 4.06672 9.05366 4.77772C7.99366 6.90372 7.37566 8.11272 5.66966 9.62672C5.41961 9.83723 5.1351 10.003 4.82866 10.1167C3.69866 10.5627 2.63866 11.7327 2.91566 13.1217L3.26866 14.8867C3.35968 15.3421 3.57573 15.7631 3.8926 16.1026C4.20947 16.4421 4.61463 16.6866 5.06266 16.8087L10.6627 18.3357C11.2643 18.4996 11.8934 18.5366 12.5102 18.4445C13.1269 18.3523 13.7177 18.133 14.2452 17.8005C14.7727 17.4679 15.2253 17.0293 15.5743 16.5126C15.9233 15.9959 16.1611 15.4122 16.2727 14.7987L16.9577 11.0377C17.0363 10.6053 17.019 10.1609 16.907 9.73597C16.795 9.31101 16.5909 8.91584 16.3093 8.57843C16.0277 8.24102 15.6754 7.96961 15.2774 7.78337C14.8793 7.59714 14.4451 7.50065 14.0057 7.50072H13.1227L13.1327 7.44872C13.2127 7.03972 13.3087 6.47872 13.3727 5.86572C13.4377 5.25572 13.4727 4.58072 13.4217 3.95272C13.3717 3.33672 13.2377 2.70372 12.9177 2.22272C12.787 2.03852 12.6415 1.86528 12.4827 1.70472Z" fill="#808080"/>
</g>
</svg>
