<svg width="207" height="47" viewBox="0 0 207 47" fill="none" xmlns="http://www.w3.org/2000/svg">
<rect y="0.375916" width="71.4293" height="46.617" rx="2.25566" fill="#F0FF44"/>
<path d="M21.6968 10.6659H21.4964C20.9954 12.0687 20.3942 13.7387 19.6928 15.6759C19.0248 17.613 18.3234 19.617 17.5886 21.6878C16.8872 23.7252 16.2192 25.629 15.5846 27.3992L15.3341 28.1507C15.1337 28.7519 14.8832 29.5034 14.5826 30.4052C14.282 31.307 13.9647 32.2589 13.6307 33.2609C13.2967 34.2295 12.9794 35.148 12.6788 36.0164C12.3782 36.8514 12.1444 37.5361 11.9774 38.0705C11.7436 38.1707 11.4931 38.2375 11.2259 38.2709C10.9921 38.3377 10.6915 38.3711 10.3241 38.3711C9.78972 38.3711 9.30542 38.2375 8.87122 37.9703C8.47042 37.6697 8.27002 37.2021 8.27002 36.5675C8.27002 36.2669 8.32012 35.9663 8.42032 35.6657C8.52052 35.3317 8.63742 34.981 8.77102 34.6136C9.17182 33.478 9.65612 32.0919 10.2239 30.4553C10.8251 28.8187 11.4764 27.0318 12.1778 25.0946C12.8792 23.1574 13.614 21.1701 14.3822 19.1327C15.1504 17.0953 15.9019 15.1081 16.6367 13.1709C17.3715 11.2337 18.0562 9.46347 18.6908 7.86027C18.958 7.72667 19.3588 7.59307 19.8932 7.45947C20.4276 7.32587 20.9787 7.25907 21.5465 7.25907C22.2145 7.25907 22.8491 7.35927 23.4503 7.55967C24.0849 7.76007 24.4857 8.09407 24.6527 8.56167C25.4543 10.4989 26.306 12.7033 27.2078 15.1749C28.143 17.613 29.0782 20.1681 30.0134 22.8401C30.9486 25.4787 31.8337 28.0505 32.6687 30.5555C33.5371 33.0605 34.3053 35.3317 34.9733 37.3691C34.7395 37.6697 34.4222 37.9035 34.0214 38.0705C33.654 38.2709 33.2365 38.3711 32.7689 38.3711C32.1343 38.3711 31.65 38.2375 31.316 37.9703C30.982 37.6697 30.6981 37.1854 30.4643 36.5174L27.7088 28.3511L27.308 26.9483C26.64 24.9109 25.9386 22.8568 25.2038 20.786C24.5024 18.7152 23.8344 16.7947 23.1998 15.0246C22.5986 13.2544 22.0976 11.8015 21.6968 10.6659ZM13.3802 29.8541L14.6828 26.4974H28.6607L29.4623 29.8541H13.3802Z" fill="black"/>
<path d="M56.0528 34.0124V17.1788L60.0608 17.1287V34.1627C60.0608 34.7973 59.9105 35.315 59.6099 35.7158C59.3427 36.0832 58.9085 36.4506 58.3073 36.818C57.6393 37.2522 56.6874 37.653 55.4516 38.0204C54.2158 38.4212 52.7963 38.6216 51.1931 38.6216C48.7883 38.6216 46.6674 38.2041 44.8304 37.3691C42.9934 36.5341 41.5572 35.2315 40.5218 33.4613C39.4864 31.6577 38.9687 29.3364 38.9687 26.4974C38.9687 23.5916 39.4697 21.2369 40.4717 19.4333C41.5071 17.6297 42.8932 16.3104 44.63 15.4755C46.3668 14.6071 48.2706 14.1729 50.3414 14.1729C51.644 14.1729 52.8798 14.3566 54.0488 14.724C55.2178 15.0914 56.1363 15.5423 56.8043 16.0767V19.784C56.1697 19.1494 55.3347 18.615 54.2993 18.1808C53.2973 17.7132 52.1116 17.4794 50.7422 17.4794C49.3728 17.4794 48.1036 17.78 46.9346 18.3812C45.7656 18.949 44.8304 19.9009 44.129 21.2369C43.4276 22.5729 43.0769 24.3598 43.0769 26.5976C43.0769 29.637 43.8117 31.8581 45.2813 33.2609C46.7509 34.6303 48.7048 35.315 51.143 35.315C52.312 35.315 53.2639 35.1981 53.9987 34.9643C54.7669 34.6971 55.4516 34.3798 56.0528 34.0124ZM60.0608 18.1307L56.0528 18.1808V5.50558C56.2198 5.43878 56.4703 5.37198 56.8043 5.30518C57.1717 5.20498 57.5391 5.15488 57.9065 5.15488C58.6413 5.15488 59.1757 5.30518 59.5097 5.60578C59.8771 5.87298 60.0608 6.32388 60.0608 6.95847V18.1307Z" fill="black"/>
<path d="M98.2343 22.6899V27.8001H94.2263V22.8903C94.2263 21.0199 93.6919 19.6505 92.6231 18.7821C91.5877 17.9137 90.1849 17.4795 88.4147 17.4795C87.0787 17.4795 85.893 17.6465 84.8576 17.9805C83.8222 18.3145 82.9371 18.6986 82.2023 19.1328V27.8001H78.1943V19.3332C78.1943 18.6318 78.3279 18.064 78.5951 17.6298C78.8957 17.1622 79.3967 16.7113 80.0981 16.2771C80.9665 15.7761 82.1188 15.3085 83.555 14.8743C84.9912 14.4067 86.6111 14.1729 88.4147 14.1729C91.4541 14.1729 93.8422 14.8743 95.579 16.2771C97.3492 17.6465 98.2343 19.7841 98.2343 22.6899ZM78.1943 25.0446H82.2023V37.8701C82.0353 37.9369 81.7848 38.0037 81.4508 38.0705C81.1168 38.1707 80.7494 38.2208 80.3486 38.2208C79.6472 38.2208 79.1128 38.0872 78.7454 37.82C78.378 37.5194 78.1943 37.0518 78.1943 36.4172V25.0446ZM94.2263 25.0446H98.2343V37.8701C98.0673 37.9369 97.8001 38.0037 97.4327 38.0705C97.0987 38.1707 96.748 38.2208 96.3806 38.2208C95.6458 38.2208 95.0947 38.0872 94.7273 37.82C94.3933 37.5194 94.2263 37.0518 94.2263 36.4172V25.0446Z" fill="white"/>
<path d="M114.006 38.6717C110.866 38.6717 108.428 38.0538 106.691 36.818C104.988 35.5822 104.136 33.7953 104.136 31.4573C104.136 29.2863 104.854 27.6331 106.291 26.4975C107.76 25.3285 109.781 24.6271 112.353 24.3933L119.467 23.6919V22.2891C119.467 20.6191 118.966 19.4 117.964 18.6318C116.962 17.8636 115.609 17.4795 113.906 17.4795C112.536 17.4795 111.217 17.6799 109.948 18.0807C108.712 18.4815 107.61 18.9324 106.641 19.4334C106.374 19.1996 106.124 18.9324 105.89 18.6318C105.689 18.2978 105.589 17.9638 105.589 17.6298C105.589 16.7614 106.073 16.0934 107.042 15.6258C107.944 15.1582 108.979 14.8075 110.148 14.5737C111.351 14.3065 112.62 14.1729 113.956 14.1729C116.862 14.1729 119.166 14.8242 120.87 16.1268C122.573 17.4294 123.425 19.4835 123.425 22.2891V34.1627C123.425 34.8975 123.274 35.4653 122.974 35.8661C122.707 36.2335 122.289 36.5842 121.721 36.9182C120.92 37.3524 119.851 37.7532 118.515 38.1206C117.179 38.488 115.676 38.6717 114.006 38.6717ZM114.006 35.3651C115.409 35.3651 116.561 35.2315 117.463 34.9643C118.398 34.6637 119.066 34.3798 119.467 34.1126V26.8482L113.254 27.4995C111.518 27.6331 110.232 28.0172 109.397 28.6518C108.562 29.2864 108.144 30.2048 108.144 31.4072C108.144 32.643 108.629 33.6116 109.597 34.313C110.599 35.0144 112.069 35.3651 114.006 35.3651Z" fill="white"/>
<path d="M130.791 24.744H134.799V31.6577C134.799 32.9937 135.183 33.9456 135.951 34.5134C136.719 35.0478 137.771 35.315 139.107 35.315C139.675 35.315 140.31 35.2148 141.011 35.0144C141.712 34.814 142.297 34.5802 142.764 34.313C142.965 34.5134 143.149 34.7639 143.316 35.0645C143.483 35.3651 143.566 35.7158 143.566 36.1166C143.566 36.8514 143.132 37.4526 142.263 37.9202C141.395 38.3878 140.193 38.6216 138.656 38.6216C136.318 38.6216 134.414 38.1039 132.945 37.0685C131.509 36.0331 130.791 34.313 130.791 31.9082V24.744ZM132.845 18.6318V15.3252H143.015C143.115 15.4588 143.215 15.6759 143.316 15.9765C143.416 16.2771 143.466 16.5944 143.466 16.9284C143.466 17.4628 143.332 17.8803 143.065 18.1809C142.798 18.4815 142.43 18.6318 141.963 18.6318H132.845ZM134.799 26.247H130.791V8.1108C130.958 8.044 131.208 7.9772 131.542 7.9104C131.909 7.8102 132.294 7.7601 132.694 7.7601C133.396 7.7601 133.913 7.9104 134.247 8.211C134.615 8.4782 134.799 8.9291 134.799 9.5637V26.247Z" fill="white"/>
<path d="M149.632 24.744H153.64V37.8701C153.473 37.9369 153.222 38.0037 152.888 38.0705C152.554 38.1707 152.187 38.2208 151.786 38.2208C151.085 38.2208 150.55 38.0872 150.183 37.82C149.815 37.5194 149.632 37.0518 149.632 36.4172V24.744ZM153.64 26.6979H149.632V14.9244C149.799 14.8576 150.049 14.7908 150.383 14.724C150.751 14.6238 151.135 14.5737 151.535 14.5737C152.237 14.5737 152.755 14.724 153.089 15.0246C153.456 15.2918 153.64 15.7594 153.64 16.4274V26.6979Z" fill="white"/>
<path d="M178.8 14.3733C179.368 14.3733 179.819 14.5236 180.153 14.8242C180.52 15.1248 180.704 15.559 180.704 16.1268C180.704 16.561 180.52 17.3793 180.153 18.5817C179.786 19.7841 179.301 21.2203 178.7 22.8903C178.099 24.5603 177.431 26.3138 176.696 28.1508C175.995 29.9543 175.26 31.7078 174.492 33.4112C173.757 35.0812 173.072 36.5341 172.438 37.7699C172.271 37.9035 171.97 38.0204 171.536 38.1206C171.135 38.2208 170.701 38.2709 170.233 38.2709C169.665 38.2709 169.164 38.1707 168.73 37.9703C168.296 37.8033 167.995 37.5528 167.828 37.2188C167.461 36.5508 166.977 35.5822 166.376 34.313C165.808 33.0104 165.19 31.5408 164.522 29.9042C163.854 28.2677 163.169 26.581 162.468 24.8442C161.8 23.074 161.182 21.3873 160.614 19.7841C160.046 18.1475 159.579 16.7113 159.211 15.4755C159.445 15.1415 159.762 14.8743 160.163 14.6739C160.564 14.4735 160.965 14.3733 161.366 14.3733C161.967 14.3733 162.434 14.5236 162.768 14.8242C163.102 15.1248 163.386 15.6258 163.62 16.3272L166.726 25.2951C166.993 26.0633 167.344 27.0152 167.778 28.1508C168.213 29.2864 168.647 30.4219 169.081 31.5575C169.515 32.6931 169.866 33.645 170.133 34.4132H170.333C171.669 31.0398 172.922 27.7166 174.091 24.4434C175.26 21.1368 176.262 17.9137 177.097 14.7741C177.531 14.5069 178.099 14.3733 178.8 14.3733Z" fill="white"/>
<path d="M187.333 28.9523L187.132 25.7961L202.262 23.742C202.129 21.905 201.494 20.402 200.359 19.233C199.223 18.0306 197.653 17.4294 195.649 17.4294C193.578 17.4294 191.858 18.1809 190.489 19.6839C189.153 21.1535 188.485 23.2744 188.485 26.0466V27.1488C188.719 29.8207 189.587 31.8581 191.09 33.2609C192.627 34.6303 194.714 35.315 197.353 35.315C198.755 35.315 200.025 35.0812 201.16 34.6136C202.296 34.146 203.198 33.645 203.866 33.1106C204.233 33.3444 204.517 33.6283 204.717 33.9623C204.951 34.2629 205.068 34.6136 205.068 35.0144C205.068 35.649 204.701 36.2502 203.966 36.818C203.264 37.3524 202.312 37.7866 201.11 38.1206C199.941 38.4546 198.622 38.6216 197.152 38.6216C194.58 38.6216 192.343 38.154 190.439 37.2188C188.568 36.2836 187.116 34.8975 186.08 33.0605C185.078 31.1901 184.577 28.9189 184.577 26.247C184.577 24.3432 184.844 22.6565 185.379 21.1869C185.947 19.6839 186.715 18.4147 187.683 17.3793C188.685 16.3439 189.871 15.559 191.24 15.0246C192.61 14.4568 194.096 14.1729 195.699 14.1729C197.737 14.1729 199.524 14.6071 201.06 15.4755C202.63 16.3439 203.849 17.563 204.717 19.1328C205.619 20.6692 206.07 22.4394 206.07 24.4434C206.07 25.1782 205.903 25.7126 205.569 26.0466C205.235 26.3472 204.767 26.5309 204.166 26.5977L187.333 28.9523Z" fill="white"/>
<path fill-rule="evenodd" clip-rule="evenodd" d="M75.8953 0.330334C76.3357 -0.110111 77.0498 -0.110111 77.4903 0.330334L80.2642 3.1043L83.0382 0.330334C83.4787 -0.110111 84.1928 -0.110111 84.6332 0.330334C85.0737 0.77078 85.0737 1.48488 84.6332 1.92533L81.8592 4.6993L84.6332 7.47327C85.0737 7.91371 85.0737 8.62782 84.6332 9.06826C84.1928 9.50871 83.4787 9.50871 83.0382 9.06826L80.2642 6.29429L77.4903 9.06826C77.0498 9.50871 76.3357 9.50871 75.8953 9.06826C75.4548 8.62782 75.4548 7.91371 75.8953 7.47327L78.6692 4.6993L75.8953 1.92533C75.4548 1.48488 75.4548 0.77078 75.8953 0.330334Z" fill="#F0FF44"/>
</svg>
