<svg width="169" height="169" fill="none" xmlns="http://www.w3.org/2000/svg"><path d="M153.624 81.237c-.192-2.643.337-4.769 1.586-6.377 1.261-1.623 3.067-2.519 5.419-2.689.792-.057 1.672.044 2.639.303.967.259 1.856.739 2.665 1.44 1.443 1.248 2.255 3.119 2.436 5.61a15.243 15.243 0 01-.028 2.755c-.025.178-.071.852-.138 2.021-.005.114-.07.176-.195.185a1.538 1.538 0 01-.19-.005 4.518 4.518 0 00-.362-.012 31.4 31.4 0 00-.512-.001 68.713 68.713 0 00-1.947.084c-.265.007-.401-.04-.409-.141-.007-.101.121-.16.385-.18.831-.06 1.453-.37 1.867-.932.277-.374.491-.915.642-1.621a7.344 7.344 0 00.16-2.232c-.141-1.951-.705-3.365-1.691-4.243a5 5 0 00-2.23-1.186c-.809-.182-1.749-.234-2.818-.157-1.861.135-3.431.894-4.709 2.277-1.277 1.395-1.845 3.075-1.703 5.038.114 1.573.508 2.645 1.182 3.216.39.326.935.521 1.635.584.192.024.291.08.297.169.006.088-.085.138-.273.152-.101.007-.463-.017-1.087-.073-.623-.044-1.075-.1-1.359-.167-.179-.038-.302-.08-.369-.126-.054-.046-.125-.155-.213-.326-.342-.696-.568-1.818-.68-3.366zm-.738 13.353c.152-.986.434-1.868.847-2.647.426-.777.924-1.402 1.494-1.876a7.216 7.216 0 011.917-1.141 7.669 7.669 0 012.111-.537 8.858 8.858 0 012.094.074 7.446 7.446 0 012.365.804 8.94 8.94 0 012.139 1.65c.659.69 1.15 1.563 1.473 2.621.322 1.059.389 2.199.201 3.421-.329 2.145-1.235 3.806-2.717 4.982-1.472 1.19-3.279 1.62-5.423 1.29-2.144-.33-3.852-1.302-5.122-2.914-1.258-1.611-1.718-3.52-1.379-5.728zm.633.614a5.594 5.594 0 00-.05 1.199c.036.426.154.904.354 1.433.21.543.511 1.036.902 1.48.391.442.966.85 1.726 1.222.757.385 1.653.657 2.688.817 2.144.33 3.912.034 5.304-.888 1.405-.92 2.227-2.165 2.469-3.737.249-1.621-.079-3.018-.983-4.192-.904-1.173-2.347-1.912-4.329-2.218-2.144-.33-3.964-.03-5.46.902-1.483.934-2.356 2.26-2.621 3.982zm-3.541 11.332c.389-1.067.856-1.85 1.401-2.35.18-.162.404-.208.674-.136.66.214 1.259.467 1.798.757.152.096.218.174.197.233-.026.072-.136.078-.33.021-1.507-.47-2.589.196-3.246 1.998-.355.971-.362 1.875-.023 2.711.347.852 1.036 1.467 2.067 1.843 1.113.407 2.096.363 2.948-.132.859-.478 1.494-1.207 1.905-2.185.163-.41.304-.594.422-.551.083.031.076.27-.02.718-.516 1.894.079 3.152 1.785 3.775.343.126.678.201 1.005.226a3.25 3.25 0 001.02-.09c.353-.086.68-.282.98-.589.299-.307.545-.721.735-1.243.527-1.446.115-2.449-1.238-3.011-.173-.077-.245-.156-.215-.239.031-.083.129-.095.294-.034.178.065.485.163.92.296.447.136.747.232.901.289.213.078.313.174.297.289-.009.064-.024.14-.042.227a17.16 17.16 0 00-.034.37c-.012.143-.024.267-.035.37a8.593 8.593 0 01-.474 2.184c-.251.688-.564 1.252-.939 1.692-.376.441-.763.729-1.162.865a3.1 3.1 0 01-1.125.214 2.713 2.713 0 01-.989-.16c-.805-.294-1.39-.79-1.753-1.487a4.615 4.615 0 01-.568-2.142c-.011-.044-.029-.05-.054-.019a4.398 4.398 0 01-.726.943 5.664 5.664 0 01-1.042.869 3.044 3.044 0 01-1.373.506 3.11 3.11 0 01-1.569-.17c-1.256-.459-2.115-1.324-2.578-2.595-.455-1.254-.393-2.675.186-4.263zM146.5 117.4l-1.574 2.74c-.566.984-.918 1.634-1.055 1.948-.022.089.018.134.12.134.946.151 2.69.457 5.234.917s4.482.797 5.814 1.01c.095.011.12-.018.073-.089l-6.692-7.607c-.433-.512-.677-.783-.732-.815-.033-.018-.079-.001-.139.052-.19.254-.539.824-1.049 1.71zm-3.392 4.27l3.187-5.545c.572-.995.965-1.716 1.177-2.161.217-.428.299-.774.247-1.037-.07-.258-.284-.506-.643-.741-.174-.129-.238-.232-.194-.309.044-.076.164-.058.361.056.306.176.932.492 1.877.949.104.046.135.107.091.183-.244.297-.551.768-.922 1.413-.056.099-.035.227.063.385l8.625 10.205c.358.439.509.708.453.807-.044.076-.282.085-.714.026-.123-.013-1.999-.307-5.626-.881-3.616-.568-6.26-.968-7.93-1.202-.151-.014-.262.039-.331.159-.471.82-.769 1.413-.892 1.779-.02.061-.045.091-.073.089-.017.005-.055-.017-.114-.066a12.086 12.086 0 00-1.79-1.292c-.163-.094-.223-.18-.179-.256.044-.077.154-.079.33-.006.725.359 1.301.217 1.728-.425.205-.304.627-1.014 1.269-2.13z" fill="#E8E8FF"/><path d="M140.139 134.548l2.665-3.073c.058-.067.061-.148.009-.242l-1.785-3.054c-.256-.456-.517-.8-.784-1.031a.486.486 0 00-.45-.116.854.854 0 00-.41.271l-.112.128c-.107.124-.19.161-.247.112-.076-.066-.04-.185.109-.357.116-.133.303-.33.562-.59.24-.258.377-.407.411-.445l.518-.627c.328-.417.608-.758.839-1.025.157-.181.274-.239.35-.172.057.049.028.141-.088.274a4.008 4.008 0 00-.268.368c-.227.338-.305.688-.234 1.05.079.37.258.809.535 1.317l6.06 10.949c.256.456.35.722.284.798-.066.076-.328.032-.787-.132-.128-.045-.963-.352-2.506-.923-1.55-.561-3.22-1.167-5.01-1.819a421.356 421.356 0 00-3.988-1.408c-1.264-.43-2.148-.479-2.652-.148a2.334 2.334 0 00-.57.483c-.09.105-.164.132-.222.083-.076-.066-.031-.195.134-.385.727-.839 1.385-1.579 1.975-2.22.267-.269.424-.383.472-.342.047.042.052.104.013.187-.068.175.036.315.311.421l4.668 1.722c.082.021.148.003.198-.054zm3.043-2.469l-2.368 2.73c-.049.057-.033.105.051.144l5.035 1.992c.277.123.339.052.186-.215l-2.767-4.607c-.042-.087-.088-.101-.137-.044zm-9.036 12.119l-6.435 4.79c-.06.045-.068.098-.023.159l.237.319c1.385 1.863 2.208 2.949 2.47 3.258.223.258.426.414.607.468.179.071.408.042.689-.089a2.79 2.79 0 00.55-.338c.081-.06.144-.06.189.001.06.081.009.181-.153.302-.202.151-.443.322-.724.516-.273.203-.51.371-.71.504-.199.133-.304.203-.314.211-.01.007-.103.084-.277.23-.185.153-.394.316-.627.489-.235.191-.418.336-.55.433-.162.121-.273.141-.333.06-.045-.061-.027-.122.054-.182a3.38 3.38 0 00.345-.328c.173-.191.25-.382.233-.574-.027-.185-.132-.421-.315-.709-.221-.339-1.024-1.44-2.409-3.303l-1.987-2.673c-1.318-1.772-2.16-2.852-2.527-3.239-.218-.231-.416-.391-.592-.48-.179-.071-.386-.043-.621.085a6.16 6.16 0 00-.728.448c-.081.06-.144.059-.189-.001-.06-.081-.009-.182.153-.302.242-.181.519-.379.83-.595a19.384 19.384 0 011.07-.749l.304-.226c.174-.146.379-.314.614-.505.226-.183.404-.324.536-.422.161-.12.272-.14.333-.059.045.061.027.121-.054.181a2.766 2.766 0 00-.41.4c-.193.206-.132.594.181 1.163.266.463 1.057 1.58 2.375 3.352l1.185 1.595c.045.06.098.068.159.023l6.435-4.79c.06-.045.068-.098.023-.158l-1.186-1.595c-1.317-1.772-2.159-2.852-2.526-3.239-.219-.231-.416-.391-.592-.48-.179-.071-.386-.043-.621.085-.313.17-.556.32-.728.448-.081.06-.144.06-.189-.001-.061-.081-.01-.182.152-.302.243-.181.52-.379.831-.595.293-.219.545-.398.755-.538l.315-.211.303-.226c.175-.146.38-.314.615-.505.225-.183.404-.324.535-.422.162-.12.273-.14.333-.059.045.061.028.121-.053.182-.122.09-.258.223-.41.399-.193.206-.133.594.18 1.163.266.463 1.058 1.58 2.375 3.352l1.988 2.673c1.385 1.863 2.208 2.949 2.469 3.258.224.258.426.414.608.468.178.071.408.042.688-.088.144-.06.328-.173.55-.339.081-.06.144-.06.189.001.061.081.01.182-.152.302-.202.151-.444.323-.725.516-.273.203-.509.371-.709.504-.2.133-.305.203-.315.211-.01.007-.102.084-.277.23-.185.153-.393.316-.626.489a18.64 18.64 0 01-.55.434c-.162.12-.273.14-.333.059-.045-.061-.028-.121.053-.182a3.35 3.35 0 00.346-.328c.172-.191.25-.382.233-.574-.027-.184-.132-.421-.315-.709-.221-.339-1.024-1.44-2.409-3.303l-.237-.319c-.045-.061-.098-.069-.159-.024zm-14.117 13.523l-3.747-9.08c-.402 1.33-1.13 3.794-2.184 7.393a6810.685 6810.685 0 01-1.889 6.429c-.286.953-.516 1.466-.69 1.539-.07.029-.131.013-.184-.047-.059-.043-.151-.183-.276-.418-.126-.234-.29-.596-.494-1.085a721.12 721.12 0 00-4.075-9.621c-.284-.647-.528-1.085-.733-1.314a.758.758 0 00-.748-.221 7.83 7.83 0 00-.71.214c-.179.061-.284.057-.313-.013-.034-.081.037-.159.211-.232.244-.102.703-.279 1.376-.533.669-.265 1.032-.41 1.09-.434.105-.044.335-.147.691-.309.339-.169.625-.302.858-.4.175-.072.277-.074.306-.004.034.081-.034.164-.204.249-.246.13-.405.224-.477.281-.213.144-.287.393-.221.749.055.36.229.909.524 1.648a245.354 245.354 0 001.874 4.591c.824 2.008 1.395 3.41 1.714 4.207a1209.38 1209.38 0 012.377-8.11c1.15-3.925 1.809-6.128 1.977-6.609.167-.452.314-.705.442-.759.093-.039.182-.007.265.095.067.095.171.311.312.649l4.241 10.166c.262.629.483 1.077.663 1.344.184.279.34.439.467.482.132.054.31.055.534.002.087-.022.196-.054.329-.096s.217-.07.252-.084c.133-.042.214-.028.243.042.034.081-.066.171-.298.268-.198.082-.552.216-1.062.402-.517.202-.811.318-.88.347-.198.083-.498.215-.901.396-.397.194-.672.322-.823.385-.198.083-.312.089-.341.019-.034-.081.023-.159.169-.234.223-.121.367-.201.432-.242.232-.165.345-.37.339-.613-.002-.232-.147-.712-.436-1.439zm-18.726-.433l.647 3.267c.452 2.278.729 3.612.832 4.003.091.33.207.558.348.684.131.141.351.214.66.217.039.005.09.001.152-.011.064 0 .14-.009.226-.026.077-.002.134-.007.171-.014.166-.007.253.014.263.063.02.099-.069.168-.267.208-.619.122-1.321.242-2.108.36-2.548.505-3.963.792-4.245.86-.453.116-.73.209-.832.281a.613.613 0 01-.19.115c-.049.009-.084-.041-.107-.153a2.688 2.688 0 01.012-.33 3.86 3.86 0 00-.036-.572l-.147-1.128c-.017-.216.012-.331.086-.346.1-.019.165.052.197.212.048.248.12.446.214.595.2.359.69.5 1.472.422.329-.027 1.18-.176 2.553-.448.074-.015.099-.084.074-.208l-1.015-5.124c-.025-.124-.074-.179-.148-.164-1.683.334-2.664.541-2.943.622-.463.13-.751.297-.865.499-.075.144-.137.221-.186.23-.062.013-.103-.031-.122-.13a.847.847 0 01.004-.174l-.018-.383a6.374 6.374 0 00-.044-.512c-.02-.228-.054-.497-.103-.809-.046-.3-.07-.456-.073-.468-.012-.191.013-.292.075-.304.086-.018.15.073.188.271a1.7 1.7 0 00.178.505c.155.329.517.47 1.086.421.569-.048 1.46-.192 2.672-.433.086-.017.121-.069.104-.155l-.324-1.634-.191-.966-.28-1.411-.158-.798c-.106-.404-.217-.703-.333-.899a.806.806 0 00-.548-.335c-.294-.058-.819-.011-1.573.138-.743.147-1.288.313-1.637.498-.268.143-.45.327-.546.552-.095.238-.137.574-.128 1.01 0 .193-.038.297-.112.311-.074.015-.13-.07-.167-.256a11.12 11.12 0 01-.072-.854 14.956 14.956 0 01-.043-.995c.015-.247.075-.401.179-.46.101-.071.344-.145.727-.221a148.89 148.89 0 012.72-.481c1.492-.258 2.269-.392 2.33-.405a9.4 9.4 0 00.643-.165c.304-.086.544-.14.72-.162.198-.04.306-.01.326.089.01.05-.051.1-.182.152-.23.071-.369.118-.416.14-.213.094-.345.268-.398.523-.064.257-.039.709.076 1.355.167.97.374 2.081.622 3.331zm-22.919-4.095c2.644.154 4.682.955 6.114 2.403 1.444 1.462 2.098 3.37 1.962 5.726-.046.794-.26 1.653-.642 2.579-.382.926-.973 1.745-1.772 2.457-1.425 1.269-3.384 1.831-5.877 1.687a15.27 15.27 0 01-2.725-.386c-.174-.048-.836-.182-1.986-.4-.112-.019-.165-.092-.157-.218.002-.038.012-.1.03-.188a5.15 5.15 0 00.058-.357 30.7 30.7 0 00.067-.508c.026-.226.06-.59.101-1.093.041-.491.064-.774.068-.849.028-.264.093-.393.193-.387.101.005.144.141.129.405-.049.832.179 1.489.681 1.974.335.322.843.605 1.524.847a7.349 7.349 0 002.19.449c1.952.114 3.427-.262 4.424-1.127a4.999 4.999 0 001.465-2.057c.285-.78.458-1.705.52-2.776.108-1.864-.44-3.52-1.645-4.968-1.218-1.448-2.808-2.229-4.772-2.344-1.574-.091-2.688.16-3.34.754-.374.345-.638.861-.791 1.547-.05.187-.118.277-.206.272-.088-.005-.126-.102-.115-.291.005-.101.076-.457.213-1.068.124-.612.238-1.054.342-1.326.06-.174.118-.29.172-.351.053-.047.17-.103.35-.169.735-.248 1.876-.327 3.425-.237zm-14.411 3.247l3.933 1.037c.086.022.16-.011.222-.098l1.95-2.951c.295-.431.488-.817.578-1.159a.486.486 0 00-.095-.455.86.86 0 00-.424-.249l-.164-.043c-.159-.042-.229-.1-.21-.173.026-.097.149-.117.368-.059.171.045.43.126.778.243.338.103.531.16.58.173l.791.189c.52.111.95.211 1.29.301.232.061.335.14.31.238-.02.073-.114.087-.285.042a4.184 4.184 0 00-.449-.079c-.403-.054-.751.03-1.045.253-.296.235-.611.589-.944 1.063l-7.143 10.271c-.296.431-.492.634-.59.608-.098-.026-.174-.281-.23-.765-.016-.135-.109-1.02-.278-2.657-.182-1.64-.376-3.407-.582-5.301a415.066 415.066 0 00-.498-4.202c-.173-1.324-.52-2.14-1.04-2.446a2.33 2.33 0 00-.684-.298c-.134-.035-.191-.09-.172-.163.026-.097.16-.114.404-.05 1.074.283 2.028.548 2.863.794.36.121.531.211.515.272-.016.061-.07.093-.162.095-.187.016-.267.171-.24.465l.517 4.951c.018.083.063.134.136.153zm3.559 1.643l-3.494-.921c-.074-.02-.11.017-.107.109l.438 5.399c.011.304.103.328.274.073l2.91-4.518c.059-.076.052-.123-.021-.142zm-15.86.912l4.488-8.736c-1.273.555-3.622 1.596-7.045 3.122-3.44 1.532-5.48 2.44-6.12 2.723-.91.399-1.45.556-1.618.47-.068-.034-.096-.091-.084-.17-.005-.073.041-.234.14-.481.097-.248.266-.608.506-1.08a706.348 706.348 0 004.687-9.336c.309-.635.484-1.105.526-1.409a.761.761 0 00-.316-.714 8.247 8.247 0 00-.623-.402c-.163-.097-.228-.18-.193-.247.04-.079.144-.075.313.011.236.12.668.355 1.297.704.635.337.98.52 1.037.549.101.052.329.16.683.327.349.149.635.281.86.396.169.085.236.162.201.23-.04.078-.147.08-.321.006a3.71 3.71 0 00-.523-.182c-.248-.07-.486.036-.713.316-.24.275-.544.764-.916 1.466a243.13 243.13 0 00-2.282 4.402 621.103 621.103 0 01-2.094 4.031c1.398-.633 3.97-1.78 7.715-3.439 3.735-1.665 5.84-2.589 6.315-2.772.452-.166.74-.217.864-.154.09.046.123.133.1.263-.03.113-.127.332-.293.658l-4.995 9.816c-.309.607-.507 1.065-.594 1.375-.092.321-.114.544-.064.668.044.136.16.272.344.409a6.912 6.912 0 00.514.326c.118.074.16.145.125.212-.04.079-.172.061-.397-.053a29.801 29.801 0 01-.994-.55 77.622 77.622 0 00-.834-.446 38.515 38.515 0 00-.886-.43 20.01 20.01 0 01-.826-.378c-.191-.098-.27-.18-.235-.248.04-.078.136-.086.288-.023.236.092.39.15.464.173.276.07.504.023.686-.139.176-.151.447-.572.813-1.264zm-3.633 4.053a.522.522 0 01-.205.194 1.814 1.814 0 01-.466.165c-.181.05-.294.063-.34.04-.055-.028-.072-.079-.049-.153.105-.371.006-.804-.295-1.297-.312-.499-.84-.937-1.58-1.315-1.136-.579-2.258-.626-3.367-.144-.141.056-.24.069-.296.04-.023-.011-.034-.031-.034-.059 0-.028.018-.062.052-.101a.497.497 0 01.127-.084 4.7 4.7 0 012.255-.593 4.98 4.98 0 012.289.551c.854.435 1.453.995 1.798 1.681.205.458.242.817.11 1.075zm-16.33-14.818l5.02-6.233c1.384-1.719 2.218-2.805 2.502-3.257.168-.27.273-.501.315-.694.024-.191-.055-.384-.237-.58a6.38 6.38 0 00-.616-.594c-.078-.063-.094-.124-.046-.183.063-.079.173-.055.33.072.236.19.497.409.784.656a19.574 19.574 0 01.993.849l.294.238c.185.133.4.289.643.469.233.173.414.31.542.413.157.127.204.23.14.308-.047.059-.11.057-.188-.006a2.637 2.637 0 00-.49-.298c-.248-.135-.608.021-1.08.466-.381.373-1.264 1.419-2.649 3.139l-5.02 6.233c.236.19.603.478 1.102.864.499.386.866.674 1.102.864.47.363.84.597 1.111.702.254.107.51.12.771.038.243-.08.449-.165.618-.255.119-.066.207-.076.266-.028.05.039.038.103-.033.192-.126.157-.646.581-1.558 1.271-.21.139-.334.193-.373.161-.02-.015-.07-.104-.15-.266a1.835 1.835 0 00-.356-.433c-.431-.429-.8-.767-1.104-1.012l-5.524-4.454c-.432-.349-.8-.605-1.105-.77l-.2-.113a1.166 1.166 0 00-.172-.089.51.51 0 01-.1-.057c-.049-.039-.026-.118.069-.236.134-.167.39-.464.765-.89l.585-.695c.102-.128.188-.164.257-.109.069.056.04.171-.084.346a.303.303 0 00-.045.085l-.07.089c-.371.56.015 1.317 1.158 2.271.206.166.512.421.916.763.405.343.71.597.917.763zm-.732-20.105c.632.771 1.1 1.57 1.405 2.397.294.836.427 1.625.4 2.366a7.236 7.236 0 01-.43 2.19 7.676 7.676 0 01-1.009 1.932 8.849 8.849 0 01-1.451 1.511 7.421 7.421 0 01-2.177 1.225 8.898 8.898 0 01-2.655.493c-.953.032-1.931-.185-2.934-.651-1.002-.466-1.896-1.177-2.68-2.133-1.378-1.677-2.01-3.46-1.896-5.35.095-1.891.981-3.525 2.657-4.903 1.676-1.377 3.538-2.001 5.586-1.872 2.039.138 3.766 1.069 5.184 2.795zm-.88.062a5.545 5.545 0 00-.859-.838c-.342-.257-.777-.488-1.303-.692a4.89 4.89 0 00-1.703-.316c-.591-.004-1.278.153-2.062.47-.792.308-1.592.794-2.4 1.459-1.677 1.377-2.636 2.893-2.878 4.545-.253 1.661.126 3.106 1.134 4.334 1.041 1.268 2.3 1.956 3.777 2.065 1.476.109 2.99-.473 4.539-1.746 1.676-1.377 2.666-2.934 2.97-4.67.295-1.729-.11-3.266-1.215-4.611zm-10.699-6.609l-2.955 1.534c-2.06 1.069-3.262 1.708-3.609 1.917-.29.179-.477.354-.559.524-.099.166-.107.397-.023.695.036.152.103.323.202.513.076.146.08.236.013.271-.09.046-.18-.02-.274-.199-.116-.224-.247-.49-.393-.798a17.033 17.033 0 01-.384-.782l-.158-.345c-.052-.1-.191-.355-.417-.764a21.825 21.825 0 01-.583-1.041c-.337-.649-.538-1.256-.603-1.819-.065-.564-.016-1.03.148-1.399.164-.369.348-.671.553-.906.205-.234.43-.415.677-.543a3.409 3.409 0 011.382-.377c.479-.035.871-.018 1.177.05.305.069.733.181 1.282.337-.148-.862-.069-1.749.24-2.662.3-.925.9-1.619 1.795-2.084.985-.512 2.036-.581 3.152-.208 1.117.372 2.027 1.236 2.73 2.591.03.056.073.154.132.295.064.123.137.277.219.462.081.185.157.345.227.479.216.499.377.849.481 1.051.093.179.238.445.435.798.209.346.365.621.47.822.093.179.1.289.022.33-.079.041-.162-.023-.249-.191a2.032 2.032 0 00-.26-.377c-.166-.212-.56-.206-1.184.018-.499.188-1.727.79-3.686 1.808zm-7.782 2.335l4.499-2.337a.208.208 0 00.124-.213 7.228 7.228 0 00-.465-1.06c-.256-.493-.452-.817-.59-.973-.149-.15-.362-.26-.64-.329-.668-.165-1.338-.073-2.009.276-.784.406-1.362.948-1.735 1.626-.38.666-.371 1.379.024 2.141.163.314.33.568.502.763.104.117.2.152.29.106zm5.322-2.764l.957-.497c2.25-1.168 3.455-1.801 3.617-1.9.324-.197.545-.333.662-.408.1-.08.186-.189.258-.325a1.02 1.02 0 00.093-.518c-.012-.434-.184-.971-.515-1.609a3.225 3.225 0 00-.493-.704 3.119 3.119 0 00-.761-.564c-.302-.171-.656-.25-1.062-.238-.417.017-.85.142-1.297.375a5.305 5.305 0 00-1.63 1.337c-.487.566-.781 1.245-.882 2.036-.06.515.019 1.064.237 1.647.053.158.268.6.646 1.328.035.067.091.081.17.04zM15.36 88.506c.242 2.638-.246 4.774-1.463 6.406-1.23 1.646-3.018 2.577-5.367 2.792-.791.073-1.673-.011-2.644-.251-.972-.24-1.87-.703-2.692-1.388C1.727 94.844.879 92.989.65 90.5a15.187 15.187 0 01-.025-2.754c.022-.179.055-.854.1-2.023.002-.115.066-.178.191-.19.038-.003.101-.002.19.002.077.006.197.008.362.005.151 0 .322-.004.512-.009.227-.008.592-.029 1.096-.062.49-.032.774-.052.85-.06.264-.01.401.034.41.134.01.1-.118.163-.381.187-.83.076-1.446.399-1.85.968-.268.38-.472.924-.61 1.634a7.343 7.343 0 00-.117 2.234c.179 1.948.77 3.351 1.773 4.21a5.002 5.002 0 002.252 1.142c.813.166 1.753.2 2.82.103 1.86-.17 3.414-.96 4.665-2.367 1.25-1.42 1.785-3.11 1.605-5.07-.144-1.57-.558-2.635-1.243-3.193-.396-.319-.945-.503-1.646-.552-.192-.02-.292-.075-.3-.163-.008-.088.082-.14.27-.158.101-.009.463.008 1.088.053.624.031 1.077.078 1.362.14.18.035.304.074.372.119.054.045.128.153.22.322.354.69.602 1.807.744 3.353zm.464-13.35c-.132.988-.398 1.875-.796 2.661-.411.786-.897 1.42-1.459 1.905a7.23 7.23 0 01-1.895 1.177c-.702.3-1.402.492-2.1.576a8.856 8.856 0 01-2.096-.034 7.442 7.442 0 01-2.379-.76 8.912 8.912 0 01-2.17-1.61c-.672-.676-1.18-1.54-1.522-2.592-.342-1.052-.43-2.19-.266-3.416.29-2.151 1.164-3.828 2.623-5.032 1.45-1.218 3.249-1.682 5.398-1.393 2.15.29 3.875 1.229 5.176 2.817 1.289 1.587 1.784 3.487 1.486 5.7zm-.644-.603c.052-.387.061-.787.028-1.2-.045-.425-.172-.9-.381-1.425a4.88 4.88 0 00-.93-1.463c-.4-.435-.982-.832-1.749-1.19-.764-.37-1.665-.626-2.703-.765-2.15-.29-3.912.04-5.286.987-1.387.946-2.186 2.207-2.398 3.783-.218 1.626.135 3.017 1.062 4.173.926 1.156 2.383 1.868 4.37 2.135 2.15.29 3.963-.045 5.441-1.004 1.466-.962 2.314-2.305 2.546-4.03zm3.227-11.151c-.366 1.075-.815 1.868-1.349 2.38-.176.166-.4.217-.67.151a10.81 10.81 0 01-1.815-.718c-.155-.092-.222-.169-.202-.228.025-.072.134-.081.33-.028 1.516.436 2.583-.253 3.2-2.069.333-.98.32-1.883-.037-2.712-.366-.844-1.068-1.443-2.107-1.796-1.122-.383-2.104-.317-2.944.197-.849.497-1.467 1.24-1.856 2.227-.154.414-.291.6-.41.56-.084-.029-.083-.268.004-.718.474-1.905-.149-3.15-1.868-3.735a3.774 3.774 0 00-1.01-.204 3.248 3.248 0 00-1.017.113c-.352.094-.674.297-.967.61-.293.314-.529.734-.708 1.26-.495 1.457-.06 2.451 1.305 2.982.175.073.248.151.22.235-.029.084-.127.097-.294.04-.179-.06-.488-.153-.925-.275a21.93 21.93 0 01-.908-.269c-.215-.073-.316-.168-.303-.283.008-.064.02-.14.037-.227.008-.104.017-.228.026-.371.009-.144.017-.268.026-.371a8.58 8.58 0 01.426-2.194c.236-.693.536-1.264.902-1.713.365-.448.746-.745 1.142-.89.4-.157.773-.237 1.12-.239.35-.013.682.033.992.138.812.277 1.407.76 1.786 1.448a4.61 4.61 0 01.615 2.129c.012.044.03.05.054.018.181-.338.417-.658.706-.96A5.636 5.636 0 0112.93 57c.389-.282.842-.46 1.361-.537a3.1 3.1 0 011.573.136c1.265.43 2.143 1.276 2.634 2.536.483 1.244.453 2.666-.091 4.267zm3.276-11.077l1.524-2.768c.548-.995.888-1.65 1.02-1.967.02-.09-.021-.133-.123-.132-.948-.134-2.698-.408-5.25-.821a321.971 321.971 0 00-5.831-.904c-.096-.01-.12.02-.071.09l6.829 7.484c.442.504.691.77.747.801.033.018.079 0 .137-.054.186-.258.525-.834 1.018-1.73zm3.314-4.331l-3.086 5.602c-.554 1.006-.933 1.733-1.137 2.182-.21.433-.285.78-.228 1.042.074.257.293.5.657.73.175.125.242.226.2.304-.043.077-.164.06-.363-.049-.31-.17-.94-.475-1.894-.915-.105-.044-.137-.104-.094-.181.238-.301.536-.778.895-1.43.055-.1.032-.227-.069-.384l-8.81-10.046c-.366-.433-.522-.699-.467-.798.043-.078.28-.09.713-.04.124.011 2.004.27 5.641.779 3.627.502 6.277.854 7.95 1.057.152.012.262-.043.329-.165.456-.828.743-1.427.86-1.795.018-.061.042-.091.07-.09.018-.005.056.016.116.064.634.522 1.238.942 1.813 1.259.165.091.227.176.184.253-.042.077-.153.081-.33.012-.732-.346-1.305-.194-1.72.456-.2.308-.609 1.026-1.23 2.153z" fill="#E8E8FF"/><path d="M27.544 35.205l-2.598 3.13c-.056.068-.058.15-.004.243l1.852 3.014c.265.45.534.788.806 1.014a.486.486 0 00.453.105.862.862 0 00.404-.28l.108-.13c.105-.126.187-.165.245-.117.078.065.044.184-.101.359a12.99 12.99 0 01-.549.602c-.235.264-.369.415-.4.454l-.506.638c-.319.424-.59.772-.816 1.044-.153.184-.269.244-.346.18-.059-.049-.031-.141.081-.277.065-.078.152-.202.261-.373.22-.343.29-.695.211-1.055-.088-.368-.276-.803-.564-1.305l-6.297-10.814c-.266-.45-.366-.715-.302-.792.064-.078.328-.04.79.115.129.041.97.33 2.525.868 1.563.527 3.245 1.097 5.049 1.709a417.97 417.97 0 004.018 1.32c1.273.402 2.158.432 2.655.09a2.32 2.32 0 00.558-.495c.089-.107.162-.136.22-.088.078.065.036.194-.125.388a98.895 98.895 0 01-1.925 2.262c-.262.275-.416.393-.465.353-.048-.04-.054-.103-.017-.187.064-.176-.043-.314-.32-.414l-4.705-1.62c-.082-.02-.148 0-.196.059zm-2.989 2.535l2.308-2.781c.048-.059.03-.106-.054-.143l-5.078-1.881c-.28-.118-.34-.045-.18.218l2.866 4.546c.044.086.09.1.138.041zm8.705-12.321l6.327-4.931c.06-.047.066-.1.02-.16l-.245-.313c-1.426-1.832-2.273-2.9-2.54-3.203-.23-.253-.436-.404-.619-.454-.18-.067-.409-.033-.686.103a2.82 2.82 0 00-.543.351c-.08.062-.142.063-.189.003-.062-.08-.013-.181.146-.305.2-.155.437-.332.713-.532.269-.21.501-.383.698-.52l.31-.217.272-.236c.181-.158.386-.325.615-.504.231-.196.411-.344.54-.445.16-.124.27-.146.332-.067.047.06.03.12-.05.183a3.44 3.44 0 00-.337.335c-.168.195-.242.389-.22.58.03.184.14.418.33.702.228.334 1.056 1.417 2.482 3.249l2.046 2.628c1.357 1.742 2.222 2.802 2.598 3.182.223.225.424.38.602.466.18.067.387.035.62-.099.309-.177.548-.331.717-.463.08-.062.143-.063.19-.004.061.08.013.182-.147.306-.238.186-.51.39-.817.613a19.004 19.004 0 01-1.053.773l-.298.232c-.171.15-.373.323-.604.519a16.65 16.65 0 01-.525.433c-.16.124-.27.146-.332.067-.046-.06-.03-.12.05-.183.12-.093.253-.229.4-.408.189-.21.12-.597-.206-1.159-.276-.457-1.092-1.556-2.448-3.298l-1.221-1.568c-.047-.06-.1-.067-.16-.02l-6.326 4.931c-.06.047-.066.1-.02.16l1.22 1.567c1.357 1.743 2.223 2.803 2.599 3.183.223.225.424.38.602.466.18.067.387.034.619-.099a6.35 6.35 0 00.718-.463c.08-.062.143-.064.189-.004.062.08.014.182-.146.306-.238.186-.51.39-.817.613a19.08 19.08 0 01-1.053.772l-.298.233c-.172.15-.373.322-.604.519-.22.188-.396.332-.525.433-.16.124-.27.146-.332.067-.047-.06-.03-.12.05-.183.119-.093.253-.23.4-.409.188-.21.12-.596-.206-1.158-.276-.457-1.092-1.556-2.449-3.299l-2.046-2.628c-1.426-1.831-2.273-2.899-2.541-3.202-.23-.253-.435-.404-.618-.454-.18-.068-.409-.033-.686.103-.143.063-.324.18-.543.35-.08.063-.142.064-.189.004-.062-.08-.013-.181.146-.305.199-.155.436-.333.713-.532.268-.21.501-.383.698-.52.197-.137.3-.21.31-.218.01-.007.1-.086.272-.236.181-.157.386-.325.615-.503.23-.196.411-.345.54-.445.16-.124.27-.146.332-.067.047.06.03.12-.05.183a3.43 3.43 0 00-.338.335c-.168.195-.241.388-.22.58.031.183.142.417.331.702.228.334 1.055 1.417 2.481 3.248l.245.314c.046.06.1.066.159.02zM47.13 11.48l3.919 9.007c.376-1.337 1.057-3.815 2.042-7.433.992-3.635 1.581-5.79 1.767-6.464.267-.958.488-1.476.66-1.552.07-.03.131-.016.185.043.06.043.155.18.284.413.13.232.302.59.515 1.076a709.418 709.418 0 004.257 9.541c.296.642.548 1.075.758 1.3a.759.759 0 00.752.207c.137-.033.372-.109.705-.228.179-.064.283-.062.314.007.035.081-.034.16-.207.236-.242.107-.698.293-1.366.56-.663.277-1.023.429-1.08.454-.105.046-.333.154-.686.323-.336.175-.62.314-.85.415-.173.076-.275.08-.306.01-.035-.08.03-.165.199-.253.244-.134.401-.231.472-.29.21-.148.279-.398.206-.752-.061-.36-.246-.905-.555-1.638a244.07 244.07 0 00-1.96-4.555 602.737 602.737 0 01-1.794-4.173 1235.61 1235.61 0 01-2.223 8.153c-1.075 3.947-1.692 6.162-1.851 6.646-.158.455-.3.71-.428.767-.092.04-.18.01-.266-.09-.069-.094-.177-.308-.324-.643l-4.434-10.084c-.274-.623-.503-1.067-.688-1.33-.19-.275-.349-.433-.477-.473-.133-.052-.31-.05-.534.007a6.968 6.968 0 00-.577.192c-.132.045-.213.032-.243-.037-.036-.081.062-.172.293-.274.196-.086.547-.227 1.054-.422.513-.212.804-.334.873-.364.196-.086.494-.224.893-.414.394-.2.666-.334.816-.4.196-.086.31-.095.34-.025.035.08-.02.16-.164.237-.221.125-.363.208-.428.25-.228.17-.337.376-.327.62.006.232.16.708.464 1.43zm18.527.043l-.71-3.255c-.496-2.268-.799-3.597-.91-3.986-.097-.328-.217-.553-.36-.677-.134-.139-.355-.207-.664-.204a.492.492 0 00-.152.014c-.064.001-.14.011-.226.03a1.14 1.14 0 00-.17.018c-.166.01-.254-.01-.265-.059-.021-.098.066-.169.264-.212a45.379 45.379 0 012.1-.4c2.538-.555 3.947-.869 4.228-.943.45-.124.726-.223.826-.297.088-.07.15-.11.187-.118.05-.01.086.04.11.15.006.025.004.135-.005.33 0 .181.017.372.047.572l.169 1.125c.02.215-.006.33-.08.347-.098.021-.165-.048-.2-.208a1.759 1.759 0 00-.226-.59c-.206-.356-.7-.487-1.48-.394-.328.033-1.176.199-2.544.497-.074.017-.097.086-.07.21l1.114 5.103c.027.124.077.177.151.161 1.676-.366 2.653-.592 2.93-.679.46-.139.746-.31.856-.516.072-.144.132-.222.181-.233.062-.014.104.03.125.128a.85.85 0 010 .174l.025.382c.01.166.028.336.053.512.024.227.064.496.119.807l.082.466c.016.19-.007.292-.069.306-.086.019-.15-.07-.194-.268a1.68 1.68 0 00-.187-.501c-.161-.327-.526-.46-1.094-.4-.568.059-1.455.22-2.663.484-.086.019-.12.071-.101.157l.355 1.628.21.961.307 1.406.174.795c.113.401.23.699.35.892a.806.806 0 00.554.325c.296.051.819-.005 1.57-.169.74-.161 1.282-.338 1.627-.53.265-.148.443-.335.536-.562.09-.24.126-.576.108-1.012-.003-.193.032-.297.106-.313.074-.017.131.068.171.253.02.086.049.37.09.852.04.482.061.813.062.994-.01.248-.067.402-.17.463-.1.074-.341.152-.723.236-.358.078-1.261.255-2.71.533-1.487.286-2.261.436-2.323.45a9.71 9.71 0 00-.639.178c-.302.091-.541.15-.716.175-.197.043-.307.016-.328-.083-.011-.05.049-.101.179-.155.228-.076.366-.126.413-.149.21-.097.34-.274.387-.53.06-.258.026-.71-.101-1.353-.186-.967-.414-2.073-.686-3.318zm23.46 3.534c-2.646-.104-4.699-.866-6.158-2.286-1.472-1.434-2.162-3.33-2.07-5.688.03-.794.228-1.658.592-2.59.365-.933.94-1.763 1.725-2.49 1.4-1.297 3.348-1.896 5.843-1.8 1.009.04 1.92.152 2.732.335.175.044.84.165 1.993.362.113.017.167.088.162.214-.001.038-.01.1-.026.189a4.554 4.554 0 00-.052.358c-.018.15-.037.32-.057.509-.022.226-.049.591-.08 1.095-.032.491-.05.775-.053.85-.022.265-.084.395-.185.391-.1-.004-.146-.138-.136-.403.032-.832-.207-1.486-.719-1.96-.341-.316-.854-.589-1.54-.818A7.332 7.332 0 0088.89.917c-1.953-.076-3.42.328-4.4 1.211a5.003 5.003 0 00-1.426 2.085c-.27.785-.426 1.714-.467 2.785-.073 1.866.507 3.512 1.74 4.936 1.244 1.425 2.85 2.176 4.815 2.253 1.575.061 2.684-.211 3.326-.818.367-.352.62-.872.76-1.561.046-.188.113-.28.2-.276.089.003.13.1.122.288-.004.101-.068.459-.193 1.073-.112.614-.218 1.058-.317 1.332-.057.175-.112.292-.165.354-.052.048-.168.107-.347.175-.73.262-1.87.363-3.42.303zm13.983-3.635l-3.955-.948c-.086-.02-.159.014-.22.103l-1.882 2.993c-.287.438-.47.828-.553 1.172a.487.487 0 00.105.453.862.862 0 00.43.24l.165.04c.16.037.23.093.213.167-.024.098-.146.12-.367.068a13.103 13.103 0 01-.782-.227 32.73 32.73 0 00-.584-.16l-.796-.17c-.52-.1-.953-.19-1.296-.272-.233-.056-.338-.133-.315-.231.018-.074.113-.09.284-.05.099.024.249.048.45.07.405.045.751-.047 1.04-.277.29-.241.598-.602.92-1.083l6.911-10.429c.287-.437.479-.644.577-.62.098.023.18.276.246.76.02.134.133 1.017.338 2.65.219 1.635.452 3.397.7 5.286.261 1.892.458 3.288.593 4.19.202 1.32.567 2.127 1.093 2.422.203.127.433.22.691.283.135.032.193.085.176.159-.024.098-.158.117-.403.059-1.08-.26-2.04-.502-2.88-.73-.362-.112-.536-.2-.521-.26.015-.062.068-.095.16-.099.186-.02.262-.177.229-.47l-.627-4.938c-.02-.083-.066-.133-.14-.15zM99.506 9.86l3.514.843c.073.017.108-.02.104-.112l-.558-5.388c-.019-.303-.111-.325-.276-.067l-2.808 4.582c-.058.077-.05.124.024.142zm15.913-1.285l-4.295 8.833c1.26-.583 3.585-1.675 6.974-3.276 3.406-1.607 5.425-2.559 6.058-2.856.902-.42 1.438-.588 1.609-.506.068.033.097.09.087.168.007.074-.036.235-.128.485-.093.25-.254.613-.484 1.09a712.914 712.914 0 00-4.481 9.437c-.295.642-.46 1.115-.495 1.42a.76.76 0 00.332.707c.114.083.324.212.632.388.165.094.231.175.198.243-.039.08-.143.078-.313-.004a48.73 48.73 0 01-1.313-.675c-.642-.324-.992-.5-1.049-.527a31.66 31.66 0 00-.689-.311 14.595 14.595 0 01-.869-.377c-.17-.082-.239-.157-.206-.226.038-.08.145-.084.321-.013.261.098.437.155.527.17.249.064.484-.046.706-.332.233-.28.527-.775.883-1.485.521-1.024 1.25-2.507 2.186-4.451a571.45 571.45 0 012.004-4.075c-1.383.663-3.929 1.865-7.638 3.606-3.697 1.747-5.781 2.717-6.252 2.91-.448.176-.735.233-.86.173-.091-.044-.126-.13-.105-.26.026-.114.119-.335.278-.665l4.778-9.923c.296-.614.483-1.076.563-1.388.086-.323.102-.546.05-.67-.047-.134-.165-.268-.353-.4a7.196 7.196 0 00-.521-.315c-.119-.072-.162-.141-.13-.21.039-.08.172-.064.399.045.193.094.528.27 1.006.528.494.252.776.395.844.428.193.093.491.23.894.41.409.169.687.29.835.36.193.093.273.174.24.242-.038.08-.134.09-.287.03a9.598 9.598 0 00-.468-.163c-.277-.063-.505-.012-.683.154-.173.155-.434.582-.785 1.281zm3.544-4.131a.511.511 0 01.2-.198c.134-.075.288-.134.463-.176.179-.053.292-.07.337-.047.057.027.075.078.053.151-.096.374.012.804.324 1.291.323.492.859.919 1.609 1.28 1.148.554 2.27.577 3.369.07.14-.058.238-.074.295-.047.023.011.034.031.035.06 0 .027-.016.062-.05.102a.473.473 0 01-.125.086 4.7 4.7 0 01-2.241.642 4.981 4.981 0 01-2.301-.5c-.863-.416-1.475-.964-1.834-1.641-.216-.454-.26-.812-.134-1.073zm16.949 14.644l-4.906 6.324c-1.353 1.744-2.167 2.845-2.442 3.302-.163.273-.264.506-.303.7-.021.19.062.383.248.575.248.257.457.45.626.582.08.062.096.123.05.183-.062.08-.172.058-.332-.066-.239-.186-.504-.4-.795-.642a19.329 19.329 0 01-1.008-.83l-.299-.233a60.9 60.9 0 01-.651-.458c-.237-.168-.42-.302-.549-.402-.16-.124-.209-.226-.147-.306.047-.06.11-.059.189.003.12.093.285.19.495.289.25.13.607-.032 1.071-.486.375-.38 1.239-1.442 2.592-3.186l4.906-6.324a75.263 75.263 0 00-1.117-.844 76.472 76.472 0 01-1.118-.844c-.476-.353-.85-.58-1.124-.681a1.084 1.084 0 00-.771-.024 4.01 4.01 0 00-.614.266c-.117.069-.205.08-.265.033-.05-.038-.04-.103.03-.192.123-.16.635-.593 1.535-1.3.206-.143.33-.199.369-.168.02.016.072.104.155.264.091.15.212.293.364.426.439.422.813.752 1.122.992l5.604 4.353c.439.34.812.59 1.119.75l.203.109c.077.044.135.073.172.086.048.021.082.04.102.055.049.039.028.118-.065.237-.131.17-.381.471-.749.904-.358.44-.548.676-.572.706-.1.13-.185.167-.255.113-.07-.054-.044-.17.078-.347a.32.32 0 00.043-.086 8.5 8.5 0 00.069-.09c.36-.567-.04-1.317-1.2-2.25a56.802 56.802 0 01-.93-.746 49.13 49.13 0 00-.93-.747zm1.052 19.992c-.646-.759-1.129-1.55-1.448-2.371-.31-.83-.458-1.616-.444-2.358a7.24 7.24 0 01.389-2.198 7.7 7.7 0 01.973-1.95 8.844 8.844 0 011.424-1.537 7.44 7.44 0 012.153-1.266c.83-.31 1.712-.49 2.646-.54.952-.05 1.934.149 2.945.596 1.011.448 1.918 1.142 2.72 2.083 1.407 1.651 2.072 3.423 1.994 5.314-.061 1.893-.917 3.543-2.567 4.951-1.65 1.408-3.501 2.066-5.551 1.975-2.04-.1-3.785-1-5.234-2.7zm.879-.078c.254.298.545.572.874.822.347.25.785.474 1.316.668.548.196 1.117.29 1.708.284.591-.007 1.275-.176 2.053-.508.786-.322 1.577-.823 2.374-1.503 1.65-1.408 2.581-2.94 2.793-4.597.222-1.665-.183-3.103-1.214-4.313-1.064-1.248-2.336-1.913-3.814-1.995-1.478-.082-2.981.528-4.506 1.83-1.65 1.408-2.612 2.983-2.884 4.724-.263 1.734.17 3.263 1.3 4.588zm10.901 6.465l2.925-1.59c2.039-1.108 3.23-1.77 3.573-1.985.287-.184.47-.363.548-.535.096-.167.1-.399.011-.695a2.31 2.31 0 00-.212-.51c-.079-.143-.085-.233-.018-.27.089-.048.181.017.277.194.121.222.257.486.408.791.163.3.296.557.399.774l.164.342c.054.1.198.352.432.756.245.398.446.741.602 1.03.35.643.562 1.245.638 1.807.075.563.035 1.03-.122 1.402a3.557 3.557 0 01-.536.916 2.33 2.33 0 01-.667.556 3.41 3.41 0 01-1.374.402c-.478.045-.871.036-1.178-.027a26.309 26.309 0 01-1.288-.312c.164.858.102 1.747-.189 2.665-.284.93-.869 1.636-1.756 2.118-.975.53-2.024.62-3.148.268s-2.05-1.198-2.778-2.54a3.943 3.943 0 01-.137-.292 8.291 8.291 0 01-.228-.458 8.634 8.634 0 00-.236-.475 19.705 19.705 0 00-.501-1.041c-.096-.178-.246-.44-.45-.79a15.776 15.776 0 01-.485-.813c-.096-.178-.106-.287-.028-.33.078-.042.161.02.252.187.066.122.155.246.266.372.171.209.566.195 1.184-.04.496-.198 1.713-.824 3.652-1.877zm7.737-2.482l-4.455 2.421c-.088.048-.128.12-.119.216.1.29.261.64.484 1.05.265.489.468.81.608.962.152.148.367.253.646.317.671.153 1.339.048 2.004-.313.776-.422 1.344-.975 1.704-1.659.367-.673.345-1.386-.064-2.14a3.802 3.802 0 00-.517-.754c-.105-.115-.203-.148-.291-.1zm-5.269 2.864l-.948.515c-2.227 1.21-3.421 1.866-3.581 1.967-.32.203-.538.343-.654.42a.995.995 0 00-.251.331 1.012 1.012 0 00-.084.52c.02.434.202.967.545 1.599.139.255.308.486.506.694.216.213.474.396.773.55.304.164.659.237 1.065.218.417-.026.847-.159 1.29-.4a5.318 5.318 0 001.604-1.367c.477-.575.758-1.26.844-2.053.05-.515-.039-1.063-.267-1.642-.057-.157-.28-.595-.672-1.316-.036-.066-.093-.078-.17-.036z" fill="#E8E8FF"/></svg>