<svg width="66" height="299" fill="none" xmlns="http://www.w3.org/2000/svg"><path d="M0 10C0 4.477 4.477 0 10 0h56v289c0 5.523-4.477 10-10 10H10c-5.523 0-10-4.477-10-10V10z" fill="url(#paint0_linear_141_3358)"/><path d="M40 34.36H26V31.8h11.8v-7.26H26v-2.56h14v12.38zm-14.14 8.428c0-1.08.233-2.054.7-2.92a5.195 5.195 0 011.94-2.04c.84-.48 1.787-.72 2.84-.72s1.993.24 2.82.72a5.195 5.195 0 011.94 2.04c.467.866.7 1.84.7 2.92 0 1.093-.233 2.073-.7 2.94a5.056 5.056 0 01-1.94 2.02c-.827.493-1.767.74-2.82.74s-2-.247-2.84-.74a5.056 5.056 0 01-1.94-2.02c-.467-.867-.7-1.847-.7-2.94zm2.14 0c0 .92.307 1.68.92 2.28.613.6 1.42.9 2.42.9s1.807-.3 2.42-.9c.613-.6.92-1.36.92-2.28 0-.92-.307-1.68-.92-2.28-.613-.587-1.42-.88-2.42-.88s-1.807.293-2.42.88c-.613.6-.92 1.36-.92 2.28zm8.68 17.732H26v-2.5h8.56v-4l-2.12-.1c-1.413-.067-2.6-.2-3.56-.4-.947-.187-1.7-.513-2.26-.98-.547-.453-.82-1.08-.82-1.88 0-.373.073-.833.22-1.38l2.1.12a2.35 2.35 0 00-.06.48c0 .507.2.887.6 1.14.413.253.9.413 1.46.48.573.08 1.387.147 2.44.2l4.12.18v8.64zm0 13.447l-11.54-5c-1.16-.467-1.973-1.033-2.44-1.7-.48-.667-.72-1.473-.72-2.42 0-.533.087-1.06.26-1.58.173-.52.413-.947.72-1.28l1.84 1a2.75 2.75 0 00-.54.84c-.133.333-.2.667-.2 1 0 .44.113.8.34 1.08.227.293.607.56 1.14.8l.42.18 10.72-4.66v2.6l-7.9 3.36 7.9 3.38v2.4zm0 10.796H26v-2.5h4.14a7.347 7.347 0 01-.74-3.22c0-1.373.313-2.426.94-3.16.64-.733 1.613-1.1 2.92-1.1h3.42v2.5h-3.26c-.68 0-1.187.2-1.52.6-.333.4-.5.967-.5 1.7 0 .934.2 1.827.6 2.68h4.68v2.5zm0 3.362v2.5h-7.04l7.04 5.9v2.28H26v-2.5h7.04L26 90.425v-2.3h10.68zm-2.12 22.503v-3.74H26v-2.5h8.56v-3.76h2.12v10h-2.12zm-1.4 7.174c0 1.36-.307 2.4-.92 3.12-.613.733-1.48 1.1-2.6 1.1-1.173 0-2.08-.4-2.72-1.2-.64-.8-.953-1.927-.94-3.38l.02-5h10.68v2.5h-3.5l-.02 2.86zm-5.34-.58c-.013.733.14 1.293.46 1.68.32.386.787.58 1.4.58.6 0 1.04-.187 1.32-.56.28-.374.427-.94.44-1.7l.02-2.28h-3.62l-.02 2.28zm8.86 22.764H26v-2.48h8.56v-5.26H26v-2.5h10.68v10.24zm.12 9.294c0 1.04-.227 1.966-.68 2.78A4.892 4.892 0 0134.2 154c-.827.466-1.78.7-2.86.7-1.08 0-2.04-.234-2.88-.7a4.892 4.892 0 01-1.92-1.94c-.453-.814-.68-1.74-.68-2.78 0-1.44.48-2.58 1.44-3.42h-5.18v-2.5h14.56v2.38h-1.4c.507.413.887.92 1.14 1.52.253.613.38 1.286.38 2.02zM28 149c0 .92.307 1.673.92 2.26.613.6 1.42.9 2.42.9s1.807-.3 2.42-.9c.613-.587.92-1.34.92-2.26 0-.6-.14-1.14-.42-1.62a2.894 2.894 0 00-1.16-1.14c-.507-.28-1.093-.42-1.76-.42s-1.253.14-1.76.42c-.507.28-.9.66-1.18 1.14-.267.48-.4 1.02-.4 1.62zm3.28 18.188a9.93 9.93 0 01-.74-.04v-8.38c-.787.146-1.413.526-1.88 1.14-.453.626-.68 1.4-.68 2.32 0 1.173.387 2.14 1.16 2.9l-1.54 1.34a4.517 4.517 0 01-1.3-1.82c-.293-.734-.44-1.56-.44-2.48 0-1.174.233-2.207.7-3.1.467-.894 1.113-1.587 1.94-2.08.84-.48 1.787-.72 2.84-.72 1.04 0 1.973.233 2.8.7.84.48 1.493 1.14 1.96 1.98.467.84.7 1.786.7 2.84 0 1.04-.233 1.966-.7 2.78a4.73 4.73 0 01-1.94 1.92c-.827.466-1.787.7-2.88.7zm3.52-5.4c0-.8-.24-1.48-.72-2.04-.467-.547-1.093-.88-1.88-1v6.06c.773-.107 1.4-.434 1.88-.98.48-.547.72-1.227.72-2.04zm-6.68 19.397h-4.5v-2.34H26v-8.24h-2.38v-2.32h4.5v.5c.027.68.46 1.14 1.3 1.38.853.254 2.053.42 3.6.5l3.66.14v8.8h-8.56v1.58zm4.72-8.24c-1.227-.053-2.227-.153-3-.3-.773-.146-1.347-.413-1.72-.8v5.26h6.44v-4.1l-1.72-.06zm3.84 20.153H26v-2.5h8.56v-4l-2.12-.1c-1.413-.066-2.6-.2-3.56-.4-.947-.186-1.7-.513-2.26-.98-.547-.453-.82-1.08-.82-1.88 0-.373.073-.833.22-1.38l2.1.12a2.35 2.35 0 00-.06.48c0 .507.2.887.6 1.14.413.254.9.414 1.46.48.573.08 1.387.147 2.44.2l4.12.18v8.64zm-10.82 8.127c0-1.08.233-2.053.7-2.92a5.191 5.191 0 011.94-2.04c.84-.48 1.787-.72 2.84-.72s1.993.24 2.82.72a5.191 5.191 0 011.94 2.04c.467.867.7 1.84.7 2.92 0 1.093-.233 2.073-.7 2.94a5.053 5.053 0 01-1.94 2.02c-.827.493-1.767.74-2.82.74s-2-.247-2.84-.74a5.053 5.053 0 01-1.94-2.02c-.467-.867-.7-1.847-.7-2.94zm2.14 0c0 .92.307 1.68.92 2.28.613.6 1.42.9 2.42.9s1.807-.3 2.42-.9c.613-.6.92-1.36.92-2.28 0-.92-.307-1.68-.92-2.28-.613-.587-1.42-.88-2.42-.88s-1.807.293-2.42.88c-.613.6-.92 1.36-.92 2.28zm2.28 17.958v-1.8H26v-2.48h4.28v-1.8l-4.28-2.6v-2.96l5.52 3.5 5.16-3.24v2.66l-4.32 2.6v1.84h4.32v2.48h-4.32v1.82l4.32 2.62v2.66l-5.16-3.24-5.52 3.52v-2.98l4.28-2.6zm1 17.087c-.173 0-.42-.013-.74-.04v-8.38c-.787.147-1.413.527-1.88 1.14-.453.627-.68 1.4-.68 2.32 0 1.173.387 2.14 1.16 2.9l-1.54 1.34a4.517 4.517 0 01-1.3-1.82c-.293-.733-.44-1.56-.44-2.48 0-1.173.233-2.207.7-3.1.467-.893 1.113-1.587 1.94-2.08.84-.48 1.787-.72 2.84-.72 1.04 0 1.973.233 2.8.7.84.48 1.493 1.14 1.96 1.98.467.84.7 1.787.7 2.84 0 1.04-.233 1.967-.7 2.78a4.718 4.718 0 01-1.94 1.92c-.827.467-1.787.7-2.88.7zm3.52-5.4c0-.8-.24-1.48-.72-2.04-.467-.547-1.093-.88-1.88-1v6.06c.773-.107 1.4-.433 1.88-.98.48-.547.72-1.227.72-2.04zm1.88 8.134v2.5h-4.34v5.38h4.34v2.5H26v-2.5h4.22v-5.38H26v-2.5h10.68zm0 13.731v2.5h-7.04l7.04 5.9v2.28H26v-2.5h7.04l-7.04-5.88v-2.3h10.68zm-5.4 24.043a9.93 9.93 0 01-.74-.04v-8.38c-.787.146-1.413.526-1.88 1.14-.453.626-.68 1.4-.68 2.32 0 1.173.387 2.14 1.16 2.9l-1.54 1.34a4.517 4.517 0 01-1.3-1.82c-.293-.734-.44-1.56-.44-2.48 0-1.174.233-2.207.7-3.1.467-.894 1.113-1.587 1.94-2.08.84-.48 1.787-.72 2.84-.72 1.04 0 1.973.233 2.8.7.84.48 1.493 1.14 1.96 1.98.467.84.7 1.786.7 2.84 0 1.04-.233 1.966-.7 2.78a4.73 4.73 0 01-1.94 1.92c-.827.466-1.787.7-2.88.7zm3.52-5.4c0-.8-.24-1.48-.72-2.04-.467-.547-1.093-.88-1.88-1v6.06c.773-.107 1.4-.434 1.88-.98.48-.547.72-1.227.72-2.04z" fill="#fff"/><defs><linearGradient id="paint0_linear_141_3358" x1="33" y1="0" x2="33" y2="299" gradientUnits="userSpaceOnUse"><stop stop-color="#1932C9"/><stop offset="1" stop-color="#251176"/></linearGradient></defs></svg>