<svg width="105" height="29" fill="none" xmlns="http://www.w3.org/2000/svg"><g style="mix-blend-mode:overlay" opacity=".2" fill="#fff"><circle cx="2.929" cy="8.286" r="2.071"/><path d="M13.286 8.286a2.071 2.071 0 11-4.143 0 2.071 2.071 0 014.143 0z"/><circle cx="19.5" cy="8.286" r="2.071"/><circle cx="27.786" cy="8.286" r="2.071"/><path d="M38.143 8.286a2.071 2.071 0 11-4.143 0 2.071 2.071 0 014.143 0z"/><circle cx="44.358" cy="8.286" r="2.071"/><circle cx="52.643" cy="8.286" r="2.071"/><path d="M63 8.286a2.071 2.071 0 11-4.143 0 2.071 2.071 0 014.143 0z"/><circle cx="69.215" cy="8.286" r="2.071"/><path d="M13.286 2.071a2.071 2.071 0 11-4.143 0 2.071 2.071 0 014.143 0z"/><circle cx="19.5" cy="2.071" r="2.071"/><circle cx="27.786" cy="2.071" r="2.071"/><path d="M38.143 2.071a2.071 2.071 0 11-4.143 0 2.071 2.071 0 014.143 0z"/><circle cx="44.358" cy="2.071" r="2.071"/><circle cx="52.643" cy="2.071" r="2.071"/><path d="M63 2.071a2.071 2.071 0 11-4.143 0 2.071 2.071 0 014.143 0z"/><circle cx="69.215" cy="2.071" r="2.071"/><circle cx="2.929" cy="14.5" r="2.071"/><path d="M13.286 14.5a2.071 2.071 0 11-4.143 0 2.071 2.071 0 014.143 0z"/><circle cx="19.5" cy="14.5" r="2.071"/><circle cx="27.786" cy="14.5" r="2.071"/><path d="M38.143 14.5a2.071 2.071 0 11-4.143 0 2.071 2.071 0 014.143 0z"/><circle cx="44.358" cy="14.5" r="2.071"/><circle cx="52.643" cy="14.5" r="2.071"/><path d="M63 14.5a2.071 2.071 0 11-4.143 0 2.071 2.071 0 014.143 0z"/><circle cx="69.215" cy="14.5" r="2.071"/><circle cx="2.929" cy="20.714" r="2.071"/><path d="M13.286 20.714a2.071 2.071 0 11-4.143 0 2.071 2.071 0 014.143 0z"/><circle cx="19.5" cy="20.714" r="2.071"/><circle cx="27.786" cy="20.714" r="2.071"/><path d="M38.143 20.714a2.071 2.071 0 11-4.143 0 2.071 2.071 0 014.143 0z"/><circle cx="44.358" cy="20.714" r="2.071"/><circle cx="52.643" cy="20.714" r="2.071"/><path d="M63 20.714a2.071 2.071 0 11-4.143 0 2.071 2.071 0 014.143 0z"/><circle cx="69.215" cy="20.714" r="2.071"/><circle cx="2.929" cy="26.929" r="2.071"/><path d="M13.286 26.929a2.071 2.071 0 11-4.143 0 2.071 2.071 0 014.143 0z"/><circle cx="19.5" cy="26.929" r="2.071"/><circle cx="27.786" cy="26.929" r="2.071"/><path d="M38.143 26.929a2.071 2.071 0 11-4.143 0 2.071 2.071 0 014.143 0z"/><circle cx="44.358" cy="26.929" r="2.071"/><circle cx="52.643" cy="26.929" r="2.071"/><path d="M63 26.929a2.071 2.071 0 11-4.143 0 2.071 2.071 0 014.143 0z"/><circle cx="69.215" cy="26.929" r="2.071"/><circle cx="77.5" cy="8.286" r="2.071"/><circle cx="85.786" cy="8.286" r="2.071"/><path d="M96.143 8.286a2.071 2.071 0 11-4.143 0 2.071 2.071 0 014.143 0z"/><circle cx="102.358" cy="8.286" r="2.071"/><circle cx="77.5" cy="2.071" r="2.071"/><circle cx="85.786" cy="2.071" r="2.071"/><path d="M96.143 2.071a2.071 2.071 0 11-4.143 0 2.071 2.071 0 014.143 0z"/><circle cx="102.358" cy="2.071" r="2.071"/><circle cx="77.5" cy="14.5" r="2.071"/><circle cx="85.786" cy="14.5" r="2.071"/><path d="M96.143 14.5a2.071 2.071 0 11-4.143 0 2.071 2.071 0 014.143 0z"/><circle cx="102.358" cy="14.5" r="2.071"/><circle cx="77.5" cy="20.714" r="2.071"/><circle cx="85.786" cy="20.714" r="2.071"/><path d="M96.143 20.714a2.071 2.071 0 11-4.143 0 2.071 2.071 0 014.143 0z"/><circle cx="102.358" cy="20.714" r="2.071"/><circle cx="77.5" cy="26.929" r="2.071"/><circle cx="85.786" cy="26.929" r="2.071"/><path d="M96.143 26.929a2.071 2.071 0 11-4.143 0 2.071 2.071 0 014.143 0z"/><circle cx="102.358" cy="26.929" r="2.071"/></g></svg>