<svg width="28" height="34" viewBox="0 0 28 34" fill="none" xmlns="http://www.w3.org/2000/svg">
<path d="M14 17C12.075 17 10.5 15.47 10.5 13.6C10.5 11.73 12.075 10.2 14 10.2C15.925 10.2 17.5 11.73 17.5 13.6C17.5 15.47 15.925 17 14 17ZM24.5 13.94C24.5 7.769 19.8625 3.4 14 3.4C8.1375 3.4 3.5 7.769 3.5 13.94C3.5 17.918 6.9125 23.188 14 29.478C21.0875 23.188 24.5 17.918 24.5 13.94ZM14 0C21.35 0 28 5.474 28 13.94C28 19.584 23.3275 26.265 14 34C4.6725 26.265 0 19.584 0 13.94C0 5.474 6.65 0 14 0Z" fill="#2EACF3"/>
</svg>
