<svg width="30" height="30" viewBox="0 0 30 30" fill="none" xmlns="http://www.w3.org/2000/svg">
<path d="M26.6667 3.33333V26.6667H3.33333V3.33333H26.6667ZM28.5 0H1.5C0.666667 0 0 0.666667 0 1.5V28.5C0 29.1667 0.666667 30 1.5 30H28.5C29.1667 30 30 29.1667 30 28.5V1.5C30 0.666667 29.1667 0 28.5 0ZM13.3333 6.66667H23.3333V10H13.3333V6.66667ZM13.3333 13.3333H23.3333V16.6667H13.3333V13.3333ZM13.3333 20H23.3333V23.3333H13.3333V20ZM6.66667 6.66667H10V10H6.66667V6.66667ZM6.66667 13.3333H10V16.6667H6.66667V13.3333ZM6.66667 20H10V23.3333H6.66667V20Z" fill="#4233F4"/>
</svg>
