<svg width="34" height="33" viewBox="0 0 34 33" fill="none" xmlns="http://www.w3.org/2000/svg">
<path d="M34 16.2118L30.2291 11.9L30.7545 6.19727L25.1755 4.93L22.2545 0L17 2.25636L11.7455 0L8.82454 4.93L3.24545 6.18182L3.77091 11.9L0 16.2118L3.77091 20.5236L3.24545 26.2418L8.82454 27.5091L11.7455 32.4545L17 30.1827L22.2545 32.4391L25.1755 27.5091L30.7545 26.2418L30.2291 20.5391L34 16.2118ZM27.8955 18.4991L27.03 19.5036L27.1536 20.8173L27.4318 23.8309L24.4955 24.4955L23.1973 24.7891L22.5173 25.9327L20.9873 28.5291L18.2364 27.3391L17 26.8136L15.7791 27.3391L13.0282 28.5291L11.4982 25.9482L10.8182 24.8045L9.52 24.5109L6.58364 23.8464L6.86182 20.8173L6.98545 19.5036L6.12 18.4991L4.12636 16.2273L6.12 13.94L6.98545 12.9355L6.84636 11.6064L6.56818 8.60818L9.50455 7.94364L10.8027 7.65L11.4827 6.50636L13.0127 3.91L15.7636 5.1L17 5.62545L18.2209 5.1L20.9718 3.91L22.5018 6.50636L23.1818 7.65L24.48 7.94364L27.4164 8.60818L27.1382 11.6218L27.0145 12.9355L27.88 13.94L29.8736 16.2118L27.8955 18.4991Z" fill="#2CCBD6"/>
<path d="M14.0478 18.932L10.4623 15.3311L8.17505 17.6338L14.0478 23.522L25.3914 12.1475L23.1041 9.84473L14.0478 18.932Z" fill="#2CCBD6"/>
</svg>
