<svg width="63" height="62" viewBox="0 0 63 62" fill="none" xmlns="http://www.w3.org/2000/svg">
<path d="M58.95 11H4.05C3.24109 11 2.46531 11.2634 1.89332 11.7322C1.32134 12.2011 1 12.837 1 13.5V48.5C1 49.163 1.32134 49.7989 1.89332 50.2678C2.46531 50.7366 3.24109 51 4.05 51H58.95C59.7589 51 60.5347 50.7366 61.1067 50.2678C61.6787 49.7989 62 49.163 62 48.5V13.5C62 12.837 61.6787 12.2011 61.1067 11.7322C60.5347 11.2634 59.7589 11 58.95 11ZM55.9 38.5C53.4733 38.5 51.1459 39.2902 49.43 40.6967C47.714 42.1032 46.75 44.0109 46.75 46H16.25C16.25 44.0109 15.286 42.1032 13.57 40.6967C11.8541 39.2902 9.52673 38.5 7.1 38.5V23.5C9.52673 23.5 11.8541 22.7098 13.57 21.3033C15.286 19.8968 16.25 17.9891 16.25 16H46.75C46.75 17.9891 47.714 19.8968 49.43 21.3033C51.1459 22.7098 53.4733 23.5 55.9 23.5V38.5Z" fill="#DB4B4B"/>
<path d="M31.4982 20.7917C25.8489 20.7917 21.2546 25.3701 21.2546 31C21.2546 36.6299 25.8489 41.2084 31.4982 41.2084C37.1476 41.2084 41.7419 36.6299 41.7419 31C41.7419 25.3701 37.1476 20.7917 31.4982 20.7917ZM31.4982 36.1042C28.6735 36.1042 26.3764 33.815 26.3764 31C26.3764 28.1851 28.6735 25.8959 31.4982 25.8959C34.3229 25.8959 36.6201 28.1851 36.6201 31C36.6201 33.815 34.3229 36.1042 31.4982 36.1042Z" fill="#DB4B4B"/>
</svg>
