<svg width="63" height="63" viewBox="0 0 63 63" fill="none" xmlns="http://www.w3.org/2000/svg">
<path d="M22.6631 51.8751H40.3334L42.8943 41.6667H20.1022L22.6631 51.8751ZM44.3028 56.9792H18.6937L14.8523 41.6667H48.1442L44.3028 56.9792ZM13.5718 36.5626H49.4246V31.4584H13.5718V36.5626ZM31.4982 21.2501C31.4982 16.9966 32.9921 13.3811 35.9798 10.4037C38.9676 7.42628 42.5955 5.93756 46.8637 5.93756C46.8637 9.76569 45.6473 13.0834 43.2144 15.8907C40.7816 18.698 37.7298 20.3994 34.0592 20.9949V26.3542H54.5465V41.6667H8.45001V26.3542H28.9373V20.9949C25.2667 20.3994 22.2149 18.698 19.7821 15.8907C17.3492 13.0834 16.1328 9.76569 16.1328 5.93756C20.4009 5.93756 24.0289 7.42628 27.0166 10.4037C30.0044 13.3811 31.4982 16.9966 31.4982 21.2501Z" fill="#DB4B4B"/>
</svg>
