<svg width="71" height="70" viewBox="0 0 71 70" fill="none" xmlns="http://www.w3.org/2000/svg">
<path fill-rule="evenodd" clip-rule="evenodd" d="M50.132 23.3333C50.132 31.3877 43.5805 37.9167 35.4982 37.9167C27.416 37.9167 20.8644 31.3877 20.8644 23.3333C20.8644 15.279 27.416 8.75 35.4982 8.75C43.5805 8.75 50.132 15.279 50.132 23.3333ZM47.2053 23.3333C47.2053 26.4275 45.9719 29.395 43.7764 31.5829C41.5809 33.7708 38.6031 35 35.4982 35C32.3933 35 29.4156 33.7708 27.2201 31.5829C25.0246 29.395 23.7912 26.4275 23.7912 23.3333C23.7912 20.2391 25.0246 17.2717 27.2201 15.0838C29.4156 12.8958 32.3933 11.6667 35.4982 11.6667C38.6031 11.6667 41.5809 12.8958 43.7764 15.0838C45.9719 17.2717 47.2053 20.2391 47.2053 23.3333Z" fill="#DB4B4B"/>
<path d="M57.4489 35C57.4489 37.2357 55.7997 38.9229 54.5222 39.8927V43.314C54.7124 43.1404 54.9246 42.9844 55.1631 42.8517C57.187 41.7229 59.7918 42.56 61.0664 43.1025C61.3022 43.2009 61.4994 43.373 61.6282 43.593C61.7571 43.813 61.8105 44.0688 61.7805 44.3217C61.6298 45.6473 61.0927 48.1425 59.1684 49.0336C57.5733 49.7729 55.7397 49.6286 54.5222 49.3923V52.064C54.7124 51.8904 54.9246 51.7344 55.1631 51.6017C57.187 50.4744 59.7918 51.31 61.0664 51.8525C61.3022 51.9509 61.4994 52.123 61.6282 52.343C61.7571 52.563 61.8105 52.8188 61.7805 53.0717C61.6298 54.3973 61.0927 56.8925 59.1684 57.7836C57.5733 58.5229 55.7397 58.3786 54.5222 58.1423V59.7917C54.5222 60.1785 54.368 60.5494 54.0936 60.8229C53.8191 61.0964 53.4469 61.25 53.0588 61.25C52.6707 61.25 52.2985 61.0964 52.024 60.8229C51.7496 60.5494 51.5954 60.1785 51.5954 59.7917V58.1438C50.3779 58.3786 48.5443 58.5229 46.9492 57.7836C45.0248 56.894 44.4863 54.3973 44.3371 53.0717C44.3071 52.8188 44.3605 52.563 44.4894 52.343C44.6182 52.123 44.8154 51.9509 45.0512 51.8525C46.3243 51.31 48.9291 50.4744 50.9545 51.6017C51.193 51.7344 51.4066 51.8904 51.5954 52.064V49.3938C50.3779 49.63 48.5443 49.7729 46.9492 49.035C45.0248 48.1454 44.4863 45.6488 44.3371 44.3231C44.3071 44.0702 44.3605 43.8144 44.4894 43.5945C44.6182 43.3745 44.8154 43.2023 45.0512 43.104C46.3243 42.5615 48.9291 41.7244 50.9545 42.8532C51.193 42.9859 51.4066 43.1419 51.5954 43.3154V39.8942C50.3179 38.9229 48.6687 37.2371 48.6687 35.0015C48.6687 32.2263 51.212 30.2954 52.4281 29.5327C52.6165 29.4131 52.8353 29.3495 53.0588 29.3495C53.2823 29.3495 53.5011 29.4131 53.6895 29.5327C54.9041 30.294 57.4489 32.2248 57.4489 35ZM9.15741 51.8263C9.15741 47.1086 14.5573 44.2429 20.8644 42.6242V51.0417H19.4011C19.013 51.0417 18.6407 51.1953 18.3663 51.4688C18.0919 51.7423 17.9377 52.1133 17.9377 52.5V61.25H9.15741V51.8263ZM35.4982 52.5C30.3764 52.5 26.718 51.0417 26.718 51.0417H23.7912V41.9709C25.7282 41.6012 27.6815 41.3219 29.6447 41.1338V43.75C29.6447 44.5236 29.9531 45.2654 30.502 45.8124C31.0508 46.3594 31.7953 46.6667 32.5715 46.6667H38.425C39.2035 46.6667 39.9118 46.3634 40.4357 45.869C40.484 46.0294 40.5352 46.1927 40.5893 46.3604C40.8623 47.2079 41.2253 48.0238 41.6722 48.7944C41.7908 48.9927 41.9283 49.2086 42.0864 49.4317C41.5811 49.722 41.139 50.1097 40.7857 50.5722C40.4324 51.0347 40.1752 51.5626 40.0289 52.1252C38.7323 52.3396 37.1958 52.5 35.4982 52.5ZM35.4982 55.4167C37.0617 55.4158 38.6229 55.2954 40.1679 55.0565C40.2674 55.4838 40.405 56.0073 40.5893 56.5688C40.762 57.0879 40.9947 57.7034 41.3093 58.3334H20.8644V53.9584H26.2072L26.4663 54.0444C26.958 54.2019 27.6531 54.4075 28.5165 54.6102C30.8051 55.1441 33.1477 55.4147 35.4982 55.4167Z" fill="#DB4B4B"/>
</svg>
