<svg width="71" height="70" viewBox="0 0 71 70" fill="none" xmlns="http://www.w3.org/2000/svg">
<g clip-path="url(#clip0_201_241)">
<path d="M45.7318 21.1716C42.7643 18.1907 39.2036 16.9002 35.4914 16.9002C35.1717 16.9002 34.8493 16.9144 34.5296 16.934C33.6069 12.7819 32.3253 8.78125 32.3253 8.78125C32.3253 8.78125 26.7223 12.3357 23.4457 15.6533C19.6561 12.6902 15.2974 9.96133 15.2974 9.96133C15.2974 9.96133 14.3676 16.771 14.6936 21.7594C9.72655 21.4379 2.948 22.3757 2.948 22.3757C2.948 22.3757 5.6653 26.7505 8.6195 30.5561C5.31706 33.8488 1.78128 39.4811 1.78128 39.4811C1.78128 39.4811 5.91912 40.8144 10.1371 41.7415C9.99552 45.679 11.2602 49.473 14.3908 52.6187C21.0179 59.2726 32.5025 62.2188 41.301 62.2188C46.4034 62.2179 50.6036 61.2275 52.4267 59.3955C57.3447 54.4534 56.1531 31.6427 45.7318 21.1716ZM51.1415 58.1165C50.0407 59.2227 46.8763 60.4054 41.301 60.4063C33.0404 60.4063 21.9121 57.6035 15.6768 51.3398C8.50016 44.1293 12.6816 33.3643 19.6045 26.4138C24.404 21.5929 30.3427 18.7135 35.4914 18.7135C38.9649 18.7144 41.9779 19.9702 44.4467 22.4523C48.8179 26.8431 51.9493 34.1837 53.035 42.5894C54.0565 50.5079 52.8568 56.3932 51.1415 58.1165Z" fill="#DB4B4B"/>
<path d="M45.3011 23.3615C42.58 20.6281 39.3149 19.4447 35.911 19.4447C35.6178 19.4447 35.3222 19.4578 35.029 19.4758C34.1829 15.6685 33.0078 12 33.0078 12C33.0078 12 27.8701 15.2593 24.8656 18.3014C21.3906 15.5843 17.3938 13.0821 17.3938 13.0821C17.3938 13.0821 16.5412 19.3263 16.8401 23.9005C12.2856 23.6056 6.06987 24.4656 6.06987 24.4656C6.06987 24.4656 8.56153 28.4771 11.2704 31.9667C8.24221 34.9859 5.00003 40.1505 5.00003 40.1505C5.00003 40.1505 8.79428 41.373 12.662 42.2232C12.5322 45.8337 13.6919 49.3127 16.5625 52.1972C22.6393 58.2985 33.1703 61 41.2382 61C45.9169 60.9992 49.7683 60.091 51.44 58.4112C55.9497 53.8795 54.857 32.963 45.3011 23.3615ZM50.2616 57.2384C49.2522 58.2527 46.3505 59.3373 41.2382 59.3381C33.6635 59.3381 23.4592 56.768 17.7417 51.0244C11.161 44.4127 14.9953 34.5416 21.3432 28.1684C25.7443 23.7478 31.1898 21.1075 35.911 21.1075C39.096 21.1083 41.8588 22.2598 44.1227 24.5358C48.1309 28.562 51.0023 35.293 51.9978 43.0007C52.9345 50.2617 51.8345 55.6582 50.2616 57.2384Z" fill="#DB4B4B"/>
<path d="M45 20.5C42.2789 17.7108 38.3149 17.5967 34.911 17.5967C34.6178 17.5967 34.3222 17.61 34.029 17.6283C33.183 13.7433 32.0078 10 32.0078 10C32.0078 10 26.8701 13.3258 23.8656 16.43C20.3906 13.6575 16.3938 11.1042 16.3938 11.1042C16.3938 11.1042 15.5412 17.4758 15.8401 22.1433C11.2856 21.8425 5.06987 22.72 5.06987 22.72C5.06987 22.72 7.56153 26.8133 10.2704 30.3742C7.24221 33.455 4.00003 38.725 4.00003 38.725C4.00003 38.725 7.79428 39.9725 11.662 40.84C11.5322 44.5242 11.6294 49.0567 14.5 52C20.5769 58.2258 32.1703 60 40.2382 60C44.9169 59.9992 48.7683 59.0725 50.44 57.3583C54.9497 52.7342 54.5559 30.2975 45 20.5ZM49.2616 56.1617C48.2522 57.1967 45.3505 58.3033 40.2382 58.3042C32.6635 58.3042 22.4592 55.6817 16.7417 49.8208C10.161 43.0742 13.9953 33.0017 20.3432 26.4983C24.7443 21.9875 30.1898 20.5 34.911 20.5C38.096 20.5008 40.8588 20.4692 43.1227 22.7917C47.1309 26.9 50.0023 33.7683 50.9978 41.6333C51.9345 49.0425 50.8345 54.5492 49.2616 56.1617Z" fill="#DB4B4B"/>
</g>
<defs>
<clipPath id="clip0_201_241">
<rect width="70.2422" height="70" fill="white" transform="translate(0.377136)"/>
</clipPath>
</defs>
</svg>
