<svg width="60" height="60" viewBox="0 0 60 60" fill="none" xmlns="http://www.w3.org/2000/svg">
<mask id="path-1-outside-1_201_138" maskUnits="userSpaceOnUse" x="5" y="5" width="50" height="50" fill="black">
<rect fill="white" x="5" y="5" width="50" height="50"/>
<path d="M45.4786 17.1296C42.813 14.452 39.6146 13.2928 36.2802 13.2928C35.993 13.2928 35.7034 13.3056 35.4162 13.3232C34.5873 9.5936 33.4361 6 33.4361 6C33.4361 6 28.4033 9.1928 25.4601 12.1728C22.0561 9.5112 18.1409 7.06 18.1409 7.06C18.1409 7.06 17.3057 13.1768 17.5985 17.6576C13.1368 17.3688 7.04801 18.2112 7.04801 18.2112C7.04801 18.2112 9.48882 22.1408 12.1424 25.5592C9.17602 28.5168 6 33.576 6 33.576C6 33.576 9.71682 34.7736 13.5056 35.6064C13.3784 39.1432 14.5144 42.5512 17.3265 45.3768C23.2793 51.3536 33.5953 54 41.4986 54C46.0818 53.9992 49.8546 53.1096 51.4922 51.464C55.9099 47.0248 54.8395 26.5352 45.4786 17.1296ZM50.3378 50.3152C49.349 51.3088 46.5066 52.3712 41.4986 52.372C34.0785 52.372 24.0825 49.8544 18.4817 44.228C12.0352 37.7512 15.7913 28.0816 22.0097 21.8384C26.3209 17.508 31.6553 14.9216 36.2802 14.9216C39.4002 14.9224 42.1066 16.0504 44.3242 18.28C48.2506 22.224 51.0634 28.8176 52.0386 36.368C52.9562 43.4808 51.8786 48.7672 50.3378 50.3152Z"/>
</mask>
<path d="M45.4786 17.1296C42.813 14.452 39.6146 13.2928 36.2802 13.2928C35.993 13.2928 35.7034 13.3056 35.4162 13.3232C34.5873 9.5936 33.4361 6 33.4361 6C33.4361 6 28.4033 9.1928 25.4601 12.1728C22.0561 9.5112 18.1409 7.06 18.1409 7.06C18.1409 7.06 17.3057 13.1768 17.5985 17.6576C13.1368 17.3688 7.04801 18.2112 7.04801 18.2112C7.04801 18.2112 9.48882 22.1408 12.1424 25.5592C9.17602 28.5168 6 33.576 6 33.576C6 33.576 9.71682 34.7736 13.5056 35.6064C13.3784 39.1432 14.5144 42.5512 17.3265 45.3768C23.2793 51.3536 33.5953 54 41.4986 54C46.0818 53.9992 49.8546 53.1096 51.4922 51.464C55.9099 47.0248 54.8395 26.5352 45.4786 17.1296ZM50.3378 50.3152C49.349 51.3088 46.5066 52.3712 41.4986 52.372C34.0785 52.372 24.0825 49.8544 18.4817 44.228C12.0352 37.7512 15.7913 28.0816 22.0097 21.8384C26.3209 17.508 31.6553 14.9216 36.2802 14.9216C39.4002 14.9224 42.1066 16.0504 44.3242 18.28C48.2506 22.224 51.0634 28.8176 52.0386 36.368C52.9562 43.4808 51.8786 48.7672 50.3378 50.3152Z" fill="#DB4B4B"/>
<path d="M35.4162 13.3232L35.1233 13.3883L35.1789 13.6383L35.4345 13.6226L35.4162 13.3232ZM33.4361 6L33.7218 5.90848L33.6034 5.53864L33.2754 5.74668L33.4361 6ZM25.4601 12.1728L25.2753 12.4091L25.4858 12.5737L25.6735 12.3836L25.4601 12.1728ZM18.1409 7.06L18.3001 6.80572L17.9064 6.55929L17.8436 7.01941L18.1409 7.06ZM17.5985 17.6576L17.5791 17.957L17.9201 17.979L17.8978 17.638L17.5985 17.6576ZM7.04801 18.2112L7.00689 17.914L6.54956 17.9773L6.79316 18.3695L7.04801 18.2112ZM12.1424 25.5592L12.3542 25.7716L12.5419 25.5846L12.3794 25.3752L12.1424 25.5592ZM6 33.576L5.74592 33.4165L5.5408 33.7432L5.90799 33.8615L6 33.576ZM13.5056 35.6064L13.8054 35.6172L13.8144 35.3671L13.57 35.3134L13.5056 35.6064ZM17.3265 45.3768L17.1138 45.5884L17.1139 45.5885L17.3265 45.3768ZM41.4986 54V54.3H41.4986L41.4986 54ZM51.4922 51.464L51.7049 51.6756L51.4922 51.464ZM41.4986 52.372V52.672H41.4986L41.4986 52.372ZM18.4817 44.228L18.269 44.4396L18.269 44.4396L18.4817 44.228ZM22.0097 21.8384L22.2222 22.0501L22.2223 22.0501L22.0097 21.8384ZM36.2802 14.9216L36.2802 14.6216H36.2802V14.9216ZM44.3242 18.28L44.1115 18.4916L44.1116 18.4917L44.3242 18.28ZM52.0386 36.368L52.3362 36.3296L52.3362 36.3296L52.0386 36.368ZM45.6912 16.9179C42.9661 14.1805 39.6897 12.9928 36.2802 12.9928V13.5928C39.5395 13.5928 42.6599 14.7235 45.266 17.3413L45.6912 16.9179ZM36.2802 12.9928C35.9844 12.9928 35.6881 13.006 35.3978 13.0238L35.4345 13.6226C35.7186 13.6052 36.0015 13.5928 36.2802 13.5928V12.9928ZM35.709 13.2581C35.2928 11.3853 34.7961 9.54821 34.4037 8.18029C34.2075 7.49606 34.0372 6.92861 33.9158 6.53202C33.8552 6.33372 33.8068 6.1781 33.7735 6.07193C33.7568 6.01885 33.744 5.97812 33.7352 5.9506C33.7309 5.93683 33.7276 5.92637 33.7253 5.91932C33.7242 5.91579 33.7233 5.91311 33.7227 5.9113C33.7225 5.9104 33.7222 5.90971 33.7221 5.90924C33.722 5.909 33.722 5.90882 33.7219 5.90869C33.7219 5.90863 33.7219 5.90858 33.7219 5.90854C33.7218 5.9085 33.7218 5.90848 33.4361 6C33.1504 6.09152 33.1504 6.09152 33.1504 6.09154C33.1505 6.09156 33.1505 6.09159 33.1505 6.09164C33.1505 6.09173 33.1506 6.09187 33.1506 6.09208C33.1507 6.09248 33.1509 6.0931 33.1512 6.09393C33.1517 6.09561 33.1526 6.09814 33.1536 6.10153C33.1558 6.1083 33.159 6.11847 33.1633 6.13194C33.1718 6.15888 33.1845 6.199 33.201 6.25146C33.2339 6.35638 33.2819 6.51065 33.3421 6.70753C33.4625 7.10129 33.6318 7.66534 33.827 8.34571C34.2174 9.70699 34.7107 11.5315 35.1233 13.3883L35.709 13.2581ZM33.4361 6C33.2754 5.74668 33.2754 5.7467 33.2753 5.74674C33.2753 5.74677 33.2752 5.74681 33.2751 5.74687C33.2749 5.74699 33.2747 5.74715 33.2744 5.74736C33.2737 5.74778 33.2727 5.74839 33.2715 5.7492C33.2689 5.75082 33.2652 5.7532 33.2603 5.75633C33.2504 5.7626 33.2359 5.77189 33.2169 5.78409C33.1789 5.80849 33.1229 5.84455 33.0507 5.89143C32.9064 5.98518 32.6972 6.12225 32.4371 6.29597C31.9171 6.64336 31.193 7.13761 30.3765 7.72543C28.7467 8.89879 26.7363 10.4537 25.2467 11.962L25.6735 12.3836C27.1271 10.9119 29.1047 9.38041 30.7271 8.21237C31.5367 7.62949 32.2548 7.13929 32.7704 6.7949C33.0282 6.62274 33.2352 6.48709 33.3776 6.3946C33.4487 6.34835 33.5038 6.3129 33.5409 6.28908C33.5595 6.27717 33.5736 6.26816 33.583 6.26217C33.5877 6.25917 33.5912 6.25693 33.5935 6.25545C33.5947 6.25471 33.5955 6.25416 33.5961 6.25381C33.5964 6.25363 33.5966 6.2535 33.5967 6.25342C33.5968 6.25338 33.5968 6.25336 33.5968 6.25334C33.5968 6.25332 33.5968 6.25332 33.4361 6ZM25.6449 11.9365C23.9351 10.5996 22.0988 9.31697 20.6915 8.36945C19.9875 7.89546 19.3901 7.50482 18.9686 7.23257C18.7578 7.09644 18.5909 6.98989 18.4766 6.91729C18.4194 6.88099 18.3754 6.85318 18.3457 6.8344C18.3308 6.82501 18.3194 6.81788 18.3118 6.81308C18.308 6.81068 18.3051 6.80886 18.3031 6.80763C18.3021 6.80702 18.3014 6.80655 18.3009 6.80623C18.3006 6.80607 18.3004 6.80595 18.3003 6.80587C18.3002 6.80582 18.3002 6.80579 18.3001 6.80577C18.3001 6.80574 18.3001 6.80572 18.1409 7.06C17.9817 7.31428 17.9817 7.31428 17.9817 7.31429C17.9817 7.31431 17.9817 7.31433 17.9818 7.31436C17.9819 7.31442 17.9821 7.31453 17.9823 7.31466C17.9827 7.31494 17.9834 7.31537 17.9843 7.31594C17.9862 7.31709 17.9889 7.31883 17.9926 7.32114C18 7.32578 18.0111 7.33274 18.0257 7.34195C18.0549 7.36038 18.0983 7.38783 18.1549 7.42376C18.268 7.49561 18.4336 7.60135 18.6431 7.7366C19.062 8.00713 19.6561 8.39564 20.3564 8.86715C21.7577 9.81063 23.5811 11.0844 25.2753 12.4091L25.6449 11.9365ZM18.1409 7.06C17.8436 7.01941 17.8436 7.01946 17.8436 7.01953C17.8436 7.01958 17.8436 7.01967 17.8436 7.01978C17.8435 7.01999 17.8435 7.0203 17.8434 7.0207C17.8433 7.0215 17.8432 7.02267 17.843 7.0242C17.8426 7.02728 17.8419 7.03181 17.8411 7.03779C17.8395 7.04973 17.8372 7.06742 17.8341 7.09061C17.828 7.13699 17.8191 7.2054 17.8079 7.29393C17.7855 7.471 17.7539 7.72861 17.7169 8.05161C17.6429 8.69754 17.5473 9.6054 17.4609 10.6539C17.2883 12.7476 17.1512 15.4144 17.2991 17.6772L17.8978 17.638C17.7529 15.42 17.887 12.788 18.0588 10.7031C18.1446 9.6623 18.2395 8.76091 18.313 8.11991C18.3497 7.79945 18.381 7.54418 18.4032 7.36923C18.4142 7.28176 18.423 7.21438 18.429 7.16897C18.432 7.14627 18.4343 7.12906 18.4358 7.11758C18.4366 7.11184 18.4372 7.10754 18.4375 7.1047C18.4377 7.10327 18.4379 7.10222 18.438 7.10153C18.438 7.10119 18.4381 7.10094 18.4381 7.10078C18.4381 7.1007 18.4381 7.10065 18.4381 7.10061C18.4381 7.10059 18.4381 7.10059 18.1409 7.06ZM17.6178 17.3582C15.3646 17.2124 12.7094 17.3523 10.625 17.5272C9.58126 17.6147 8.67747 17.7113 8.03446 17.7861C7.71291 17.8235 7.45646 17.8554 7.28019 17.878C7.19205 17.8893 7.12395 17.8983 7.07777 17.9044C7.05469 17.9075 7.03708 17.9099 7.02519 17.9115C7.01924 17.9123 7.01472 17.913 7.01166 17.9134C7.01013 17.9136 7.00897 17.9137 7.00817 17.9139C7.00777 17.9139 7.00747 17.914 7.00725 17.914C7.00715 17.914 7.00706 17.914 7.007 17.914C7.00694 17.914 7.00689 17.914 7.04801 18.2112C7.08912 18.5084 7.08912 18.5084 7.08915 18.5084C7.08919 18.5084 7.08923 18.5084 7.08931 18.5083C7.08947 18.5083 7.08972 18.5083 7.09006 18.5082C7.09074 18.5081 7.09179 18.508 7.09321 18.5078C7.09604 18.5074 7.10032 18.5068 7.10603 18.5061C7.11745 18.5045 7.13458 18.5022 7.15718 18.4992C7.20237 18.4931 7.26944 18.4843 7.35651 18.4731C7.53065 18.4508 7.78475 18.4192 8.10374 18.3821C8.74181 18.3079 9.63908 18.212 10.6752 18.1251C12.7507 17.9509 15.3707 17.814 17.5791 17.957L17.6178 17.3582ZM7.04801 18.2112C6.79316 18.3695 6.79318 18.3695 6.79321 18.3696C6.79323 18.3696 6.79326 18.3697 6.79331 18.3697C6.79339 18.3699 6.79351 18.3701 6.79367 18.3703C6.79399 18.3708 6.79445 18.3716 6.79506 18.3725C6.79629 18.3745 6.7981 18.3774 6.80049 18.3813C6.80527 18.3889 6.81237 18.4003 6.82172 18.4153C6.84042 18.4452 6.86812 18.4893 6.90426 18.5467C6.97656 18.6614 7.08267 18.8289 7.21825 19.0405C7.4894 19.4636 7.87848 20.0633 8.35067 20.77C9.29459 22.1827 10.5726 24.0261 11.9055 25.7432L12.3794 25.3752C11.0587 23.6739 9.78945 21.8433 8.84956 20.4366C8.37984 19.7336 7.99287 19.1372 7.72344 18.7168C7.58873 18.5065 7.48342 18.3403 7.41187 18.2268C7.37609 18.17 7.34876 18.1264 7.33041 18.0971C7.32123 18.0824 7.3143 18.0713 7.30968 18.0639C7.30738 18.0602 7.30565 18.0574 7.3045 18.0556C7.30393 18.0547 7.30351 18.054 7.30323 18.0535C7.30309 18.0533 7.30299 18.0531 7.30293 18.053C7.3029 18.053 7.30288 18.053 7.30286 18.0529C7.30285 18.0529 7.30285 18.0529 7.04801 18.2112ZM11.9306 25.3468C10.4292 26.8437 8.88193 28.8644 7.7145 30.5026C7.12965 31.3233 6.63794 32.0511 6.29234 32.5738C6.11952 32.8353 5.98317 33.0455 5.8899 33.1906C5.84327 33.2632 5.8074 33.3194 5.78313 33.3577C5.77099 33.3768 5.76176 33.3914 5.75552 33.4013C5.7524 33.4062 5.75003 33.41 5.74843 33.4125C5.74763 33.4138 5.74702 33.4147 5.7466 33.4154C5.74639 33.4157 5.74622 33.416 5.74611 33.4162C5.74606 33.4163 5.74601 33.4164 5.74598 33.4164C5.74594 33.4165 5.74592 33.4165 6 33.576C6.25408 33.7355 6.25408 33.7355 6.25409 33.7355C6.25411 33.7355 6.25414 33.7354 6.25418 33.7354C6.25426 33.7352 6.25439 33.735 6.25456 33.7347C6.25492 33.7342 6.25546 33.7333 6.2562 33.7321C6.25767 33.7298 6.2599 33.7263 6.26288 33.7215C6.26885 33.7121 6.2778 33.6979 6.28965 33.6793C6.31335 33.6419 6.34862 33.5866 6.39462 33.5151C6.48663 33.3719 6.62158 33.1638 6.79286 32.9047C7.13547 32.3865 7.62317 31.6646 8.20312 30.8508C9.36531 29.22 10.8893 27.2323 12.3542 25.7716L11.9306 25.3468ZM6 33.576C5.90799 33.8615 5.90802 33.8616 5.90806 33.8616C5.9081 33.8616 5.90815 33.8616 5.90822 33.8616C5.90835 33.8617 5.90854 33.8617 5.90878 33.8618C5.90927 33.862 5.90998 33.8622 5.91092 33.8625C5.91279 33.8631 5.91555 33.864 5.9192 33.8651C5.9265 33.8675 5.93731 33.8709 5.95153 33.8755C5.97998 33.8845 6.02207 33.8979 6.07691 33.9152C6.18658 33.9498 6.34726 34 6.55182 34.0629C6.96092 34.1886 7.54568 34.3649 8.24908 34.5672C9.65529 34.9717 11.5383 35.4811 13.4412 35.8994L13.57 35.3134C11.6841 34.8989 9.81435 34.3931 8.41494 33.9906C7.71554 33.7894 7.13429 33.6142 6.72809 33.4894C6.525 33.427 6.3657 33.3771 6.25731 33.343C6.20311 33.3259 6.16165 33.3127 6.1338 33.3038C6.11988 33.2994 6.10936 33.296 6.10235 33.2938C6.09885 33.2927 6.09623 33.2918 6.0945 33.2913C6.09364 33.291 6.09299 33.2908 6.09258 33.2906C6.09237 33.2906 6.09222 33.2905 6.09212 33.2905C6.09207 33.2905 6.09205 33.2905 6.09202 33.2905C6.09201 33.2905 6.09201 33.2905 6 33.576ZM13.2058 35.5956C13.0759 39.2093 14.239 42.6998 17.1138 45.5884L17.5391 45.1652C14.7898 42.4026 13.681 39.0771 13.8054 35.6172L13.2058 35.5956ZM17.1139 45.5885C23.1446 51.6435 33.5524 54.3 41.4986 54.3V53.7C33.6383 53.7 23.414 51.0637 17.539 45.1651L17.1139 45.5885ZM41.4986 54.3C43.8079 54.2996 45.9222 54.0755 47.6725 53.6399C49.4156 53.2062 50.83 52.5548 51.7049 51.6756L51.2796 51.2524C50.5169 52.0188 49.2261 52.635 47.5276 53.0577C45.8362 53.4786 43.7725 53.6996 41.4985 53.7L41.4986 54.3ZM51.7049 51.6756C52.881 50.4938 53.6531 48.2976 54.0298 45.5905C54.4087 42.8672 54.3954 39.5687 53.9499 36.1208C53.06 29.2343 50.4368 21.6862 45.6912 16.918L45.266 17.3412C49.8813 21.9786 52.4736 29.3781 53.3548 36.1976C53.7948 39.6027 53.8058 42.8468 53.4355 45.5078C53.063 48.1849 52.3123 50.2146 51.2796 51.2524L51.7049 51.6756ZM50.1252 50.1036C49.6849 50.5461 48.7861 51.0421 47.348 51.4261C45.9183 51.8078 43.9825 52.0716 41.4985 52.072L41.4986 52.672C44.0227 52.6716 46.0121 52.4038 47.5028 52.0057C48.9851 51.6099 50.002 51.0779 50.5505 50.5268L50.1252 50.1036ZM41.4986 52.072C37.8195 52.072 33.4966 51.4474 29.4001 50.1244C25.3015 48.8008 21.4501 46.7848 18.6943 44.0164L18.269 44.4396C21.1141 47.2976 25.0611 49.3536 29.2157 50.6954C33.3724 52.0378 37.7576 52.672 41.4986 52.672V52.072ZM18.6943 44.0164C15.5576 40.8649 14.8964 36.9403 15.7889 33.0121C16.6839 29.0729 19.1419 25.1427 22.2222 22.0501L21.7971 21.6267C18.659 24.7773 16.1298 28.8035 15.2038 32.8791C14.2753 36.9657 14.9593 41.1143 18.269 44.4396L18.6943 44.0164ZM22.2223 22.0501C26.496 17.7573 31.7583 15.2216 36.2802 15.2216V14.6216C31.5523 14.6216 26.1458 17.2587 21.7971 21.6267L22.2223 22.0501ZM36.2801 15.2216C39.3198 15.2224 41.9498 16.3182 44.1115 18.4916L44.5369 18.0684C42.2634 15.7826 39.4806 14.6224 36.2802 14.6216L36.2801 15.2216ZM44.1116 18.4917C47.9769 22.3743 50.7713 28.8978 51.7411 36.4064L52.3362 36.3296C51.3556 28.7374 48.5243 22.0737 44.5368 18.0683L44.1116 18.4917ZM51.7411 36.4064C52.197 39.94 52.1561 43.0122 51.8132 45.3855C51.6418 46.5724 51.3956 47.5793 51.1011 48.3795C50.805 49.1842 50.4674 49.7598 50.1252 50.1036L50.5505 50.5268C50.9787 50.0966 51.3536 49.4309 51.6642 48.5867C51.9765 47.7381 52.2312 46.6886 52.4071 45.4713C52.7588 43.0362 52.7979 39.9088 52.3362 36.3296L51.7411 36.4064Z" fill="#DB4B4B" mask="url(#path-1-outside-1_201_138)"/>
<mask id="path-3-outside-2_201_138" maskUnits="userSpaceOnUse" x="18.2" y="15.8" width="33" height="35" fill="black">
<rect fill="white" x="18.2" y="15.8" width="33" height="35"/>
<path d="M36.9372 19.4632C37.3978 19.7769 37.9054 19.9349 38.3484 19.9357C38.7795 19.9357 39.15 19.7878 39.3612 19.4896C39.7955 18.8863 39.4114 17.8922 38.507 17.2725C38.0448 16.9572 37.5388 16.8 37.0942 16.8C36.6647 16.8 36.2925 16.9479 36.0798 17.2453C35.6471 17.8494 36.0296 18.8443 36.9372 19.4632ZM40.0465 30.6795C39.7877 30.6732 39.5354 30.759 39.3365 30.9208C38.7667 31.4043 38.8926 32.4591 39.617 33.2757C40.0983 33.8168 40.7238 34.1173 41.2561 34.1165C41.527 34.1173 41.774 34.0394 41.9661 33.876C42.5374 33.3925 42.4099 32.3385 41.6856 31.5218C41.2043 30.98 40.5804 30.6803 40.0465 30.6795ZM33.0494 23.8312C32.7989 23.824 32.5542 23.9052 32.3601 24.0601C31.7808 24.5342 31.8884 25.5921 32.6016 26.4197C33.0813 26.9763 33.71 27.2869 34.2463 27.2877C34.5092 27.2877 34.7475 27.2122 34.9371 27.058C35.5164 26.5832 35.4073 25.5275 34.6957 24.6969C34.2168 24.1411 33.5865 23.8304 33.0494 23.8312ZM46.6842 25.8062C46.2714 25.0706 45.5933 24.6152 45.002 24.6152C44.8343 24.6138 44.6688 24.6534 44.5207 24.7304C43.8578 25.0854 43.7502 26.1418 44.2809 27.0907C44.6952 27.8264 45.3702 28.281 45.963 28.281C46.1328 28.281 46.2961 28.2444 46.4443 28.1658C47.1081 27.8116 47.2149 26.7552 46.6842 25.8062ZM48.7169 35.0888C48.6356 35.0888 48.5552 35.0997 48.4755 35.1192C47.744 35.306 47.3766 36.3033 47.6571 37.3503C47.9065 38.2829 48.583 38.9361 49.246 38.9369C49.3273 38.9369 49.4078 38.9267 49.4875 38.9073C50.219 38.7212 50.5863 37.7216 50.3058 36.6746C50.0572 35.7435 49.3783 35.0888 48.7169 35.0888ZM47.7647 44.9195C47.4826 44.9203 47.2276 45.0012 47.0332 45.174C46.473 45.6692 46.6204 46.7209 47.3631 47.5243C47.8468 48.0466 48.4635 48.3323 48.9894 48.3331C49.2715 48.3323 49.5281 48.2506 49.7241 48.077C50.2827 47.5819 50.1353 46.5302 49.391 45.7283C48.9081 45.2075 48.2922 44.9195 47.7647 44.9195ZM31.1609 44.1573C30.7075 43.8584 30.2134 43.7113 29.7776 43.7121C29.3321 43.7121 28.9481 43.8662 28.7345 44.1776C28.3146 44.791 28.7186 45.7766 29.6389 46.3768C30.0931 46.675 30.588 46.8229 31.0222 46.8229C31.4693 46.8229 31.8525 46.6672 32.0653 46.3558C32.486 45.7439 32.0812 44.7576 31.1609 44.1573ZM21.7916 41.5424C21.3382 41.2451 20.8442 41.0979 20.4091 41.0979C19.9621 41.0979 19.5788 41.2528 19.366 41.5627C18.9461 42.1753 19.3501 43.1625 20.2696 43.7619C20.7238 44.0593 21.2187 44.2087 21.6546 44.2079C22.1 44.2079 22.4841 44.053 22.696 43.7409C23.1152 43.129 22.712 42.1434 21.7916 41.5424ZM38.8297 47.7228C38.5073 47.593 38.1624 47.5245 37.8137 47.5212C37.1786 47.5204 36.6479 47.7749 36.4583 48.2296C36.1762 48.9123 36.7802 49.7967 37.8058 50.1999C38.1516 50.3361 38.4998 50.4008 38.8217 50.4C39.4568 50.4 39.9891 50.1478 40.1756 49.6931C40.4592 49.0096 39.8568 48.1268 38.8297 47.7228ZM40.915 39.9956C40.4823 39.7441 40.0234 39.6211 39.6138 39.6211C39.1221 39.6204 38.703 39.7994 38.4934 40.1443C38.1062 40.778 38.5651 41.7425 39.5158 42.2952C39.9485 42.5459 40.4074 42.6689 40.8186 42.6689C41.3087 42.6689 41.7278 42.4906 41.9374 42.1458C42.3238 41.5105 41.8657 40.5468 40.915 39.9956ZM32.4717 34.5906C31.992 34.2014 31.4398 34.0005 30.9617 34.0013C30.5911 34.0005 30.266 34.122 30.0549 34.3703C29.5736 34.9378 29.8724 35.9599 30.7234 36.6497C31.2039 37.0374 31.7569 37.2398 32.235 37.2398C32.6056 37.2398 32.9291 37.1183 33.141 36.87C33.6223 36.3017 33.3251 35.2796 32.4717 34.5906ZM23.9447 23.2793C23.6379 23.2801 23.363 23.3719 23.1622 23.5658C22.6235 24.0835 22.8164 25.1289 23.5917 25.8989C24.0786 26.38 24.6786 26.6408 25.1925 26.6415C25.4985 26.6408 25.7734 26.5489 25.9742 26.3551C26.5129 25.8366 26.3209 24.7919 25.5447 24.0227C25.0571 23.5393 24.4578 23.2801 23.9447 23.2793ZM23.104 32.4272C22.6275 32.059 22.088 31.8698 21.6195 31.8706C21.2338 31.8706 20.8952 31.9975 20.6832 32.2598C20.2139 32.8367 20.5366 33.8526 21.4036 34.5221C21.8801 34.8911 22.4203 35.0787 22.8889 35.0787C23.2745 35.0787 23.6124 34.9534 23.8244 34.6902C24.2921 34.1126 23.971 33.0983 23.104 32.4272Z"/>
</mask>
<path d="M36.9372 19.4632C37.3978 19.7769 37.9054 19.9349 38.3484 19.9357C38.7795 19.9357 39.15 19.7878 39.3612 19.4896C39.7955 18.8863 39.4114 17.8922 38.507 17.2725C38.0448 16.9572 37.5388 16.8 37.0942 16.8C36.6647 16.8 36.2925 16.9479 36.0798 17.2453C35.6471 17.8494 36.0296 18.8443 36.9372 19.4632ZM40.0465 30.6795C39.7877 30.6732 39.5354 30.759 39.3365 30.9208C38.7667 31.4043 38.8926 32.4591 39.617 33.2757C40.0983 33.8168 40.7238 34.1173 41.2561 34.1165C41.527 34.1173 41.774 34.0394 41.9661 33.876C42.5374 33.3925 42.4099 32.3385 41.6856 31.5218C41.2043 30.98 40.5804 30.6803 40.0465 30.6795ZM33.0494 23.8312C32.7989 23.824 32.5542 23.9052 32.3601 24.0601C31.7808 24.5342 31.8884 25.5921 32.6016 26.4197C33.0813 26.9763 33.71 27.2869 34.2463 27.2877C34.5092 27.2877 34.7475 27.2122 34.9371 27.058C35.5164 26.5832 35.4073 25.5275 34.6957 24.6969C34.2168 24.1411 33.5865 23.8304 33.0494 23.8312ZM46.6842 25.8062C46.2714 25.0706 45.5933 24.6152 45.002 24.6152C44.8343 24.6138 44.6688 24.6534 44.5207 24.7304C43.8578 25.0854 43.7502 26.1418 44.2809 27.0907C44.6952 27.8264 45.3702 28.281 45.963 28.281C46.1328 28.281 46.2961 28.2444 46.4443 28.1658C47.1081 27.8116 47.2149 26.7552 46.6842 25.8062ZM48.7169 35.0888C48.6356 35.0888 48.5552 35.0997 48.4755 35.1192C47.744 35.306 47.3766 36.3033 47.6571 37.3503C47.9065 38.2829 48.583 38.9361 49.246 38.9369C49.3273 38.9369 49.4078 38.9267 49.4875 38.9073C50.219 38.7212 50.5863 37.7216 50.3058 36.6746C50.0572 35.7435 49.3783 35.0888 48.7169 35.0888ZM47.7647 44.9195C47.4826 44.9203 47.2276 45.0012 47.0332 45.174C46.473 45.6692 46.6204 46.7209 47.3631 47.5243C47.8468 48.0466 48.4635 48.3323 48.9894 48.3331C49.2715 48.3323 49.5281 48.2506 49.7241 48.077C50.2827 47.5819 50.1353 46.5302 49.391 45.7283C48.9081 45.2075 48.2922 44.9195 47.7647 44.9195ZM31.1609 44.1573C30.7075 43.8584 30.2134 43.7113 29.7776 43.7121C29.3321 43.7121 28.9481 43.8662 28.7345 44.1776C28.3146 44.791 28.7186 45.7766 29.6389 46.3768C30.0931 46.675 30.588 46.8229 31.0222 46.8229C31.4693 46.8229 31.8525 46.6672 32.0653 46.3558C32.486 45.7439 32.0812 44.7576 31.1609 44.1573ZM21.7916 41.5424C21.3382 41.2451 20.8442 41.0979 20.4091 41.0979C19.9621 41.0979 19.5788 41.2528 19.366 41.5627C18.9461 42.1753 19.3501 43.1625 20.2696 43.7619C20.7238 44.0593 21.2187 44.2087 21.6546 44.2079C22.1 44.2079 22.4841 44.053 22.696 43.7409C23.1152 43.129 22.712 42.1434 21.7916 41.5424ZM38.8297 47.7228C38.5073 47.593 38.1624 47.5245 37.8137 47.5212C37.1786 47.5204 36.6479 47.7749 36.4583 48.2296C36.1762 48.9123 36.7802 49.7967 37.8058 50.1999C38.1516 50.3361 38.4998 50.4008 38.8217 50.4C39.4568 50.4 39.9891 50.1478 40.1756 49.6931C40.4592 49.0096 39.8568 48.1268 38.8297 47.7228ZM40.915 39.9956C40.4823 39.7441 40.0234 39.6211 39.6138 39.6211C39.1221 39.6204 38.703 39.7994 38.4934 40.1443C38.1062 40.778 38.5651 41.7425 39.5158 42.2952C39.9485 42.5459 40.4074 42.6689 40.8186 42.6689C41.3087 42.6689 41.7278 42.4906 41.9374 42.1458C42.3238 41.5105 41.8657 40.5468 40.915 39.9956ZM32.4717 34.5906C31.992 34.2014 31.4398 34.0005 30.9617 34.0013C30.5911 34.0005 30.266 34.122 30.0549 34.3703C29.5736 34.9378 29.8724 35.9599 30.7234 36.6497C31.2039 37.0374 31.7569 37.2398 32.235 37.2398C32.6056 37.2398 32.9291 37.1183 33.141 36.87C33.6223 36.3017 33.3251 35.2796 32.4717 34.5906ZM23.9447 23.2793C23.6379 23.2801 23.363 23.3719 23.1622 23.5658C22.6235 24.0835 22.8164 25.1289 23.5917 25.8989C24.0786 26.38 24.6786 26.6408 25.1925 26.6415C25.4985 26.6408 25.7734 26.5489 25.9742 26.3551C26.5129 25.8366 26.3209 24.7919 25.5447 24.0227C25.0571 23.5393 24.4578 23.2801 23.9447 23.2793ZM23.104 32.4272C22.6275 32.059 22.088 31.8698 21.6195 31.8706C21.2338 31.8706 20.8952 31.9975 20.6832 32.2598C20.2139 32.8367 20.5366 33.8526 21.4036 34.5221C21.8801 34.8911 22.4203 35.0787 22.8889 35.0787C23.2745 35.0787 23.6124 34.9534 23.8244 34.6902C24.2921 34.1126 23.971 33.0983 23.104 32.4272Z" fill="#DB4B4B"/>
<path d="M38.3484 19.9357L38.348 20.1357H38.3484V19.9357ZM39.3612 19.4896L39.1989 19.3728L39.198 19.374L39.3612 19.4896ZM38.507 17.2725L38.62 17.1075L38.6197 17.1073L38.507 17.2725ZM36.0798 17.2453L36.2424 17.3617L36.2424 17.3617L36.0798 17.2453ZM40.0465 30.6795L40.0416 30.8795L40.0462 30.8795L40.0465 30.6795ZM39.3365 30.9208L39.2102 30.7657L39.2071 30.7683L39.3365 30.9208ZM39.617 33.2757L39.4673 33.4085L39.4675 33.4087L39.617 33.2757ZM41.2561 34.1165L41.2567 33.9165L41.2558 33.9165L41.2561 34.1165ZM41.9661 33.876L41.8369 33.7233L41.8364 33.7237L41.9661 33.876ZM41.6856 31.5218L41.8352 31.3891L41.8351 31.389L41.6856 31.5218ZM32.3601 24.0601L32.2354 23.9038L32.2335 23.9053L32.3601 24.0601ZM32.6016 26.4197L32.4501 26.5502H32.4501L32.6016 26.4197ZM34.2463 27.2877L34.246 27.4877H34.2463V27.2877ZM34.9371 27.058L35.0633 27.2132L35.0639 27.2127L34.9371 27.058ZM34.6957 24.6969L34.8476 24.5668L34.8472 24.5663L34.6957 24.6969ZM46.6842 25.8062L46.8587 25.7086L46.8586 25.7084L46.6842 25.8062ZM45.002 24.6152L45.0004 24.8152H45.002V24.6152ZM44.5207 24.7304L44.4285 24.5529L44.4263 24.5541L44.5207 24.7304ZM44.2809 27.0907L44.1063 27.1883L44.1066 27.1889L44.2809 27.0907ZM46.4443 28.1658L46.538 28.3425L46.5385 28.3423L46.4443 28.1658ZM48.4755 35.1192L48.428 34.9249L48.426 34.9254L48.4755 35.1192ZM47.6571 37.3503L47.8503 37.2986L47.8503 37.2986L47.6571 37.3503ZM49.246 38.9369L49.2458 39.1369H49.246V38.9369ZM49.4875 38.9073L49.5349 39.1016L49.5368 39.1011L49.4875 38.9073ZM50.3058 36.6746L50.1126 36.7262L50.1126 36.7263L50.3058 36.6746ZM47.0332 45.174L47.1656 45.3239L47.1661 45.3235L47.0332 45.174ZM47.3631 47.5243L47.2162 47.66L47.2163 47.6602L47.3631 47.5243ZM48.9894 48.3331L48.9891 48.5331L48.99 48.5331L48.9894 48.3331ZM49.7241 48.077L49.8567 48.2267L49.8568 48.2267L49.7241 48.077ZM49.391 45.7283L49.2444 45.8643L49.2444 45.8644L49.391 45.7283ZM31.1609 44.1573L31.0508 44.3243L31.0516 44.3249L31.1609 44.1573ZM29.7776 43.7121V43.9121H29.7779L29.7776 43.7121ZM28.7345 44.1776L28.5696 44.0645L28.5695 44.0646L28.7345 44.1776ZM29.6389 46.3768L29.7487 46.2096L29.7482 46.2093L29.6389 46.3768ZM32.0653 46.3558L31.9005 46.2425L31.9002 46.243L32.0653 46.3558ZM19.366 41.5627L19.2012 41.4495L19.2011 41.4496L19.366 41.5627ZM20.2696 43.7619L20.3792 43.5946L20.3789 43.5943L20.2696 43.7619ZM21.6546 44.2079V44.0079H21.6542L21.6546 44.2079ZM22.696 43.7409L22.531 43.6278L22.5306 43.6285L22.696 43.7409ZM37.8137 47.5212L37.8156 47.3212L37.814 47.3212L37.8137 47.5212ZM36.4583 48.2296L36.2737 48.1526L36.2734 48.1532L36.4583 48.2296ZM37.8058 50.1999L37.8791 50.0138L37.8789 50.0138L37.8058 50.1999ZM38.8217 50.4V50.2L38.8212 50.2L38.8217 50.4ZM40.1756 49.6931L39.9908 49.6165L39.9905 49.6172L40.1756 49.6931ZM39.6138 39.6211L39.6135 39.8211H39.6138V39.6211ZM38.4934 40.1443L38.6641 40.2486L38.6643 40.2481L38.4934 40.1443ZM39.5158 42.2952L39.4152 42.4681L39.4155 42.4683L39.5158 42.2952ZM41.9374 42.1458L41.7665 42.0418L41.7665 42.0419L41.9374 42.1458ZM30.9617 34.0013L30.9613 34.2013H30.962L30.9617 34.0013ZM30.0549 34.3703L29.9025 34.2407L29.9023 34.2409L30.0549 34.3703ZM30.7234 36.6497L30.5975 36.8051L30.5978 36.8053L30.7234 36.6497ZM33.141 36.87L33.2932 36.9998L33.2937 36.9992L33.141 36.87ZM23.1622 23.5658L23.3008 23.71L23.3011 23.7097L23.1622 23.5658ZM23.5917 25.8989L23.4508 26.0408L23.4511 26.0411L23.5917 25.8989ZM25.1925 26.6415L25.1922 26.8415L25.193 26.8415L25.1925 26.6415ZM25.9742 26.3551L25.8355 26.211L25.8353 26.2112L25.9742 26.3551ZM25.5447 24.0227L25.4039 24.1648L25.404 24.1648L25.5447 24.0227ZM23.104 32.4272L23.2264 32.269L23.2263 32.2689L23.104 32.4272ZM21.6195 31.8706V32.0706L21.6198 32.0706L21.6195 31.8706ZM20.6832 32.2598L20.8383 32.3861L20.8388 32.3855L20.6832 32.2598ZM21.4036 34.5221L21.526 34.364L21.5258 34.3638L21.4036 34.5221ZM23.8244 34.6902L23.6689 34.5644L23.6686 34.5648L23.8244 34.6902ZM36.8246 19.6285C37.3141 19.9619 37.8602 20.1348 38.348 20.1357L38.3488 19.7357C37.9505 19.735 37.4815 19.5919 37.0498 19.2979L36.8246 19.6285ZM38.3484 20.1357C38.8214 20.1357 39.2642 19.9727 39.5244 19.6052L39.198 19.374C39.0359 19.6029 38.7376 19.7357 38.3484 19.7357V20.1357ZM39.5235 19.6065C39.7916 19.234 39.7937 18.7587 39.6227 18.3153C39.4514 17.871 39.1008 17.4369 38.62 17.1075L38.3939 17.4375C38.8176 17.7278 39.1112 18.1006 39.2495 18.4592C39.3881 18.8186 39.365 19.142 39.1989 19.3728L39.5235 19.6065ZM38.6197 17.1073C38.1285 16.7722 37.5838 16.6 37.0942 16.6V17C37.4938 17 37.9611 17.1422 38.3943 17.4377L38.6197 17.1073ZM37.0942 16.6C36.6227 16.6 36.1789 16.763 35.9171 17.1289L36.2424 17.3617C36.4062 17.1328 36.7066 17 37.0942 17V16.6ZM35.9172 17.1288C35.6502 17.5016 35.6481 17.977 35.8193 18.4207C35.9908 18.8652 36.342 19.2994 36.8245 19.6284L37.0499 19.2979C36.6248 19.0081 36.3309 18.6353 36.1925 18.2767C36.0537 17.9171 36.0767 17.5931 36.2424 17.3617L35.9172 17.1288ZM40.0513 30.4796C39.7454 30.4721 39.4465 30.5735 39.2102 30.7657L39.4627 31.076C39.6243 30.9445 39.83 30.8743 40.0416 30.8795L40.0513 30.4796ZM39.2071 30.7683C38.8566 31.0658 38.7367 31.5256 38.7929 31.997C38.8491 32.4691 39.082 32.974 39.4673 33.4085L39.7666 33.143C39.4277 32.7609 39.2354 32.33 39.19 31.9497C39.1446 31.5687 39.2467 31.2594 39.4659 31.0733L39.2071 30.7683ZM39.4675 33.4087C39.9775 33.982 40.6542 34.3174 41.2564 34.3165L41.2558 33.9165C40.7934 33.9172 40.219 33.6516 39.7664 33.1428L39.4675 33.4087ZM41.2555 34.3165C41.5653 34.3174 41.8611 34.228 42.0957 34.0282L41.8364 33.7237C41.6869 33.8509 41.4887 33.9172 41.2567 33.9165L41.2555 34.3165ZM42.0953 34.0286C42.4467 33.7312 42.5667 33.2715 42.5103 32.8001C42.4538 32.3281 42.2205 31.8235 41.8352 31.3891L41.536 31.6545C41.875 32.0368 42.0676 32.4675 42.1131 32.8476C42.1587 33.2283 42.0567 33.5373 41.8369 33.7233L42.0953 34.0286ZM41.8351 31.389C41.325 30.8147 40.65 30.4804 40.0468 30.4795L40.0462 30.8795C40.5107 30.8802 41.0836 31.1453 41.536 31.6547L41.8351 31.389ZM33.0552 23.6313C32.7579 23.6227 32.4668 23.7191 32.2354 23.9038L32.4849 24.2164C32.6416 24.0914 32.84 24.0252 33.0436 24.0311L33.0552 23.6313ZM32.2335 23.9053C31.8772 24.1969 31.7489 24.655 31.7972 25.1277C31.8455 25.601 32.0705 26.1098 32.4501 26.5502L32.7531 26.2891C32.4195 25.902 32.2341 25.4681 32.1951 25.087C32.1562 24.7053 32.2637 24.3974 32.4868 24.2149L32.2335 23.9053ZM32.4501 26.5502C32.9581 27.1397 33.6383 27.4868 34.246 27.4877L34.2465 27.0877C33.7817 27.087 33.2045 26.8129 32.7531 26.2891L32.4501 26.5502ZM34.2463 27.4877C34.5482 27.4877 34.8329 27.4005 35.0633 27.2132L34.811 26.9028C34.6621 27.0239 34.4703 27.0877 34.2463 27.0877V27.4877ZM35.0639 27.2127C35.4201 26.9207 35.5479 26.4631 35.4994 25.9905C35.4509 25.5173 35.226 25.0085 34.8476 24.5668L34.5438 24.827C34.877 25.2159 35.0624 25.6502 35.1015 26.0313C35.1407 26.4129 35.0335 26.7204 34.8103 26.9033L35.0639 27.2127ZM34.8472 24.5663C34.3399 23.9775 33.6578 23.6303 33.0491 23.6312L33.0497 24.0312C33.5152 24.0305 34.0937 24.3046 34.5442 24.8274L34.8472 24.5663ZM46.8586 25.7084C46.4232 24.9324 45.6885 24.4152 45.002 24.4152V24.8152C45.4981 24.8152 46.1196 25.2087 46.5097 25.9041L46.8586 25.7084ZM45.0036 24.4152C44.8034 24.4135 44.6057 24.4608 44.4285 24.5529L44.613 24.9078C44.7319 24.846 44.8651 24.8141 45.0004 24.8151L45.0036 24.4152ZM44.4263 24.5541C44.0201 24.7716 43.8023 25.1949 43.7542 25.6676C43.7061 26.1408 43.8237 26.6829 44.1063 27.1883L44.4554 26.9931C44.2074 26.5495 44.1134 26.089 44.1522 25.708C44.191 25.3266 44.3584 25.0441 44.6151 24.9067L44.4263 24.5541ZM44.1066 27.1889C44.5434 27.9644 45.2749 28.481 45.963 28.481V28.081C45.4655 28.081 44.8471 27.6884 44.4551 26.9926L44.1066 27.1889ZM45.963 28.481C46.1619 28.481 46.358 28.438 46.538 28.3425L46.3506 27.9891C46.2342 28.0509 46.1036 28.081 45.963 28.081V28.481ZM46.5385 28.3423C46.9453 28.1251 47.1632 27.7019 47.2111 27.2292C47.2592 26.7561 47.1413 26.214 46.8587 25.7086L46.5096 25.9038C46.7577 26.3475 46.8518 26.808 46.8132 27.1889C46.7745 27.5702 46.6071 27.8523 46.3502 27.9894L46.5385 28.3423ZM48.7169 34.8888C48.6176 34.8888 48.5212 34.9021 48.428 34.9249L48.5229 35.3135C48.5891 35.2973 48.6536 35.2888 48.7169 35.2888V34.8888ZM48.426 34.9254C47.9792 35.0395 47.6631 35.3967 47.4991 35.8432C47.3349 36.2903 47.3144 36.8439 47.4639 37.4021L47.8503 37.2986C47.7193 36.8097 47.7423 36.3412 47.8745 35.9811C48.0069 35.6206 48.2403 35.3857 48.525 35.313L48.426 34.9254ZM47.4639 37.402C47.597 37.8995 47.8452 38.3282 48.1559 38.6353C48.4653 38.9411 48.8479 39.1364 49.2458 39.1369L49.2462 38.7369C48.9812 38.7365 48.694 38.6048 48.4371 38.3508C48.1814 38.098 47.9667 37.7337 47.8503 37.2986L47.4639 37.402ZM49.246 39.1369C49.3441 39.1369 49.4405 39.1246 49.5349 39.1016L49.44 38.713C49.3751 38.7288 49.3105 38.7369 49.246 38.7369V39.1369ZM49.5368 39.1011C49.9839 38.9874 50.3 38.6296 50.4639 38.1827C50.628 37.7352 50.6485 37.181 50.499 36.6228L50.1126 36.7263C50.2436 37.2152 50.2206 37.6843 50.0884 38.0449C49.9559 38.4061 49.7225 38.6411 49.4382 38.7134L49.5368 39.1011ZM50.499 36.623C50.3663 36.126 50.1176 35.6974 49.8067 35.3903C49.4972 35.0845 49.1143 34.8888 48.7169 34.8888V35.2888C48.9809 35.2888 49.2682 35.4205 49.5256 35.6748C49.7817 35.9278 49.9967 36.2921 50.1126 36.7262L50.499 36.623ZM47.7641 44.7195C47.4443 44.7204 47.1387 44.8127 46.9003 45.0246L47.1661 45.3235C47.3165 45.1898 47.5209 45.1202 47.7652 45.1195L47.7641 44.7195ZM46.9007 45.0242C46.5561 45.3287 46.4455 45.7909 46.5115 46.2613C46.5776 46.7324 46.8212 47.2327 47.2162 47.66L47.5099 47.3885C47.1623 47.0124 46.9609 46.5852 46.9076 46.2058C46.8543 45.8257 46.95 45.5144 47.1656 45.3239L46.9007 45.0242ZM47.2163 47.6602C47.7292 48.2141 48.3962 48.5322 48.9891 48.5331L48.9897 48.1331C48.5309 48.1324 47.9643 47.8792 47.5098 47.3884L47.2163 47.6602ZM48.99 48.5331C49.3102 48.5322 49.6171 48.4389 49.8567 48.2267L49.5915 47.9273C49.4391 48.0622 49.2328 48.1324 48.9889 48.1331L48.99 48.5331ZM49.8568 48.2267C50.2005 47.922 50.3106 47.4599 50.2442 46.9897C50.1776 46.5188 49.9336 46.0189 49.5376 45.5923L49.2444 45.8644C49.5927 46.2396 49.7945 46.6664 49.8481 47.0457C49.9018 47.4255 49.8064 47.7369 49.5915 47.9273L49.8568 48.2267ZM49.5377 45.5923C49.026 45.0404 48.3598 44.7195 47.7647 44.7195V45.1195C48.2245 45.1195 48.7903 45.3746 49.2444 45.8643L49.5377 45.5923ZM31.271 43.9904C30.7884 43.6722 30.2564 43.5112 29.7772 43.5121L29.7779 43.9121C30.1704 43.9114 30.6266 44.0446 31.0508 44.3243L31.271 43.9904ZM29.7776 43.5121C29.2904 43.5121 28.8323 43.6814 28.5696 44.0645L28.8994 44.2907C29.0638 44.051 29.3738 43.9121 29.7776 43.9121V43.5121ZM28.5695 44.0646C28.3104 44.4431 28.3184 44.9183 28.4991 45.3582C28.6801 45.7988 29.0405 46.2253 29.5297 46.5443L29.7482 46.2093C29.317 45.9281 29.0152 45.5617 28.8691 45.2062C28.7227 44.8498 28.7387 44.5255 28.8995 44.2906L28.5695 44.0646ZM29.5292 46.544C30.0122 46.8611 30.5447 47.0229 31.0222 47.0229V46.6229C30.6313 46.6229 30.1741 46.4888 29.7487 46.2096L29.5292 46.544ZM31.0222 47.0229C31.5115 47.0229 31.9687 46.8517 32.2304 46.4686L31.9002 46.243C31.7364 46.4827 31.4271 46.6229 31.0222 46.6229V47.0229ZM32.2301 46.4691C32.4899 46.0912 32.4818 45.6159 32.301 45.1761C32.1198 44.7355 31.7593 44.3089 31.2701 43.9898L31.0516 44.3249C31.4828 44.606 31.7848 44.9726 31.931 45.3282C32.0775 45.6847 32.0614 46.0085 31.9005 46.2425L32.2301 46.4691ZM21.9013 41.3752C21.4189 41.0588 20.8873 40.8979 20.4091 40.8979V41.2979C20.8011 41.2979 21.2575 41.4313 21.6819 41.7097L21.9013 41.3752ZM20.4091 40.8979C19.9202 40.8979 19.463 41.0681 19.2012 41.4495L19.5309 41.6759C19.6945 41.4376 20.0039 41.2979 20.4091 41.2979V40.8979ZM19.2011 41.4496C18.9418 41.8278 18.95 42.3033 19.1305 42.7432C19.3114 43.184 19.6715 43.6107 20.1604 43.9294L20.3789 43.5943C19.9482 43.3136 19.6466 42.9471 19.5006 42.5913C19.3542 42.2346 19.3703 41.9102 19.531 41.6757L19.2011 41.4496ZM20.1601 43.9292C20.6427 44.2452 21.1752 44.4088 21.6549 44.4079L21.6542 44.0079C21.2622 44.0086 20.805 43.8734 20.3792 43.5946L20.1601 43.9292ZM21.6546 44.4079C22.1418 44.4079 22.6004 44.2377 22.8615 43.8532L22.5306 43.6285C22.3677 43.8683 22.0582 44.0079 21.6546 44.0079V44.4079ZM22.861 43.8539C23.1198 43.4761 23.1117 43.0012 22.9311 42.5616C22.7502 42.1211 22.3902 41.6944 21.901 41.375L21.6823 41.7099C22.1134 41.9914 22.4151 42.358 22.5611 42.7135C22.7075 43.0699 22.6914 43.3937 22.531 43.6278L22.861 43.8539ZM38.9044 47.5373C38.5588 47.3981 38.1892 47.3248 37.8156 47.3212L37.8118 47.7211C38.1356 47.7243 38.4558 47.7878 38.755 47.9083L38.9044 47.5373ZM37.814 47.3212C37.1381 47.3203 36.5074 47.5923 36.2737 48.1526L36.6429 48.3066C36.7885 47.9576 37.2192 47.7204 37.8135 47.7212L37.814 47.3212ZM36.2734 48.1532C36.0988 48.5758 36.2077 49.0392 36.4766 49.4324C36.7461 49.8267 37.1878 50.1718 37.7326 50.386L37.8789 50.0138C37.3981 49.8247 37.0251 49.526 36.8068 49.2067C36.5877 48.8863 36.5357 48.5661 36.6431 48.306L36.2734 48.1532ZM37.7324 50.386C38.1004 50.531 38.4736 50.6008 38.8222 50.6L38.8212 50.2C38.526 50.2007 38.2027 50.1413 37.8791 50.0138L37.7324 50.386ZM38.8217 50.6C39.4959 50.6 40.13 50.3312 40.3606 49.769L39.9905 49.6172C39.8482 49.9643 39.4177 50.2 38.8217 50.2V50.6ZM40.3603 49.7698C40.5358 49.3469 40.4279 48.8837 40.1593 48.4904C39.8901 48.0961 39.4483 47.7512 38.9029 47.5367L38.7565 47.9089C39.2382 48.0984 39.6112 48.3969 39.829 48.7159C40.0475 49.0359 40.099 49.3558 39.9908 49.6165L40.3603 49.7698ZM41.0155 39.8227C40.5553 39.5552 40.062 39.4211 39.6138 39.4211V39.8211C39.9848 39.8211 40.4094 39.9331 40.8145 40.1685L41.0155 39.8227ZM39.6141 39.4211C39.08 39.4203 38.5807 39.6155 38.3225 40.0404L38.6643 40.2481C38.8253 39.9833 39.1643 39.8204 39.6135 39.8211L39.6141 39.4211ZM38.3228 40.04C38.0835 40.4315 38.1179 40.9061 38.3223 41.336C38.5271 41.7668 38.9101 42.1744 39.4152 42.4681L39.6163 42.1223C39.1708 41.8633 38.849 41.5123 38.6835 41.1642C38.5176 40.8152 38.5161 40.4907 38.6641 40.2486L38.3228 40.04ZM39.4155 42.4683C39.8757 42.7349 40.3689 42.8689 40.8186 42.8689V42.4689C40.4459 42.4689 40.0212 42.3569 39.616 42.1222L39.4155 42.4683ZM40.8186 42.8689C41.3508 42.8689 41.85 42.6746 42.1083 42.2496L41.7665 42.0419C41.6056 42.3067 41.2666 42.4689 40.8186 42.4689V42.8689ZM42.1082 42.2497C42.3468 41.8576 42.3126 41.3831 42.1082 40.9533C41.9035 40.5226 41.5206 40.1155 41.0153 39.8226L40.8147 40.1686C41.2601 40.4268 41.5816 40.7772 41.747 41.125C41.9128 41.4737 41.9144 41.7986 41.7665 42.0418L42.1082 42.2497ZM32.5977 34.4353C32.0882 34.0219 31.4925 33.8004 30.9613 33.8013L30.962 34.2013C31.387 34.2006 31.8958 34.3809 32.3457 34.7459L32.5977 34.4353ZM30.9621 33.8013C30.5493 33.8004 30.1613 33.9364 29.9025 34.2407L30.2072 34.4998C30.3708 34.3075 30.633 34.2006 30.9613 34.2013L30.9621 33.8013ZM29.9023 34.2409C29.6056 34.5908 29.564 35.0644 29.6976 35.5204C29.8315 35.9772 30.1449 36.4382 30.5975 36.8051L30.8493 36.4943C30.4509 36.1714 30.1894 35.7764 30.0815 35.4079C29.9732 35.0386 30.0228 34.7173 30.2074 34.4997L29.9023 34.2409ZM30.5978 36.8053C31.1077 37.2167 31.7039 37.4398 32.235 37.4398V37.0398C31.81 37.0398 31.3001 36.858 30.849 36.494L30.5978 36.8053ZM32.235 37.4398C32.648 37.4398 33.0338 37.3036 33.2932 36.9998L32.9889 36.7402C32.8243 36.933 32.5632 37.0398 32.235 37.0398V37.4398ZM33.2937 36.9992C33.5902 36.6491 33.6324 36.1756 33.4988 35.7194C33.365 35.2623 33.0513 34.8014 32.5973 34.435L32.3461 34.7462C32.7455 35.0687 33.0071 35.4634 33.1149 35.8317C33.223 36.2009 33.1732 36.5226 32.9884 36.7407L33.2937 36.9992ZM23.9442 23.0793C23.5983 23.0802 23.2694 23.1843 23.0233 23.4219L23.3011 23.7097C23.4566 23.5595 23.6775 23.48 23.9452 23.4793L23.9442 23.0793ZM23.0236 23.4216C22.692 23.7402 22.6015 24.2068 22.6875 24.674C22.7737 25.1417 23.0383 25.6312 23.4508 26.0408L23.7326 25.757C23.3697 25.3966 23.1503 24.9784 23.0809 24.6015C23.0113 24.224 23.0937 23.909 23.3008 23.71L23.0236 23.4216ZM23.4511 26.0411C23.9673 26.5512 24.6155 26.8407 25.1922 26.8415L25.1928 26.4415C24.7417 26.4409 24.1898 26.2087 23.7323 25.7566L23.4511 26.0411ZM25.193 26.8415C25.5382 26.8407 25.8671 26.7365 26.1131 26.499L25.8353 26.2112C25.6798 26.3613 25.4588 26.4409 25.192 26.4415L25.193 26.8415ZM26.1129 26.4992C26.4443 26.1802 26.5352 25.7137 26.4492 25.2467C26.3632 24.779 26.0985 24.2899 25.6855 23.8807L25.404 24.1648C25.7671 24.5247 25.9865 24.9425 26.0558 25.3191C26.1253 25.6963 26.0429 26.0114 25.8355 26.211L26.1129 26.4992ZM25.6855 23.8807C25.1683 23.3679 24.5208 23.0802 23.945 23.0793L23.9444 23.4793C24.3949 23.48 24.9459 23.7107 25.4039 24.1648L25.6855 23.8807ZM23.2263 32.2689C22.7204 31.878 22.1388 31.6697 21.6192 31.6706L21.6198 32.0706C22.0372 32.0699 22.5346 32.2399 22.9817 32.5855L23.2263 32.2689ZM21.6195 31.6706C21.1926 31.6706 20.7882 31.8117 20.5276 32.1341L20.8388 32.3855C21.0022 32.1833 21.2751 32.0706 21.6195 32.0706V31.6706ZM20.5281 32.1336C20.2384 32.4896 20.2076 32.9641 20.3517 33.4169C20.496 33.8705 20.8202 34.3243 21.2813 34.6804L21.5258 34.3638C21.1199 34.0504 20.8493 33.6615 20.7328 33.2956C20.6162 32.9288 20.6586 32.6069 20.8383 32.3861L20.5281 32.1336ZM21.2811 34.6802C21.7874 35.0723 22.3698 35.2787 22.8889 35.2787V34.8787C22.4708 34.8787 21.9727 34.7099 21.526 34.364L21.2811 34.6802ZM22.8889 35.2787C23.3153 35.2787 23.7193 35.1395 23.9801 34.8157L23.6686 34.5648C23.5055 34.7673 23.2338 34.8787 22.8889 34.8787V35.2787ZM23.9798 34.8161C24.2682 34.4599 24.2992 33.9859 24.1553 33.5332C24.0112 33.0796 23.6874 32.6259 23.2264 32.269L22.9816 32.5854C23.3875 32.8996 23.6579 33.2885 23.7741 33.6543C23.8906 34.0209 23.8482 34.343 23.6689 34.5644L23.9798 34.8161Z" fill="#DB4B4B" mask="url(#path-3-outside-2_201_138)"/>
</svg>
