<svg width="60" height="60" viewBox="0 0 60 60" fill="none" xmlns="http://www.w3.org/2000/svg">
<path fill-rule="evenodd" clip-rule="evenodd" d="M25.625 17.5C26.9511 17.5 28.2229 16.9732 29.1605 16.0355C30.0982 15.0979 30.625 13.8261 30.625 12.5C30.625 11.1739 30.0982 9.90215 29.1605 8.96447C28.2229 8.02678 26.9511 7.5 25.625 7.5C24.2989 7.5 23.0271 8.02678 22.0895 8.96447C21.1518 9.90215 20.625 11.1739 20.625 12.5C20.625 13.8261 21.1518 15.0979 22.0895 16.0355C23.0271 16.9732 24.2989 17.5 25.625 17.5ZM25.625 15C26.288 15 26.9239 14.7366 27.3928 14.2678C27.8616 13.7989 28.125 13.163 28.125 12.5C28.125 11.837 27.8616 11.2011 27.3928 10.7322C26.9239 10.2634 26.288 10 25.625 10C24.962 10 24.3261 10.2634 23.8572 10.7322C23.3884 11.2011 23.125 11.837 23.125 12.5C23.125 13.163 23.3884 13.7989 23.8572 14.2678C24.3261 14.7366 24.962 15 25.625 15Z" fill="#DB4B4B"/>
<path d="M33.75 27.5C33.75 26.837 33.4866 26.2011 33.0178 25.7322C32.5489 25.2634 31.913 25 31.25 25V30C31.913 30 32.5489 29.7366 33.0178 29.2678C33.4866 28.7989 33.75 28.163 33.75 27.5Z" fill="#DB4B4B"/>
<path fill-rule="evenodd" clip-rule="evenodd" d="M13.75 43.75C13.7502 42.9742 13.5099 42.2175 13.0622 41.5839C12.6145 40.9504 11.9813 40.4712 11.25 40.2125V27.5H17.5V48.75C17.5 49.7445 17.8951 50.6984 18.5983 51.4016C19.3016 52.1049 20.2554 52.5 21.25 52.5C22.2446 52.5 23.1984 52.1049 23.9017 51.4016C24.6049 50.6984 25 49.7445 25 48.75V38.75H26.25V48.75C26.25 49.6262 26.55 50.4325 27.055 51.0712C27.5375 51.6833 28.1986 52.1298 28.9466 52.3487C29.6945 52.5676 30.4921 52.5481 31.2284 52.2928C31.9648 52.0375 32.6033 51.5591 33.0552 50.9242C33.5071 50.2893 33.7499 49.5293 33.75 48.75V34.6475C35.7038 33.7475 38.75 31.1375 38.75 26.9637C38.75 21.705 33.9112 20 32.5187 20H11.25V16.25H8.75V20.955C7.9825 21.6425 7.5 22.64 7.5 23.75C7.49922 24.2777 7.61021 24.7996 7.82566 25.2814C8.04111 25.7631 8.35613 26.1938 8.75 26.545V40.2137C8.01886 40.4724 7.38587 40.9514 6.93816 41.5847C6.49045 42.2179 6.25003 42.9744 6.25 43.75V51.25H8.75V46.25H11.25V51.25H13.75V43.75ZM31.25 33.0462L32.7038 32.3762C34.1338 31.7175 36.25 29.8175 36.25 26.9637C36.25 25.2212 35.4937 24.1662 34.615 23.4775C34.1883 23.1454 33.7138 22.8799 33.2075 22.69C32.9883 22.6043 32.7608 22.5415 32.5288 22.5025C32.5113 22.5 32.5087 22.5 32.5187 22.5H11.25V25H20V48.75C20 49.0815 20.1317 49.3994 20.3661 49.6339C20.6005 49.8683 20.9185 50 21.25 50C21.5815 50 21.8995 49.8683 22.1339 49.6339C22.3683 49.3994 22.5 49.0815 22.5 48.75V36.25H28.75V48.75C28.75 49.0815 28.8817 49.3994 29.1161 49.6339C29.3505 49.8683 29.6685 50 30 50C30.3315 50 30.6495 49.8683 30.8839 49.6339C31.1183 49.3994 31.25 49.0815 31.25 48.75V33.0462ZM47.1925 22.1062C46.8964 22.4442 46.5817 22.7656 46.25 23.0687V26.175C46.7438 25.6875 47.365 25.4187 47.9125 25.2625C48.4688 25.105 49.0438 25.0375 49.5375 25.0125C50.1339 24.9841 50.7316 25.0033 51.325 25.07L51.3588 25.0737L51.37 25.075H51.375C51.9463 25.1525 52.3925 25.61 52.4538 26.1837V26.2L52.4587 26.2337C52.4755 26.405 52.4863 26.5767 52.4912 26.7487C52.5037 27.0787 52.5075 27.535 52.4713 28.0375C52.4338 28.535 52.355 29.1125 52.1875 29.67C52.0225 30.2162 51.745 30.835 51.2525 31.3225C50.7575 31.8125 50.1363 32.0812 49.5888 32.2362C49.0313 32.395 48.4562 32.4612 47.9625 32.4862C47.4047 32.5133 46.8456 32.4987 46.29 32.4425L46.25 32.4387V43.675C46.7438 43.1875 47.365 42.9187 47.9125 42.7625C48.4688 42.605 49.0438 42.5375 49.5375 42.5125C50.1339 42.4841 50.7316 42.5033 51.325 42.57L51.3588 42.5737L51.37 42.575H51.375C51.9463 42.6525 52.3925 43.11 52.4538 43.6837V43.7L52.4587 43.7337C52.4755 43.905 52.4863 44.0767 52.4912 44.2487C52.5037 44.5787 52.5075 45.035 52.4713 45.5375C52.4338 46.035 52.355 46.6125 52.1875 47.17C52.0225 47.7162 51.745 48.335 51.2525 48.8237C50.7575 49.3125 50.1363 49.5812 49.5888 49.7362C49.0313 49.895 48.4562 49.9612 47.9625 49.9862C47.4047 50.0133 46.8456 49.9986 46.29 49.9425L46.25 49.9387V51.25C46.25 51.5815 46.1183 51.8994 45.8839 52.1339C45.6495 52.3683 45.3315 52.5 45 52.5C44.6685 52.5 44.3505 52.3683 44.1161 52.1339C43.8817 51.8994 43.75 51.5815 43.75 51.25V41.1875L43.71 41.1912C43.1544 41.2474 42.5953 41.262 42.0375 41.235C41.4883 41.212 40.9433 41.1282 40.4125 40.985C39.8625 40.83 39.2425 40.5612 38.7487 40.0725C38.255 39.5837 37.9775 38.965 37.8125 38.4187C37.6593 37.8864 37.5641 37.3391 37.5288 36.7862C37.4861 36.1856 37.4903 35.5825 37.5413 34.9825L37.545 34.9487L37.5463 34.9375V34.9325C37.6088 34.3587 38.0537 33.9012 38.625 33.825H38.63L38.6413 33.8225L38.675 33.8187L38.79 33.8062C39.3456 33.7501 39.9047 33.7354 40.4625 33.7625C40.9562 33.7875 41.5312 33.8537 42.0875 34.0125C42.6362 34.1675 43.2562 34.435 43.75 34.9237V23.0687C43.4183 22.7652 43.1036 22.4434 42.8075 22.105C42.4176 21.6655 42.0768 21.1847 41.7912 20.6712C41.5037 20.1375 41.25 19.475 41.25 18.75C41.25 18.025 41.5025 17.3612 41.7912 16.8275C42.0837 16.285 42.4587 15.795 42.8075 15.3937C43.2292 14.9126 43.6881 14.4654 44.18 14.0562L44.2075 14.0337L44.2163 14.0262L44.22 14.0237V14.0225C44.6763 13.66 45.3237 13.66 45.78 14.0225L45.7837 14.0262L45.7925 14.0325L45.82 14.0562C45.961 14.1717 46.0986 14.2913 46.2325 14.415C46.4925 14.6525 46.84 14.99 47.1925 15.3937C47.5425 15.7937 47.9163 16.285 48.2088 16.8275C48.4963 17.3612 48.75 18.025 48.75 18.75C48.75 19.475 48.4975 20.1387 48.2088 20.6725C47.9232 21.186 47.5824 21.6667 47.1925 22.1062Z" fill="#DB4B4B"/>
</svg>
