<svg width="60" height="60" viewBox="0 0 60 60" fill="none" xmlns="http://www.w3.org/2000/svg">
<path fill-rule="evenodd" clip-rule="evenodd" d="M35.7964 32.0896C35.4286 31.0495 34.7473 30.1489 33.8465 29.512C32.9457 28.8751 31.8695 28.533 30.7663 28.533V27.1995H28.0992V28.533C26.6845 28.533 25.3277 29.095 24.3273 30.0954C23.327 31.0957 22.765 32.4525 22.765 33.8672C22.765 35.2819 23.327 36.6387 24.3273 37.639C25.3277 38.6394 26.6845 39.2014 28.0992 39.2014V44.5356C26.939 44.5356 25.9508 43.7955 25.5828 42.758C25.5282 42.5882 25.4401 42.4312 25.3237 42.2961C25.2073 42.161 25.0651 42.0506 24.9053 41.9714C24.7455 41.8923 24.5715 41.846 24.3935 41.8352C24.2155 41.8245 24.0372 41.8496 23.869 41.909C23.7009 41.9684 23.5464 42.0609 23.4147 42.1811C23.2829 42.3012 23.1766 42.4466 23.102 42.6085C23.0274 42.7705 22.9861 42.9458 22.9804 43.124C22.9748 43.3022 23.0049 43.4797 23.069 43.6461C23.4369 44.6863 24.1181 45.5868 25.019 46.2237C25.9198 46.8607 26.9959 47.2027 28.0992 47.2027V48.5362H30.7663V47.2027C32.181 47.2027 33.5378 46.6407 34.5381 45.6403C35.5385 44.64 36.1005 43.2832 36.1005 41.8685C36.1005 40.4538 35.5385 39.097 34.5381 38.0967C33.5378 37.0963 32.181 36.5343 30.7663 36.5343V31.2001C31.3179 31.2 31.8559 31.3708 32.3063 31.6892C32.7568 32.0076 33.0974 32.4577 33.2813 32.9777C33.3991 33.3112 33.6446 33.5843 33.9637 33.7369C34.1217 33.8124 34.293 33.8561 34.4679 33.8654C34.6428 33.8747 34.8178 33.8495 34.983 33.7912C35.1481 33.7329 35.3001 33.6426 35.4304 33.5255C35.5606 33.4085 35.6666 33.2669 35.7421 33.1089C35.8176 32.9509 35.8613 32.7795 35.8706 32.6046C35.88 32.4297 35.8547 32.2547 35.7964 32.0896ZM28.0992 31.2001C27.3918 31.2001 26.7134 31.4811 26.2133 31.9813C25.7131 32.4815 25.4321 33.1598 25.4321 33.8672C25.4321 34.5746 25.7131 35.2529 26.2133 35.7531C26.7134 36.2533 27.3918 36.5343 28.0992 36.5343V31.2001ZM30.7663 44.5356C31.4736 44.5356 32.152 44.2546 32.6522 43.7544C33.1524 43.2542 33.4334 42.5759 33.4334 41.8685C33.4334 41.1611 33.1524 40.4828 32.6522 39.9826C32.152 39.4824 31.4736 39.2014 30.7663 39.2014V44.5356Z" fill="#DB4B4B"/>
<path fill-rule="evenodd" clip-rule="evenodd" d="M14.9677 10.6915C18.2403 9.08987 23.6091 7.19623 29.4847 7.19623C35.2377 7.19623 40.4652 9.01119 43.7204 10.5914L43.9044 10.6808C44.8859 11.1662 45.678 11.6249 46.2354 11.997L41.3093 19.1982C52.6658 30.808 61.4379 55.2 29.4847 55.2C-2.46842 55.2 6.06762 31.2508 17.5228 19.1982L12.6287 11.997C13.0061 11.7503 13.4848 11.4636 14.0556 11.1595C14.3383 11.0075 14.6423 10.8515 14.9677 10.6928V10.6915ZM19.1377 21.3718C25.5588 23.8522 33.276 23.8522 39.697 21.3692C42.3773 24.1946 44.6194 27.4053 46.3488 30.8947C48.1517 34.5726 49.1332 38.2492 48.9732 41.4178C48.8185 44.4756 47.6157 47.088 44.8685 49.0296C42.0054 51.0526 37.19 52.5329 29.4834 52.5329C21.7688 52.5329 16.9307 51.078 14.0409 49.0777C11.2738 47.16 10.0589 44.5836 9.8869 41.5671C9.70688 38.4333 10.667 34.7753 12.4633 31.0721C14.1769 27.5408 16.568 24.1416 19.1377 21.3718ZM17.6041 12.4184C18.671 12.7358 19.7858 13.0118 20.9167 13.2212C23.7838 13.7493 26.6589 13.8266 29.1127 13.1158C31.9721 12.2828 34.8803 11.6277 37.8207 11.1542C35.367 10.4154 32.4972 9.86333 29.4834 9.86333C24.8893 9.86333 20.6046 11.1449 17.6041 12.4184Z" fill="#DB4B4B"/>
</svg>
