<svg width="60" height="60" viewBox="0 0 60 60" fill="none" xmlns="http://www.w3.org/2000/svg">
<path d="M38.5078 33.4244C40.0681 33.4244 41.4404 34.1997 42.2486 35.3772H29.996C28.6696 35.3772 27.3976 35.8916 26.4597 36.8072C25.5218 37.7227 24.9949 38.9645 24.9949 40.2593V48.0707C24.9949 48.3851 25.025 48.6956 25.085 48.9925C19.2057 48.6292 14.8108 46.5514 12.0222 42.7297C11.3576 41.8199 11.0003 40.7304 11 39.613V37.8163C11 36.6515 11.474 35.5344 12.3177 34.7108C13.1614 33.8871 14.3058 33.4244 15.4989 33.4244H38.5078V33.4244ZM26.9954 10C28.3089 10 29.6095 10.2526 30.823 10.7433C32.0365 11.234 33.1391 11.9532 34.0679 12.8599C34.9967 13.7666 35.7335 14.843 36.2361 16.0276C36.7388 17.2123 36.9975 18.482 36.9975 19.7642C36.9975 21.0465 36.7388 22.3162 36.2361 23.5008C35.7335 24.6855 34.9967 25.7619 34.0679 26.6686C33.1391 27.5753 32.0365 28.2945 30.823 28.7852C29.6095 29.2759 28.3089 29.5285 26.9954 29.5285C24.3426 29.5285 21.7986 28.4997 19.9228 26.6686C18.0471 24.8374 16.9933 22.3539 16.9933 19.7642C16.9933 17.1746 18.0471 14.691 19.9228 12.8599C21.7986 11.0287 24.3426 10 26.9954 10ZM26.9954 40.2593C26.9954 39.4825 27.3115 38.7374 27.8742 38.188C28.437 37.6387 29.2002 37.3301 29.996 37.3301H45.9994C46.7952 37.3301 47.5584 37.6387 48.1211 38.188C48.6839 38.7374 49 39.4825 49 40.2593V48.0707C49 48.8476 48.6839 49.5927 48.1211 50.142C47.5584 50.6914 46.7952 51 45.9994 51H29.996C29.2002 51 28.437 50.6914 27.8742 50.142C27.3115 49.5927 26.9954 48.8476 26.9954 48.0707V40.2593ZM46.9996 41.2358C46.469 41.2358 45.9602 41.03 45.5851 40.6638C45.2099 40.2976 44.9992 39.8009 44.9992 39.2829H42.9987C42.9987 40.3188 43.4203 41.3122 44.1706 42.0447C44.9209 42.7771 45.9385 43.1886 46.9996 43.1886V41.2358ZM46.9996 45.1415C45.9385 45.1415 44.9209 45.553 44.1706 46.2854C43.4203 47.0179 42.9987 48.0113 42.9987 49.0472H44.9992C44.9992 48.5292 45.2099 48.0325 45.5851 47.6663C45.9602 47.3001 46.469 47.0943 46.9996 47.0943V45.1415ZM30.9962 39.2829C30.9962 39.8009 30.7854 40.2976 30.4103 40.6638C30.0351 41.03 29.5263 41.2358 28.9958 41.2358V43.1886C30.0569 43.1886 31.0745 42.7771 31.8248 42.0447C32.5751 41.3122 32.9966 40.3188 32.9966 39.2829H30.9962ZM32.9966 49.0472C32.9966 48.0113 32.5751 47.0179 31.8248 46.2854C31.0745 45.553 30.0569 45.1415 28.9958 45.1415V47.0943C29.5263 47.0943 30.0351 47.3001 30.4103 47.6663C30.7854 48.0325 30.9962 48.5292 30.9962 49.0472H32.9966ZM41.4984 44.165C41.4984 43.2587 41.1296 42.3894 40.4731 41.7485C39.8166 41.1076 38.9261 40.7476 37.9977 40.7476C37.0692 40.7476 36.1788 41.1076 35.5223 41.7485C34.8658 42.3894 34.4969 43.2587 34.4969 44.165C34.4969 45.0714 34.8658 45.9407 35.5223 46.5816C36.1788 47.2225 37.0692 47.5825 37.9977 47.5825C38.9261 47.5825 39.8166 47.2225 40.4731 46.5816C41.1296 45.9407 41.4984 45.0714 41.4984 44.165V44.165Z" fill="#DB4B4B"/>
</svg>
