<svg width="60" height="60" viewBox="0 0 60 60" fill="none" xmlns="http://www.w3.org/2000/svg">
<path d="M29.2875 29.8125C29.2875 29.8125 30.6375 21.3 24.075 15.675C17.5125 10.05 7.20001 11.925 7.20001 11.925C7.20001 11.925 7.20001 19.425 12.825 25.05C18.45 30.675 29.2875 29.8125 29.2875 29.8125ZM31.575 23.175C31.575 23.175 28.7625 15.675 35.325 10.05C41.8875 4.425 52.2 6.3 52.2 6.3C52.2 6.3 52.2 13.8 46.575 19.425C40.95 25.05 31.575 23.175 31.575 23.175Z" fill="#DB4B4B" stroke="#DB4B4B" stroke-width="3.5" stroke-linecap="round" stroke-linejoin="round"/>
<path d="M31.575 23.8125C31.575 28.5 27.4875 36.4125 27.4875 36.4125M29.2875 29.8125C29.2875 29.8125 30.6375 21.3 24.075 15.675C17.5125 10.05 7.20001 11.925 7.20001 11.925C7.20001 11.925 7.20001 19.425 12.825 25.05C18.45 30.675 29.2875 29.8125 29.2875 29.8125ZM31.575 23.175C31.575 23.175 28.7625 15.675 35.325 10.05C41.8875 4.425 52.2 6.3 52.2 6.3C52.2 6.3 52.2 13.8 46.575 19.425C40.95 25.05 31.575 23.175 31.575 23.175ZM16.575 36.3H40.95C40.95 36.3 42.825 53.175 28.7625 53.175C14.7 53.175 16.575 36.3 16.575 36.3Z" stroke="#DB4B4B" stroke-width="3.5" stroke-linecap="round" stroke-linejoin="round"/>
</svg>
