<svg width="60" height="60" viewBox="0 0 60 60" fill="none" xmlns="http://www.w3.org/2000/svg">
<path d="M10 11.3125C10 10.1688 10.4515 9.07185 11.2553 8.2631C12.059 7.45435 13.1491 7 14.2857 7H34.2857C35.4224 7 36.5124 7.45435 37.3162 8.2631C38.1199 9.07185 38.5714 10.1688 38.5714 11.3125V16.4674L47.9086 25.8629C49.2473 27.2104 49.9996 29.0376 50 30.943V51.5625C50 51.9437 49.8495 52.3094 49.5816 52.579C49.3137 52.8485 48.9503 53 48.5714 53C48.1926 53 47.8292 52.8485 47.5613 52.579C47.2934 52.3094 47.1429 51.9437 47.1429 51.5625V30.943C47.1419 29.7996 46.6897 28.7035 45.8857 27.8955L38.5714 20.5355V29.4049L41.0114 31.8573C41.2793 32.1272 41.4296 32.4931 41.4294 32.8746C41.4291 33.256 41.2782 33.6218 41.01 33.8913C40.8772 34.0248 40.7195 34.1306 40.5461 34.2028C40.3726 34.2749 40.1867 34.312 39.999 34.3119C39.6199 34.3116 39.2564 34.1598 38.9886 33.8899L30.4171 25.2649C29.2114 24.0516 28.54 24.1034 28.2457 24.1781C27.7514 24.2989 27.3143 24.6956 26.7029 25.2879C26.4171 25.5639 26.2971 25.8341 26.3543 26.2366C26.4286 26.7397 26.82 27.6396 28.1543 28.9823L31.62 32.4696L32.4371 33.2948C32.5702 33.4283 32.6758 33.5869 32.7479 33.7615C32.82 33.9362 32.8571 34.1234 32.8571 34.3125C32.8571 36.5378 32.8743 38.7774 33.4857 40.4679C33.7771 41.2757 34.1743 41.8651 34.6971 42.259C35.2086 42.6442 35.9629 42.9375 37.1429 42.9375C37.5217 42.9375 37.8851 43.089 38.153 43.3585C38.4209 43.6281 38.5714 43.9938 38.5714 44.375V48.6875C38.5714 49.8312 38.1199 50.9281 37.3162 51.7369C36.5124 52.5456 35.4224 53 34.2857 53H14.2857C13.1491 53 12.059 52.5456 11.2553 51.7369C10.4515 50.9281 10 49.8312 10 48.6875V11.3125ZM24.2857 22.8125C23.0859 22.8123 21.9054 23.1163 20.8531 23.6963C19.8009 24.2763 18.9108 25.1137 18.2649 26.1312C17.6191 27.1486 17.2384 28.3134 17.158 29.518C17.0775 30.7226 17.2999 31.9281 17.8046 33.0234C18.3093 34.1187 19.08 35.0684 20.0457 35.7849C21.0114 36.5014 22.1408 36.9616 23.3299 37.123C24.5189 37.2844 25.7292 37.1418 26.849 36.7084C27.9688 36.275 28.9621 35.5647 29.7371 34.6431L29.5943 34.4994L26.1314 31.0149C24.6086 29.4825 23.7314 28.0421 23.5286 26.6564C23.4301 26.0268 23.4881 25.3824 23.6975 24.7809C23.9069 24.1793 24.2612 23.6394 24.7286 23.2092L24.8257 23.1144L25.0943 22.8556C24.8258 22.8261 24.5558 22.8117 24.2857 22.8125ZM30 48.6875V50.125H32.8571V48.6875C32.8571 48.3063 33.0077 47.9406 33.2756 47.671C33.5435 47.4015 33.9068 47.25 34.2857 47.25H35.7143V45.6975C34.733 45.5475 33.802 45.1619 33 44.5734C32.13 44.8487 31.3699 45.3961 30.8304 46.136C30.2908 46.8759 29.9999 47.7698 30 48.6875ZM12.8571 15.625H14.2857C15.4224 15.625 16.5124 15.1706 17.3162 14.3619C18.1199 13.5531 18.5714 12.4562 18.5714 11.3125V9.875H15.7143V11.3125C15.7143 11.6937 15.5638 12.0594 15.2959 12.329C15.028 12.5985 14.6646 12.75 14.2857 12.75H12.8571V15.625ZM30 11.3125C30 12.4562 30.4515 13.5531 31.2553 14.3619C32.059 15.1706 33.1491 15.625 34.2857 15.625H35.7143V12.75H34.2857C33.9068 12.75 33.5435 12.5985 33.2756 12.329C33.0077 12.0594 32.8571 11.6937 32.8571 11.3125V9.875H30V11.3125ZM18.5714 48.6875C18.5714 47.5438 18.1199 46.4469 17.3162 45.6381C16.5124 44.8293 15.4224 44.375 14.2857 44.375H12.8571V47.25H14.2857C14.6646 47.25 15.028 47.4015 15.2959 47.671C15.5638 47.9406 15.7143 48.3063 15.7143 48.6875V50.125H18.5714V48.6875Z" fill="#DB4B4B"/>
</svg>
