<svg width="24" height="24" viewBox="0 0 24 24" fill="none" xmlns="http://www.w3.org/2000/svg">
<path d="M1.19973 24C0.96243 24 0.730475 23.9296 0.533186 23.7977C0.335897 23.6659 0.182132 23.4785 0.0913294 23.2592C0.000526733 23.04 -0.0232366 22.7987 0.0230438 22.566C0.0693242 22.3332 0.18357 22.1195 0.351339 21.9516L9.6596 12.642C9.88592 12.4234 10.189 12.3025 10.5037 12.3052C10.8183 12.308 11.1193 12.4342 11.3418 12.6566C11.5642 12.8791 11.6904 13.1801 11.6932 13.4947C11.6959 13.8094 11.575 14.1125 11.3564 14.3388L2.04811 23.6484C1.82313 23.8735 1.51796 24 1.19973 24Z" fill="#FF7AB2"/>
<path d="M6.96914 23.322C6.65092 23.3219 6.34574 23.1955 6.12076 22.9704L1.02923 17.88C0.810646 17.6537 0.689694 17.3506 0.692428 17.0359C0.695162 16.7213 0.821363 16.4203 1.04385 16.1978C1.26634 15.9753 1.56731 15.8491 1.88194 15.8464C2.19657 15.8437 2.49969 15.9646 2.72601 16.1832L7.81753 21.2748C7.9853 21.4426 8.09955 21.6564 8.14583 21.8892C8.19211 22.1219 8.16834 22.3631 8.07754 22.5824C7.98674 22.8016 7.83297 22.989 7.63568 23.1209C7.4384 23.2527 7.20644 23.3231 6.96914 23.3232V23.322ZM15.5994 16.8C14.4958 16.8027 13.4026 16.5866 12.383 16.1642C11.3635 15.7417 10.4378 15.1213 9.6595 14.3388C8.28557 12.9644 7.43067 11.1562 7.24047 9.22217C7.05026 7.28814 7.53651 5.348 8.61638 3.7323C9.69625 2.1166 11.3029 0.92531 13.1626 0.361409C15.0223 -0.202493 17.02 -0.104118 18.8154 0.63977C20.6107 1.38366 22.0925 2.72704 23.0084 4.44102C23.9243 6.15499 24.2176 8.13353 23.8383 10.0395C23.459 11.9455 22.4306 13.661 20.9283 14.8937C19.426 16.1264 17.5427 16.8001 15.5994 16.8ZM15.5994 2.4C14.4128 2.40002 13.2529 2.75188 12.2663 3.41109C11.2796 4.07031 10.5106 5.00727 10.0565 6.10352C9.6023 7.19977 9.48338 8.40607 9.71474 9.5699C9.94611 10.7337 10.5174 11.8028 11.3563 12.642C12.0539 13.3398 12.9129 13.8549 13.8571 14.1414C14.8013 14.428 15.8016 14.4772 16.7694 14.2848C17.7372 14.0924 18.6426 13.6643 19.4054 13.0384C20.1682 12.4125 20.7649 11.6081 21.1425 10.6965C21.5202 9.78487 21.6672 8.79419 21.5705 7.81219C21.4739 6.83018 21.1365 5.88718 20.5883 5.06672C20.0402 4.24625 19.2981 3.57365 18.4279 3.10849C17.5577 2.64334 16.5862 2.39999 15.5994 2.4Z" fill="#FF7AB2"/>
</svg>
