<svg width="25" height="24" viewBox="0 0 25 24" fill="none" xmlns="http://www.w3.org/2000/svg">
<path d="M13.9917 11.7096C13.7544 11.7096 13.5225 11.6392 13.3252 11.5073C13.1279 11.3754 12.9741 11.188 12.8833 10.9688C12.7925 10.7496 12.7688 10.5083 12.815 10.2756C12.8613 10.0428 12.9756 9.82905 13.1433 9.66123L22.4515 0.351625C22.6778 0.133035 22.9809 0.0120818 23.2956 0.0148159C23.6102 0.01755 23.9111 0.143752 24.1336 0.366242C24.3561 0.588732 24.4823 0.889707 24.4851 1.20434C24.4878 1.51898 24.3668 1.8221 24.1483 2.04842L14.8401 11.358C14.6151 11.5831 14.3099 11.7096 13.9917 11.7096Z" fill="#6BE7FF"/>
<path d="M8.90039 24C7.51895 24.0001 6.15882 23.6595 4.94048 23.0083C3.72213 22.3571 2.68319 21.4155 1.91569 20.2669C1.14819 19.1183 0.675826 17.7981 0.540439 16.4232C0.405052 15.0484 0.610825 13.6614 1.13953 12.3851C1.66823 11.1089 2.50354 9.98267 3.57146 9.10635C4.63938 8.23003 5.90695 7.63063 7.26186 7.36125C8.61678 7.09187 10.0172 7.16082 11.3391 7.562C12.661 7.96318 13.8636 8.68421 14.8402 9.6612C16.0147 10.836 16.8144 12.3327 17.1383 13.962C17.4623 15.5913 17.2958 17.2801 16.6601 18.8149C16.0243 20.3496 14.9478 21.6613 13.5666 22.5843C12.1854 23.5072 10.5616 23.9999 8.90039 24ZM8.90039 9.6C7.51233 9.59998 6.1672 10.0813 5.09418 10.9618C4.02117 11.8424 3.28666 13.0678 3.0158 14.4292C2.74493 15.7906 2.95448 17.2038 3.60873 18.428C4.26297 19.6523 5.32145 20.6118 6.60381 21.1431C7.88617 21.6744 9.31307 21.7446 10.6414 21.3418C11.9697 20.939 13.1173 20.0881 13.8886 18.934C14.6599 17.7799 15.0072 16.3941 14.8713 15.0127C14.7355 13.6313 14.1248 12.3397 13.1435 11.358C12.5874 10.7992 11.9262 10.3561 11.1979 10.0543C10.4696 9.75259 9.68871 9.59817 8.90039 9.6ZM23.3 8.4C22.9818 8.4 22.6766 8.27357 22.4515 8.04853C22.2265 7.82349 22.1001 7.51826 22.1001 7.2V2.4H17.3002C16.9819 2.4 16.6767 2.27357 16.4517 2.04853C16.2266 1.82348 16.1002 1.51826 16.1002 1.2C16.1002 0.88174 16.2266 0.576516 16.4517 0.351472C16.6767 0.126428 16.9819 0 17.3002 0H23.3C23.6183 0 23.9235 0.126428 24.1485 0.351472C24.3736 0.576516 24.5 0.88174 24.5 1.2V7.2C24.5 7.51826 24.3736 7.82349 24.1485 8.04853C23.9235 8.27357 23.6183 8.4 23.3 8.4Z" fill="#6BE7FF"/>
</svg>
