<svg width="34" height="34" viewBox="0 0 34 34" fill="none" xmlns="http://www.w3.org/2000/svg">
<path d="M22.1602 29.2083C20.5256 29.9007 18.7918 30.25 17.0016 30.25C15.2113 30.25 13.4773 29.9006 11.8456 29.2113C10.2681 28.546 8.84973 27.5888 7.63227 26.3714C6.4152 25.1545 5.46074 23.7365 4.79197 22.1581C4.0996 20.5236 3.75022 18.79 3.75022 17C3.75022 16.1019 3.02314 15.375 2.12511 15.375C1.22708 15.375 0.5 16.1019 0.5 17C0.5 19.2255 0.935034 21.3887 1.79591 23.423C2.62763 25.3893 3.82056 27.1524 5.33442 28.6661C6.8483 30.1798 8.6116 31.3726 10.5781 32.2043C12.6125 33.065 14.7759 33.5 17.0016 33.5C19.2273 33.5 21.3909 33.065 23.4257 32.2008C25.3881 31.3695 27.1544 30.1802 28.6687 28.6661C30.1824 27.1525 31.3754 25.3895 32.2041 23.423C33.065 21.3887 33.5 19.2255 33.5 17C33.5 14.7745 33.065 12.6113 32.2041 10.577C31.3727 8.61466 30.1831 6.84814 28.6687 5.33393C27.1548 3.82021 25.3916 2.62741 23.4251 1.79577C21.3906 0.934987 19.2272 0.5 17.0016 0.5C16.1035 0.5 15.3765 1.22694 15.3765 2.125C15.3765 3.02306 16.1035 3.75 17.0016 3.75C18.7919 3.75 20.5258 4.09938 22.1575 4.78871C23.7325 5.45299 25.1635 6.41741 26.3703 7.62799L26.371 7.62872C27.5804 8.83696 28.5448 10.2676 29.2111 11.8418C29.9034 13.4762 30.2529 15.21 30.2529 17C30.2529 18.7901 29.9035 20.5239 29.2141 22.1554C28.5488 23.7327 27.5914 25.151 26.374 26.3683C25.1569 27.5853 23.7388 28.5396 22.1602 29.2083ZM22.1602 29.2083L22.3552 29.6688ZM22.1602 29.2083L22.3552 29.6688Z" fill="#C2C3CC"/>
<path d="M22.1602 29.2083C20.5256 29.9007 18.7918 30.25 17.0016 30.25C15.2113 30.25 13.4773 29.9006 11.8456 29.2113C10.2681 28.546 8.84973 27.5888 7.63227 26.3714C6.4152 25.1545 5.46074 23.7365 4.79197 22.1581C4.0996 20.5236 3.75022 18.79 3.75022 17C3.75022 16.1019 3.02314 15.375 2.12511 15.375C1.22708 15.375 0.5 16.1019 0.5 17C0.5 19.2255 0.935034 21.3887 1.79591 23.423C2.62763 25.3893 3.82056 27.1524 5.33442 28.6661C6.8483 30.1798 8.6116 31.3726 10.5781 32.2043C12.6125 33.065 14.7759 33.5 17.0016 33.5C19.2273 33.5 21.3909 33.065 23.4257 32.2008C25.3881 31.3695 27.1544 30.1802 28.6687 28.6661C30.1824 27.1525 31.3754 25.3895 32.2041 23.423C33.065 21.3887 33.5 19.2255 33.5 17C33.5 14.7745 33.065 12.6113 32.2041 10.577C31.3727 8.61466 30.1831 6.84814 28.6687 5.33393C27.1548 3.82021 25.3916 2.62741 23.4251 1.79577C21.3906 0.934987 19.2272 0.5 17.0016 0.5C16.1035 0.5 15.3765 1.22694 15.3765 2.125C15.3765 3.02306 16.1035 3.75 17.0016 3.75C18.7919 3.75 20.5258 4.09938 22.1575 4.78871C23.7325 5.45299 25.1635 6.41741 26.3703 7.62799L26.371 7.62872C27.5804 8.83696 28.5448 10.2676 29.2111 11.8418C29.9034 13.4762 30.2529 15.21 30.2529 17C30.2529 18.7901 29.9035 20.5239 29.2141 22.1554C28.5488 23.7327 27.5914 25.151 26.374 26.3683C25.1569 27.5853 23.7388 28.5396 22.1602 29.2083ZM22.1602 29.2083L22.3552 29.6688M22.3552 29.6688C23.9929 28.975 25.4649 27.9844 26.7275 26.7219C27.9901 25.4594 28.984 23.9875 29.6747 22.35M22.3552 29.6688C20.6582 30.3875 18.858 30.75 17.0016 30.75C15.1451 30.75 13.345 30.3875 11.651 29.6719C10.0134 28.9812 8.54136 27.9875 7.27874 26.725" stroke="#C2C3CC"/>
</svg>
