<svg width="87" height="87" viewBox="0 0 87 87" fill="none" xmlns="http://www.w3.org/2000/svg">
<g clip-path="url(#clip0_110_207)">
<path d="M80.6024 53.4438L81.1768 65.2551L70.6552 70.6552L65.2551 81.1768L53.4438 80.6024L43.5 87L33.5562 80.6024L21.7449 81.1768L16.3448 70.6552L5.82322 65.2551L6.39756 53.4438L0 43.5L6.39756 33.5562L5.82322 21.7449L16.3448 16.3448L21.7449 5.82322L33.5562 6.39756L43.5 0L53.4438 6.39756L65.2551 5.82322L70.6552 16.3448L81.1768 21.7449L80.6024 33.5562L87 43.5L80.6024 53.4438Z" fill="#69B7FF"/>
<path d="M80.6024 53.4438L81.1768 65.2551L70.6552 70.6552L65.2551 81.1768L53.4438 80.6024L43.5 87V0L53.4438 6.39756L65.2551 5.82322L70.6552 16.3448L81.1768 21.7449L80.6024 33.5562L87 43.5L80.6024 53.4438Z" fill="#5473FF"/>
<path d="M72.8706 43.4977C72.8706 59.7184 59.7204 72.8687 43.4996 72.8687C27.2772 72.8687 14.127 59.7184 14.127 43.4977C14.127 27.2753 27.2772 14.125 43.4996 14.125C59.7204 14.125 72.8706 27.2753 72.8706 43.4977Z" fill="#F7F9FA"/>
<path d="M72.871 43.4977C72.871 59.7184 59.7207 72.8687 43.5 72.8687V14.125C59.7207 14.125 72.871 27.2753 72.871 43.4977Z" fill="#E3E7F5"/>
<path d="M62.2455 37.2328L40.5719 58.9064L24.7539 43.0883L32.5414 35.3008L40.5719 43.3313L43.4997 40.4036L54.4579 29.4453L62.2455 37.2328Z" fill="#69B7FF"/>
<path d="M62.2458 37.2328L43.5 55.9786V40.4036L54.4583 29.4453L62.2458 37.2328Z" fill="#5473FF"/>
</g>
<defs>
<clipPath id="clip0_110_207">
<rect width="87" height="87" fill="white"/>
</clipPath>
</defs>
</svg>
