<svg width="85" height="28" viewBox="0 0 85 28" fill="none" xmlns="http://www.w3.org/2000/svg">
<path d="M8.7244 10.7484L15.5716 19.0456L17.0333 17.4246L8.7244 10.7484Z" fill="white"/>
<ellipse rx="0.831524" ry="0.830621" transform="matrix(-0.806596 0.591104 0.593907 0.804534 8.23667 19.1656)" fill="#EC7475"/>
<ellipse rx="0.861107" ry="0.860173" transform="matrix(-0.806596 0.591104 0.593907 0.804534 9.01356 15.1815)" fill="#EC7475"/>
<ellipse rx="0.738092" ry="0.731439" transform="matrix(-0.806596 0.591104 0.593907 0.804534 12.1613 11.4017)" fill="#EC7475"/>
<ellipse rx="0.492061" ry="0.49546" transform="matrix(-0.806596 0.591104 0.593907 0.804534 16.4052 9.99025)" fill="#EC7475"/>
<ellipse rx="0.369046" ry="0.371595" transform="matrix(-0.806596 0.591104 0.593907 0.804534 20.8195 10.4937)" fill="#EC7475"/>
<ellipse rx="0.246031" ry="0.245764" transform="matrix(-0.806596 0.591104 0.593907 0.804534 24.428 12.5814)" fill="#EC7475"/>
<ellipse rx="0.492061" ry="0.491527" transform="matrix(-0.806596 0.591104 0.593907 0.804534 27.1978 9.31326)" fill="#A7425C"/>
<ellipse rx="1.23015" ry="1.22882" transform="matrix(-0.806596 0.591104 0.593907 0.804534 4.54811 19.4306)" fill="#A7425C"/>
<ellipse rx="1.10714" ry="1.10594" transform="matrix(-0.806596 0.591104 0.593907 0.804534 6.29311 13.4133)" fill="#A7425C"/>
<ellipse rx="0.984123" ry="0.983055" transform="matrix(-0.806596 0.591104 0.593907 0.804534 10.585 8.80231)" fill="#A7425C"/>
<ellipse rx="0.738092" ry="0.732902" transform="matrix(-0.806596 0.591104 0.593907 0.804534 16.4181 6.38921)" fill="#A7425C"/>
<ellipse rx="0.492061" ry="0.494471" transform="matrix(-0.806596 0.591104 0.593907 0.804534 22.0569 6.48946)" fill="#A7425C"/>
<path d="M17.5312 25.5215V15.1223H22.2138C23.0336 15.1223 23.68 15.2637 24.153 15.5465C24.6365 15.8292 24.9834 16.1853 25.1936 16.6146C25.4038 17.0335 25.5089 17.4524 25.5089 17.8713C25.5089 18.5416 25.367 19.06 25.0832 19.4265C24.7994 19.7826 24.4736 20.0444 24.1057 20.2119C24.4 20.3062 24.6943 20.458 24.9886 20.6675C25.2934 20.8665 25.5457 21.1388 25.7454 21.4843C25.9451 21.8299 26.0449 22.2645 26.0449 22.7882C26.0449 23.5631 25.7454 24.2124 25.1463 24.7361C24.5577 25.2597 23.6695 25.5215 22.4818 25.5215H17.5312ZM18.7137 19.7721H22.2138C22.5817 19.7721 22.9233 19.7093 23.2386 19.5836C23.5644 19.4579 23.8272 19.2642 24.0269 19.0024C24.2266 18.7301 24.3264 18.3845 24.3264 17.9656C24.3264 17.6724 24.2581 17.3948 24.1215 17.133C23.9953 16.8712 23.7851 16.6565 23.4908 16.489C23.207 16.3214 22.8234 16.2376 22.3399 16.2376H18.7137V19.7721ZM18.7137 24.4062H22.6079C23.3227 24.4062 23.8745 24.2596 24.2634 23.9663C24.6628 23.6626 24.8625 23.2385 24.8625 22.6939C24.8625 22.2017 24.6733 21.7723 24.2949 21.4058C23.9165 21.0288 23.3121 20.8403 22.4818 20.8403H18.7137V24.4062Z" fill="white"/>
<path d="M32.6211 25.6472C31.8538 25.6472 31.1811 25.4691 30.6031 25.1131C30.0355 24.7465 29.594 24.2543 29.2787 23.6364C28.9634 23.0186 28.8057 22.3379 28.8057 21.5943C28.8057 20.8403 28.9634 20.1596 29.2787 19.5522C29.594 18.9343 30.0355 18.4473 30.6031 18.0913C31.1811 17.7247 31.8538 17.5415 32.6211 17.5415C33.2728 17.5415 33.8298 17.6671 34.2923 17.9185C34.7653 18.1698 35.1489 18.5102 35.4432 18.9395V17.6671H36.6257V25.5215H35.4432V24.2648C35.1489 24.6837 34.7653 25.0188 34.2923 25.2701C33.8298 25.5215 33.2728 25.6472 32.6211 25.6472ZM32.7788 24.579C33.3674 24.579 33.8614 24.4428 34.2608 24.1705C34.6707 23.8983 34.9808 23.537 35.191 23.0866C35.4012 22.6258 35.5063 22.1284 35.5063 21.5943C35.5063 21.0497 35.4012 20.5523 35.191 20.102C34.9808 19.6517 34.6707 19.2904 34.2608 19.0181C33.8614 18.7458 33.3674 18.6097 32.7788 18.6097C32.2007 18.6097 31.7014 18.7458 31.281 19.0181C30.8606 19.2904 30.54 19.6517 30.3193 20.102C30.0985 20.5523 29.9882 21.0497 29.9882 21.5943C29.9882 22.1284 30.0985 22.6258 30.3193 23.0866C30.54 23.537 30.8606 23.8983 31.281 24.1705C31.7014 24.4428 32.2007 24.579 32.7788 24.579Z" fill="white"/>
<path d="M40.2476 25.5215V14.5254H41.43V25.5215H40.2476Z" fill="white"/>
<path d="M48.3841 25.6472C47.6168 25.6472 46.9441 25.4691 46.3661 25.1131C45.7985 24.7465 45.357 24.2543 45.0417 23.6364C44.7264 23.0186 44.5687 22.3379 44.5687 21.5943C44.5687 20.8403 44.7264 20.1596 45.0417 19.5522C45.357 18.9343 45.7985 18.4473 46.3661 18.0913C46.9441 17.7247 47.6168 17.5415 48.3841 17.5415C49.0358 17.5415 49.5928 17.6671 50.0553 17.9185C50.5283 18.1698 50.9119 18.5102 51.2062 18.9395V17.6671H52.3887V25.5215H51.2062V24.2648C50.9119 24.6837 50.5283 25.0188 50.0553 25.2701C49.5928 25.5215 49.0358 25.6472 48.3841 25.6472ZM48.5418 24.579C49.1304 24.579 49.6244 24.4428 50.0238 24.1705C50.4337 23.8983 50.7438 23.537 50.954 23.0866C51.1642 22.6258 51.2693 22.1284 51.2693 21.5943C51.2693 21.0497 51.1642 20.5523 50.954 20.102C50.7438 19.6517 50.4337 19.2904 50.0238 19.0181C49.6244 18.7458 49.1304 18.6097 48.5418 18.6097C47.9637 18.6097 47.4644 18.7458 47.044 19.0181C46.6236 19.2904 46.303 19.6517 46.0823 20.102C45.8615 20.5523 45.7512 21.0497 45.7512 21.5943C45.7512 22.1284 45.8615 22.6258 46.0823 23.0866C46.303 23.537 46.6236 23.8983 47.044 24.1705C47.4644 24.4428 47.9637 24.579 48.5418 24.579Z" fill="white"/>
<path d="M56.0106 25.5215V17.6671H57.193V18.8924C57.4768 18.5154 57.8237 18.196 58.2336 17.9342C58.6435 17.6724 59.1691 17.5415 59.8102 17.5415C60.3568 17.5415 60.8665 17.6724 61.3395 17.9342C61.823 18.1855 62.2119 18.5678 62.5062 19.0809C62.811 19.5836 62.9634 20.2067 62.9634 20.9503V25.5215H61.781V20.9817C61.781 20.2695 61.576 19.6988 61.1661 19.2694C60.7562 18.8296 60.2254 18.6097 59.5737 18.6097C59.1323 18.6097 58.7329 18.7091 58.3755 18.9081C58.0181 19.1071 57.7291 19.3899 57.5084 19.7564C57.2982 20.1125 57.193 20.5261 57.193 20.9974V25.5215H56.0106Z" fill="white"/>
<path d="M69.9069 25.6472C69.1186 25.6472 68.4354 25.4691 67.8573 25.1131C67.2792 24.7465 66.8273 24.2543 66.5014 23.6364C66.1861 23.0186 66.0285 22.3379 66.0285 21.5943C66.0285 20.8403 66.1861 20.1596 66.5014 19.5522C66.8273 18.9343 67.2792 18.4473 67.8573 18.0913C68.4354 17.7247 69.1186 17.5415 69.9069 17.5415C70.8424 17.5415 71.6359 17.7823 72.2876 18.2641C72.9498 18.7458 73.3965 19.3689 73.6277 20.1334H72.3507C72.172 19.6831 71.8829 19.3165 71.4835 19.0338C71.0946 18.751 70.6216 18.6097 70.0646 18.6097C69.4865 18.6097 68.982 18.7458 68.551 19.0181C68.1201 19.2904 67.789 19.6517 67.5578 20.102C67.3265 20.5523 67.2109 21.0497 67.2109 21.5943C67.2109 22.1284 67.3265 22.6258 67.5578 23.0866C67.789 23.537 68.1201 23.8983 68.551 24.1705C68.982 24.4428 69.4865 24.579 70.0646 24.579C70.6216 24.579 71.0946 24.4376 71.4835 24.1548C71.8829 23.8721 72.172 23.5055 72.3507 23.0552H73.6277C73.3965 23.8197 72.9498 24.4428 72.2876 24.9246C71.6359 25.4063 70.8424 25.6472 69.9069 25.6472Z" fill="white"/>
<path d="M80.1698 25.6472C79.371 25.6472 78.672 25.4691 78.0729 25.1131C77.4738 24.7465 77.006 24.2543 76.6697 23.6364C76.3439 23.0186 76.181 22.3379 76.181 21.5943C76.181 20.8403 76.3386 20.1596 76.6539 19.5522C76.9693 18.9343 77.4212 18.4473 78.0098 18.0913C78.5984 17.7247 79.2921 17.5415 80.0909 17.5415C80.9003 17.5415 81.594 17.7247 82.1721 18.0913C82.7607 18.4473 83.2126 18.9343 83.5279 19.5522C83.8433 20.1596 84.0009 20.8403 84.0009 21.5943V22.0656H77.3949C77.458 22.5264 77.6052 22.9505 77.8364 23.338C78.0781 23.715 78.3987 24.0187 78.7981 24.2491C79.1975 24.469 79.66 24.579 80.1855 24.579C80.7426 24.579 81.2103 24.4585 81.5887 24.2177C81.9671 23.9663 82.2614 23.6469 82.4716 23.2594H83.7644C83.4912 23.9611 83.055 24.5371 82.4558 24.9874C81.8672 25.4272 81.1052 25.6472 80.1698 25.6472ZM77.4107 20.966H82.7712C82.6661 20.2957 82.3823 19.7354 81.9198 19.2851C81.4573 18.8348 80.8477 18.6097 80.0909 18.6097C79.3342 18.6097 78.7245 18.8348 78.2621 19.2851C77.8101 19.7354 77.5263 20.2957 77.4107 20.966Z" fill="white"/>
</svg>
