<svg width="182" height="26" viewBox="0 0 182 26" fill="none" xmlns="http://www.w3.org/2000/svg">
<rect x="2.16602" y="0.859375" width="6.54184" height="8.58617" fill="#FFC466"/>
<rect x="4.12891" y="9.44531" width="7.19603" height="6.01032" fill="#5BC8AF"/>
<rect x="0.859375" y="15.4551" width="7.19603" height="9.44479" fill="#AA5ACA"/>
<rect x="2.16602" y="6.00977" width="6.54184" height="3.43447" fill="#F08840"/>
<rect x="4.12891" y="12.8789" width="7.19603" height="2.57585" fill="#3FAB92"/>
<rect x="0.859375" y="20.6074" width="7.19603" height="4.29309" fill="#8E3DAE"/>
<path fill-rule="evenodd" clip-rule="evenodd" d="M1.30837 0.858617C1.30837 0.384416 1.69279 0 2.16699 0H26.0447C26.5189 0 26.9033 0.384416 26.9033 0.858617C26.9033 1.33282 26.5189 1.71723 26.0447 1.71723H3.0256V8.58617H26.0447C26.5189 8.58617 26.9033 8.97059 26.9033 9.44479C26.9033 9.91899 26.5189 10.3034 26.0447 10.3034H5.31525V14.5965H12.8793C13.3535 14.5965 13.7379 14.9809 13.7379 15.4551C13.7379 15.9293 13.3535 16.3137 12.8793 16.3137H1.71723V24.0413H28.3344C28.8086 24.0413 29.193 24.4257 29.193 24.8999C29.193 25.3741 28.8086 25.7585 28.3344 25.7585H0.858617C0.384416 25.7585 0 25.3741 0 24.8999V15.4551C0 14.9809 0.384416 14.5965 0.858617 14.5965H3.59802V10.3034H2.16699C1.69279 10.3034 1.30837 9.91899 1.30837 9.44479V0.858617ZM22.324 15.4551C22.324 14.9809 22.7085 14.5965 23.1827 14.5965H28.3344C28.8086 14.5965 29.193 14.9809 29.193 15.4551C29.193 15.9293 28.8086 16.3137 28.3344 16.3137H23.1827C22.7085 16.3137 22.324 15.9293 22.324 15.4551Z" fill="#585858"/>
<path d="M15.25 12.8789H20.4835V19.7478L17.8667 18.0306L15.25 19.7478V12.8789Z" fill="#ED6552"/>
<path d="M54.0229 2.45713C52.3653 0.819042 50.0115 0 46.9947 0C43.4806 0 40.6958 1.26269 38.7067 3.78807C36.8501 6.07456 35.9219 9.04359 35.9219 12.661C35.9219 17.4046 37.1485 20.9197 39.6349 23.2062C41.4914 24.9125 43.8121 25.7998 46.5969 25.7998C49.7795 25.7998 52.3322 24.7419 54.2218 22.626C55.8131 20.8856 56.7414 18.7356 57.0066 16.142H53.8572C53.5588 17.78 53.0615 19.0769 52.3985 20.0665C51.1387 21.9435 49.3485 22.8649 46.9615 22.8649C44.4088 22.8649 42.4528 21.9776 41.1599 20.1689C39.867 18.3943 39.2039 16.0737 39.2039 13.2071C39.2039 9.72612 39.9333 7.13249 41.3588 5.42616C42.8175 3.75394 44.7072 2.90078 47.0278 2.90078C48.9506 2.90078 50.4425 3.34442 51.5365 4.26584C52.5642 5.18727 53.2936 6.44996 53.6582 8.01979H56.7745C56.6088 5.93806 55.6805 4.09521 54.0229 2.45713Z" fill="#1A1A1A"/>
<path d="M73.1742 9.07772C71.6492 7.54201 69.7595 6.79122 67.5052 6.79122C65.0188 6.79122 63.0297 7.67852 61.571 9.45311C60.0791 11.2277 59.3498 13.6166 59.3498 16.6197C59.3498 19.4181 60.046 21.6364 61.4384 23.3086C62.8639 24.9808 64.7536 25.7998 67.1405 25.7998C69.9916 25.7998 72.1133 24.8784 73.4726 23.0014C74.8318 21.0903 75.4949 18.7356 75.4949 15.8689C75.4949 12.8658 74.7324 10.6134 73.1742 9.07772ZM71.384 20.9538C70.6547 22.4554 69.3286 23.2062 67.4057 23.2062C65.6487 23.2062 64.3558 22.5919 63.5601 21.3292C62.7313 20.0665 62.3335 18.4626 62.3335 16.5856C62.3335 14.5721 62.7313 12.8999 63.5601 11.5007C64.3558 10.1015 65.6487 9.41898 67.4389 9.41898C69.428 9.41898 70.8536 10.238 71.6824 11.8761C72.2128 12.934 72.4449 14.265 72.4449 15.9372C72.4449 17.78 72.1133 19.4522 71.384 20.9538Z" fill="#1A1A1A"/>
<path d="M81.8158 9.8285V7.30313H78.9315V25.1514H81.8489V15.6983C81.8489 13.3777 82.3131 11.8079 83.2082 10.9206C84.1033 10.0333 85.0978 9.58962 86.225 9.58962C87.4185 9.58962 88.2473 10.0333 88.6783 10.8523C88.9766 11.3983 89.1092 12.2856 89.1092 13.5142V25.1514H92.0598V14.7769C92.0598 12.934 92.4907 11.6031 93.3196 10.8182C94.1484 10.0333 95.1098 9.62374 96.2701 9.62374C97.0989 9.62374 97.7951 9.86263 98.3918 10.3063C98.9554 10.7499 99.2538 11.569 99.2538 12.7634V25.1514H102.271V13.2753C102.271 11.6713 102.039 10.4428 101.608 9.52136C100.746 7.7809 99.1543 6.8936 96.8337 6.8936C95.7397 6.8936 94.7782 7.13249 93.8831 7.57614C93.0212 8.05391 92.2587 8.77058 91.5956 9.72612C91.231 8.94121 90.7668 8.36106 90.3027 7.95153C89.4739 7.269 88.3467 6.8936 86.9875 6.8936C85.7609 6.8936 84.6669 7.23487 83.7054 7.91741C83.1419 8.32693 82.512 8.94121 81.8158 9.8285Z" fill="#1A1A1A"/>
<path d="M107.907 1.84284C107.542 2.423 107.343 3.34442 107.277 4.57298V7.37138H104.89V9.76025H107.277V25.1514H110.161V9.76025H113.078V7.37138H110.194C110.194 5.46028 110.294 4.26584 110.459 3.78807C110.625 3.3103 111.156 3.07141 112.051 3.07141H112.449C112.581 3.10553 112.78 3.10554 113.078 3.10554V0.375395L112.415 0.341267C112.216 0.307141 112.018 0.30714 111.852 0.30714C109.929 0.30714 108.603 0.85317 107.907 1.84284Z" fill="#1A1A1A"/>
<path d="M119.498 17.7553H114.605C114.605 20.3211 115.495 22.3395 117.342 23.7763C119.19 25.2474 121.721 26 124.903 26C128.05 26 130.479 25.2474 132.224 23.7421C133.934 22.2711 134.79 20.3895 134.79 18.1658C134.79 15.9763 134.037 14.2658 132.566 13.1368C131.642 12.3842 130.24 11.8026 128.358 11.3237L124.116 10.3316C122.474 9.92105 121.413 9.57895 120.934 9.30526C120.148 8.86053 119.737 8.21053 119.737 7.32105C119.737 6.36316 120.148 5.61053 120.934 5.09737C121.721 4.55 122.782 4.27632 124.116 4.27632C125.279 4.27632 126.305 4.48158 127.092 4.89211C128.29 5.50789 128.94 6.56842 129.042 8.07369H133.969C133.9 5.43947 132.942 3.45526 131.095 2.05263C129.282 0.684212 127.058 0 124.458 0C121.345 0 118.984 0.752632 117.411 2.18947C115.803 3.66053 114.982 5.47368 114.982 7.69737C114.982 10.1263 115.837 11.8711 117.479 13.0342C118.471 13.7184 120.25 14.3342 122.782 14.9158L125.382 15.4974C126.921 15.8395 128.05 16.2158 128.769 16.6605C129.487 17.1053 129.829 17.7211 129.829 18.5421C129.829 19.9105 129.111 20.8684 127.674 21.3816C126.921 21.6553 125.929 21.7921 124.698 21.7921C122.679 21.7921 121.242 21.2789 120.421 20.2868C119.977 19.7053 119.634 18.8842 119.498 17.7553Z" fill="#191919"/>
<path d="M142.829 14.0605V0.821054H138.142V25.35H142.829V19.6368L144.813 17.55L149.158 25.35H154.905L148.303 14.1974L154.666 7.21842H148.782L142.829 14.0605Z" fill="#191919"/>
<path d="M157.288 0.58158V4.96053H162.112V0.58158H157.288ZM162.112 25.35V7.15H157.288V25.35H162.112Z" fill="#191919"/>
<path d="M166.844 0.718422V25.35H171.599V0.718422H166.844Z" fill="#191919"/>
<path d="M176.366 0.718422V25.35H181.121V0.718422H176.366Z" fill="#191919"/>
</svg>
