<svg width="64" height="74" viewBox="0 0 64 74" fill="none" xmlns="http://www.w3.org/2000/svg">
<path d="M61.4442 13.447C56.4086 12.1031 51.4891 10.3567 46.7331 8.22483C42.0541 6.19508 37.5372 3.81035 33.222 1.09149L31.9998 0.335938L30.7998 1.11372C26.4846 3.83257 21.9677 6.2173 17.2887 8.24705C12.5249 10.3725 7.59789 12.1114 2.55534 13.447L0.888672 13.8693V32.4026C0.888672 62.1582 30.9553 73.2915 31.2442 73.4026L31.9998 73.6693L32.7553 73.4026C33.0665 73.4026 63.1109 62.1804 63.1109 32.4026V13.8693L61.4442 13.447ZM51.2887 28.2248L26.4665 52.3359L12.422 38.2693C11.8326 37.6799 11.5015 36.8805 11.5015 36.047C11.5015 35.2136 11.8326 34.4142 12.422 33.8248C13.0114 33.2355 13.8107 32.9044 14.6442 32.9044C15.4777 32.9044 16.2771 33.2355 16.8664 33.8248L26.5331 43.6693L46.9553 23.6693C47.2472 23.3774 47.5936 23.146 47.9749 22.988C48.3562 22.8301 48.7649 22.7488 49.1776 22.7488C49.5903 22.7488 49.9989 22.8301 50.3802 22.988C50.7615 23.146 51.108 23.3774 51.3998 23.6693C51.6916 23.9611 51.9231 24.3075 52.081 24.6888C52.239 25.0701 52.3203 25.4788 52.3203 25.8915C52.3203 26.3042 52.239 26.7129 52.081 27.0941C51.9231 27.4754 51.6916 27.8219 51.3998 28.1137L51.2887 28.2248Z" fill="#7D8BF7"/>
</svg>
