<svg width="101" height="102" viewBox="0 0 101 102" fill="none" xmlns="http://www.w3.org/2000/svg">
<path d="M48.4808 79.7943C34.229 83.9063 26.4028 63.7637 23.415 56.5784C17.4562 42.2249 1.91421 32.2132 3.06012 21.6481C4.20604 11.083 17.1506 12.1387 17.1506 12.1387" stroke="#BDBDBD" stroke-width="5" stroke-miterlimit="10" stroke-linejoin="round"/>
<path d="M47.5895 79.7939C61.9262 75.9799 57.2576 55.1818 56.1372 47.4772C53.9048 32.085 62.1129 15.4925 55.7213 7.0217C49.3296 -1.44909 38.7617 6.11929 38.7617 6.11929" stroke="#BDBDBD" stroke-width="5" stroke-miterlimit="10" stroke-linejoin="round"/>
<path d="M83.5286 36.5322C90.6777 36.5322 96.4732 30.7195 96.4732 23.5493C96.4732 16.379 90.6777 10.5664 83.5286 10.5664C76.3795 10.5664 70.584 16.379 70.584 23.5493C70.584 30.7195 76.3795 36.5322 83.5286 36.5322Z" fill="#878787"/>
<path d="M83.9863 34.0281C90.2728 34.0281 95.369 28.9168 95.369 22.6117C95.369 16.3066 90.2728 11.1953 83.9863 11.1953C77.6997 11.1953 72.6035 16.3066 72.6035 22.6117C72.6035 28.9168 77.6997 34.0281 83.9863 34.0281Z" fill="#BDBDBD"/>
<path d="M55.7199 46.1133C54.9609 51.9503 64.368 73.272 49.7755 79.1091C33.4345 85.6563 27.3365 61.3121 23.0039 56.5923" stroke="#5361C8" stroke-width="7" stroke-miterlimit="10"/>
<path d="M24.7812 58.7129C24.7812 58.7129 33.9231 68.3841 44.6438 63.9486C54.8042 59.743 56.383 48.582 56.383 48.582" stroke="#4853A3" stroke-width="5" stroke-miterlimit="10"/>
<path opacity="0.22" d="M82.782 14.3546C78.3341 15.3932 75.5755 19.8457 76.6025 24.3067C76.7553 24.9707 76.993 25.6177 77.3071 26.2307C77.5532 26.716 77.8843 27.3715 77.8843 27.3715C76.2545 29.5083 74.9303 30.3256 74.4805 32.803C75.6349 33.9353 76.9845 34.8377 78.4615 35.4677C78.4615 35.4592 78.4699 35.4507 78.4699 35.4421C78.4699 35.4507 78.4784 35.4592 78.4784 35.4762C80.9146 36.5148 83.6902 36.8298 86.4744 36.1828C86.7884 36.1062 87.0855 36.0125 87.3826 35.9189L87.1195 33.5352C87.1195 33.5352 87.459 30.5129 87.5354 30.3512C87.7306 29.9681 88.52 29.7637 88.9275 29.5254C89.9121 28.9294 90.7694 28.1207 91.4315 27.1757C92.7642 25.2602 93.231 22.8253 92.7048 20.5523C91.6692 16.0913 87.2213 13.3159 82.782 14.3546Z" fill="#212121"/>
<path d="M48.3711 77.858C56.5113 96.5618 68.9891 99.2095 78.2073 97.6005C86.3051 96.1787 97.0258 88.8998 97.0003 75.7041C96.9664 59.8011 86.39 60.8057 80.6604 50.6152C73.5218 37.9133 83.2493 26.25 83.2493 26.25" stroke="#5361C8" stroke-width="7" stroke-miterlimit="10"/>
<path opacity="0.22" d="M77.502 29.1123C77.502 29.1123 79.1147 28.2865 80.6596 29.1719C83.1042 30.5681 83.3419 32.5602 83.3419 32.5602C83.3419 32.5602 84.8188 29.6146 85.6082 28.8144C86.3892 28.0056 80.8803 23.9958 79.6325 25.5367C78.3847 27.0776 77.502 29.1123 77.502 29.1123Z" fill="#212121"/>
<path d="M20.7066 8.06262C19.4334 8.07113 18.3129 8.68409 17.5744 9.61205L16.5219 8.77774C15.5627 8.02005 14.1537 8.70964 14.1621 9.93556L14.1961 14.354C14.2046 15.5799 15.6221 16.2525 16.5643 15.4778L17.5914 14.6434C18.3384 15.5714 19.4758 16.1759 20.7575 16.1673C22.9899 16.1503 24.7894 14.3199 24.7725 12.0809C24.7555 9.84191 22.939 8.04559 20.7066 8.06262Z" fill="#616161"/>
<path d="M42.1828 6.51167L39.9334 2.71471C39.3053 1.65905 37.7434 1.80378 37.319 2.94457L36.8522 4.20455C35.7402 3.78739 34.467 3.84699 33.372 4.50252C31.4536 5.64331 30.817 8.13772 31.9629 10.0617C33.1004 11.9858 35.5874 12.6243 37.5058 11.475C38.6092 10.8194 39.2713 9.71269 39.4326 8.52934L40.7398 8.70812C41.9451 8.86987 42.8109 7.56733 42.1828 6.51167Z" fill="#616161"/>
<path d="M85.5245 28.8174C89.7999 28.8174 93.2658 25.3413 93.2658 21.0532C93.2658 16.7652 89.7999 13.2891 85.5245 13.2891C81.2491 13.2891 77.7832 16.7652 77.7832 21.0532C77.7832 25.3413 81.2491 28.8174 85.5245 28.8174Z" fill="#424242"/>
<path d="M85.914 26.4768C89.233 26.4768 91.9237 23.7782 91.9237 20.4493C91.9237 17.1205 89.233 14.4219 85.914 14.4219C82.5949 14.4219 79.9043 17.1205 79.9043 20.4493C79.9043 23.7782 82.5949 26.4768 85.914 26.4768Z" fill="#D1D1D1"/>
<path d="M33.0499 8.96897C32.3455 7.95588 32.4812 6.06592 33.6949 5.20607C34.9085 4.34622 36.7416 4.72081 37.4461 5.85308C38.2353 7.11306 36.173 5.98078 34.9594 6.84063C33.7458 7.70048 33.8985 10.1949 33.0499 8.96897Z" fill="#757575"/>
<path d="M18.314 10.7922C18.6195 9.59177 20.1217 8.4595 21.5645 8.81706C23.0072 9.17462 23.9238 10.8007 23.5334 12.0777C23.1006 13.4994 22.5999 11.1923 21.1571 10.8432C19.7228 10.4857 17.9491 12.2394 18.314 10.7922Z" fill="#757575"/>
</svg>
