<svg width="364" height="139" viewBox="0 0 364 139" fill="none" xmlns="http://www.w3.org/2000/svg">
<circle cx="190.559" cy="3.15347" r="3.15347" fill="#F4F4FA"/>
<circle cx="190.56" cy="22.0744" r="3.15347" fill="#F4F4FA"/>
<circle cx="190.56" cy="40.9953" r="3.15347" fill="#F4F4FA"/>
<circle cx="190.56" cy="59.9157" r="3.15347" fill="#F4F4FA"/>
<circle cx="190.56" cy="78.8366" r="3.15347" fill="#F4F4FA"/>
<circle cx="190.56" cy="97.7575" r="3.15347" fill="#F4F4FA"/>
<circle cx="190.56" cy="116.678" r="3.15347" fill="#F4F4FA"/>
<circle cx="190.56" cy="135.599" r="3.15347" fill="#F4F4FA"/>
<circle cx="209.48" cy="3.15347" r="3.15347" fill="#F4F4FA"/>
<circle cx="209.48" cy="22.0744" r="3.15347" fill="#F4F4FA"/>
<circle cx="209.48" cy="40.9953" r="3.15347" fill="#F4F4FA"/>
<circle cx="209.48" cy="59.9157" r="3.15347" fill="#F4F4FA"/>
<circle cx="209.48" cy="78.8366" r="3.15347" fill="#F4F4FA"/>
<circle cx="209.48" cy="97.7575" r="3.15347" fill="#F4F4FA"/>
<circle cx="209.48" cy="116.678" r="3.15347" fill="#F4F4FA"/>
<circle cx="209.48" cy="135.599" r="3.15347" fill="#F4F4FA"/>
<circle cx="228.401" cy="3.15347" r="3.15347" fill="#F4F4FA"/>
<circle cx="228.401" cy="22.0744" r="3.15347" fill="#F4F4FA"/>
<circle cx="228.401" cy="40.9953" r="3.15347" fill="#F4F4FA"/>
<circle cx="228.401" cy="59.9157" r="3.15347" fill="#F4F4FA"/>
<circle cx="228.401" cy="78.8366" r="3.15347" fill="#F4F4FA"/>
<circle cx="228.401" cy="97.7575" r="3.15347" fill="#F4F4FA"/>
<circle cx="228.401" cy="116.678" r="3.15347" fill="#F4F4FA"/>
<circle cx="228.401" cy="135.599" r="3.15347" fill="#F4F4FA"/>
<circle cx="247.322" cy="3.15347" r="3.15347" fill="#F4F4FA"/>
<circle cx="247.322" cy="22.0744" r="3.15347" fill="#F4F4FA"/>
<circle cx="247.322" cy="40.9953" r="3.15347" fill="#F4F4FA"/>
<circle cx="247.322" cy="59.9157" r="3.15347" fill="#F4F4FA"/>
<circle cx="247.322" cy="78.8366" r="3.15347" fill="#F4F4FA"/>
<circle cx="247.322" cy="97.7575" r="3.15347" fill="#F4F4FA"/>
<circle cx="247.322" cy="116.678" r="3.15347" fill="#F4F4FA"/>
<circle cx="247.322" cy="135.599" r="3.15347" fill="#F4F4FA"/>
<circle cx="266.243" cy="3.15347" r="3.15347" fill="#F4F4FA"/>
<circle cx="266.243" cy="22.0744" r="3.15347" fill="#F4F4FA"/>
<circle cx="266.243" cy="40.9953" r="3.15347" fill="#F4F4FA"/>
<circle cx="266.243" cy="59.9157" r="3.15347" fill="#F4F4FA"/>
<circle cx="266.243" cy="78.8366" r="3.15347" fill="#F4F4FA"/>
<circle cx="266.243" cy="97.7575" r="3.15347" fill="#F4F4FA"/>
<circle cx="266.243" cy="116.678" r="3.15347" fill="#F4F4FA"/>
<circle cx="266.243" cy="135.599" r="3.15347" fill="#F4F4FA"/>
<circle cx="285.164" cy="3.15347" r="3.15347" fill="#F4F4FA"/>
<circle cx="285.164" cy="22.0744" r="3.15347" fill="#F4F4FA"/>
<circle cx="285.164" cy="40.9953" r="3.15347" fill="#F4F4FA"/>
<circle cx="285.164" cy="59.9157" r="3.15347" fill="#F4F4FA"/>
<circle cx="285.164" cy="78.8366" r="3.15347" fill="#F4F4FA"/>
<circle cx="285.164" cy="97.7575" r="3.15347" fill="#F4F4FA"/>
<circle cx="285.164" cy="116.678" r="3.15347" fill="#F4F4FA"/>
<circle cx="285.164" cy="135.599" r="3.15347" fill="#F4F4FA"/>
<circle cx="304.084" cy="3.15347" r="3.15347" fill="#F4F4FA"/>
<circle cx="304.084" cy="22.0744" r="3.15347" fill="#F4F4FA"/>
<circle cx="304.084" cy="40.9953" r="3.15347" fill="#F4F4FA"/>
<circle cx="304.084" cy="59.9157" r="3.15347" fill="#F4F4FA"/>
<circle cx="304.084" cy="78.8366" r="3.15347" fill="#F4F4FA"/>
<circle cx="304.084" cy="97.7575" r="3.15347" fill="#F4F4FA"/>
<circle cx="304.084" cy="116.678" r="3.15347" fill="#F4F4FA"/>
<circle cx="304.084" cy="135.599" r="3.15347" fill="#F4F4FA"/>
<circle cx="323.005" cy="3.15347" r="3.15347" fill="#F4F4FA"/>
<circle cx="323.005" cy="22.0744" r="3.15347" fill="#F4F4FA"/>
<circle cx="323.005" cy="40.9953" r="3.15347" fill="#F4F4FA"/>
<circle cx="323.005" cy="59.9157" r="3.15347" fill="#F4F4FA"/>
<circle cx="323.005" cy="78.8366" r="3.15347" fill="#F4F4FA"/>
<circle cx="323.005" cy="97.7575" r="3.15347" fill="#F4F4FA"/>
<circle cx="323.005" cy="116.678" r="3.15347" fill="#F4F4FA"/>
<circle cx="323.005" cy="135.599" r="3.15347" fill="#F4F4FA"/>
<circle cx="341.926" cy="3.15347" r="3.15347" fill="#F4F4FA"/>
<circle cx="341.926" cy="22.0744" r="3.15347" fill="#F4F4FA"/>
<circle cx="341.926" cy="40.9953" r="3.15347" fill="#F4F4FA"/>
<circle cx="341.926" cy="59.9157" r="3.15347" fill="#F4F4FA"/>
<circle cx="341.926" cy="78.8366" r="3.15347" fill="#F4F4FA"/>
<circle cx="341.926" cy="97.7575" r="3.15347" fill="#F4F4FA"/>
<circle cx="341.926" cy="116.678" r="3.15347" fill="#F4F4FA"/>
<circle cx="341.926" cy="135.599" r="3.15347" fill="#F4F4FA"/>
<circle cx="360.847" cy="3.15347" r="3.15347" fill="#F4F4FA"/>
<circle cx="360.847" cy="22.0744" r="3.15347" fill="#F4F4FA"/>
<circle cx="360.847" cy="40.9953" r="3.15347" fill="#F4F4FA"/>
<circle cx="360.847" cy="59.9157" r="3.15347" fill="#F4F4FA"/>
<circle cx="360.847" cy="78.8366" r="3.15347" fill="#F4F4FA"/>
<circle cx="360.847" cy="97.7575" r="3.15347" fill="#F4F4FA"/>
<circle cx="360.847" cy="116.678" r="3.15347" fill="#F4F4FA"/>
<circle cx="360.847" cy="135.599" r="3.15347" fill="#F4F4FA"/>
<circle cx="3.15347" cy="3.15347" r="3.15347" fill="#F4F4FA"/>
<circle cx="3.15347" cy="22.0744" r="3.15347" fill="#F4F4FA"/>
<circle cx="3.15347" cy="40.9953" r="3.15347" fill="#F4F4FA"/>
<circle cx="3.15347" cy="59.9157" r="3.15347" fill="#F4F4FA"/>
<circle cx="3.15347" cy="78.8366" r="3.15347" fill="#F4F4FA"/>
<circle cx="3.15347" cy="97.7575" r="3.15347" fill="#F4F4FA"/>
<circle cx="3.15347" cy="116.678" r="3.15347" fill="#F4F4FA"/>
<circle cx="3.15347" cy="135.599" r="3.15347" fill="#F4F4FA"/>
<circle cx="22.0742" cy="3.15347" r="3.15347" fill="#F4F4FA"/>
<circle cx="22.0742" cy="22.0744" r="3.15347" fill="#F4F4FA"/>
<circle cx="22.0742" cy="40.9953" r="3.15347" fill="#F4F4FA"/>
<circle cx="22.0742" cy="59.9157" r="3.15347" fill="#F4F4FA"/>
<circle cx="22.0742" cy="78.8366" r="3.15347" fill="#F4F4FA"/>
<circle cx="22.0742" cy="97.7575" r="3.15347" fill="#F4F4FA"/>
<circle cx="22.0742" cy="116.678" r="3.15347" fill="#F4F4FA"/>
<circle cx="22.0742" cy="135.599" r="3.15347" fill="#F4F4FA"/>
<circle cx="40.995" cy="3.15347" r="3.15347" fill="#F4F4FA"/>
<circle cx="40.995" cy="22.0744" r="3.15347" fill="#F4F4FA"/>
<circle cx="40.995" cy="40.9953" r="3.15347" fill="#F4F4FA"/>
<circle cx="40.995" cy="59.9157" r="3.15347" fill="#F4F4FA"/>
<circle cx="40.995" cy="78.8366" r="3.15347" fill="#F4F4FA"/>
<circle cx="40.995" cy="97.7575" r="3.15347" fill="#F4F4FA"/>
<circle cx="40.995" cy="116.678" r="3.15347" fill="#F4F4FA"/>
<circle cx="40.995" cy="135.599" r="3.15347" fill="#F4F4FA"/>
<circle cx="59.9158" cy="3.15347" r="3.15347" fill="#F4F4FA"/>
<circle cx="59.9158" cy="22.0744" r="3.15347" fill="#F4F4FA"/>
<circle cx="59.9158" cy="40.9953" r="3.15347" fill="#F4F4FA"/>
<circle cx="59.9158" cy="59.9157" r="3.15347" fill="#F4F4FA"/>
<circle cx="59.9158" cy="78.8366" r="3.15347" fill="#F4F4FA"/>
<circle cx="59.9158" cy="97.7575" r="3.15347" fill="#F4F4FA"/>
<circle cx="59.9158" cy="116.678" r="3.15347" fill="#F4F4FA"/>
<circle cx="59.9158" cy="135.599" r="3.15347" fill="#F4F4FA"/>
<circle cx="78.8366" cy="3.15347" r="3.15347" fill="#F4F4FA"/>
<circle cx="78.8366" cy="22.0744" r="3.15347" fill="#F4F4FA"/>
<circle cx="78.8366" cy="40.9953" r="3.15347" fill="#F4F4FA"/>
<circle cx="78.8366" cy="59.9157" r="3.15347" fill="#F4F4FA"/>
<circle cx="78.8366" cy="78.8366" r="3.15347" fill="#F4F4FA"/>
<circle cx="78.8366" cy="97.7575" r="3.15347" fill="#F4F4FA"/>
<circle cx="78.8366" cy="116.678" r="3.15347" fill="#F4F4FA"/>
<circle cx="78.8366" cy="135.599" r="3.15347" fill="#F4F4FA"/>
<circle cx="97.7575" cy="3.15347" r="3.15347" fill="#F4F4FA"/>
<circle cx="97.7575" cy="22.0744" r="3.15347" fill="#F4F4FA"/>
<circle cx="97.7575" cy="40.9953" r="3.15347" fill="#F4F4FA"/>
<circle cx="97.7575" cy="59.9157" r="3.15347" fill="#F4F4FA"/>
<circle cx="97.7575" cy="78.8366" r="3.15347" fill="#F4F4FA"/>
<circle cx="97.7575" cy="97.7575" r="3.15347" fill="#F4F4FA"/>
<circle cx="97.7575" cy="116.678" r="3.15347" fill="#F4F4FA"/>
<circle cx="97.7575" cy="135.599" r="3.15347" fill="#F4F4FA"/>
<circle cx="116.678" cy="3.15347" r="3.15347" fill="#F4F4FA"/>
<circle cx="116.678" cy="22.0744" r="3.15347" fill="#F4F4FA"/>
<circle cx="116.678" cy="40.9953" r="3.15347" fill="#F4F4FA"/>
<circle cx="116.678" cy="59.9157" r="3.15347" fill="#F4F4FA"/>
<circle cx="116.678" cy="78.8366" r="3.15347" fill="#F4F4FA"/>
<circle cx="116.678" cy="97.7575" r="3.15347" fill="#F4F4FA"/>
<circle cx="116.678" cy="116.678" r="3.15347" fill="#F4F4FA"/>
<circle cx="116.678" cy="135.599" r="3.15347" fill="#F4F4FA"/>
<circle cx="135.599" cy="3.15347" r="3.15347" fill="#F4F4FA"/>
<circle cx="135.599" cy="22.0744" r="3.15347" fill="#F4F4FA"/>
<circle cx="135.599" cy="40.9953" r="3.15347" fill="#F4F4FA"/>
<circle cx="135.599" cy="59.9157" r="3.15347" fill="#F4F4FA"/>
<circle cx="135.599" cy="78.8366" r="3.15347" fill="#F4F4FA"/>
<circle cx="135.599" cy="97.7575" r="3.15347" fill="#F4F4FA"/>
<circle cx="135.599" cy="116.678" r="3.15347" fill="#F4F4FA"/>
<circle cx="135.599" cy="135.599" r="3.15347" fill="#F4F4FA"/>
<circle cx="154.52" cy="3.15347" r="3.15347" fill="#F4F4FA"/>
<circle cx="154.52" cy="22.0744" r="3.15347" fill="#F4F4FA"/>
<circle cx="154.52" cy="40.9953" r="3.15347" fill="#F4F4FA"/>
<circle cx="154.52" cy="59.9157" r="3.15347" fill="#F4F4FA"/>
<circle cx="154.52" cy="78.8366" r="3.15347" fill="#F4F4FA"/>
<circle cx="154.52" cy="97.7575" r="3.15347" fill="#F4F4FA"/>
<circle cx="154.52" cy="116.678" r="3.15347" fill="#F4F4FA"/>
<circle cx="154.52" cy="135.599" r="3.15347" fill="#F4F4FA"/>
<circle cx="173.441" cy="3.15347" r="3.15347" fill="#F4F4FA"/>
<circle cx="173.441" cy="22.0744" r="3.15347" fill="#F4F4FA"/>
<circle cx="173.441" cy="40.9953" r="3.15347" fill="#F4F4FA"/>
<circle cx="173.441" cy="59.9157" r="3.15347" fill="#F4F4FA"/>
<circle cx="173.441" cy="78.8366" r="3.15347" fill="#F4F4FA"/>
<circle cx="173.441" cy="97.7575" r="3.15347" fill="#F4F4FA"/>
<circle cx="173.441" cy="116.678" r="3.15347" fill="#F4F4FA"/>
<circle cx="173.441" cy="135.599" r="3.15347" fill="#F4F4FA"/>
</svg>
