<svg width="18" height="18" viewBox="0 0 18 18" fill="none" xmlns="http://www.w3.org/2000/svg">
<path d="M13.585 13.7392L13.9384 14.0929L14.289 13.7425L13.9417 13.3889L13.585 13.7392ZM15.3986 10.7793L15.2415 11.2539L15.7186 11.4119L15.8741 10.934L15.3986 10.7793ZM15.2228 10.721L14.7473 10.5662L14.5934 11.0393L15.0656 11.1957L15.2228 10.721ZM13.4547 13.6066L13.8114 13.2562L13.458 12.8963L13.1012 13.2529L13.4547 13.6066ZM13.2315 13.3855C12.0376 14.5787 10.4522 15.2879 8.77592 15.38L8.83089 16.3785C10.7541 16.2728 12.5713 15.4591 13.9384 14.0929L13.2315 13.3855ZM8.77592 15.38C7.09962 15.4722 5.44748 14.9409 4.13252 13.886L3.50679 14.666C5.01328 15.8746 6.90762 16.4842 8.83089 16.3785L8.77592 15.38ZM4.13252 13.886C2.81744 12.831 1.93076 11.3252 1.64176 9.6534L0.656374 9.82366C0.986682 11.7344 2.00042 13.4575 3.50679 14.666L4.13252 13.886ZM1.64176 9.6534C1.35275 7.98157 1.68176 6.26114 2.56586 4.81829L1.71318 4.29577C0.701874 5.94624 0.326075 7.91301 0.656374 9.82366L1.64176 9.6534ZM2.56586 4.81829C3.44988 3.37555 4.8271 2.31108 6.4357 1.8253L6.14653 0.867995C4.30166 1.42513 2.72456 2.6452 1.71318 4.29577L2.56586 4.81829ZM6.4357 1.8253C8.04422 1.33954 9.77345 1.46578 11.2961 2.18033L11.7209 1.27506C9.975 0.45576 7.9915 0.310836 6.14653 0.867995L6.4357 1.8253ZM11.2961 2.18033C12.8189 2.89494 14.0301 4.14874 14.699 5.70526L15.6178 5.31047C14.8528 3.53052 13.4667 2.09432 11.7209 1.27506L11.2961 2.18033ZM14.699 5.70526C15.368 7.26188 15.4478 9.01229 14.9232 10.6245L15.8741 10.934C16.4738 9.09108 16.3827 7.09032 15.6178 5.31047L14.699 5.70526ZM15.5558 10.3046L15.3799 10.2464L15.0656 11.1957L15.2415 11.2539L15.5558 10.3046ZM15.6982 10.8758C16.2838 9.07627 16.1948 7.12266 15.4479 5.38475L14.5292 5.77954C15.1802 7.29422 15.2578 8.99748 14.7473 10.5662L15.6982 10.8758ZM15.4479 5.38475C14.701 3.64673 13.3475 2.24434 11.6428 1.44437L11.218 2.34964C12.6997 3.04497 13.8783 4.26495 14.5292 5.77954L15.4479 5.38475ZM11.6428 1.44437C9.93801 0.644345 8.00117 0.50283 6.19962 1.04688L6.48879 2.00418C8.0539 1.53154 9.73646 1.65437 11.218 2.34964L11.6428 1.44437ZM6.19962 1.04688C4.39815 1.5909 2.85819 2.78226 1.87063 4.39395L2.72331 4.91647C3.58351 3.51261 4.92359 2.47686 6.48879 2.00418L6.19962 1.04688ZM1.87063 4.39395C0.883152 6.00554 0.516211 7.92596 0.838726 9.79159L1.82411 9.62132C1.54288 7.99452 1.86304 6.32044 2.72331 4.91647L1.87063 4.39395ZM0.838726 9.79159C1.16125 11.6573 2.1511 13.3398 3.62201 14.5198L4.24773 13.7398C2.96812 12.7133 2.10533 11.2481 1.82411 9.62132L0.838726 9.79159ZM3.62201 14.5198C5.09303 15.7 6.94279 16.2953 8.82082 16.1921L8.76585 15.1936C7.1348 15.2832 5.52724 14.7663 4.24773 13.7398L3.62201 14.5198ZM8.82082 16.1921C10.6988 16.0888 12.4732 15.2943 13.8081 13.9602L13.1012 13.2529C11.9396 14.4138 10.3969 15.1039 8.76585 15.1936L8.82082 16.1921ZM13.098 13.9569L13.2282 14.0895L13.9417 13.3889L13.8114 13.2562L13.098 13.9569ZM12.9177 13.6836L16.582 17.4148L17.2955 16.7141L13.6311 12.9829L12.9177 13.6836Z" fill="#0724BA"/>
<path d="M4 12V8.57143M6 12V7.42857M8 12V6.28571M12 12V4M10 12V5.14286" stroke="#90029C"/>
</svg>
