<svg width="45" height="30" viewBox="0 0 45 30" fill="none" xmlns="http://www.w3.org/2000/svg">
<path d="M37.3949 9.56781H30.1753C30.5959 11.951 32.9089 14.194 35.4323 14.194H41.18C41.2501 13.9837 41.2501 13.6332 41.2501 13.423C41.2501 11.3201 39.4977 9.56781 37.3949 9.56781Z" fill="url(#paint0_linear_7_68)"/>
<path d="M30.8062 14.6147V20.4324H34.3108V17.3483H37.3949C39.0772 17.3483 40.5491 16.1567 41.0398 14.6147H30.8062Z" fill="#4FAD50"/>
<path d="M18.4697 9.56772V20.3621H21.5539C21.5539 20.3621 22.3249 20.3621 22.7454 19.5911C24.8482 15.4556 25.4791 14.1939 25.4791 14.1939H25.8996V20.3621H29.4043V9.56772H26.3202C26.3202 9.56772 25.5492 9.63782 25.1286 10.3388C23.3763 13.9135 22.395 15.7359 22.395 15.7359H21.9744V9.56772H18.4697Z" fill="#4FAD50"/>
<path d="M3.75 20.4322V9.63785H7.25467C7.25467 9.63785 8.23599 9.63785 8.79674 11.1799C10.1986 15.2453 10.3388 15.8061 10.3388 15.8061C10.3388 15.8061 10.6192 14.8248 11.8808 11.1799C12.4416 9.63785 13.4229 9.63785 13.4229 9.63785H16.9276V20.4322H13.4229V14.6145H13.0023L11.0397 20.4322H9.49767L7.53506 14.6145H7.1145V20.4322H3.75Z" fill="#4FAD50"/>
<defs>
<linearGradient id="paint0_linear_7_68" x1="30.1628" y1="11.9141" x2="41.2252" y2="11.9141" gradientUnits="userSpaceOnUse">
<stop stop-color="#27B1E6"/>
<stop offset="1" stop-color="#148ACA"/>
</linearGradient>
</defs>
</svg>
