<svg width="67" height="23" viewBox="0 0 67 23" fill="none" xmlns="http://www.w3.org/2000/svg">
<rect x="0.5" y="0.5" width="66" height="22" rx="11" fill="#FFF8E8" stroke="#961589"/>
<path d="M22.886 16L20.1495 6.64H21.794L23.6595 13.4L25.5185 6.653L27.163 6.64L29.0285 13.4L30.8875 6.64H32.532L29.802 16H28.255L26.3375 9.344L24.433 16H22.886ZM33.5926 16V6.64H37.3041C37.9368 6.64 38.4546 6.76783 38.8576 7.0235C39.265 7.27483 39.5661 7.59767 39.7611 7.992C39.9605 8.38633 40.0601 8.79367 40.0601 9.214C40.0601 9.72967 39.9366 10.1673 39.6896 10.527C39.447 10.8867 39.1155 11.1293 38.6951 11.255V10.93C39.2845 11.0643 39.7308 11.3438 40.0341 11.7685C40.3418 12.1932 40.4956 12.6763 40.4956 13.218C40.4956 13.7727 40.3895 14.258 40.1771 14.674C39.9648 15.09 39.6485 15.415 39.2281 15.649C38.8121 15.883 38.2965 16 37.6811 16H33.5926ZM35.1786 14.5245H37.4861C37.7591 14.5245 38.004 14.4703 38.2206 14.362C38.4373 14.2493 38.6063 14.0933 38.7276 13.894C38.8533 13.6903 38.9161 13.4498 38.9161 13.1725C38.9161 12.9212 38.862 12.6958 38.7536 12.4965C38.6453 12.2972 38.4871 12.139 38.2791 12.022C38.0711 11.9007 37.822 11.84 37.5316 11.84H35.1786V14.5245ZM35.1786 10.3775H37.2846C37.51 10.3775 37.7115 10.3342 37.8891 10.2475C38.0668 10.1608 38.2076 10.033 38.3116 9.864C38.4156 9.695 38.4676 9.487 38.4676 9.24C38.4676 8.915 38.3636 8.64417 38.1556 8.4275C37.9476 8.21083 37.6573 8.1025 37.2846 8.1025H35.1786V10.3775ZM43.1038 16L41.1238 9.508L42.5398 9.52L43.8058 13.678L45.0898 9.52H46.3078L47.5858 13.678L48.8578 9.52H50.2738L48.2938 16H47.1658L45.6958 11.542L44.2318 16H43.1038ZM51.4766 8.536V7.21H52.9226V8.536H51.4766ZM51.4766 16V9.52H52.9226V16H51.4766ZM54.7079 16L54.7199 7.36H56.1839V12.64L58.5539 9.52H60.3599L57.8459 12.76L60.5759 16H58.6619L56.1839 12.88V16H54.7079ZM61.2969 8.536V7.21H62.7429V8.536H61.2969ZM61.2969 16V9.52H62.7429V16H61.2969Z" fill="#961589"/>
<path d="M17.585 16.7392L17.9384 17.0929L18.289 16.7425L17.9417 16.3889L17.585 16.7392ZM19.3987 13.7793L19.2415 14.2539L19.7186 14.4119L19.8741 13.934L19.3987 13.7793ZM19.2228 13.721L18.7473 13.5662L18.5934 14.0393L19.0656 14.1957L19.2228 13.721ZM17.4547 16.6066L17.8114 16.2562L17.458 15.8963L17.1012 16.2529L17.4547 16.6066ZM17.2315 16.3855C16.0377 17.5787 14.4523 18.2879 12.7759 18.38L12.8309 19.3785C14.7542 19.2728 16.5713 18.4591 17.9384 17.0929L17.2315 16.3855ZM12.7759 18.38C11.0996 18.4722 9.4475 17.9409 8.13253 16.886L7.50681 17.666C9.01329 18.8746 10.9076 19.4842 12.8309 19.3785L12.7759 18.38ZM8.13253 16.886C6.81745 15.831 5.93078 14.3252 5.64177 12.6534L4.65639 12.8237C4.9867 14.7344 6.00044 16.4575 7.50681 17.666L8.13253 16.886ZM5.64177 12.6534C5.35276 10.9816 5.68178 9.26114 6.56587 7.81829L5.7132 7.29577C4.70189 8.94624 4.32609 10.913 4.65639 12.8237L5.64177 12.6534ZM6.56587 7.81829C7.4499 6.37555 8.82711 5.31108 10.4357 4.8253L10.1466 3.868C8.30167 4.42513 6.72457 5.6452 5.7132 7.29577L6.56587 7.81829ZM10.4357 4.8253C12.0442 4.33954 13.7735 4.46578 15.2961 5.18033L15.7209 4.27506C13.975 3.45576 11.9915 3.31084 10.1466 3.868L10.4357 4.8253ZM15.2961 5.18033C16.8189 5.89494 18.0301 7.14874 18.699 8.70526L19.6178 8.31047C18.8528 6.53052 17.4667 5.09432 15.7209 4.27506L15.2961 5.18033ZM18.699 8.70526C19.368 10.2619 19.4479 12.0123 18.9232 13.6245L19.8741 13.934C20.4739 12.0911 20.3827 10.0903 19.6178 8.31047L18.699 8.70526ZM19.5558 13.3046L19.3799 13.2464L19.0656 14.1957L19.2415 14.2539L19.5558 13.3046ZM19.6982 13.8758C20.2839 12.0763 20.1949 10.1227 19.4479 8.38475L18.5292 8.77954C19.1802 10.2942 19.2579 11.9975 18.7473 13.5662L19.6982 13.8758ZM19.4479 8.38475C18.701 6.64673 17.3475 5.24434 15.6428 4.44437L15.2181 5.34964C16.6998 6.04497 17.8783 7.26495 18.5292 8.77954L19.4479 8.38475ZM15.6428 4.44437C13.938 3.64435 12.0012 3.50283 10.1996 4.04688L10.4888 5.00418C12.0539 4.53154 13.7365 4.65437 15.2181 5.34964L15.6428 4.44437ZM10.1996 4.04688C8.39817 4.5909 6.8582 5.78226 5.87065 7.39395L6.72332 7.91647C7.58353 6.51261 8.9236 5.47686 10.4888 5.00418L10.1996 4.04688ZM5.87065 7.39395C4.88317 9.00554 4.51623 10.926 4.83874 12.7916L5.82413 12.6213C5.5429 10.9945 5.86305 9.32044 6.72332 7.91647L5.87065 7.39395ZM4.83874 12.7916C5.16126 14.6573 6.15112 16.3398 7.62202 17.5198L8.24775 16.7398C6.96813 15.7133 6.10534 14.2481 5.82413 12.6213L4.83874 12.7916ZM7.62202 17.5198C9.09304 18.7 10.9428 19.2953 12.8208 19.1921L12.7659 18.1936C11.1348 18.2832 9.52725 17.7663 8.24775 16.7398L7.62202 17.5198ZM12.8208 19.1921C14.6988 19.0888 16.4733 18.2943 17.8082 16.9602L17.1012 16.2529C15.9396 17.4138 14.3969 18.1039 12.7659 18.1936L12.8208 19.1921ZM17.098 16.9569L17.2283 17.0895L17.9417 16.3889L17.8114 16.2562L17.098 16.9569ZM16.9177 16.6836L20.5821 20.4148L21.2955 19.7141L17.6312 15.9829L16.9177 16.6836Z" fill="#0724BA"/>
<path d="M8 15V11.5714M10 15V10.4286M12 15V9.28571M16 15V7M14 15V8.14286" stroke="#90029C"/>
</svg>
