<svg width="67" height="23" fill="none" xmlns="http://www.w3.org/2000/svg"><rect x=".5" y=".5" width="66" height="22" rx="11" fill="#FFF8E8" stroke="#961589"/><path d="M22.886 16 20.15 6.64h1.644l1.866 6.76 1.858-6.747 1.645-.013 1.866 6.76 1.858-6.76h1.645L29.802 16h-1.547l-1.918-6.656L24.433 16h-1.547Zm10.707 0V6.64h3.711c.633 0 1.15.128 1.554.384.407.25.708.574.903.968.2.394.3.802.3 1.222 0 .516-.124.953-.371 1.313-.243.36-.575.602-.995.728v-.325c.59.134 1.036.414 1.34.838.307.425.46.908.46 1.45 0 .555-.105 1.04-.318 1.456a2.287 2.287 0 0 1-.949.975c-.416.234-.931.351-1.547.351h-4.088Zm1.586-1.476h2.307c.273 0 .518-.054.735-.162a1.26 1.26 0 0 0 .507-.468c.125-.204.188-.444.188-.722 0-.25-.054-.476-.162-.676a1.19 1.19 0 0 0-.475-.474 1.459 1.459 0 0 0-.747-.182h-2.353v2.684Zm0-4.146h2.106c.225 0 .427-.044.604-.13.178-.087.319-.215.423-.384a1.17 1.17 0 0 0 .156-.624c0-.325-.104-.596-.312-.813-.208-.216-.499-.325-.871-.325h-2.106v2.275ZM43.104 16l-1.98-6.492 1.416.012 1.266 4.158L45.09 9.52h1.218l1.278 4.158 1.272-4.158h1.416L48.294 16h-1.128l-1.47-4.458L44.232 16h-1.128Zm8.373-7.464V7.21h1.446v1.326h-1.446Zm0 7.464V9.52h1.446V16h-1.446Zm3.23 0 .013-8.64h1.464v5.28l2.37-3.12h1.806l-2.514 3.24 2.73 3.24h-1.914l-2.478-3.12V16h-1.476Zm6.59-7.464V7.21h1.446v1.326h-1.446Zm0 7.464V9.52h1.446V16h-1.446Z" fill="#961589"/><path d="m17.585 16.74.353.353.351-.35-.347-.354-.357.35Zm1.814-2.96-.158.474.478.158.155-.478-.475-.155Zm-.176-.059-.476-.155-.154.473.473.157.157-.475Zm-1.768 2.886.356-.35-.353-.36-.357.356.354.354Zm-.223-.221a6.833 6.833 0 0 1-4.456 1.994l.055.998a7.834 7.834 0 0 0 5.107-2.285l-.706-.707Zm-4.456 1.994a6.82 6.82 0 0 1-4.643-1.494l-.626.78a7.82 7.82 0 0 0 5.324 1.712l-.055-.998Zm-4.643-1.494a6.94 6.94 0 0 1-2.491-4.233l-.986.17a7.94 7.94 0 0 0 2.85 4.843l.627-.78Zm-2.491-4.233a6.982 6.982 0 0 1 .924-4.835l-.853-.522a7.982 7.982 0 0 0-1.057 5.528l.986-.17Zm.924-4.835a6.872 6.872 0 0 1 3.87-2.993l-.29-.957a7.872 7.872 0 0 0-4.433 3.428l.853.522Zm3.87-2.993a6.804 6.804 0 0 1 4.86.355l.425-.905a7.804 7.804 0 0 0-5.574-.407l.289.957Zm4.86.355A6.898 6.898 0 0 1 18.7 8.705l.919-.395a7.898 7.898 0 0 0-3.897-4.035l-.425.905ZM18.7 8.705a6.988 6.988 0 0 1 .224 4.92l.951.309a7.988 7.988 0 0 0-.256-5.624l-.919.395Zm.857 4.6-.176-.059-.314.95.175.058.315-.95Zm.142.57a7.8 7.8 0 0 0-.25-5.49l-.919.395a6.8 6.8 0 0 1 .218 4.786l.951.31Zm-.25-5.49a7.712 7.712 0 0 0-3.805-3.94l-.425.905a6.712 6.712 0 0 1 3.311 3.43l.919-.395Zm-3.805-3.94a7.62 7.62 0 0 0-5.443-.398l.289.957a6.62 6.62 0 0 1 4.73.346l.424-.906ZM10.2 4.046a7.686 7.686 0 0 0-4.33 3.347l.853.522a6.687 6.687 0 0 1 3.766-2.912l-.29-.957ZM5.87 7.394a7.794 7.794 0 0 0-1.031 5.398l.985-.17a6.794 6.794 0 0 1 .9-4.706l-.853-.522ZM4.84 12.792a7.753 7.753 0 0 0 2.783 4.728l.626-.78a6.753 6.753 0 0 1-2.424-4.119l-.985.17Zm2.783 4.728a7.636 7.636 0 0 0 5.199 1.672l-.055-.998a6.637 6.637 0 0 1-4.518-1.454l-.626.78Zm5.199 1.672a7.65 7.65 0 0 0 4.987-2.232l-.707-.707a6.65 6.65 0 0 1-4.335 1.94l.055 1Zm4.277-2.235.13.133.714-.701-.13-.133-.714.7Zm-.18-.273 3.664 3.73.713-.7-3.664-3.731-.713.7Z" fill="#0724BA"/><path d="M8 15v-3.429M10 15v-4.571M12 15V9.286M16 15V7m-2 8V8.143" stroke="#90029C"/></svg>