<svg width="325" height="338" viewBox="0 0 325 338" fill="none" xmlns="http://www.w3.org/2000/svg">
<path d="M322.948 175.635C322.94 210.547 311.558 244.506 290.526 272.372C269.494 300.237 239.956 320.493 206.384 330.073C201.782 331.376 197.089 332.482 192.307 333.39C182.44 335.262 172.42 336.204 162.377 336.206C154.148 336.228 145.93 335.628 137.791 334.412H137.648C136.59 334.251 135.532 334.09 134.491 333.892H134.276C131.138 333.336 128.018 332.691 124.951 331.956C119.821 330.74 114.758 329.262 109.78 327.526C81.9208 317.877 57.2551 300.746 38.4856 278.01C19.7161 255.274 7.56725 227.81 3.37017 198.627C-0.826907 169.445 3.08978 139.67 14.6911 112.566C26.2924 85.4615 45.1306 62.0735 69.1414 44.9648C93.1523 27.856 121.409 17.6866 150.816 15.5709C180.223 13.4552 209.644 19.4748 235.857 32.9702C262.07 46.4655 284.062 66.9159 299.424 92.0802C314.786 117.245 322.924 146.152 322.948 175.635Z" fill="white"/>
<path d="M162.377 337.999C154.058 338.027 145.75 337.428 137.522 336.205H137.307C136.195 336.044 135.226 335.883 134.258 335.703C134.127 335.718 133.995 335.718 133.863 335.703C130.761 335.165 127.587 334.502 124.538 333.767C119.348 332.538 114.224 331.041 109.188 329.283C78.0742 318.493 50.9763 298.498 31.4884 271.952C12.0004 245.406 1.04349 213.562 0.0708717 180.645C-0.901743 147.728 8.15594 115.293 26.0425 87.642C43.929 59.9914 69.7991 38.4318 100.221 25.8232C124.876 15.6069 151.668 11.6253 178.228 14.2307C204.788 16.8361 230.296 25.9482 252.495 40.7607C274.694 55.5731 292.9 75.6291 305.501 99.154C318.102 122.679 324.711 148.947 324.741 175.634C324.643 210.902 313.111 245.186 291.874 273.343C270.637 301.5 240.841 322.009 206.958 331.794C202.277 333.139 197.489 334.251 192.719 335.147C182.717 337.05 172.558 338.005 162.377 337.999ZM138.113 332.619C156.02 335.338 174.256 335.016 192.056 331.668C196.718 330.79 201.399 329.678 205.989 328.387C236.77 319.594 264.176 301.706 284.614 277.068C305.051 252.429 317.567 222.189 320.52 190.314C323.473 158.438 316.725 126.415 301.161 98.4408C285.597 70.4671 261.943 47.8491 233.301 33.5523C209.092 21.4652 182.195 15.7659 155.164 16.995C128.133 18.2242 101.864 26.3412 78.8519 40.5756C55.8394 54.8099 36.8466 74.6893 23.6761 98.3268C10.5057 121.964 3.59462 148.575 3.59898 175.634C3.60704 208.636 13.8925 240.817 33.0267 267.706C52.161 294.594 79.1941 314.857 110.371 325.679C115.29 327.398 120.294 328.865 125.363 330.072C128.358 330.79 131.46 331.435 134.581 331.991H134.76C135.728 332.171 136.715 332.314 137.701 332.475H137.988L138.113 332.619ZM138.329 332.619H138.436H138.329Z" fill="#2EACF3"/>
<path d="M222.651 271.252C218.15 295.498 208 288.719 208 310.705C208.084 317.194 207.574 323.676 206.476 330.072C201.873 331.375 197.181 332.481 192.398 333.39C182.502 335.267 172.452 336.21 162.379 336.205C154.15 336.227 145.931 335.628 137.793 334.412C137.865 332.295 137.739 330.175 137.416 328.082C137.273 328.279 136.896 329.104 136.376 330.162V330.377C136.197 330.772 135.982 331.202 135.766 331.632C135.408 332.35 135.013 333.121 134.619 333.838H134.404C131.265 333.282 128.145 332.637 125.078 331.901C125.078 331.525 124.917 331.13 124.845 330.754C123.657 324.169 123.11 317.485 123.213 310.794C123.213 310.31 123.213 309.826 123.213 309.36C122.783 289.096 112.992 295.013 108.58 271.342C104.079 247.115 116.202 240.354 123.518 234.992C130.835 229.63 154.004 225.416 154.004 212.164C154.004 209.563 154.004 206.981 154.148 204.488C154.506 194.249 155.421 185.677 155.421 185.677L165.75 182.861L176.08 185.677C176.08 185.677 176.976 194.249 177.335 204.488C177.425 206.981 177.478 209.545 177.478 212.146C177.478 221.632 189.332 226.492 198.747 230.455C201.922 231.636 204.968 233.139 207.839 234.938C215.048 240.193 227.152 247.025 222.651 271.252Z" fill="#2EACF3"/>
<path d="M162.376 337.999C154.058 338.027 145.749 337.428 137.521 336.206C137.158 336.15 136.82 335.985 136.554 335.732C136.288 335.478 136.106 335.149 136.033 334.789C135.874 335.057 135.648 335.278 135.378 335.432C135.108 335.586 134.802 335.668 134.49 335.668C134.278 335.668 134.067 335.638 133.863 335.578C130.76 335.04 127.586 334.376 124.538 333.641C124.216 333.564 123.921 333.399 123.687 333.165C123.453 332.931 123.288 332.636 123.211 332.314C123.211 331.955 123.049 331.597 122.978 331.238C121.755 324.494 121.19 317.648 121.292 310.795C121.292 310.328 121.292 309.88 121.292 309.432C121.077 299.605 118.674 296.448 115.625 292.449C112.577 288.45 108.918 283.662 106.659 271.665C102.229 247.886 113.419 239.888 120.826 234.598C121.328 234.239 121.83 233.898 122.296 233.54C125.407 231.583 128.712 229.954 132.159 228.68C141 224.968 151.993 220.359 151.993 212.164C151.993 209.707 151.993 207.107 152.136 204.417C152.495 194.249 153.41 185.569 153.428 185.48C153.465 185.121 153.61 184.782 153.844 184.506C154.077 184.231 154.389 184.033 154.737 183.938L165.066 181.14C165.37 181.05 165.694 181.05 165.999 181.14L176.328 183.938C176.679 184.034 176.992 184.235 177.225 184.514C177.459 184.792 177.603 185.136 177.637 185.498C177.637 185.498 178.552 194.249 178.91 204.417C179 207.107 179.054 209.689 179.054 212.164C179.054 220.341 190.029 224.95 198.78 228.662L199.067 228.788L199.336 228.895C202.604 230.112 205.736 231.669 208.679 233.54L210.131 234.58C217.538 239.96 228.746 247.868 224.316 271.665C222.093 283.662 218.542 288.325 215.35 292.449C212.158 296.574 209.647 299.909 209.647 310.795C209.732 317.404 209.21 324.007 208.087 330.521C208.026 330.849 207.875 331.155 207.65 331.402C207.425 331.649 207.135 331.828 206.814 331.92C202.133 333.265 197.345 334.376 192.575 335.273C182.616 337.125 172.506 338.037 162.376 337.999ZM139.548 332.78C156.994 335.282 174.734 334.894 192.055 331.633C196.341 330.826 200.663 329.839 204.913 328.656C205.836 322.724 206.268 316.726 206.204 310.723C206.204 298.618 209.181 294.727 212.642 290.208C215.529 286.406 218.811 282.102 220.891 270.948C224.89 249.428 215.206 242.47 208.141 237.431L206.652 236.373C203.889 234.662 200.964 233.226 197.919 232.087H197.811L197.471 231.944C187.679 227.837 175.485 222.69 175.485 212.218C175.485 209.797 175.485 207.232 175.342 204.632C175.073 196.777 174.463 189.855 174.212 187.13L165.55 184.601L156.889 186.95C156.62 189.676 156.01 196.598 155.741 204.435C155.651 207.071 155.597 209.617 155.597 212.038C155.597 222.601 143.385 227.748 133.576 231.872C130.389 233.052 127.326 234.542 124.43 236.319L122.942 237.395C115.876 242.435 106.192 249.357 110.191 270.894C112.272 282.048 115.571 286.352 118.459 290.154C121.633 294.314 124.627 298.242 124.861 309.199C124.861 309.647 124.861 310.167 124.861 310.669C124.751 317.245 125.285 323.816 126.457 330.288C128.77 330.826 131.119 331.31 133.504 331.758C133.684 331.417 133.845 331.077 134.006 330.736C134.168 330.395 134.437 329.911 134.598 329.552L134.724 329.266L135.136 328.405C135.355 327.895 135.613 327.404 135.907 326.934L136.033 326.791C136.206 326.602 136.417 326.45 136.651 326.345C136.886 326.24 137.139 326.184 137.396 326.181C139.279 326.271 139.44 327.257 139.548 332.78Z" fill="#093F68"/>
<path d="M198.763 230.366C198.763 230.366 185.152 231.244 176.688 238.292L198.763 230.366Z" fill="#2EACF3"/>
<path d="M176.722 240.085C176.459 240.085 176.198 240.028 175.96 239.916C175.721 239.805 175.51 239.642 175.341 239.439C175.19 239.258 175.077 239.049 175.007 238.824C174.937 238.599 174.912 238.362 174.933 238.127C174.955 237.892 175.023 237.664 175.133 237.455C175.243 237.246 175.393 237.061 175.575 236.911C184.38 229.576 198.098 228.608 198.672 228.572C199.148 228.541 199.616 228.701 199.974 229.015C200.332 229.329 200.551 229.773 200.582 230.249C200.613 230.724 200.454 231.193 200.139 231.551C199.825 231.909 199.381 232.128 198.905 232.159C198.78 232.159 185.76 233.091 177.87 239.673C177.547 239.94 177.141 240.086 176.722 240.085Z" fill="#093F68"/>
<path d="M132.732 230.366C132.732 230.366 146.343 231.244 154.79 238.292L132.732 230.366Z" fill="#2EACF3"/>
<path d="M154.791 240.085C154.372 240.086 153.966 239.94 153.643 239.673C145.753 233.091 132.751 232.159 132.608 232.159C132.135 232.127 131.694 231.909 131.382 231.552C131.069 231.196 130.91 230.731 130.94 230.258C130.954 230.022 131.014 229.792 131.117 229.579C131.22 229.367 131.364 229.177 131.54 229.02C131.717 228.864 131.923 228.744 132.146 228.667C132.369 228.59 132.605 228.558 132.841 228.572C133.433 228.572 147.187 229.576 155.938 236.911C156.12 237.062 156.27 237.246 156.38 237.455C156.49 237.664 156.558 237.892 156.58 238.127C156.601 238.362 156.576 238.599 156.506 238.824C156.436 239.049 156.323 239.258 156.172 239.44C156.003 239.642 155.792 239.805 155.553 239.916C155.315 240.028 155.054 240.086 154.791 240.085Z" fill="#093F68"/>
<path d="M137.649 336.098C137.173 336.098 136.717 335.909 136.381 335.573C136.044 335.236 135.856 334.78 135.856 334.305L135.622 328.01C135.156 315.672 134.439 296.771 134.044 287.034C133.435 271.737 132.807 262.753 127.104 256.01C126.795 255.648 126.642 255.179 126.679 254.705C126.716 254.231 126.94 253.79 127.302 253.481C127.663 253.172 128.132 253.019 128.607 253.056C129.081 253.093 129.521 253.317 129.83 253.679C136.304 261.336 137.003 270.804 137.631 286.89C138.025 296.628 138.743 315.583 139.209 327.867L139.442 334.161C139.442 334.637 139.253 335.093 138.917 335.429C138.581 335.766 138.124 335.955 137.649 335.955V336.098Z" fill="#093F68"/>
<path d="M192.396 335.237H192.27C192.034 335.221 191.804 335.159 191.593 335.054C191.381 334.949 191.192 334.803 191.037 334.624C190.882 334.446 190.764 334.239 190.69 334.015C190.615 333.791 190.585 333.554 190.602 333.318C191.302 323.222 192.987 298.511 193.454 287.016C194.099 270.876 194.781 261.461 201.272 253.804C201.582 253.443 202.022 253.219 202.496 253.182C202.731 253.163 202.967 253.191 203.191 253.264C203.415 253.337 203.622 253.454 203.801 253.607C203.98 253.76 204.127 253.947 204.234 254.157C204.341 254.366 204.405 254.595 204.423 254.83C204.442 255.065 204.413 255.301 204.341 255.525C204.268 255.749 204.151 255.956 203.998 256.135C198.278 262.878 197.65 271.862 197.04 287.159C196.574 298.295 195.05 321.016 194.189 333.569C194.157 334.023 193.954 334.447 193.621 334.757C193.288 335.067 192.85 335.238 192.396 335.237Z" fill="#093F68"/>
<path d="M250.983 87.4947C250.983 145.023 178.032 210.138 165.551 210.138C153.069 210.138 80.1006 145.023 80.1006 87.4947C80.1006 29.966 118.351 1.79346 165.551 1.79346C212.75 1.79346 250.983 29.966 250.983 87.4947Z" fill="#2EACF3"/>
<path d="M165.552 211.931C157.715 211.931 134.923 193.047 116.775 171.546C102.428 154.51 78.3086 120.957 78.3086 87.4945C78.3086 59.8958 87.1674 37.1748 103.917 21.7526C119.375 7.51388 140.679 0 165.552 0C190.425 0 211.711 7.51388 227.169 21.7526C243.919 37.1748 252.778 59.8958 252.778 87.4945C252.778 120.957 228.676 154.51 214.312 171.546C196.163 193.047 173.371 211.931 165.552 211.931ZM165.552 3.58657C125.113 3.58657 81.8952 25.6261 81.8952 87.4945C81.8952 119.774 105.459 152.573 119.554 169.232C139.388 192.742 160.387 208.344 165.588 208.344C170.788 208.344 191.77 192.742 211.604 169.232C225.663 152.573 249.263 119.81 249.263 87.4945C249.191 25.6261 205.991 3.58657 165.552 3.58657Z" fill="#093F68"/>
<path d="M136.339 330.108V330.324C136.16 330.718 135.945 331.149 135.729 331.579C135.317 332.296 134.851 333.032 134.367 333.749C131.228 333.193 128.108 332.547 125.041 331.812C119.912 330.597 114.848 329.118 109.87 327.383C108.029 324.226 106.176 321.07 104.311 317.914C96.7075 304.919 89.092 291.917 81.4645 278.91C61.9715 272.867 57.3807 262.268 57.3807 262.268C46.1547 257.678 38.9816 250.863 36.5248 247.33C34.068 243.798 29.4592 247.33 25.2629 244.264C21.0666 241.197 20.5824 234.544 25.2629 231.711C29.9434 228.877 35.0543 233.199 39.0353 236.786C43.0164 240.372 56.2509 245.214 56.2509 245.214C56.2509 245.214 43.2675 228.483 41.4383 224.914C39.6092 221.346 36.9551 223.892 33.6914 219.391C30.4276 214.89 25.4064 208.093 34.0859 205.045C42.7654 201.996 44.6842 212.433 47.2665 215.804C49.8489 219.176 66.6878 237.969 67.7459 239.117C64.518 235.172 58.4746 220.323 57.8649 218.225C57.2551 216.127 52.1622 212.989 50.8352 206.874C49.5081 200.759 53.1127 197.405 59.1919 200.364C65.2712 203.323 66.3651 213.617 66.3651 213.617C70.3641 221.973 77.86 236.284 80.3348 240.964L80.8727 242.004L81.1417 242.506C81.1417 242.506 81.2852 242.058 81.608 241.233C81.7694 240.875 81.9487 240.444 82.1818 239.96C85.4363 233.354 90.0071 227.483 95.6136 222.709C107.073 212.63 114.335 218.566 115.34 223.3C116.344 228.035 107.288 231.173 107.288 231.173C107.288 231.173 102.285 239.135 99.1105 243.6C95.9364 248.066 96.9227 269.083 96.9227 269.083L101.352 275.862L117.545 300.806L123.087 309.27L125.4 312.857L136.339 330.108Z" fill="#2EACF3"/>
<path d="M134.276 335.542C134.175 335.561 134.072 335.561 133.971 335.542C130.761 334.986 127.587 334.323 124.538 333.587C119.347 332.358 114.224 330.862 109.188 329.104C108.787 328.962 108.45 328.682 108.237 328.315C106.354 325.123 104.525 321.985 102.678 318.865C95.182 306.06 87.6801 293.256 80.1722 280.452C63.2615 275.072 57.3795 266.232 55.9986 263.703C44.4319 258.843 37.3484 251.814 34.9634 248.388C34.2999 247.456 33.4929 247.384 31.3768 247.456C28.859 247.763 26.3144 247.159 24.2036 245.752C22.8971 244.791 21.844 243.526 21.1348 242.067C20.4257 240.608 20.0818 238.999 20.1329 237.378C20.1741 235.932 20.5743 234.52 21.2975 233.267C22.0206 232.015 23.044 230.963 24.2754 230.204C30.2291 226.492 36.4697 232.105 40.1998 235.477C43.4858 237.805 47.0528 239.709 50.816 241.143C46.7991 235.871 41.0247 228.142 39.8052 225.757C39.2852 224.735 38.8548 224.627 37.7251 224.305C35.4656 223.768 33.4925 222.397 32.2017 220.467C29.7091 217.024 26.4273 212.487 27.7185 208.398C28.2092 207.169 28.9884 206.076 29.9903 205.212C30.9922 204.347 32.1873 203.736 33.4749 203.431C41.5806 200.651 44.9879 207.609 47.0143 211.769C47.4648 212.793 48.0112 213.772 48.6462 214.692C49.8656 216.235 54.7433 221.866 59.4059 227.138C57.6126 223.193 56.3573 219.714 56.0704 218.763C55.6203 218.027 55.0845 217.347 54.4743 216.737C51.8408 214.131 49.9523 210.868 49.0048 207.286C48.1978 203.574 49.0048 200.472 51.1209 198.786C52.3762 197.8 55.1917 196.491 59.908 198.786C66.2383 201.853 67.7626 211.231 67.9957 213.132C71.7975 221.023 78.3968 233.665 80.8715 238.346C84.2149 231.869 88.7824 226.102 94.3212 221.364C101.692 214.89 107.197 214.836 110.461 215.984C112.042 216.499 113.466 217.411 114.596 218.632C115.726 219.853 116.525 221.343 116.917 222.96C118.064 228.339 110.658 231.765 108.291 232.679C107.125 234.472 103.126 240.821 100.382 244.676C98.374 247.492 98.1768 260.601 98.5892 268.545L119.086 299.91L124.628 308.374L126.941 311.96L137.898 329.266C138.075 329.527 138.18 329.831 138.202 330.145C138.224 330.46 138.162 330.775 138.024 331.059C138.024 331.059 138.024 331.274 137.898 331.328C137.773 331.382 137.539 332.081 137.324 332.529C136.822 333.426 136.32 334.197 135.818 334.95C135.627 335.165 135.387 335.331 135.119 335.434C134.851 335.537 134.561 335.574 134.276 335.542ZM110.963 325.912C115.733 327.544 120.557 328.943 125.309 330.073C127.927 330.7 130.689 331.274 133.379 331.776C133.594 331.418 133.827 331.041 134.025 330.682L134.24 330.252L121.507 310.257L115.966 301.792L95.1999 270.015C95.0352 269.743 94.9369 269.436 94.913 269.119C94.7516 265.532 94.0701 247.223 97.4415 242.506C100.544 238.131 105.511 230.24 105.547 230.169C105.765 229.825 106.094 229.565 106.48 229.433C108.954 228.573 113.886 226.026 113.366 223.623C113.107 222.616 112.598 221.69 111.887 220.932C111.175 220.173 110.284 219.606 109.295 219.283C105.852 218.154 101.333 219.821 96.5807 224C91.1999 228.583 86.8018 234.207 83.6511 240.534V240.695L83.2745 241.556L83.0952 241.933C82.8441 242.578 82.7186 242.991 82.7007 243.026C82.5895 243.362 82.3814 243.658 82.1027 243.875C81.824 244.093 81.4871 244.224 81.1345 244.251C80.7818 244.277 80.429 244.199 80.1206 244.026C79.8121 243.853 79.5618 243.593 79.401 243.277L79.1679 242.847L78.5941 241.735C78.2175 241.054 69.2152 224 64.6064 214.352C64.5153 214.167 64.4605 213.966 64.445 213.76C64.445 213.76 63.4229 204.417 58.2941 201.942C56.1421 200.884 54.3129 200.741 53.3087 201.53C52.3045 202.319 51.9817 204.166 52.4838 206.461C53.2986 209.429 54.8966 212.124 57.1105 214.262C58.1326 215.224 58.9393 216.391 59.4776 217.687C60.0335 219.624 65.9873 234.239 69.0179 237.951C69.3139 238.313 69.457 238.776 69.4168 239.242C69.3766 239.707 69.1563 240.139 68.8027 240.444C68.4468 240.752 67.9841 240.908 67.5144 240.878C67.0447 240.847 66.6057 240.634 66.2921 240.283C66.1307 240.085 48.3592 220.18 45.759 216.844C44.9657 215.716 44.2812 214.515 43.7146 213.258C41.2758 208.273 39.339 205.116 34.5509 206.766C32.5783 207.43 31.4127 208.326 30.9644 209.42C30.2291 211.787 33.0087 215.625 34.8558 218.171C35.262 218.834 35.7992 219.406 36.4344 219.853C37.0696 220.3 37.7895 220.613 38.5499 220.772C39.4691 220.945 40.3352 221.33 41.0793 221.896C41.8234 222.463 42.4249 223.195 42.8359 224.036C44.2705 226.851 53.8826 239.44 57.4691 244.067C57.7045 244.374 57.8342 244.749 57.8388 245.136C57.8435 245.523 57.7228 245.901 57.4948 246.214C57.2668 246.526 56.9437 246.757 56.5739 246.871C56.204 246.985 55.8072 246.976 55.4427 246.846C54.8868 246.631 41.8137 241.825 37.6354 238.059C33.457 234.293 29.3863 231.065 26.0149 233.181C25.2788 233.632 24.6679 234.261 24.2386 235.01C23.8093 235.759 23.5753 236.604 23.5581 237.467C23.5198 238.508 23.7367 239.542 24.1899 240.48C24.6432 241.418 25.319 242.23 26.1583 242.847C27.6466 243.767 29.4133 244.13 31.1437 243.869C33.3136 243.869 36.0214 243.726 37.8326 246.344C39.877 249.285 46.7094 256.064 57.8995 260.69C58.3344 260.868 58.682 261.209 58.8679 261.641C58.8679 261.73 63.4946 271.611 81.8399 277.278C82.2631 277.414 82.6209 277.701 82.8441 278.085C90.4716 291.093 98.0871 304.094 105.691 317.089L110.963 325.912Z" fill="#093F68"/>
<path d="M83.2734 239.296C83.2734 239.296 67.9408 246.29 68.3174 254.916L83.2734 239.296Z" fill="#2EACF3"/>
<path d="M68.3185 256.709C67.8429 256.709 67.3868 256.52 67.0505 256.184C66.7142 255.848 66.5253 255.392 66.5253 254.916C66.0949 245.196 81.8578 237.898 82.5393 237.593C82.9721 237.395 83.4656 237.378 83.9112 237.545C84.3568 237.711 84.718 238.048 84.9154 238.481C85.1128 238.913 85.1301 239.407 84.9637 239.852C84.7972 240.298 84.4605 240.659 84.0277 240.857C80.0646 242.65 69.8428 248.693 70.1118 254.755C70.124 254.998 70.0866 255.24 70.0019 255.468C69.9173 255.696 69.7871 255.905 69.6194 256.081C69.4516 256.257 69.2498 256.397 69.0262 256.493C68.8025 256.589 68.5618 256.638 68.3185 256.638V256.709Z" fill="#093F68"/>
<path d="M227.364 108.35C218.003 108.942 192.915 112.744 176.13 136.451C175.385 137.519 175.019 138.806 175.091 140.106C175.162 141.406 175.667 142.645 176.525 143.624C179.753 147.319 187.715 151.676 207.459 150.331C229.086 148.861 238.465 124.831 233.211 111.919C232.728 110.79 231.906 109.839 230.858 109.2C229.81 108.56 228.589 108.263 227.364 108.35Z" fill="#093F68"/>
<path d="M200.573 152.322C185.24 152.322 178.318 148.341 175.18 144.754C174.049 143.471 173.383 141.844 173.289 140.137C173.195 138.429 173.677 136.739 174.66 135.339C191.768 111.166 217.143 107.113 227.257 106.503C228.855 106.385 230.451 106.773 231.816 107.614C233.181 108.454 234.246 109.703 234.86 111.184C237.891 118.608 236.402 129.224 231.166 137.599C228.705 141.744 225.272 145.228 221.164 147.749C217.055 150.27 212.394 151.754 207.584 152.071C205.074 152.322 202.725 152.322 200.573 152.322ZM227.472 110.072C217.878 110.664 193.812 114.519 177.583 137.402C177.078 138.151 176.835 139.045 176.89 139.946C176.945 140.847 177.296 141.705 177.888 142.387C180.38 145.256 187.517 149.829 207.333 148.484C211.576 148.204 215.687 146.893 219.309 144.665C222.93 142.436 225.954 139.359 228.117 135.698C232.78 128.256 234.143 118.949 231.543 112.529C231.205 111.746 230.631 111.088 229.901 110.648C229.171 110.207 228.322 110.006 227.472 110.072Z" fill="#093F68"/>
<path d="M101.657 108.35C111.018 108.942 136.106 112.744 152.891 136.451C153.634 137.521 153.997 138.809 153.922 140.109C153.847 141.409 153.339 142.647 152.479 143.624C149.269 147.319 141.307 151.676 121.563 150.331C99.9355 148.861 90.5566 124.831 95.8109 111.919C96.293 110.79 97.1152 109.839 98.1631 109.2C99.2111 108.56 100.432 108.263 101.657 108.35Z" fill="#093F68"/>
<path d="M128.448 152.322C126.278 152.322 123.946 152.322 121.436 152.071C116.626 151.769 111.962 150.299 107.847 147.79C103.732 145.282 100.29 141.808 97.8182 137.671C92.5818 129.296 91.0934 118.68 94.1241 111.256C94.7382 109.775 95.8036 108.526 97.1687 107.685C98.5338 106.845 100.129 106.457 101.728 106.575C111.842 107.185 137.199 111.238 154.325 135.411C155.307 136.811 155.79 138.501 155.695 140.209C155.601 141.916 154.935 143.543 153.805 144.826C150.702 148.412 143.762 152.322 128.448 152.322ZM101.279 110.072C100.474 110.059 99.6822 110.286 99.0054 110.723C98.3287 111.161 97.7969 111.789 97.4775 112.529C94.8593 118.949 96.2402 128.256 100.885 135.698C103.055 139.357 106.082 142.433 109.706 144.661C113.331 146.888 117.442 148.201 121.687 148.484C141.503 149.829 148.586 145.256 151.133 142.387C151.724 141.705 152.075 140.847 152.13 139.946C152.185 139.045 151.942 138.151 151.438 137.402C135.208 114.519 111.142 110.664 101.548 110.072H101.279Z" fill="#093F68"/>
<path d="M161.015 165.7C160.539 165.7 160.083 165.511 159.747 165.175C159.411 164.838 159.222 164.382 159.222 163.907C159.765 161.225 160.689 158.634 161.965 156.213C162.055 155.984 162.192 155.776 162.366 155.602C162.54 155.427 162.748 155.291 162.977 155.201C163.206 155.11 163.451 155.068 163.698 155.077C163.944 155.085 164.185 155.145 164.408 155.251C164.63 155.357 164.828 155.508 164.989 155.694C165.151 155.88 165.272 156.097 165.346 156.332C165.419 156.567 165.444 156.815 165.418 157.06C165.391 157.305 165.315 157.542 165.193 157.756C164.194 159.727 163.395 161.794 162.808 163.925C162.804 164.397 162.612 164.849 162.277 165.181C161.941 165.513 161.487 165.7 161.015 165.7Z" fill="#093F68"/>
<path d="M168.115 165.736C167.639 165.736 167.183 165.547 166.847 165.21C166.511 164.874 166.322 164.418 166.322 163.942C165.739 161.816 164.94 159.755 163.937 157.791C163.815 157.577 163.739 157.34 163.712 157.095C163.686 156.851 163.711 156.603 163.784 156.368C163.858 156.133 163.979 155.916 164.141 155.73C164.302 155.544 164.5 155.393 164.722 155.287C164.945 155.18 165.186 155.121 165.432 155.112C165.679 155.104 165.924 155.146 166.153 155.236C166.382 155.327 166.59 155.463 166.764 155.637C166.938 155.812 167.075 156.02 167.165 156.249C168.441 158.669 169.365 161.26 169.908 163.942C169.908 164.418 169.719 164.874 169.383 165.21C169.047 165.547 168.591 165.736 168.115 165.736Z" fill="#093F68"/>
<path d="M165.245 179.508C159.423 179.615 153.67 178.232 148.532 175.491C148.192 175.223 147.96 174.841 147.88 174.416C147.799 173.991 147.875 173.551 148.094 173.177C148.312 172.803 148.659 172.521 149.069 172.383C149.479 172.245 149.925 172.259 150.325 172.424C150.971 172.801 166.16 181.678 186.711 169.591C186.914 169.443 187.146 169.34 187.391 169.288C187.636 169.235 187.89 169.235 188.136 169.287C188.381 169.338 188.613 169.441 188.816 169.588C189.02 169.735 189.19 169.923 189.316 170.14C189.442 170.357 189.521 170.598 189.549 170.847C189.576 171.097 189.55 171.349 189.474 171.588C189.397 171.827 189.271 172.047 189.104 172.235C188.938 172.422 188.733 172.572 188.504 172.675C181.506 177.001 173.471 179.361 165.245 179.508Z" fill="#093F68"/>
<path d="M239.632 87.1538C239.156 87.1538 238.7 86.9649 238.364 86.6286C238.027 86.2923 237.838 85.8362 237.838 85.3606C236.045 47.5401 218.507 36.0093 218.327 35.9017C217.928 35.6444 217.648 35.2394 217.547 34.7755C217.446 34.3116 217.533 33.8267 217.789 33.427C217.915 33.2279 218.079 33.0557 218.272 32.92C218.464 32.7844 218.682 32.688 218.912 32.6364C219.141 32.5847 219.379 32.5789 219.611 32.6192C219.843 32.6594 220.065 32.745 220.264 32.871C221.035 33.3732 239.47 45.424 241.425 85.1812C241.425 85.6568 241.236 86.113 240.9 86.4493C240.563 86.7856 240.107 86.9745 239.632 86.9745V87.1538Z" fill="#093F68"/>
<path d="M48.1455 160.177C56.6233 160.177 63.496 153.304 63.496 144.826C63.496 136.348 56.6233 129.476 48.1455 129.476C39.6676 129.476 32.7949 136.348 32.7949 144.826C32.7949 153.304 39.6676 160.177 48.1455 160.177Z" fill="white"/>
<path d="M48.1438 161.97C44.7531 161.97 41.4385 160.964 38.6192 159.081C35.8 157.197 33.6026 154.519 32.305 151.387C31.0074 148.254 30.6679 144.807 31.3294 141.481C31.9909 138.156 33.6237 135.101 36.0213 132.703C38.4189 130.306 41.4737 128.673 44.7992 128.012C48.1248 127.35 51.5719 127.69 54.7045 128.987C57.8371 130.285 60.5146 132.482 62.3984 135.301C64.2822 138.121 65.2877 141.435 65.2877 144.826C65.2829 149.371 63.4752 153.729 60.2611 156.943C57.0471 160.157 52.6892 161.965 48.1438 161.97ZM48.1438 131.269C45.4625 131.269 42.8413 132.064 40.6118 133.554C38.3823 135.043 36.6447 137.161 35.6186 139.638C34.5925 142.115 34.324 144.841 34.8471 147.471C35.3702 150.101 36.6614 152.516 38.5574 154.412C40.4534 156.308 42.8691 157.6 45.499 158.123C48.1288 158.646 50.8547 158.377 53.332 157.351C55.8092 156.325 57.9266 154.587 59.4163 152.358C60.906 150.128 61.7011 147.507 61.7011 144.826C61.6916 141.233 60.2602 137.79 57.7198 135.25C55.1794 132.71 51.7365 131.278 48.1438 131.269Z" fill="#DFEAEF"/>
<path d="M258.855 221.184C252.747 221.168 246.811 219.164 241.942 215.476C237.073 211.788 233.536 206.616 231.866 200.741C230.01 193.626 231.016 186.067 234.67 179.685C238.323 173.304 244.332 168.609 251.407 166.607C258.482 164.605 266.06 165.456 272.515 168.978C278.97 172.5 283.788 178.411 285.934 185.444C287.961 192.614 287.057 200.295 283.422 206.799C279.787 213.302 273.718 218.096 266.549 220.126C264.045 220.83 261.456 221.186 258.855 221.184ZM258.855 168.551C253.717 168.566 248.714 170.193 244.55 173.203C240.387 176.214 237.273 180.455 235.649 185.33C234.026 190.205 233.973 195.466 235.5 200.372C237.026 205.278 240.054 209.581 244.157 212.673C248.26 215.766 253.231 217.492 258.367 217.609C263.504 217.726 268.547 216.227 272.786 213.323C277.025 210.42 280.246 206.259 281.994 201.428C283.741 196.596 283.928 191.338 282.527 186.394C281.088 181.241 277.995 176.702 273.725 173.478C269.454 170.254 264.242 168.523 258.891 168.551H258.855Z" fill="#DFEAEF"/>
<path d="M221.682 210.388C213.128 210.388 212.428 207.914 212.141 206.909C211.747 205.475 210.527 201.153 231.867 192.42C232.085 192.33 232.319 192.284 232.554 192.285C232.79 192.286 233.023 192.333 233.24 192.424C233.457 192.514 233.655 192.647 233.821 192.814C233.987 192.981 234.118 193.179 234.208 193.397C234.297 193.615 234.343 193.848 234.342 194.084C234.341 194.319 234.294 194.552 234.204 194.769C234.113 194.987 233.98 195.184 233.813 195.35C233.646 195.516 233.448 195.648 233.23 195.737C219.619 201.278 215.943 204.847 215.566 205.923C216.445 206.64 221.52 207.716 236.261 205.295C244.505 203.872 252.665 201.998 260.703 199.682C268.764 197.44 276.697 194.758 284.464 191.648C298.327 186.053 302.039 182.449 302.397 181.355C301.519 180.638 296.515 179.562 282.044 181.929C281.575 182.007 281.095 181.896 280.708 181.62C280.322 181.344 280.06 180.927 279.981 180.458C279.903 179.99 280.015 179.51 280.29 179.123C280.566 178.737 280.984 178.475 281.452 178.396C304.262 174.612 305.482 178.952 305.876 180.369C306.271 181.785 307.526 186.179 285.809 194.984C277.912 198.124 269.855 200.848 261.672 203.143C253.501 205.484 245.21 207.381 236.835 208.828C231.834 209.757 226.767 210.279 221.682 210.388Z" fill="#DFEAEF"/>
<path d="M94.3746 184.242C97.4449 184.242 99.9338 181.753 99.9338 178.683C99.9338 175.613 97.4449 173.124 94.3746 173.124C91.3044 173.124 88.8154 175.613 88.8154 178.683C88.8154 181.753 91.3044 184.242 94.3746 184.242Z" fill="white"/>
<path d="M94.3759 186.036C92.9217 186.036 91.5002 185.604 90.2911 184.796C89.082 183.988 88.1396 182.84 87.5831 181.497C87.0266 180.153 86.881 178.675 87.1647 177.249C87.4484 175.822 88.1487 174.512 89.1769 173.484C90.2052 172.456 91.5153 171.756 92.9415 171.472C94.3678 171.188 95.8461 171.334 97.1896 171.89C98.5331 172.447 99.6814 173.389 100.489 174.598C101.297 175.807 101.728 177.229 101.728 178.683C101.728 180.633 100.954 182.503 99.5749 183.882C98.1961 185.261 96.3259 186.036 94.3759 186.036ZM94.3759 174.917C93.6311 174.917 92.903 175.138 92.2837 175.552C91.6644 175.966 91.1817 176.554 90.8967 177.242C90.6116 177.93 90.5371 178.687 90.6824 179.418C90.8277 180.148 91.1864 180.819 91.713 181.346C92.2397 181.873 92.9107 182.231 93.6412 182.377C94.3717 182.522 95.1289 182.447 95.8171 182.162C96.5052 181.877 97.0933 181.395 97.5071 180.775C97.9209 180.156 98.1418 179.428 98.1418 178.683C98.1418 177.684 97.7451 176.726 97.0388 176.02C96.3326 175.314 95.3747 174.917 94.3759 174.917Z" fill="#DFEAEF"/>
<path d="M277.344 124.257C276.868 124.257 276.412 124.068 276.076 123.732C275.74 123.395 275.551 122.939 275.551 122.463V114.501C275.551 114.026 275.74 113.57 276.076 113.233C276.412 112.897 276.868 112.708 277.344 112.708C277.82 112.708 278.276 112.897 278.612 113.233C278.948 113.57 279.137 114.026 279.137 114.501V122.463C279.137 122.939 278.948 123.395 278.612 123.732C278.276 124.068 277.82 124.257 277.344 124.257Z" fill="#DFEAEF"/>
<path d="M277.344 142.19C276.868 142.19 276.412 142.001 276.076 141.665C275.74 141.328 275.551 140.872 275.551 140.397V132.434C275.551 131.959 275.74 131.503 276.076 131.166C276.412 130.83 276.868 130.641 277.344 130.641C277.82 130.641 278.276 130.83 278.612 131.166C278.948 131.503 279.137 131.959 279.137 132.434V140.397C279.137 140.872 278.948 141.328 278.612 141.665C278.276 142.001 277.82 142.19 277.344 142.19Z" fill="#DFEAEF"/>
<path d="M290.292 129.242H282.329C281.854 129.242 281.398 129.053 281.061 128.717C280.725 128.381 280.536 127.925 280.536 127.449C280.536 126.973 280.725 126.517 281.061 126.181C281.398 125.845 281.854 125.656 282.329 125.656H290.292C290.767 125.656 291.223 125.845 291.56 126.181C291.896 126.517 292.085 126.973 292.085 127.449C292.085 127.925 291.896 128.381 291.56 128.717C291.223 129.053 290.767 129.242 290.292 129.242Z" fill="#DFEAEF"/>
<path d="M272.36 129.242H264.398C263.922 129.242 263.466 129.053 263.13 128.717C262.793 128.381 262.604 127.925 262.604 127.449C262.604 126.973 262.793 126.517 263.13 126.181C263.466 125.845 263.922 125.656 264.398 125.656H272.36C272.836 125.656 273.292 125.845 273.628 126.181C273.964 126.517 274.153 126.973 274.153 127.449C274.153 127.925 273.964 128.381 273.628 128.717C273.292 129.053 272.836 129.242 272.36 129.242Z" fill="#DFEAEF"/>
<path d="M250.984 255.508C250.508 255.508 250.052 255.319 249.716 254.982C249.379 254.646 249.19 254.19 249.19 253.714V245.752C249.19 245.277 249.379 244.821 249.716 244.484C250.052 244.148 250.508 243.959 250.984 243.959C251.459 243.959 251.915 244.148 252.252 244.484C252.588 244.821 252.777 245.277 252.777 245.752V253.714C252.777 254.19 252.588 254.646 252.252 254.982C251.915 255.319 251.459 255.508 250.984 255.508Z" fill="#DFEAEF"/>
<path d="M250.984 273.44C250.508 273.44 250.052 273.251 249.716 272.915C249.379 272.579 249.19 272.123 249.19 271.647V263.685C249.19 263.209 249.379 262.753 249.716 262.417C250.052 262.081 250.508 261.892 250.984 261.892C251.459 261.892 251.915 262.081 252.252 262.417C252.588 262.753 252.777 263.209 252.777 263.685V271.647C252.777 272.123 252.588 272.579 252.252 272.915C251.915 273.251 251.459 273.44 250.984 273.44Z" fill="#DFEAEF"/>
<path d="M263.931 260.493H255.969C255.493 260.493 255.037 260.304 254.701 259.968C254.365 259.631 254.176 259.175 254.176 258.7C254.176 258.224 254.365 257.768 254.701 257.431C255.037 257.095 255.493 256.906 255.969 256.906H263.931C264.407 256.906 264.863 257.095 265.199 257.431C265.536 257.768 265.725 258.224 265.725 258.7C265.725 259.175 265.536 259.631 265.199 259.968C264.863 260.304 264.407 260.493 263.931 260.493Z" fill="#DFEAEF"/>
<path d="M245.999 260.493H238.036C237.561 260.493 237.105 260.304 236.768 259.968C236.432 259.631 236.243 259.175 236.243 258.7C236.243 258.224 236.432 257.768 236.768 257.431C237.105 257.095 237.561 256.906 238.036 256.906H245.999C246.474 256.906 246.93 257.095 247.267 257.431C247.603 257.768 247.792 258.224 247.792 258.7C247.792 259.175 247.603 259.631 247.267 259.968C246.93 260.304 246.474 260.493 245.999 260.493Z" fill="#DFEAEF"/>
<path d="M52.7347 93.4843C52.2591 93.4843 51.803 93.2953 51.4666 92.959C51.1303 92.6227 50.9414 92.1666 50.9414 91.691V85.3607C50.9414 84.8851 51.1303 84.4289 51.4666 84.0926C51.803 83.7563 52.2591 83.5674 52.7347 83.5674C53.2103 83.5674 53.6664 83.7563 54.0027 84.0926C54.339 84.4289 54.528 84.8851 54.528 85.3607V91.691C54.528 92.1666 54.339 92.6227 54.0027 92.959C53.6664 93.2953 53.2103 93.4843 52.7347 93.4843Z" fill="#DFEAEF"/>
<path d="M52.7347 107.759C52.2591 107.759 51.803 107.57 51.4666 107.233C51.1303 106.897 50.9414 106.441 50.9414 105.965V99.6351C50.9414 99.1595 51.1303 98.7033 51.4666 98.367C51.803 98.0307 52.2591 97.8418 52.7347 97.8418C53.2103 97.8418 53.6664 98.0307 54.0027 98.367C54.339 98.7033 54.528 99.1595 54.528 99.6351V105.965C54.528 106.441 54.339 106.897 54.0027 107.233C53.6664 107.57 53.2103 107.759 52.7347 107.759Z" fill="#DFEAEF"/>
<path d="M63.0468 97.4474H56.6986C56.223 97.4474 55.7668 97.2585 55.4305 96.9222C55.0942 96.5859 54.9053 96.1297 54.9053 95.6541C54.9053 95.1785 55.0942 94.7224 55.4305 94.3861C55.7668 94.0498 56.223 93.8608 56.6986 93.8608H63.0468C63.5224 93.8608 63.9785 94.0498 64.3148 94.3861C64.6511 94.7224 64.8401 95.1785 64.8401 95.6541C64.8401 96.1297 64.6511 96.5859 64.3148 96.9222C63.9785 97.2585 63.5224 97.4474 63.0468 97.4474Z" fill="#DFEAEF"/>
<path d="M48.7733 97.4474H42.4251C41.9495 97.4474 41.4934 97.2585 41.1571 96.9222C40.8208 96.5859 40.6318 96.1297 40.6318 95.6541C40.6318 95.1785 40.8208 94.7224 41.1571 94.3861C41.4934 94.0498 41.9495 93.8608 42.4251 93.8608H48.7733C49.249 93.8608 49.7051 94.0498 50.0414 94.3861C50.3777 94.7224 50.5666 95.1785 50.5666 95.6541C50.5666 96.1297 50.3777 96.5859 50.0414 96.9222C49.7051 97.2585 49.249 97.4474 48.7733 97.4474Z" fill="#DFEAEF"/>
<path d="M52.7362 186.036C52.4886 186.032 52.2443 185.977 52.0189 185.874L29.3159 176.047C29.081 175.968 28.8651 175.841 28.6817 175.674C28.4984 175.507 28.3517 175.304 28.2508 175.078C28.15 174.851 28.0972 174.606 28.0957 174.358C28.0943 174.11 28.1443 173.865 28.2426 173.637C28.3408 173.41 28.4852 173.205 28.6666 173.036C28.848 172.867 29.0625 172.737 29.2965 172.655C29.5305 172.573 29.7789 172.541 30.0261 172.56C30.2733 172.579 30.5138 172.649 30.7326 172.765L53.4535 182.593C53.835 182.755 54.1484 183.045 54.3404 183.412C54.5323 183.78 54.591 184.202 54.5065 184.608C54.4219 185.014 54.1993 185.378 53.8766 185.639C53.5538 185.899 53.1508 186.039 52.7362 186.036Z" fill="#DFEAEF"/>
</svg>
