<svg width="130" height="38" viewBox="0 0 130 38" fill="none" xmlns="http://www.w3.org/2000/svg">
<path d="M25.0455 12.9545C21.7116 9.60515 16.2888 9.60515 12.955 12.9545C9.60564 16.2884 9.60564 21.715 12.955 25.045C16.2888 28.3944 21.7155 28.3944 25.0455 25.045C28.3948 21.7112 28.3948 16.2884 25.0455 12.9545ZM7.52833 7.52784C4.61075 10.3715 3.70435 14.8335 6.47022 18.1011C9.87795 14.1916 14.1921 9.87357 18.1016 6.46973C14.8339 3.70387 10.372 4.61026 7.52833 7.52784ZM14.0131 36.1162C16.8451 38.6253 21.1515 38.6292 23.9835 36.1201C22.5286 35.1709 20.8208 33.8522 18.9964 32.3039C17.1797 33.8483 15.468 35.167 14.0131 36.1162V36.1162ZM14.0015 1.8833C15.4564 2.83248 17.168 4.15123 18.9925 5.69949C20.8169 4.15123 22.5286 2.83248 23.9835 1.8833C21.1515 -0.62971 16.8373 -0.62582 14.0015 1.8833ZM1.87989 14.0126C-0.629223 16.8446 -0.625333 21.151 1.88378 23.9869C2.83297 22.532 4.15171 20.8242 5.69609 18.9998C4.14782 17.1753 2.82908 15.4675 1.87989 14.0126ZM32.1371 32.1366C33.8215 30.4444 35.1831 28.5694 35.292 26.4571C32.4919 29.5444 29.5436 32.494 26.4576 35.2954C28.5699 35.1826 30.441 33.8211 32.1371 32.1366V32.1366ZM35.292 11.5463C35.1831 9.43399 33.8176 7.56285 32.1332 5.86676C30.4371 4.18235 28.566 2.82081 26.4537 2.708C29.4919 5.45441 32.5417 8.50814 35.292 11.5463ZM2.64624 26.3871C2.75517 28.5033 4.12059 30.3783 5.80501 32.0744C7.4972 33.7588 9.36834 35.1203 11.4768 35.2293C8.3891 32.4295 5.44197 29.4784 2.64624 26.3871V26.3871ZM6.46633 19.8984C3.70046 23.1661 4.60686 27.628 7.52444 30.4756C10.3681 33.3931 14.8301 34.2956 18.0977 31.5298C14.1882 28.1259 9.87017 23.8079 6.46633 19.8984V19.8984ZM31.5342 19.8984C28.1303 23.8079 23.8123 28.1259 19.9027 31.5298C23.1704 34.2956 27.6285 33.3893 30.476 30.4717C33.3936 27.628 34.3 23.1661 31.5342 19.8984ZM31.5186 18.1089C34.2884 14.8412 33.3858 10.3793 30.4644 7.53173C27.6168 4.61415 23.1549 3.70776 19.8833 6.47751C23.7967 9.88524 28.1109 14.1994 31.5186 18.1089ZM5.86336 5.86676C4.17895 7.56285 2.81741 9.43399 2.7046 11.5463C5.4549 8.51203 8.50474 5.4583 11.5429 2.71189C9.43059 2.81692 7.55945 4.18235 5.86336 5.86676V5.86676ZM36.1128 23.9947C38.6219 21.1627 38.6219 16.8485 36.1128 14.0165C35.1636 15.4714 33.8449 17.1792 32.3005 19.0036C33.8449 20.8281 35.1636 22.5398 36.1128 23.9947Z" fill="#2EACF3"/>
<path d="M44.4597 29.26V7.22H47.5657V29.26H44.4597ZM44.4597 3.116V0H47.5657V3.116H44.4597Z" fill="#2EACF3"/>
<path d="M69.8517 38V29.26H55.1929C54.3343 29.26 53.5515 29.0573 52.8444 28.652C52.1626 28.2213 51.6071 27.664 51.1778 26.98C50.7737 26.2707 50.5717 25.498 50.5717 24.662V11.818C50.5717 10.982 50.7737 10.222 51.1778 9.538C51.6071 8.82867 52.1626 8.27133 52.8444 7.866C53.5515 7.43533 54.3343 7.22 55.1929 7.22H72.9577V38H69.8517ZM55.1929 26.144H68.3745C68.7785 26.144 69.1194 26.0047 69.3972 25.726C69.7002 25.422 69.8517 25.0673 69.8517 24.662V11.818C69.8517 11.4127 69.7002 11.0707 69.3972 10.792C69.1194 10.488 68.7785 10.336 68.3745 10.336H55.1929C54.7888 10.336 54.4353 10.488 54.1323 10.792C53.8545 11.0707 53.7156 11.4127 53.7156 11.818V24.662C53.7156 25.0673 53.8545 25.422 54.1323 25.726C54.4353 26.0047 54.7888 26.144 55.1929 26.144Z" fill="#2EACF3"/>
<path d="M91.8409 29.26C91.0075 29.26 90.2374 29.0573 89.5303 28.652C88.8485 28.2213 88.2929 27.664 87.8637 26.98C87.4596 26.2707 87.2576 25.498 87.2576 24.662V0H90.3636V24.662C90.3636 25.0673 90.5025 25.422 90.7803 25.726C91.0833 26.0047 91.4368 26.144 91.8409 26.144H95.5529V29.26H91.8409Z" fill="#2EACF3"/>
<path d="M98.6876 29.26V7.22H101.794V29.26H98.6876ZM98.6876 3.116V0H101.794V3.116H98.6876Z" fill="#2EACF3"/>
<path d="M106.642 29.26V0H109.748V7.22H124.445C125.278 7.22 126.036 7.43533 126.718 7.866C127.425 8.27133 127.98 8.82867 128.384 9.538C128.814 10.222 129.028 10.982 129.028 11.818V24.662C129.028 25.498 128.814 26.2707 128.384 26.98C127.98 27.664 127.425 28.2213 126.718 28.652C126.036 29.0573 125.278 29.26 124.445 29.26H106.642ZM111.263 26.144H124.445C124.849 26.144 125.19 26.0047 125.468 25.726C125.771 25.422 125.922 25.0673 125.922 24.662V11.818C125.922 11.4127 125.771 11.0707 125.468 10.792C125.19 10.488 124.849 10.336 124.445 10.336H111.263C110.859 10.336 110.506 10.488 110.203 10.792C109.9 11.0707 109.748 11.4127 109.748 11.818V24.662C109.748 25.0673 109.9 25.422 110.203 25.726C110.506 26.0047 110.859 26.144 111.263 26.144Z" fill="#2EACF3"/>
</svg>
