<svg width="211" height="64" viewBox="0 0 211 64" fill="none" xmlns="http://www.w3.org/2000/svg">
<line x1="136.5" y1="15.5" x2="182.5" y2="15.5" stroke="black" stroke-opacity="0.35" stroke-linecap="round" stroke-dasharray="4 4"/>
<g opacity="0.7">
<path d="M202.078 30H190.922C186.257 30 183 26.7712 183 22.1489V8.8511C183 4.2268 186.257 1 190.922 1H202.078C206.743 1 210 4.2268 210 8.8511V22.1489C210 26.7712 206.743 30 202.078 30Z" fill="white"/>
<path d="M202.078 30H190.922C186.257 30 183 26.7712 183 22.1489V8.8511C183 4.2268 186.257 1 190.922 1H202.078C206.743 1 210 4.2268 210 8.8511V22.1489C210 26.7712 206.743 30 202.078 30" stroke="#C4C4C4"/>
</g>
<path opacity="0.7" d="M199.186 23H193.814C191.568 23 190 21.3299 190 18.9391V12.0609C190 9.66904 191.568 8 193.814 8H199.186C201.432 8 203 9.66904 203 12.0609V18.9391C203 21.3299 201.432 23 199.186 23Z" fill="white" stroke="#D0D0D0"/>
<path d="M0.5 63C17 63 119.5 16 136 15.5" stroke="black" stroke-opacity="0.35" stroke-linecap="round" stroke-dasharray="4 4"/>
</svg>
