<svg width="190" height="47" viewBox="0 0 190 47" fill="none" xmlns="http://www.w3.org/2000/svg">
<line x1="81.5" y1="31.5" x2="161.5" y2="31.5" stroke="black" stroke-opacity="0.35" stroke-linecap="round" stroke-dasharray="4 4"/>
<g opacity="0.7">
<path d="M181.078 46H169.922C165.257 46 162 42.7712 162 38.1489V24.8511C162 20.2268 165.257 17 169.922 17H181.078C185.743 17 189 20.2268 189 24.8511V38.1489C189 42.7712 185.743 46 181.078 46Z" fill="white"/>
<path d="M181.078 46H169.922C165.257 46 162 42.7712 162 38.1489V24.8511C162 20.2268 165.257 17 169.922 17H181.078C185.743 17 189 20.2268 189 24.8511V38.1489C189 42.7712 185.743 46 181.078 46" stroke="#C4C4C4"/>
</g>
<path opacity="0.7" d="M178.186 39H172.814C170.568 39 169 37.3299 169 34.9391V28.0609C169 25.669 170.568 24 172.814 24H178.186C180.432 24 182 25.669 182 28.0609V34.9391C182 37.3299 180.432 39 178.186 39Z" fill="white" stroke="#D0D0D0"/>
<path d="M0.5 1C9 1 73 31.5 81.5 31.5" stroke="black" stroke-opacity="0.35" stroke-linecap="round" stroke-dasharray="4 4"/>
</svg>
