<svg width="112" height="61" viewBox="0 0 112 61" fill="none" xmlns="http://www.w3.org/2000/svg">
<line x1="28.5" y1="44.5" x2="83.5" y2="44.5" stroke="black" stroke-opacity="0.35" stroke-linecap="round" stroke-dasharray="4 4"/>
<g opacity="0.7">
<path d="M20.078 60H8.92203C4.25703 60 1 56.7712 1 52.1489V38.8511C1 34.2268 4.25703 31 8.92203 31H20.078C24.743 31 28 34.2268 28 38.8511V52.1489C28 56.7712 24.743 60 20.078 60Z" fill="white"/>
<path d="M20.078 60H8.92203C4.25703 60 1 56.7712 1 52.1489V38.8511C1 34.2268 4.25703 31 8.92203 31H20.078C24.743 31 28 34.2268 28 38.8511V52.1489C28 56.7712 24.743 60 20.078 60" stroke="#C4C4C4"/>
</g>
<path opacity="0.7" d="M17.1857 53H11.8143C9.5682 53 8 51.3299 8 48.9391V42.0609C8 39.669 9.5682 38 11.8143 38H17.1857C19.4318 38 21 39.669 21 42.0609V48.9391C21 51.3299 19.4318 53 17.1857 53Z" fill="white" stroke="#D0D0D0"/>
<path d="M111.5 0.5C103 0.5 91.5 44 83.5 44.5" stroke="black" stroke-opacity="0.35" stroke-linecap="round" stroke-dasharray="4 4"/>
</svg>
