<svg width="164" height="48" viewBox="0 0 164 48" fill="none" xmlns="http://www.w3.org/2000/svg">
<line x1="28.5" y1="32.5" x2="108.5" y2="32.5" stroke="black" stroke-opacity="0.35" stroke-linecap="round" stroke-dasharray="4 4"/>
<g opacity="0.7">
<path d="M20.078 47H8.92203C4.25703 47 1 43.7712 1 39.1489V25.8511C1 21.2268 4.25703 18 8.92203 18H20.078C24.743 18 28 21.2268 28 25.8511V39.1489C28 43.7712 24.743 47 20.078 47Z" fill="white"/>
<path d="M20.078 47H8.92203C4.25703 47 1 43.7712 1 39.1489V25.8511C1 21.2268 4.25703 18 8.92203 18H20.078C24.743 18 28 21.2268 28 25.8511V39.1489C28 43.7712 24.743 47 20.078 47" stroke="#C4C4C4"/>
</g>
<path opacity="0.7" d="M17.1857 40H11.8143C9.5682 40 8 38.3299 8 35.9391V29.0609C8 26.669 9.5682 25 11.8143 25H17.1857C19.4318 25 21 26.669 21 29.0609V35.9391C21 38.3299 19.4318 40 17.1857 40Z" fill="white" stroke="#D0D0D0"/>
<path d="M110 33C128 33 152 1 163.5 0.5" stroke="black" stroke-opacity="0.35" stroke-linecap="round" stroke-dasharray="4 4"/>
</svg>
