<svg width="99" height="67" viewBox="0 0 99 67" fill="none" xmlns="http://www.w3.org/2000/svg">
<rect x="2.42058" y="1.72966" width="93.9952" height="63.5407" rx="2.27034" fill="white" stroke="white" stroke-width="3.45932"/>
<path fill-rule="evenodd" clip-rule="evenodd" d="M30.2249 25.0019C29.5161 25.8473 28.3819 26.5141 27.2477 26.4189C27.106 25.2757 27.6612 24.0612 28.311 23.311C29.0199 22.4417 30.2604 21.8225 31.2646 21.7749C31.3827 22.9657 30.922 24.1326 30.2249 25.0019ZM31.2529 26.6451C30.2537 26.5871 29.342 26.9479 28.6056 27.2394C28.1317 27.427 27.7304 27.5858 27.4251 27.5858C27.0825 27.5858 26.6646 27.4185 26.1954 27.2306C25.5806 26.9844 24.8778 26.703 24.1407 26.7165C22.4513 26.7403 20.88 27.7049 20.0175 29.2409C18.2454 32.3131 19.5568 36.8618 21.2698 39.3624C22.1087 40.6008 23.1129 41.9582 24.4361 41.9106C25.0182 41.8885 25.4369 41.7094 25.8703 41.524C26.3692 41.3106 26.8875 41.089 27.6968 41.089C28.478 41.089 28.9737 41.3049 29.4494 41.5121C29.9018 41.7092 30.3362 41.8984 30.9812 41.8868C32.3516 41.863 33.2141 40.6484 34.0529 39.41C34.9581 38.0809 35.3559 36.7837 35.4163 36.5869L35.4233 36.5641C35.4219 36.5626 35.4108 36.5575 35.3912 36.5485L35.3912 36.5485L35.391 36.5484L35.391 36.5484C35.0884 36.4087 32.7755 35.3415 32.7533 32.4798C32.731 30.0778 34.5878 28.8608 34.8801 28.6692C34.8979 28.6575 34.9099 28.6497 34.9153 28.6456C33.7339 26.8832 31.8909 26.6927 31.2529 26.6451ZM40.7396 41.7558V23.1919H47.651C51.2189 23.1919 53.7117 25.6686 53.7117 29.2885C53.7117 32.9085 51.1716 35.409 47.5565 35.409H43.5987V41.7558H40.7396ZM43.5988 25.621H46.895C49.376 25.621 50.7937 26.9547 50.7937 29.3005C50.7937 31.6463 49.376 32.9918 46.8832 32.9918H43.5988V25.621ZM63.1514 39.5291C62.3953 40.9819 60.7295 41.8987 58.9337 41.8987C56.2755 41.8987 54.4207 40.3031 54.4207 37.8978C54.4207 35.5163 56.2164 34.1469 59.5363 33.9445L63.1042 33.7301V32.7061C63.1042 31.1938 62.1236 30.3722 60.3751 30.3722C58.9337 30.3722 57.8823 31.1224 57.6696 32.2655H55.0941C55.1768 29.8602 57.4215 28.1098 60.4578 28.1098C63.7303 28.1098 65.8569 29.8364 65.8569 32.5156V41.7559H63.2105V39.5291H63.1514ZM59.7016 39.6958C58.1776 39.6958 57.2088 38.9576 57.2088 37.8264C57.2088 36.6594 58.1421 35.9807 59.9261 35.8735L63.1041 35.6711V36.7189C63.1041 38.4575 61.6392 39.6958 59.7016 39.6958ZM74.6348 42.4822C73.4889 45.733 72.1775 46.8047 69.3893 46.8047C69.1767 46.8047 68.4678 46.7809 68.3024 46.7332V44.5065C68.4796 44.5303 68.9167 44.5542 69.1412 44.5542C70.4053 44.5542 71.1142 44.0183 71.5513 42.6251L71.8112 41.8035L66.9674 28.2884H69.9564L73.3235 39.2553H73.3825L76.7496 28.2884H79.6559L74.6348 42.4822Z" fill="black"/>
</svg>
