<svg width="97" height="67" viewBox="0 0 97 67" fill="none" xmlns="http://www.w3.org/2000/svg">
<rect x="2.18425" y="1.72966" width="92.777" height="63.5407" rx="2.27034" fill="white" stroke="white" stroke-width="3.45932"/>
<path fill-rule="evenodd" clip-rule="evenodd" d="M46.7765 40.3978V32.8417V32.8402H50.8257C52.4951 32.8412 53.8981 32.3117 55.0347 31.2516C56.1834 30.2455 56.8255 28.7989 56.7929 27.2911C56.8156 25.7917 56.1746 24.3559 55.0347 23.353C53.9081 22.2871 52.3928 21.7056 50.8257 21.7376H44.3257V40.3978H46.7765ZM46.7765 30.5488V24.0349V24.0334H50.8866C51.8026 24.0082 52.6857 24.3688 53.3115 25.0235C53.9412 25.6223 54.2965 26.4448 54.2965 27.3037C54.2965 28.1627 53.9412 28.9852 53.3115 29.584C52.678 30.2249 51.7977 30.5752 50.8866 30.5488H46.7765Z" fill="#5F6368"/>
<path fill-rule="evenodd" clip-rule="evenodd" d="M66.7304 28.6343C65.6821 27.6873 64.2522 27.2139 62.4407 27.2139C60.1137 27.2139 58.3566 28.0476 57.1692 29.7152L59.3277 31.0448C60.1254 29.9152 61.2087 29.3504 62.5777 29.3504C63.4506 29.3404 64.2952 29.6525 64.9433 30.2244C65.5895 30.7469 65.9612 31.526 65.9556 32.3461V32.894C65.0138 32.3729 63.8153 32.1123 62.3601 32.1123C60.6551 32.1143 59.2922 32.5054 58.2713 33.2856C57.2504 34.0657 56.7399 35.1164 56.7399 36.4375C56.7177 37.6405 57.2512 38.7892 58.1921 39.5642C59.1603 40.398 60.3634 40.8149 61.8014 40.8149C63.486 40.8149 64.8357 40.0853 65.8506 38.6262H65.9571V40.398H68.3014V32.5292C68.3024 30.8795 67.7787 29.5812 66.7304 28.6343ZM60.0827 38.053C59.5693 37.6911 59.2665 37.1087 59.2698 36.4897C59.2698 35.7944 59.6032 35.2152 60.2745 34.7388C60.9392 34.2693 61.7694 34.0345 62.7649 34.0345C64.1319 34.0345 65.1975 34.3323 65.9616 34.9279C65.9616 35.9343 65.5557 36.8113 64.7438 37.5587C64.0126 38.274 63.0213 38.6767 61.9871 38.6784C61.2975 38.691 60.6248 38.4701 60.0827 38.053Z" fill="#5F6368"/>
<path fill-rule="evenodd" clip-rule="evenodd" d="M81.758 27.6309L73.5744 46.0261H71.0445L74.0813 39.5896L68.7002 27.6309H71.3641L75.2535 36.8024H75.3067L79.0895 27.6309H81.758Z" fill="#5F6368"/>
<path fill-rule="evenodd" clip-rule="evenodd" d="M36.8729 31.2129C36.8739 30.4824 36.8107 29.7532 36.6842 29.0332H26.3481V33.1619H32.2682C32.0234 34.4944 31.2326 35.6712 30.0792 36.4196V39.0996H33.6123C35.681 37.234 36.8729 34.4751 36.8729 31.2129Z" fill="#4285F4"/>
<path fill-rule="evenodd" clip-rule="evenodd" d="M26.3478 41.6888C29.3055 41.6888 31.7959 40.7389 33.6119 39.1011L30.0788 36.4211C29.0954 37.0733 27.8289 37.4455 26.3478 37.4455C23.489 37.4455 21.0625 35.5606 20.1949 33.0205H16.5552V35.7824C18.4156 39.4033 22.2046 41.6886 26.3478 41.6888Z" fill="#34A853"/>
<path fill-rule="evenodd" clip-rule="evenodd" d="M20.1949 33.0205C19.7362 31.6895 19.7362 30.2482 20.1949 28.9172V26.1553H16.5552C14.9992 29.1839 14.9992 32.7538 16.5552 35.7824L20.1949 33.0205Z" fill="#FBBC04"/>
<path fill-rule="evenodd" clip-rule="evenodd" d="M26.3478 24.4921C27.9108 24.4671 29.4211 25.0447 30.5522 26.1001V26.1001L33.6804 23.0404C31.6968 21.2181 29.069 20.2177 26.3478 20.2488C22.2046 20.2489 18.4156 22.5343 16.5552 26.1552L20.1949 28.9171C21.0625 26.377 23.489 24.4921 26.3478 24.4921Z" fill="#EA4335"/>
</svg>
