<svg width="99" height="67" viewBox="0 0 99 67" fill="none" xmlns="http://www.w3.org/2000/svg">
<rect x="1.33643" y="0.5" width="96.4545" height="66" rx="3.5" fill="white" stroke="white"/>
<path d="M58.4862 48.5356H41.0938V17.6079H58.4862V48.5356Z" fill="#6C6BBD"/>
<path d="M42.2082 33.0695C42.2082 26.7956 45.177 21.2071 49.8001 17.6056C46.4193 14.9721 42.1526 13.4002 37.5156 13.4002C26.5379 13.4002 17.6392 22.2063 17.6392 33.0695C17.6392 43.9327 26.5379 52.7388 37.5156 52.7388C42.1526 52.7388 46.4193 51.1669 49.8001 48.5333C45.177 44.9318 42.2082 39.3433 42.2082 33.0695Z" fill="#EB001B"/>
<path d="M81.943 33.0695C81.943 43.9327 73.0443 52.7388 62.0666 52.7388C57.4295 52.7388 53.1628 51.1669 49.7808 48.5333C54.4052 44.9318 57.3739 39.3433 57.3739 33.0695C57.3739 26.7956 54.4052 21.2071 49.7808 17.6056C53.1628 14.9721 57.4295 13.4002 62.0666 13.4002C73.0443 13.4002 81.943 22.2063 81.943 33.0695Z" fill="#0099DF"/>
</svg>
