<svg width="97" height="67" viewBox="0 0 97 67" fill="none" xmlns="http://www.w3.org/2000/svg">
<rect x="2.32976" y="1.72966" width="92.777" height="63.5407" rx="2.27034" fill="white" stroke="white" stroke-width="3.45932"/>
<path d="M57.5291 48.5356H40.354V17.6079H57.5291V48.5356Z" fill="#FF5F00"/>
<path d="M41.4543 33.0695C41.4543 26.7956 44.386 21.2071 48.9513 17.6056C45.6128 14.9721 41.3994 13.4002 36.8204 13.4002C25.9799 13.4002 17.1924 22.2063 17.1924 33.0695C17.1924 43.9327 25.9799 52.7388 36.8204 52.7388C41.3994 52.7388 45.6128 51.1669 48.9513 48.5333C44.386 44.9318 41.4543 39.3433 41.4543 33.0695Z" fill="#EB001B"/>
<path d="M80.6933 33.0695C80.6933 43.9327 71.9058 52.7388 61.0653 52.7388C56.4863 52.7388 52.2729 51.1669 48.9331 48.5333C53.4997 44.9318 56.4313 39.3433 56.4313 33.0695C56.4313 26.7956 53.4997 21.2071 48.9331 17.6056C52.2729 14.9721 56.4863 13.4002 61.0653 13.4002C71.9058 13.4002 80.6933 22.2063 80.6933 33.0695Z" fill="#F79E1B"/>
</svg>
