<svg width="98" height="67" viewBox="0 0 98 67" fill="none" xmlns="http://www.w3.org/2000/svg">
<rect x="0.810146" y="0.810146" width="95.8343" height="65.3797" rx="5.67102" fill="white" stroke="white" stroke-width="1.62029"/>
<path fill-rule="evenodd" clip-rule="evenodd" d="M51.5082 23.9537L46.8222 24.9788V21.1062L51.5082 20.1001V23.9537ZM61.254 26.0987C59.4244 26.0987 58.2482 26.9719 57.5948 27.5794L57.3521 26.4024H53.2448V48.537L57.9122 47.5308L57.9308 42.1586C58.603 42.6521 59.5924 43.3545 61.2353 43.3545C64.5772 43.3545 67.6203 40.6209 67.6203 34.6032C67.6016 29.098 64.5212 26.0987 61.254 26.0987ZM60.1334 39.1785C59.0319 39.1785 58.3784 38.7798 57.9304 38.2863L57.9117 31.2434C58.3971 30.6929 59.0692 30.3133 60.1334 30.3133C61.8323 30.3133 63.0084 32.2496 63.0084 34.7364C63.0084 37.2801 61.8509 39.1785 60.1334 39.1785ZM82.3318 34.793C82.3318 29.9333 80.0168 26.0987 75.5921 26.0987C71.1488 26.0987 68.4604 29.9333 68.4604 34.7551C68.4604 40.469 71.6342 43.3545 76.1895 43.3545C78.4112 43.3545 80.0914 42.842 81.361 42.1206V38.3239C80.0914 38.9694 78.6352 39.368 76.7869 39.368C74.976 39.368 73.3704 38.7226 73.1651 36.4825H82.2944C82.2944 36.3781 82.3011 36.1411 82.3088 35.8679L82.3089 35.8664C82.3194 35.4943 82.3318 35.0555 82.3318 34.793ZM73.1093 32.9898C73.1093 30.8447 74.3975 29.9525 75.5736 29.9525C76.7125 29.9525 77.926 30.8447 77.926 32.9898H73.1093ZM46.8222 26.4215H51.5082V43.0319H46.8222V26.4215ZM41.5017 26.4215L41.8004 27.8262C42.9019 25.776 45.0863 26.1937 45.6837 26.4215V30.7876C45.1049 30.5788 43.238 30.313 42.1365 31.7748V43.0319H37.4691V26.4215H41.5017ZM32.4662 22.3019L27.9108 23.289L27.8922 38.4947C27.8922 41.3042 29.9645 43.3734 32.7275 43.3734C34.2584 43.3734 35.3786 43.0886 35.9947 42.7469V38.8933C35.3973 39.1401 32.4475 40.0133 32.4475 37.2038V30.4647H35.9947V26.4213H32.4475L32.4662 22.3019ZM21.4323 30.218C20.4429 30.218 19.8454 30.5028 19.8454 31.2431C19.8454 32.0515 20.8736 32.4071 22.1492 32.8482C24.2286 33.5674 26.9656 34.5139 26.9772 38.0202C26.9772 41.4182 24.3074 43.3735 20.4242 43.3735C18.8186 43.3735 17.0637 43.0508 15.3274 42.2914V37.7734C16.8957 38.6466 18.8746 39.2921 20.4242 39.2921C21.4697 39.2921 22.2165 39.0073 22.2165 38.1341C22.2165 37.2387 21.1019 36.8294 19.7563 36.3353C17.7071 35.5829 15.1221 34.6336 15.1221 31.4709C15.1221 28.1109 17.6424 26.0987 21.4323 26.0987C22.9819 26.0987 24.5128 26.3454 26.0624 26.9719V31.433C24.6435 30.6547 22.8512 30.218 21.4323 30.218Z" fill="#6772E5"/>
</svg>
