<svg width="98" height="67" viewBox="0 0 98 67" fill="none" xmlns="http://www.w3.org/2000/svg">
<rect x="1.87517" y="1.72966" width="93.9952" height="63.5407" rx="2.27034" fill="white" stroke="white" stroke-width="3.45932"/>
<path d="M43.415 45.9507H36.9268L40.985 22.4995H47.4729L43.415 45.9507Z" fill="#15195A"/>
<path d="M66.9352 23.0726C65.6554 22.5981 63.6256 22.0742 61.1157 22.0742C54.7084 22.0742 50.1963 25.2674 50.1687 29.8327C50.1154 33.201 53.3991 35.0718 55.8551 36.1949C58.3653 37.3425 59.2186 38.0915 59.2186 39.1145C59.193 40.6856 57.1902 41.4097 55.3222 41.4097C52.7318 41.4097 51.3438 41.0364 49.2345 40.1623L48.3801 39.7876L47.4722 45.0519C48.9939 45.6998 51.7976 46.2748 54.7084 46.3C61.5163 46.3 65.9485 43.1562 66.001 38.2912C66.0269 35.6215 64.293 33.576 60.5548 31.9045C58.2855 30.8314 56.8957 30.1079 56.8957 29.01C56.9223 28.012 58.0712 26.9897 60.6328 26.9897C62.7421 26.9396 64.2919 27.4134 65.4659 27.8876L66.0528 28.1366L66.9352 23.0726Z" fill="#15195A"/>
<path fill-rule="evenodd" clip-rule="evenodd" d="M78.5492 22.4995H83.5679L88.8022 45.9504H82.7947C82.7947 45.9504 82.2068 43.2559 82.0206 42.4325H73.6902C73.4493 43.0559 72.3284 45.9504 72.3284 45.9504H65.5205L75.158 24.4453C75.8257 22.9233 77.0015 22.4995 78.5492 22.4995ZM78.1493 31.0814C78.1493 31.0814 76.0932 36.2956 75.5589 37.6428H80.9519C80.6851 36.4703 79.4564 30.8569 79.4564 30.8569L79.003 28.8362C78.812 29.3565 78.5359 30.0719 78.3496 30.5544C78.2234 30.8815 78.1384 31.1016 78.1493 31.0814Z" fill="#15195A"/>
<path fill-rule="evenodd" clip-rule="evenodd" d="M25.1531 38.491L31.5073 22.4995H38.3681L28.1697 45.9258H21.3085L15.5255 25.5488C13.5302 24.4586 11.253 23.5818 8.70703 22.9734L8.81383 22.4995H19.2528C20.6678 22.5489 21.8159 22.973 22.1895 24.4708L24.4582 35.246C24.4584 35.2466 24.4586 35.2471 24.4588 35.2477L25.1531 38.491Z" fill="#15195A"/>
</svg>
