<svg width="71" height="71" fill="none" xmlns="http://www.w3.org/2000/svg"><path d="M32.78 2.437l.094-.084a4 4 0 015.347.084l.071.064a4 4 0 004.266.643l.088-.04.115-.052A4 4 0 0147.78 4.6l.065.108.05.082a4 4 0 003.887 1.872l.095-.013.125-.016a4 4 0 014.34 2.96c.008.027.015.058.03.122l.024.093a4 4 0 003.163 2.934l.094.016.125.022a4 4 0 013.275 4.107l-.007.126-.005.095a4 4 0 002.157 3.737l.086.043.112.057a4 4 0 011.92 4.89l-.044.118-.034.09a4 4 0 00.96 4.207l.07.066.09.088a4 4 0 01.316 5.338l-.059.077a4 4 0 00-.275 4.386l.06.11a4 4 0 01-1.169 5.121l-.102.074-.079.055a4 4 0 00-1.576 4.016l.02.094.025.124a4 4 0 01-2.626 4.549l-.12.04-.091.03a4 4 0 00-2.7 3.468l-.011.126a4 4 0 01-3.977 3.575l-.096.002a4 4 0 00-3.564 2.43c-.01.021-.019.044-.037.09l-.049.116a4 4 0 01-4.732 2.279l-.122-.035-.092-.026a4 4 0 00-4.123 1.271l-.061.074a4 4 0 01-5.38.811 4 4 0 00-4.475 0 4 4 0 01-5.38-.811l-.062-.074a4 4 0 00-4.215-1.245l-.122.035a4 4 0 01-4.732-2.28l-.049-.116-.037-.088a4 4 0 00-3.564-2.43l-.096-.003a4 4 0 01-3.989-3.701 4 4 0 00-2.699-3.469l-.091-.03-.12-.04a4 4 0 01-2.6-4.672l.019-.094A4 4 0 003.87 45.51l-.102-.074a4 4 0 01-1.17-5.12l.062-.111.046-.084a4 4 0 00-.38-4.379 4 4 0 01.316-5.338l.09-.088.069-.066a4 4 0 00.96-4.207l-.033-.09c-.023-.06-.035-.091-.044-.118a4 4 0 012.031-4.947l.086-.043a4 4 0 002.152-3.832l-.007-.126a4 4 0 013.4-4.129l.094-.016a4 4 0 003.163-2.934l.023-.093.03-.123a4 4 0 014.466-2.943l.095.013a4 4 0 003.887-1.872l.05-.082.065-.108a4 4 0 015.02-1.548l.114.052.088.04a4 4 0 004.337-.707z" fill="#FFC702"/><path d="M14.462 32.7V39H13.31v-5.31h-3.267V39H8.891v-6.3h5.571zm3.792 6.363c-.486 0-.924-.105-1.314-.315a2.338 2.338 0 01-.918-.873 2.53 2.53 0 01-.324-1.278c0-.474.108-.897.324-1.269.222-.372.528-.663.918-.873.39-.21.828-.315 1.314-.315.492 0 .933.105 1.323.315.39.21.693.501.91.873.221.372.332.795.332 1.269 0 .474-.11.9-.333 1.278a2.275 2.275 0 01-.909.873c-.39.21-.83.315-1.323.315zm0-.963c.414 0 .756-.138 1.026-.414.27-.276.405-.639.405-1.089 0-.45-.135-.813-.405-1.089s-.612-.414-1.026-.414c-.414 0-.756.138-1.026.414-.264.276-.396.639-.396 1.089 0 .45.132.813.396 1.089.27.276.612.414 1.026.414zm8.754-.054v2.025h-1.053V39h-3.708v1.071h-1.044v-2.025h.225c.306-.012.513-.207.621-.585.114-.384.19-.924.225-1.62l.063-1.647h3.96v3.852h.711zM23.3 35.922a9.775 9.775 0 01-.135 1.35c-.066.348-.186.606-.36.774h2.367v-2.898h-1.845l-.027.774zm7.377-1.782c.468 0 .885.102 1.25.306.373.204.664.492.874.864.21.372.315.801.315 1.287 0 .486-.105.918-.315 1.296-.21.372-.501.66-.873.864a2.526 2.526 0 01-1.251.306c-.648 0-1.161-.216-1.54-.648v2.331h-1.124v-6.552h1.07v.63c.187-.228.415-.399.685-.513.276-.114.579-.171.909-.171zm-.126 3.96c.414 0 .753-.138 1.017-.414.27-.276.405-.639.405-1.089 0-.45-.135-.813-.405-1.089-.264-.276-.603-.414-1.017-.414-.27 0-.513.063-.73.189-.215.12-.386.294-.512.522a1.61 1.61 0 00-.19.792c0 .3.064.564.19.792.126.228.297.405.513.531.216.12.459.18.729.18zm5.826.963c-.486 0-.924-.105-1.314-.315a2.338 2.338 0 01-.918-.873 2.53 2.53 0 01-.324-1.278c0-.474.108-.897.325-1.269.221-.372.527-.663.917-.873.39-.21.828-.315 1.314-.315.492 0 .933.105 1.323.315.39.21.694.501.91.873.221.372.333.795.333 1.269 0 .474-.111.9-.334 1.278a2.275 2.275 0 01-.909.873c-.39.21-.83.315-1.323.315zm0-.963c.414 0 .756-.138 1.026-.414.27-.276.406-.639.406-1.089 0-.45-.136-.813-.405-1.089-.27-.276-.613-.414-1.027-.414-.413 0-.756.138-1.026.414-.264.276-.395.639-.395 1.089 0 .45.131.813.395 1.089.27.276.613.414 1.026.414zm6.278-3.672c.456 0 .858.099 1.206.297.348.192.618.462.81.81.198.348.297.747.297 1.197 0 .462-.108.873-.324 1.233a2.21 2.21 0 01-.91.828c-.39.198-.833.297-1.331.297-.834 0-1.48-.276-1.935-.828-.456-.552-.684-1.347-.684-2.385 0-.966.207-1.731.62-2.295.415-.564 1.048-.936 1.9-1.116l2.232-.477.162 1.008-2.025.414c-.582.12-1.017.324-1.305.612-.288.288-.456.693-.504 1.215.216-.258.477-.456.783-.594a2.337 2.337 0 011.008-.216zm-.225 3.753c.414 0 .747-.132.999-.396.258-.27.387-.612.387-1.026 0-.414-.13-.747-.387-.999-.252-.252-.585-.378-1-.378-.42 0-.758.126-1.016.378s-.387.585-.387.999c0 .42.129.762.387 1.026.264.264.603.396 1.017.396zm3.627-3.987h1.125v1.953h2.42v-1.953h1.126V39h-1.125v-1.899h-2.421V39h-1.125v-4.806zm10.678 2.43c0 .078-.005.189-.017.333h-3.772c.067.354.238.636.514.846.282.204.63.306 1.044.306.528 0 .963-.174 1.305-.522l.602.693a2.032 2.032 0 01-.819.585c-.33.132-.701.198-1.115.198-.528 0-.993-.105-1.395-.315a2.309 2.309 0 01-.937-.873 2.53 2.53 0 01-.324-1.278c0-.468.105-.888.316-1.26.215-.378.513-.672.89-.882a2.59 2.59 0 011.279-.315c.468 0 .885.105 1.25.315.373.204.66.495.864.873.21.372.316.804.316 1.296zm-2.43-1.584c-.36 0-.666.108-.917.324-.246.21-.396.492-.45.846h2.726a1.326 1.326 0 00-.44-.846c-.246-.216-.552-.324-.918-.324zm8.161 1.584c0 .078-.006.189-.018.333h-3.771c.066.354.237.636.513.846.282.204.63.306 1.044.306.528 0 .963-.174 1.305-.522l.603.693a2.032 2.032 0 01-.819.585c-.33.132-.702.198-1.116.198-.528 0-.993-.105-1.395-.315a2.309 2.309 0 01-.936-.873 2.53 2.53 0 01-.324-1.278c0-.468.105-.888.315-1.26.216-.378.513-.672.891-.882.378-.21.804-.315 1.278-.315.468 0 .885.105 1.251.315.372.204.66.495.864.873.21.372.315.804.315 1.296zm-2.43-1.584c-.36 0-.666.108-.918.324-.246.21-.396.492-.45.846h2.727a1.326 1.326 0 00-.441-.846c-.246-.216-.552-.324-.918-.324z" fill="#000"/></svg>