<svg width="229" height="235" viewBox="0 0 229 235" fill="none" xmlns="http://www.w3.org/2000/svg">
<path d="M174.346 226.768L174.318 226.755C169.207 224.54 165.009 221.275 161.884 216.931M174.346 226.768L161.884 216.931M174.346 226.768C179.477 228.954 185.113 230 191.176 230C197.563 230 203.361 228.831 208.404 226.295C208.425 226.284 208.447 226.274 208.468 226.263C213.389 223.7 217.311 220.188 220.019 215.68C222.664 211.277 224 206.46 224 201.323C224 195.63 222.643 190.495 219.468 186.376C216.688 182.768 213.293 179.974 209.29 178.102C205.757 176.449 201.335 174.858 196.1 173.309C192.471 172.214 189.732 171.293 187.825 170.545C186.358 169.879 185.19 169.1 184.262 168.241C183.896 167.822 183.672 167.312 183.672 166.431C183.672 164.498 184.195 163.715 184.644 163.305C185.412 162.674 186.644 162.141 188.81 162.141C191.476 162.141 193.024 162.811 193.994 163.647C194.042 163.689 194.091 163.729 194.141 163.769C195.234 164.641 195.689 165.561 195.759 166.82C195.905 169.47 198.097 171.544 200.751 171.544H218.099C219.489 171.544 220.817 170.965 221.763 169.947C222.709 168.928 223.188 167.561 223.085 166.175C222.468 157.837 219.071 150.956 212.731 146.066C206.609 141.21 198.861 139 189.937 139C183.958 139 178.447 140.043 173.504 142.255C168.518 144.411 164.471 147.64 161.564 151.979C158.619 156.373 157.225 161.446 157.225 166.997C157.225 172.713 158.52 177.869 161.597 181.995C161.625 182.032 161.653 182.069 161.682 182.106C164.447 185.605 167.777 188.336 171.668 190.199C171.711 190.22 171.754 190.239 171.798 190.259C175.298 191.814 179.692 193.358 184.914 194.902C184.935 194.909 184.956 194.915 184.977 194.921C188.645 195.953 191.332 196.866 193.14 197.645C193.205 197.673 193.27 197.7 193.337 197.725M174.346 226.768L193.337 197.725M161.884 216.931C161.884 216.931 161.884 216.931 161.884 216.931L165.943 214.011L161.884 216.931ZM193.337 197.725C194.898 198.32 196.041 199.098 196.891 199.999C197.328 200.461 197.666 201.103 197.666 202.343C197.666 203.793 197.219 204.726 196.288 205.544C195.345 206.304 193.721 206.972 190.838 206.972C188.147 206.972 186.607 206.292 185.651 205.449L193.337 197.725Z" fill="#FED54F" stroke="black" stroke-width="10" stroke-linejoin="round"/>
<path d="M97.561 19.0487C98.2559 17.5016 98.1192 15.7076 97.1978 14.2837C96.2764 12.8598 94.696 12 93 12H70.0329C67.9148 12 66.0265 13.3346 65.3196 15.3312L46.9533 67.2045L31.5145 25.6379C30.7868 23.6787 28.9174 22.3788 26.8274 22.3788H10C8.3513 22.3788 6.80858 23.1916 5.87625 24.5513C4.94392 25.9111 4.74183 27.6431 5.33606 29.181L32.6237 99.8021C33.3684 101.729 35.2216 103 37.2877 103H56.6164C58.5852 103 60.3708 101.845 61.1775 100.049L97.561 19.0487Z" fill="#FFC300" stroke="black" stroke-width="10" stroke-linecap="round" stroke-linejoin="round"/>
<path d="M121.634 8L74.3086 114.425H121.634L83.5925 210.207L207.453 83.6295H144.277L219.001 8H121.634Z" fill="#FED54F" stroke="black" stroke-width="15" stroke-linecap="round" stroke-linejoin="round"/>
<path d="M190 91H162L104.5 178L190 91Z" fill="#FFC300"/>
</svg>
