<svg width="163" height="455" viewBox="0 0 163 455" fill="none" xmlns="http://www.w3.org/2000/svg">
<path d="M150.703 305.76L0 298.527L12.2974 42.2056L163 49.4388L150.703 305.76Z" fill="url(#paint0_linear)"/>
<path d="M49.1692 75.0233C30.9993 82.3999 21.7773 90.5156 20.6711 122.244C19.5649 153.973 24.729 166.886 22.5165 183.856C20.304 200.827 20.304 207.836 22.8836 223.329C25.4681 238.821 25.2331 247.955 24.959 250.858C24.68 253.765 30.6322 269.258 32.4286 269.258C34.2251 269.258 34.6411 262.894 34.367 260.54C38.9339 257.495 39.6241 243.799 36.7165 239.79C33.8089 235.776 36.0264 226.094 38.6549 209.354C41.2835 192.618 49.1692 75.0233 49.1692 75.0233Z" fill="url(#paint1_linear)"/>
<path d="M45.7624 76.472C45.7624 76.472 34.0832 103.668 31.6259 123.341C29.1687 143.013 33.2657 164.047 33.6769 170.332C34.0244 175.652 34.0733 211.875 33.6769 235.443C33.623 238.562 34.6411 240.035 34.8418 238.449C35.9089 230.118 37.5438 213.368 37.7151 215.208C39.5116 208.688 41.3031 202.163 43.0995 195.643L49.1692 75.0281L45.7624 76.472Z" fill="#E08F89"/>
<path d="M42.4388 233.662C42.0717 265.391 44.2842 309.66 50.5545 315.563C56.8249 321.466 64.5736 431.406 59.7766 432.879C54.9796 434.352 32.1057 446.345 29.1541 446.531C26.2025 446.717 32.1057 452.067 43.5402 449.669C54.9747 447.27 76.1891 447.27 81.7253 446.35C87.2614 445.43 87.0754 437.867 82.0924 432.331C77.1143 426.795 94.4519 328.109 93.3457 316.307C92.2394 304.501 92.2395 223.711 92.2395 223.711L48.112 232.536L42.4388 233.662Z" fill="url(#paint2_linear)"/>
<path d="M82.0972 432.326C82.4202 432.992 82.7384 433.369 83.0516 433.491C82.7531 433.094 82.4349 432.703 82.0972 432.326Z" fill="#EE988B"/>
<path d="M93.3458 316.297C92.2395 304.491 92.2396 223.701 92.2396 223.701L64.0988 229.33L45.9192 239.296C63.2863 238.738 71.7299 257.201 74.4809 292.587C75.3815 304.197 79.4296 322.127 79.8555 334.888C81.3386 379.265 77.4179 420.02 81.5638 431.078C78.5975 418.322 94.4079 327.59 93.3458 316.297Z" fill="#EE988B"/>
<path d="M76.7469 237.348C78.5923 271.656 80.4377 317.771 87.8143 324.78C91.505 373.107 105.524 425.865 104.046 435.454C102.572 445.048 100.727 452.424 104.413 453.163C108.104 453.903 124.335 456.482 125.441 450.951C126.548 445.415 119.171 435.087 118.432 427.338C117.693 419.589 126.18 353.185 123.229 336.954C120.277 320.722 116.219 309.655 117.693 297.481C119.166 285.308 126.176 246.57 124.335 234.763C122.49 222.962 76.7469 237.348 76.7469 237.348Z" fill="url(#paint3_linear)"/>
<path d="M118.711 429.134C118.589 428.527 118.491 427.925 118.437 427.343C117.698 419.594 126.186 353.19 123.234 336.959C120.282 320.727 116.224 309.66 117.698 297.486C119.171 285.313 126.181 246.574 124.34 234.768C123.234 227.7 106.405 230.02 93.0668 233.02C86.4343 236.031 81.9163 238.087 81.9163 238.087C100.36 249.521 114.957 239.722 113.273 292.689C112.769 308.563 119.915 364.257 117.331 391.189C115.255 412.776 115.089 422.512 118.711 429.134Z" fill="#EE988B"/>
<path d="M120.556 186.808C118.241 183.137 91.794 191.737 76.0275 197.263C67.5691 197.758 39.6682 199.534 39.6682 199.534C37.6369 217.611 41.264 239.159 41.636 240.265C50.9314 244.039 67.809 240.054 75.7191 239.349C75.7289 239.702 76.9771 243.138 76.9771 243.544C99.1118 246.589 111.041 241.415 112.426 239.756C114.638 233.667 119.171 236.06 118.897 238.826C118.618 241.591 128.305 238.273 129.132 237.441C131.071 224.44 123.875 192.065 120.556 186.808Z" fill="url(#paint4_linear)"/>
<path d="M56.5023 71.7045L49.1697 75.0232C39.7617 96.8838 33.6774 120.678 33.6774 135.617C33.6774 150.556 39.2135 167.992 39.2135 179.059C39.2135 190.127 38.1072 201.194 38.9345 201.194C39.7911 201.669 40.6918 202.124 41.6365 202.565C66.0571 213.911 118.858 213.324 124.982 190.68C131.345 167.16 106.998 74.6561 106.998 74.6561L101.188 71.9835L65.7732 76.9616L56.5023 71.7045Z" fill="url(#paint5_linear)"/>
<path d="M62.728 13.0489C61.2057 6.40658 63.1441 -3.55454 81.6811 1.29141C100.218 6.13246 104.506 14.5712 100.634 17.1998C98.5586 32.9712 97.7265 43.9014 88.1814 43.0693C78.6364 42.2372 62.728 13.0489 62.728 13.0489Z" fill="url(#paint6_linear)"/>
<path d="M93.3018 60.221C92.411 54.357 92.6899 41.8016 92.7437 39.8681C95.3136 38.4388 98.0841 35.0857 98.0841 32.9026C98.0841 30.0734 97.5701 27.9147 94.7409 27.9147C92.6067 27.9147 90.7761 29.2217 90.0076 31.0768C89.1069 30.7489 88.0839 29.6867 88.3237 26.4659C88.7398 20.9297 88.6027 11.9378 86.5273 11.2476C84.4518 10.5574 81.6862 11.8008 79.6108 9.86237C77.5353 7.924 67.1582 3.36196 65.3617 9.86237C64.9457 12.3539 62.8702 12.628 62.7332 13.0441C61.764 16.2257 60.3837 22.452 60.7948 28.2623C61.206 34.0725 59.1354 43.7546 61.2109 47.4943C63.2863 51.2291 65.3617 51.5081 65.3617 54.2737C65.3617 57.0393 64.1185 70.7352 56.5069 71.7044C50.1435 91.9008 58.8565 104.907 70.4818 106.566C82.1072 108.225 92.2005 103.384 95.6612 90.3785C99.1219 77.3727 101.197 71.9786 101.197 71.9786C95.2401 69.7661 94.271 66.5844 93.3018 60.221Z" fill="url(#paint7_linear)"/>
<path d="M92.7097 41.4346C87.6337 55.7179 68.1324 54.8025 62.934 49.9566C62.9291 49.9664 62.934 49.9615 62.9242 49.9713C64.2899 51.5866 65.3569 52.2963 65.3569 54.2788C65.3569 54.7585 65.3178 55.5759 65.215 56.594C68.3869 63.7748 89.1364 60.3631 92.7097 41.4346Z" fill="#EE988B"/>
<path d="M112.857 192.369C116.132 185.702 115.407 177.204 115.407 162.133C115.407 148.109 103.209 129.621 103.209 129.621C103.209 129.621 99.5624 104.212 104.149 91.9352C104.149 91.9352 100.654 127.281 113.268 130.365L124.238 159.127L123.665 198.742C123.665 198.742 105.192 220.872 41.6313 202.565C41.6362 202.565 103.278 211.855 112.857 192.369Z" fill="url(#paint8_linear)"/>
<path d="M64.1036 229.33C64.1036 229.33 66.6098 239.521 75.7339 240.49L77.3737 249.179C77.3737 249.179 116.871 253.383 124.247 244.098C126.68 241.034 128.016 206.446 123.675 198.747C119.333 191.047 115.505 200.112 115.505 200.112C115.505 200.112 123.508 230.71 114.687 235.767C102.524 242.732 81.9211 242.037 81.9211 242.037C81.9211 242.037 79.826 237.353 76.7569 237.357C71.6026 237.353 67.2511 233.158 64.1036 229.33Z" fill="url(#paint9_linear)"/>
<path d="M106.997 74.6562C98.6957 115.24 105.524 130.365 113.268 130.365C118.985 153.792 120.644 157.297 119.538 164.12C118.432 170.944 118.618 193.264 121.198 209.129C123.782 224.993 125.623 227.945 123.782 236.06C121.937 244.176 121.198 243.809 123.229 250.079C125.26 256.35 125.627 261.7 127.654 261.886C129.685 262.072 131.159 261.147 131.159 259.673C132.632 270.188 132.818 274.613 135.216 272.219C137.615 269.821 137.615 267.422 137.615 267.422C139.646 267.422 140.2 265.391 140.2 265.391C142.598 264.284 142.965 261.333 142.965 261.333C144.624 260.594 143.704 252.292 142.598 248.234C141.492 244.176 134.668 237.353 135.403 230.71C136.142 224.068 145.731 198.061 143.885 179.431C142.04 160.801 146.651 127.967 140.748 106.938C134.849 85.9096 120.83 80.7455 106.997 74.6562Z" fill="url(#paint10_linear)"/>
<path d="M126.342 260.74C126.518 261.068 126.704 261.332 126.91 261.528C126.827 260.931 126.743 260.314 126.655 259.673C126.655 260.07 126.543 260.432 126.342 260.74Z" fill="url(#paint11_linear)"/>
<path d="M135.403 230.71C136.142 224.068 145.731 198.061 143.885 179.431C142.04 160.801 146.651 127.967 140.748 106.938C134.845 85.9096 120.826 80.7455 106.993 74.6562C106.865 75.2681 106.748 75.8702 106.63 76.4722C119.039 81.9349 130.929 88.0095 136.245 106.938C142.148 127.967 135.951 151.193 138.173 169.784C140.723 191.091 131.634 224.073 130.895 230.71C130.155 237.353 136.984 244.176 138.09 248.234C139.196 252.292 140.121 260.594 138.457 261.333C138.457 261.333 138.09 264.284 135.691 265.391C135.691 265.391 135.138 267.422 133.107 267.422C133.107 267.422 133.102 268.303 132.573 269.527C133.166 272.679 133.812 273.629 135.217 272.219C137.615 269.821 137.615 267.422 137.615 267.422C139.647 267.422 140.2 265.391 140.2 265.391C142.598 264.284 142.965 261.333 142.965 261.333C144.625 260.594 143.704 252.292 142.598 248.234C141.492 244.176 134.668 237.348 135.403 230.71Z" fill="#E28F86"/>
<path d="M135.691 265.386C138.09 264.279 138.457 261.328 138.457 261.328C140.117 260.589 139.196 252.287 138.09 248.229C136.984 244.171 130.16 237.348 130.895 230.705C131.634 224.063 139.47 192.378 137.625 173.748C135.78 155.118 142.148 127.961 136.245 106.933C130.934 88.0045 119.044 81.9299 106.631 76.4672C98.9015 115.685 105.637 130.36 113.268 130.36C118.985 153.787 120.645 157.292 119.538 164.115C118.432 170.939 118.618 193.259 121.198 209.124C123.782 224.988 125.623 227.94 123.782 236.055C121.937 244.171 121.198 243.804 123.229 250.074C124.722 254.695 125.319 258.812 126.337 260.735C126.538 260.427 126.651 260.07 126.651 259.663C126.739 260.305 126.827 260.921 126.905 261.519C127.13 261.724 127.375 261.851 127.654 261.876C129.685 262.062 131.159 261.137 131.159 259.663C131.766 264 132.157 267.299 132.574 269.517C133.102 268.293 133.107 267.412 133.107 267.412C135.138 267.417 135.691 265.386 135.691 265.386Z" fill="url(#paint12_linear)"/>
<path d="M41.6362 202.564C41.6362 202.564 39.551 232.888 42.5565 235.35C45.5619 237.808 72.3664 239.619 72.3664 239.619L79.0283 240.265L77.1634 246.276C77.1634 246.276 42.5075 246.809 41.0048 243.819C39.502 240.828 38.4007 219.139 39.3552 202.564H41.6362Z" fill="url(#paint13_linear)"/>
<path d="M66.316 39.9708C67.0454 39.5449 68.132 39.6379 68.6851 40.2743C68.832 40.4456 69.6005 40.5435 69.7767 40.4065C70.3788 39.9317 71.3137 39.7652 71.9598 40.1715C73.0709 40.8764 73.2618 40.9057 74.2996 40.7589C74.8233 40.6855 74.0891 41.8896 73.6437 42.1833C72.8017 42.7413 70.7605 43.3728 68.969 43.0986C67.3782 42.8539 65.3958 42.291 64.4266 41.4148C64.0154 41.0477 63.4623 39.9267 64.0105 39.9072C64.6419 39.8827 65.7825 40.2792 66.316 39.9708Z" fill="#FF8B80"/>
<path d="M119.984 433.491C119.984 433.491 125.133 447.892 122.241 450.28C119.054 452.909 108.878 453.883 108.878 453.883C108.878 453.883 121.898 456.032 125.177 451.969C127.845 448.66 119.984 433.491 119.984 433.491Z" fill="#EE988B"/>
<path d="M82.0971 432.326C82.0971 432.326 86.3312 436.829 85.7977 441.91C85.269 446.991 79.4392 446.614 79.4392 446.614L55.5962 448.083C55.5962 448.083 78.4896 445.087 81.079 443.168C85.0879 440.202 82.0971 432.326 82.0971 432.326Z" fill="#EE988B"/>
<path d="M33.8823 237.837C33.8823 237.837 34.9983 240.813 36.364 243.182C37.7296 245.552 35.7766 256.203 34.8417 257.573C33.9067 258.939 33.9018 261.308 33.6767 261.67C33.4515 262.033 32.4333 269.262 32.4333 269.262C32.4333 269.262 34.5578 267.985 34.3718 260.545C34.1858 253.109 34.3718 260.545 34.3718 260.545C34.3718 260.545 37.9744 257.794 38.3562 250.441C38.738 243.089 37.7297 241.988 37.7297 241.988C37.7297 241.988 35.2724 236.29 35.3654 234.587C35.4584 232.884 34.8466 235.708 34.8466 235.708" fill="#E08F89"/>
<defs>
<linearGradient id="paint0_linear" x1="19" y1="290" x2="153.528" y2="52.5156" gradientUnits="userSpaceOnUse">
<stop stop-color="#C6C5FF"/>
<stop offset="1" stop-color="#7777D7"/>
</linearGradient>
<linearGradient id="paint1_linear" x1="44.6736" y1="271.581" x2="25.2091" y2="7.52615" gradientUnits="userSpaceOnUse">
<stop stop-color="#FFA08F"/>
<stop offset="1" stop-color="#FFD1C9"/>
</linearGradient>
<linearGradient id="paint2_linear" x1="72.3459" y1="488.669" x2="45.8926" y2="151.419" gradientUnits="userSpaceOnUse">
<stop stop-color="#FFA08F"/>
<stop offset="1" stop-color="#FFD1C9"/>
</linearGradient>
<linearGradient id="paint3_linear" x1="124.271" y1="509.9" x2="95.1147" y2="182.513" gradientUnits="userSpaceOnUse">
<stop stop-color="#FFA08F"/>
<stop offset="1" stop-color="#FFD1C9"/>
</linearGradient>
<linearGradient id="paint4_linear" x1="38.865" y1="295.068" x2="134.462" y2="134.3" gradientUnits="userSpaceOnUse">
<stop offset="0.00119874" stop-color="#564298"/>
<stop offset="1" stop-color="#7D63E6"/>
</linearGradient>
<linearGradient id="paint5_linear" x1="8.61684" y1="261.235" x2="121.187" y2="77.9465" gradientUnits="userSpaceOnUse">
<stop offset="0.00119874" stop-color="#564298"/>
<stop offset="1" stop-color="#7D63E6"/>
</linearGradient>
<linearGradient id="paint6_linear" x1="78.9326" y1="45.91" x2="85.2597" y2="-21.4485" gradientUnits="userSpaceOnUse">
<stop stop-color="#18202E"/>
<stop offset="1" stop-color="#365986"/>
</linearGradient>
<linearGradient id="paint7_linear" x1="88.0967" y1="221.497" x2="64.3586" y2="-106.381" gradientUnits="userSpaceOnUse">
<stop stop-color="#FFA08F"/>
<stop offset="1" stop-color="#FFD1C9"/>
</linearGradient>
<linearGradient id="paint8_linear" x1="91.4204" y1="150.875" x2="174.026" y2="150.875" gradientUnits="userSpaceOnUse">
<stop stop-color="#564298"/>
<stop offset="1" stop-color="#7D63E6"/>
</linearGradient>
<linearGradient id="paint9_linear" x1="132.164" y1="222.883" x2="194.565" y2="222.883" gradientUnits="userSpaceOnUse">
<stop stop-color="#564298"/>
<stop offset="1" stop-color="#7D63E6"/>
</linearGradient>
<linearGradient id="paint10_linear" x1="151.35" y1="336.567" x2="110.735" y2="18.1017" gradientUnits="userSpaceOnUse">
<stop stop-color="#FFA08F"/>
<stop offset="1" stop-color="#FFD1C9"/>
</linearGradient>
<linearGradient id="paint11_linear" x1="136.487" y1="338.463" x2="95.868" y2="19.9951" gradientUnits="userSpaceOnUse">
<stop stop-color="#FFA08F"/>
<stop offset="1" stop-color="#FFD1C9"/>
</linearGradient>
<linearGradient id="paint12_linear" x1="226.187" y1="325.515" x2="49.3587" y2="57.5568" gradientUnits="userSpaceOnUse">
<stop stop-color="#FFA08F"/>
<stop offset="1" stop-color="#FFD1C9"/>
</linearGradient>
<linearGradient id="paint13_linear" x1="82.6427" y1="224.44" x2="122.669" y2="224.44" gradientUnits="userSpaceOnUse">
<stop stop-color="#564298"/>
<stop offset="1" stop-color="#7D63E6"/>
</linearGradient>
</defs>
</svg>
