<svg width="237" height="458" viewBox="0 0 237 458" fill="none" xmlns="http://www.w3.org/2000/svg">
<path d="M129.119 307.555L64.5597 192.157L0 76.781L115.489 70.1577L231 63.5118L180.048 185.533L129.119 307.555Z" fill="url(#paint0_linear)"/>
<path d="M160.802 230.113C161.659 256.041 149.974 302.763 153.107 324.986C156.24 347.209 155.672 357.463 151.967 385.673C148.261 413.882 143.42 434.959 147.693 441.514C151.967 448.068 155.369 451.69 153.107 454.333C149.216 458.881 134.154 457.084 129.176 453.766C126.841 452.209 132.309 440.373 132.881 436.384C133.454 432.395 131.457 395.644 128.608 369.431C125.759 343.219 131.173 326.41 129.749 320.997C128.324 315.583 122.911 233.53 122.911 233.53L160.802 230.113Z" fill="url(#paint1_linear)"/>
<path d="M153.107 324.986C156.24 347.209 155.672 357.463 151.967 385.673C148.56 411.625 144.193 431.538 146.842 439.658C142.813 435.082 145.339 405.835 148.829 377.219C152.627 346.068 150.983 328.495 147.184 328.207C143.386 327.923 151.688 280.051 152.539 257.828C153.391 235.605 148.413 239.448 133.728 234.097L133.523 232.57L160.792 230.108C161.654 256.041 149.974 302.763 153.107 324.986Z" fill="url(#paint2_linear)"/>
<path d="M79.0767 230.113C78.22 256.041 89.9041 302.763 86.7714 324.986C83.6387 347.209 84.2065 357.463 87.9119 385.673C91.6173 413.882 96.4584 434.959 92.1852 441.514C87.912 448.068 84.6177 451.602 86.7714 454.333C90.4768 459.033 108.059 455.528 110.703 453.766C113.037 452.209 107.57 440.373 106.997 436.384C106.424 432.395 108.422 395.644 111.27 369.431C114.119 343.219 108.705 326.41 110.13 320.997C111.554 315.583 116.968 233.53 116.968 233.53L79.0767 230.113Z" fill="url(#paint3_linear)"/>
<path d="M108.901 443.579C105.304 435.498 102.088 413.95 105.147 394.312C108.755 371.14 107.34 327.326 104.109 326.66C100.879 325.994 122.906 233.53 88.7883 230.984L116.968 233.525C116.968 233.525 111.554 315.578 110.13 320.992C108.706 326.405 114.119 343.214 111.271 369.426C108.422 395.639 106.43 432.39 106.997 436.379C107.227 437.999 108.064 440.73 108.901 443.579Z" fill="url(#paint4_linear)"/>
<path d="M88.8373 192.789L150.905 193.636L151.37 195.041C163.338 224.102 161.962 235.718 161.962 235.718L126.362 240.299L120.179 236.095L116.454 241.249L78.3328 240.485C78.3279 240.485 76.8741 221.85 88.8373 192.789Z" fill="url(#paint5_linear)"/>
<path d="M69.5858 121.848C68.1614 136.948 78.9889 157.463 86.3949 169.71C93.8009 181.957 88.9598 193.641 88.9598 193.641C94.3295 197.058 125.471 201.904 151.399 193.641C151.399 193.641 146.558 181.962 153.964 169.71C161.37 157.458 172.197 136.944 170.773 121.848L159.094 72.8449L153.822 71.1366L88.1521 72.4191L81.4804 72.8449L69.5858 121.848Z" fill="url(#paint6_linear)"/>
<path d="M166.852 203.015C167.371 202.75 168.526 203.48 169.089 203.137C171.39 201.747 169.055 199.965 167.939 200.019C167.929 200.019 167.924 200.019 167.924 200.019C167.929 200.014 167.224 199.985 167.234 199.98C167.684 199.579 168.653 198.09 168.497 197.508C167.821 194.982 162.54 196.475 162.016 197.405C161.375 198.546 162.691 201.762 162.868 202.369C163.014 202.868 165.423 203.073 166.274 203.132C166.475 203.147 166.671 203.108 166.852 203.015Z" fill="url(#paint7_linear)"/>
<path d="M141.33 17.1902C143.322 10.9198 140.38 3.13692 135.25 1.52161C130.121 -0.0937078 112.171 -1.89502 106.664 4.65435C101.158 11.2037 104.099 38.3704 108.657 42.2619C113.219 46.1582 141.33 17.1902 141.33 17.1902Z" fill="url(#paint8_linear)"/>
<path d="M134.159 52.7563C137.576 51.7577 139.715 42.0708 140.997 32.5257C142.28 22.9807 142.28 18.1396 140.713 10.8707C139.715 7.59603 134.159 11.0127 129.602 12.1532C125.045 13.2937 117.208 10.4448 115.074 9.73016C112.935 9.01551 112.509 19.843 112.509 22.9807C112.509 25.7952 111.476 29.9853 109.303 29.8825C108.725 27.5965 106.659 25.898 104.192 25.898C101.275 25.898 100.174 28.228 100.923 30.8516C101.632 33.3285 104.853 36.9115 107.604 37.7143C107.575 37.7388 107.55 37.7681 107.526 37.7926C107.526 37.7926 109.665 54.8855 108.666 58.3071C107.668 61.7237 102.969 68.136 88.1518 72.4093C87.726 80.5299 91.7153 118.563 119.494 116.713C147.272 114.863 150.836 86.5115 153.827 71.1268C153.822 71.1366 134.732 67.7151 134.159 52.7563Z" fill="url(#paint9_linear)"/>
<path d="M159.088 72.845C152.818 110.452 163.93 135.808 166.783 132.391C169.637 128.975 170.773 121.848 170.773 121.848C185.873 130.967 195.276 146.919 195.276 146.919C178.183 163.161 162.799 181.678 161.086 182.246C159.377 182.814 150.831 191.365 151.399 193.641C151.966 195.922 156.812 207.317 156.812 207.317C160.229 207.317 171.487 203.612 171.487 203.612C170.347 201.331 164.365 204.327 165.79 201.331C167.214 198.34 164.223 192.643 166.073 191.076C167.924 189.51 178.751 187.087 192.712 183.528C206.672 179.965 218.165 169.994 224.812 161.829C231.459 153.66 230.701 149.484 227.852 145.686C225.003 141.887 195.183 87.5639 187.396 80.5348C179.603 73.5107 159.088 72.845 159.088 72.845Z" fill="url(#paint10_linear)"/>
<path d="M227.847 145.686C224.998 141.888 195.178 87.564 187.391 80.535C179.603 73.5059 159.088 72.8402 159.088 72.8402C159.064 72.9968 159.039 73.1535 159.015 73.3101C165.692 74.0541 176.269 75.924 181.375 80.535C189.163 87.564 218.982 141.888 221.831 145.686C224.68 149.484 225.439 153.665 218.791 161.829C212.144 169.999 200.651 179.97 186.691 183.528C172.73 187.092 165.324 188.526 163.474 190.092C161.624 191.659 164.615 197.356 163.19 200.347C161.766 203.338 164.326 201.331 165.466 203.612C165.466 203.612 160.66 205.193 156.377 206.29C156.646 206.931 156.812 207.318 156.812 207.318C160.229 207.318 171.487 203.612 171.487 203.612C170.347 201.331 164.365 204.327 165.79 201.331C167.214 198.34 164.223 192.643 166.073 191.076C167.924 189.51 178.751 187.087 192.711 183.528C206.672 179.965 218.165 169.994 224.812 161.829C231.459 153.665 230.696 149.484 227.847 145.686Z" fill="url(#paint11_linear)"/>
<path d="M163.655 200.333C165.08 197.342 162.089 191.644 163.939 190.078C165.79 188.511 172.731 187.092 186.691 183.528C200.651 179.965 212.144 169.994 218.791 161.829C225.439 153.66 224.68 149.484 221.831 145.686C218.982 141.887 189.163 87.564 181.375 80.5349C176.27 75.9288 165.692 74.0541 159.015 73.3101C154.678 99.8795 157.199 121.843 162.887 128.593C165.153 131.28 166.783 132.387 166.783 132.387C168.604 133.488 170.773 121.843 170.773 121.843C185.873 130.962 195.276 146.915 195.276 146.915C178.183 163.156 162.799 181.673 161.086 182.241C159.377 182.809 150.831 191.36 151.399 193.636C151.864 195.496 155.177 203.436 156.377 206.285C160.66 205.188 165.467 203.607 165.467 203.607C164.331 201.336 162.231 203.328 163.655 200.333Z" fill="url(#paint12_linear)"/>
<path d="M74.0007 203.152C73.3252 202.834 71.0539 202.026 70.3148 201.561C69.5757 201.096 70.119 199.422 71.9986 200.058C72.351 200.181 72.6497 200.014 72.6497 200.014C72.6448 200.009 72.6448 200.009 72.6399 200.004C72.1895 199.598 71.1371 198.228 71.5434 197.777C72.7084 196.505 76.1202 197.645 76.6439 198.575C77.2852 199.716 77.8823 201.757 77.7061 202.364C77.525 202.976 74.0007 203.152 74.0007 203.152Z" fill="url(#paint13_linear)"/>
<path d="M81.4801 72.845C87.7505 110.452 76.6391 135.808 73.7854 132.391C70.9316 128.975 69.796 121.848 69.796 121.848C54.6953 130.967 45.2922 146.919 45.2922 146.919C62.3852 163.161 77.7698 181.678 79.483 182.246C81.1962 182.814 89.7378 191.365 89.17 193.641C88.6022 195.922 83.7562 207.317 83.7562 207.317C80.3396 207.317 69.0814 203.612 69.0814 203.612C70.2219 201.331 76.2034 204.327 74.779 201.331C73.3546 198.34 76.3454 192.643 74.4951 191.076C72.6449 189.51 61.8173 187.087 47.8571 183.528C33.8969 179.965 22.4037 169.994 15.7564 161.829C9.10916 153.66 9.86783 149.484 12.7167 145.686C15.5655 141.887 45.3852 87.5639 53.173 80.5348C60.9656 73.5107 81.4801 72.845 81.4801 72.845Z" fill="url(#paint14_linear)"/>
<path d="M71.3281 127.707C71.94 129.41 72.7477 131.148 73.7854 132.391C76.6342 135.808 87.7456 110.453 81.4801 72.8451C81.4801 72.8451 78.7096 72.9332 74.8182 73.3982C78.9837 99.0181 75.0923 118.882 71.3281 127.707Z" fill="url(#paint15_linear)"/>
<path d="M79.483 182.251C77.7747 181.683 62.3901 163.161 45.2922 146.924C45.2922 146.924 57.921 130.972 69.5807 121.853C68.9296 119.625 63.0411 121.853 63.0411 121.853C47.9403 130.972 38.5372 146.924 38.5372 146.924C55.6302 163.166 71.0149 181.683 72.7281 182.251C74.4364 182.819 85.7192 191.972 85.1464 194.253C84.6912 196.079 81.4948 203.744 80.2418 206.73C82.7577 207.396 82.4542 207.322 83.7563 207.322C83.7563 207.322 88.6022 195.927 89.17 193.646C89.7427 191.365 81.1913 182.819 79.483 182.251Z" fill="url(#paint16_linear)"/>
<path d="M157.86 72.4434L159.094 72.8448C159.094 72.8448 157.376 98.9198 159.094 110.188C160.939 122.283 164.88 131.686 166.426 131.148C167.973 130.605 168.83 128.788 168.83 128.788C168.83 128.788 166.759 138.343 161.786 129.601C156.715 120.702 153.2 105.827 157.86 72.4434Z" fill="#3D3A5F"/>
<path d="M166.421 131.148C166.421 131.148 166.28 141.418 160.797 149.714C155.31 158.011 146.729 170.811 145.608 179.113C144.483 187.41 147.522 194.777 147.522 194.777L151.399 193.646C151.399 193.646 147.718 184.037 150.812 177.708C153.905 171.379 175.267 135.059 170.773 121.853C170.773 121.848 169.897 130.898 166.421 131.148Z" fill="#3D3A5F"/>
<path d="M79.3459 157.057C79.3459 157.057 91.0301 169.128 92.5279 175.501C94.0307 181.879 91.5342 194.772 91.5342 194.772L89.17 193.641C89.17 193.641 91.265 180.562 88.8225 175.124C86.3897 169.686 79.3459 157.057 79.3459 157.057Z" fill="#3D3A5F"/>
<path d="M147.522 194.777C147.522 194.777 159.813 220.695 157.42 228.909C154.468 239.041 126.543 238.263 126.543 238.263L125.451 235.913C125.26 235.497 124.873 235.204 124.423 235.125C121.765 234.66 112.524 232.644 111.001 227.034C111.001 227.034 112.352 238.194 122.837 238.571C123.273 238.586 122.803 241.156 123.425 241.254C147.189 245.086 161.967 235.723 161.967 235.723C161.967 235.723 162.3 221.185 156.813 207.327C151.399 193.651 151.399 193.651 151.399 193.651L147.522 194.777Z" fill="#3D3A5F"/>
<path d="M100.781 196.622C100.781 196.622 138.104 197.444 147.855 175.917L151.942 195.026C151.942 195.022 135.241 205.027 100.781 196.622Z" fill="#3D3A5F"/>
<path d="M78.2738 236.922C78.2738 236.922 85.4008 239.874 96.5171 239.874C107.633 239.874 118.931 237.823 118.931 237.823L117.756 241.249C117.756 241.249 101.779 246.017 78.3325 240.485L78.2738 236.922Z" fill="#3D3A5F"/>
<path d="M134.159 52.7566C118.598 60.3926 108.661 42.262 108.661 42.262C108.094 61.2835 117.565 69.9719 122.817 70.4761C128.853 71.0537 134.849 58.4738 134.159 52.7566Z" fill="#A6685E"/>
<path d="M126.635 41.2731C127.326 40.7493 128.447 40.7101 129.093 41.2926C129.264 41.4493 130.062 41.4591 130.228 41.2926C130.781 40.7297 131.721 40.4459 132.431 40.7836C133.655 41.3661 133.337 41.8017 134.565 41.415C135.089 41.2486 134.815 42.2765 134.399 42.6338C133.611 43.3093 131.525 43.9604 129.665 43.9016C128.006 43.8478 125.984 43.7597 124.883 42.9863C124.418 42.6583 123.875 41.7136 124.438 41.6304C125.074 41.5178 126.126 41.6549 126.635 41.2731Z" fill="#985953"/>
<defs>
<linearGradient id="paint0_linear" x1="44.6317" y1="318.259" x2="133.224" y2="8.07291" gradientUnits="userSpaceOnUse">
<stop offset="0.00119874" stop-color="#6767C6"/>
<stop offset="1" stop-color="#C7C7FA"/>
</linearGradient>
<linearGradient id="paint1_linear" x1="160.845" y1="343.59" x2="122.907" y2="343.59" gradientUnits="userSpaceOnUse">
<stop stop-color="#AC7169"/>
<stop offset="0.9988" stop-color="#C49D9B"/>
</linearGradient>
<linearGradient id="paint2_linear" x1="155.983" y1="334.886" x2="183.299" y2="334.886" gradientUnits="userSpaceOnUse">
<stop stop-color="#A5655B"/>
<stop offset="1" stop-color="#AF8282"/>
</linearGradient>
<linearGradient id="paint3_linear" x1="116.969" y1="343.4" x2="79.0313" y2="343.4" gradientUnits="userSpaceOnUse">
<stop stop-color="#AC7169"/>
<stop offset="0.9988" stop-color="#C49D9B"/>
</linearGradient>
<linearGradient id="paint4_linear" x1="105.727" y1="337.286" x2="133.905" y2="337.286" gradientUnits="userSpaceOnUse">
<stop stop-color="#A5655B"/>
<stop offset="1" stop-color="#AF8282"/>
</linearGradient>
<linearGradient id="paint5_linear" x1="78.2739" y1="217.02" x2="162.013" y2="217.02" gradientUnits="userSpaceOnUse">
<stop offset="0.00119874" stop-color="#4E4C88"/>
<stop offset="1" stop-color="#54529A"/>
</linearGradient>
<linearGradient id="paint6_linear" x1="170.9" y1="134.667" x2="69.458" y2="134.667" gradientUnits="userSpaceOnUse">
<stop offset="0.00119874" stop-color="#4E4C88"/>
<stop offset="1" stop-color="#54529A"/>
</linearGradient>
<linearGradient id="paint7_linear" x1="97.1752" y1="231.831" x2="76.0372" y2="241.62" gradientUnits="userSpaceOnUse">
<stop stop-color="#A5655B"/>
<stop offset="1" stop-color="#AF8282"/>
</linearGradient>
<linearGradient id="paint8_linear" x1="110.594" y1="27.0629" x2="136.42" y2="-4.0297" gradientUnits="userSpaceOnUse">
<stop stop-color="#18202E"/>
<stop offset="1" stop-color="#365986"/>
</linearGradient>
<linearGradient id="paint9_linear" x1="100.305" y1="121.865" x2="200.505" y2="-129.798" gradientUnits="userSpaceOnUse">
<stop stop-color="#AC7169"/>
<stop offset="0.9988" stop-color="#C49D9B"/>
</linearGradient>
<linearGradient id="paint10_linear" x1="229.943" y1="140.082" x2="151.371" y2="140.082" gradientUnits="userSpaceOnUse">
<stop stop-color="#AC7169"/>
<stop offset="0.9988" stop-color="#C49D9B"/>
</linearGradient>
<linearGradient id="paint11_linear" x1="220.162" y1="140.082" x2="141.59" y2="140.082" gradientUnits="userSpaceOnUse">
<stop stop-color="#A5655B"/>
<stop offset="1" stop-color="#AF8282"/>
</linearGradient>
<linearGradient id="paint12_linear" x1="223.074" y1="236.227" x2="92.4186" y2="4.04524" gradientUnits="userSpaceOnUse">
<stop stop-color="#AC7169"/>
<stop offset="0.9988" stop-color="#C49D9B"/>
</linearGradient>
<linearGradient id="paint13_linear" x1="72.4167" y1="201.094" x2="49.4604" y2="211.725" gradientUnits="userSpaceOnUse">
<stop stop-color="#A5655B"/>
<stop offset="1" stop-color="#AF8282"/>
</linearGradient>
<linearGradient id="paint14_linear" x1="89.1982" y1="140.082" x2="10.6262" y2="140.082" gradientUnits="userSpaceOnUse">
<stop stop-color="#AC7169"/>
<stop offset="0.9988" stop-color="#C49D9B"/>
</linearGradient>
<linearGradient id="paint15_linear" x1="89.1982" y1="102.771" x2="10.6262" y2="102.771" gradientUnits="userSpaceOnUse">
<stop stop-color="#AC7169"/>
<stop offset="0.9988" stop-color="#C49D9B"/>
</linearGradient>
<linearGradient id="paint16_linear" x1="77.3184" y1="164.091" x2="-1.25367" y2="164.091" gradientUnits="userSpaceOnUse">
<stop stop-color="#A5655B"/>
<stop offset="1" stop-color="#AF8282"/>
</linearGradient>
</defs>
</svg>
