<svg width="235" height="454" viewBox="0 0 235 454" fill="none" xmlns="http://www.w3.org/2000/svg">
<ellipse cx="117.231" cy="164.608" rx="99.2393" ry="128.75" transform="rotate(-8.52588 117.231 164.608)" fill="#C4C4C4"/>
<ellipse cx="117.231" cy="164.608" rx="99.2393" ry="128.75" transform="rotate(-8.52588 117.231 164.608)" fill="url(#paint0_linear)"/>
<path d="M80.0148 79.3032C58.8688 91.2566 51.5901 101.13 50.8902 125.061C50.1902 148.967 51.5901 153.916 47.7721 178.586C43.9541 203.261 47.7721 234.785 47.7721 239.337C47.7721 240.296 41.3451 254.624 42.5297 255.583C45.6722 258.133 48.8294 249.455 48.8832 252.303C48.942 255.559 49.1329 266.876 51.7761 269.225C52.6474 270.003 53.9397 267.952 54.7375 268.408C55.4669 268.824 56.5046 270.37 57.1703 270.552C58.2472 270.845 58.7465 267.879 59.652 267.698C64.0183 266.831 66.8426 260.204 66.8426 260.204L80.0148 79.3032Z" fill="url(#paint1_linear)"/>
<path d="M79.9951 79.3032L73.9156 82.9499C73.9156 82.9499 58.5163 124.464 61.1987 131.209C63.8811 137.954 56.666 165.752 56.4262 167.71C56.1912 169.663 48.4034 204.588 51.2718 224.011C54.1403 243.434 59.6519 267.703 59.6519 267.703L64.0622 264.692L79.9951 79.3032Z" fill="#EE988B"/>
<path d="M64.0674 273.116C73.0838 314.121 82.0953 341.072 88.8552 344.881C95.6101 348.669 108.626 429.738 104.808 431.643C100.99 433.547 78.6444 441.32 78.1207 443.792C77.6018 446.264 88.6936 448.716 98.0478 447.008C107.402 445.299 112.958 445.495 118.856 445.867C124.754 446.239 123.535 438.642 122.155 432.205C120.775 425.749 139.145 383.976 135.67 359.502C132.214 335.003 123.017 335.003 123.717 325.526C124.417 316.025 127.535 306.744 127.535 306.744L124.235 256.63L64.0674 273.116Z" fill="url(#paint2_linear)"/>
<path d="M135.645 359.506C132.189 335.007 122.992 335.007 123.692 325.531C124.392 316.03 127.51 306.749 127.51 306.749L124.211 256.635L69.5201 271.633C104.94 282.426 112.595 309.226 124.989 348.87C132.605 348.321 116.394 418.206 122.948 436.527C122.728 435.103 122.449 433.639 122.13 432.215C120.735 425.754 139.125 383.981 135.645 359.506Z" fill="#EE988B"/>
<path d="M112.6 276.533C116.756 304.248 132.009 330.455 137.207 339.188C142.405 347.92 143.443 373.364 150.722 388.93C157.996 404.495 165.274 419.293 163.556 428.794C161.818 438.295 155.92 450.444 160.776 451.188C165.632 451.932 186.082 456.112 186.782 448.54C187.482 440.943 177.766 425.377 178.809 418.921C179.846 412.464 192.681 366.531 183.307 346.016C173.953 325.502 171.515 322.481 172.915 299.691C174.296 276.9 164.241 254.898 164.241 254.898L112.6 276.533Z" fill="url(#paint3_linear)"/>
<path d="M172.925 299.696C174.305 276.905 164.251 254.902 164.251 254.902L141.446 264.447L127.495 276.924C147.603 287.169 156.958 287.566 161.476 300.459C164.202 337.088 179.866 342.731 180.566 372.595C179.244 387.789 173.532 414.368 179.905 425.705C179.043 423.013 178.564 420.648 178.848 418.92C179.885 412.464 192.72 366.53 183.346 346.016C173.962 325.526 171.525 322.486 172.925 299.696Z" fill="#EE988B"/>
<path d="M159.033 206.478L99.5503 233.674L93.8673 219.219L56.4263 234.388C57.464 257.551 63.3623 277.669 63.3623 277.669C87.4746 282.206 103.358 278.501 110.676 275.892C111.215 277.943 111.455 278.804 111.455 278.804C136.942 284.497 156.429 278.237 157.731 275.104C159.033 271.971 161.108 271.971 163.189 274.252C165.269 276.528 171.505 273.112 172.284 271.692C172.543 249.758 159.033 206.478 159.033 206.478Z" fill="url(#paint4_linear)"/>
<path d="M87.8907 74.2662L79.9953 79.3031C76.8772 92.7885 63.524 127.904 63.8862 137.954C64.2239 148.022 57.4886 176.961 54.3705 200.124C51.2525 223.286 56.4313 239.381 56.4313 239.949C77.5968 246.929 97.8421 244.364 110.652 243.791C123.486 243.223 139.806 238.544 139.806 238.544C139.806 238.544 161.133 220.33 161.295 216.717C161.476 213.105 159.557 123.127 159.557 123.127L144.823 78.3339L138.225 75.2012L87.8907 74.2662Z" fill="url(#paint5_linear)"/>
<path d="M124.211 40.0511C124.573 41.4314 126.678 41.0985 126.678 41.0985C126.678 41.0985 127.246 48.7933 125.856 51.8722C123.306 57.516 126.566 72.4993 138.259 75.2111C135.141 92.5732 121.49 120.068 102.639 115.648C83.7891 111.228 83.9115 86.5085 87.9057 74.2712C87.9057 74.2712 97.1815 66.4786 98.7381 59.846C90.4217 51.3974 93.7208 43.5117 93.0992 36.5952C92.5608 30.5305 92.4384 24.7741 94.1369 20.0652C94.6753 18.5771 95.718 17.3485 97.0543 16.7171C97.8521 16.3206 98.4934 16.2814 98.3955 17.001C98.1948 18.3569 98.1948 17.8527 100.476 18.2932C102.757 18.7289 103.432 19.3016 103.555 20.7896C103.697 22.2777 104.553 21.3819 105.332 22.2336C106.11 23.0854 109.13 23.8538 109.189 20.7896C109.247 17.7254 111.029 21.3134 113.046 21.7295C114.803 22.1015 115.063 22.4539 115.484 21.9057C115.684 21.6658 115.944 21.4701 116.242 21.4456C116.781 21.3819 118.978 20.3051 119.302 21.9253C119.664 23.7657 121.142 22.7574 120.501 23.9616C119.84 25.1657 121.078 25.2097 121.979 25.9978C121.979 25.9978 125.058 26.5656 124.896 31.7542C124.754 36.9379 123.555 37.6183 124.211 40.0511Z" fill="url(#paint6_linear)"/>
<path d="M107.099 63.1548C112.16 63.2429 117.544 61.5591 125.141 54.6769C125.141 54.6769 124.764 58.5341 126.37 63.7324C126.37 63.7324 117.52 72.9054 109.566 72.4453C104.206 72.1369 97.6711 62.0926 97.6711 62.0926C97.6711 62.0926 98.5032 60.4822 98.743 59.8361C98.7479 59.841 101.91 63.0667 107.099 63.1548Z" fill="#EE988B"/>
<path d="M168.387 221.798C168.387 221.798 162.288 240.673 160.839 243.219C159.391 245.769 159.371 251.031 156.571 251.907C153.438 252.891 153.947 239.381 153.947 239.381L163.101 219.062L168.387 221.798Z" fill="url(#paint7_linear)"/>
<path d="M158.916 226.595C158.916 226.595 170.61 249.91 163.835 261.32C152.881 279.759 112.601 273.704 112.601 273.704C112.601 273.704 99.6339 270.605 97.4508 265.417C97.4508 265.417 96.8977 275.104 110.687 275.892L111.465 278.804C111.465 278.804 134.104 284.345 148.651 279.299C148.651 279.299 156.85 277.047 157.761 275.407C158.671 273.767 158.877 272.24 160.903 272.833C162.93 273.425 162.861 274.835 164.433 275.177C166.004 275.52 171.633 274.091 172.289 271.687C172.945 269.284 171.217 240.551 162.607 221.563C154.002 202.581 158.916 226.595 158.916 226.595Z" fill="url(#paint8_linear)"/>
<path d="M56.4316 239.949C56.4316 239.949 69.3786 243.679 85.9722 243.165C104.005 242.607 138.264 236.184 138.264 236.184L140.727 245.641C140.727 245.646 73.877 257.649 56.4316 239.949Z" fill="url(#paint9_linear)"/>
<path d="M138.989 97.4535C138.989 97.4535 134.51 118.345 140.888 130C147.261 141.654 149.699 137.778 149.699 137.778L158.015 173.089L161.104 194.113L152.543 200.124L145.44 145.301C145.44 145.301 138.078 144.028 134.926 124.356C131.779 104.683 138.989 97.4535 138.989 97.4535Z" fill="url(#paint10_linear)"/>
<path d="M144.843 78.3584C131.49 110.254 138.426 136.833 149.699 137.773C153.854 154.479 158.015 173.084 158.015 173.084C153.287 190.075 153.502 232.112 144.848 233.448C141.891 234.227 142.156 238.784 136.879 240.644C132.542 242.156 129.047 244.286 131.005 245.881C133.418 248.157 137.912 246.292 138.147 246.753C138.426 247.291 149.709 255.514 156.576 251.907C157.756 246.782 157.937 240.58 160.272 237.163C162.607 233.747 175.182 212.89 182.22 203.061C189.235 193.232 190.018 182.414 189.377 177.426C188.716 172.433 177.942 103.386 169.087 93.141C160.213 82.9156 144.843 78.3584 144.843 78.3584Z" fill="url(#paint11_linear)"/>
<path d="M189.377 177.426C188.716 172.433 177.942 103.386 169.087 93.1411C160.213 82.9157 144.843 78.3634 144.843 78.3634C144.544 79.0781 144.255 79.7927 143.976 80.5025C149.263 82.7688 157.104 86.8952 162.523 93.1411C171.378 103.386 182.152 172.438 182.812 177.426C183.454 182.419 182.67 193.232 175.656 203.061C168.622 212.89 159.454 229.855 157.119 233.272C154.779 236.689 152.954 252.822 152.954 252.822L156.576 251.912C156.576 251.912 157.937 240.585 160.271 237.168C162.611 233.752 175.181 212.895 182.22 203.066C189.235 193.232 190.018 182.414 189.377 177.426Z" fill="#EE988B"/>
<path d="M135.827 28.9494C134.926 30.6333 133.33 34.0939 133.306 37.6427C133.286 39.5273 131.064 42.4006 130.481 44.197C129.762 46.4291 126.678 47.7947 126.678 47.7947C126.678 47.7947 127.016 39.8259 125.949 34.4758C125.949 34.4758 120.633 36.747 121.729 28.69C121.729 28.69 121.729 22.8455 114.911 22.449C114.911 22.449 104.078 26.1691 101.039 19.0764C101.039 19.0764 93.383 14.8081 93.7648 24.265C93.7648 24.265 92.6634 30.9221 93.383 35.3422L93.0844 42.8509C91.6844 40.9909 89.4866 37.6623 89.188 34.4856C89.0706 33.2618 88.6104 32.0968 87.8077 31.201C87.5287 30.8731 87.186 30.5206 86.77 30.085C84.812 28.1124 84.4498 24.3922 87.2888 19.6883C88.3265 17.9799 89.7265 16.58 91.3467 15.5276C92.3648 14.8472 93.6277 13.7556 94.3032 12.155C94.3032 12.155 94.4843 6.70215 101.66 6.70215C101.66 6.70215 108.097 6.09027 108.655 3.87778C108.655 3.87778 114.514 0.245755 119.169 4.53368C120.227 5.49798 121.47 6.19792 122.806 6.52588C123.565 6.72167 124.407 6.85388 125.205 6.87835C128.342 6.96646 131.24 8.89012 132.523 12.0473C132.924 13.0116 133.203 14.1032 133.301 15.3759C133.301 15.3759 133.12 20.6085 135.318 21.2204C135.318 21.2204 137.618 20.3883 136.757 26.037C136.644 27.0894 136.306 28.0732 135.827 28.9494Z" fill="url(#paint12_linear)"/>
<path d="M128.342 32.9926C129.556 33.1395 131.074 34.975 130.256 36.9526C129.439 38.9301 124.72 43.125 124.72 43.125L122.88 36.5218C122.875 36.5218 124.446 32.5129 128.342 32.9926Z" fill="url(#paint13_linear)"/>
<path d="M102.566 49.0822C103.237 48.5731 104.328 48.534 104.955 49.1018C105.121 49.2535 105.894 49.2633 106.056 49.1018C106.594 48.5584 107.505 48.2794 108.195 48.6074C109.385 49.1703 109.575 49.1801 110.589 48.906C111.103 48.7689 110.515 50.0513 110.109 50.3989C109.34 51.0548 107.387 51.9261 105.576 51.8673C103.966 51.8135 101.934 51.4905 100.862 50.7415C100.412 50.4234 99.722 49.3808 100.27 49.2927C100.887 49.1948 102.072 49.4542 102.566 49.0822Z" fill="#FF8B80"/>
<path d="M179.553 424.555C179.553 424.555 185.818 445.255 182.411 447.575C176.949 451.296 160.061 450.963 160.061 450.963C160.061 450.963 165.475 452.979 177.497 453.004C189.519 453.028 187.282 447.85 186.748 444.957C185.461 438.025 179.553 424.555 179.553 424.555Z" fill="#E59188"/>
<path d="M122.214 432.577C122.214 432.577 123.398 443.547 120.579 444.276C117.754 445.005 109.923 443.346 100.906 445.461C99.4475 445.803 98.214 446.092 97.1616 446.332C91.7234 447.58 91.3416 447.58 91.3416 447.58C91.3416 447.58 91.4395 447.639 97.1469 447.164C98.8112 447.027 101.459 446.19 104.088 446.102C115.743 445.705 117.015 446.077 118.851 445.877C120.686 445.676 122.023 445.705 122.953 443.654C124.338 440.6 122.214 432.577 122.214 432.577Z" fill="#E59188"/>
<defs>
<linearGradient id="paint0_linear" x1="75.4024" y1="63.7977" x2="136.106" y2="263.125" gradientUnits="userSpaceOnUse">
<stop offset="0.0117302" stop-color="#6767C6"/>
<stop offset="0.903226" stop-color="#B3B3E8"/>
</linearGradient>
<linearGradient id="paint1_linear" x1="53.0687" y1="377.997" x2="68.7093" y2="-27.4419" gradientUnits="userSpaceOnUse">
<stop stop-color="#FFA08F"/>
<stop offset="1" stop-color="#FFD1C9"/>
</linearGradient>
<linearGradient id="paint2_linear" x1="120.33" y1="501.578" x2="78.9034" y2="174.602" gradientUnits="userSpaceOnUse">
<stop stop-color="#FFA08F"/>
<stop offset="1" stop-color="#FFD1C9"/>
</linearGradient>
<linearGradient id="paint3_linear" x1="189.7" y1="497.034" x2="127.131" y2="209.765" gradientUnits="userSpaceOnUse">
<stop stop-color="#FFA08F"/>
<stop offset="1" stop-color="#FFD1C9"/>
</linearGradient>
<linearGradient id="paint4_linear" x1="56.4299" y1="243.795" x2="172.289" y2="243.795" gradientUnits="userSpaceOnUse">
<stop offset="0.00119874" stop-color="#564298"/>
<stop offset="1" stop-color="#7D63E6"/>
</linearGradient>
<linearGradient id="paint5_linear" x1="-26.0946" y1="139.051" x2="214.156" y2="176.298" gradientUnits="userSpaceOnUse">
<stop offset="0.00119874" stop-color="#564298"/>
<stop offset="1" stop-color="#7D63E6"/>
</linearGradient>
<linearGradient id="paint6_linear" x1="115.995" y1="175.882" x2="104.636" y2="-90.5618" gradientUnits="userSpaceOnUse">
<stop stop-color="#FFA08F"/>
<stop offset="1" stop-color="#FFD1C9"/>
</linearGradient>
<linearGradient id="paint7_linear" x1="153.922" y1="235.513" x2="168.388" y2="235.513" gradientUnits="userSpaceOnUse">
<stop stop-color="#564298"/>
<stop offset="1" stop-color="#7D63E6"/>
</linearGradient>
<linearGradient id="paint8_linear" x1="131.379" y1="247.805" x2="328.324" y2="248.337" gradientUnits="userSpaceOnUse">
<stop stop-color="#564298"/>
<stop offset="1" stop-color="#7D63E6"/>
</linearGradient>
<linearGradient id="paint9_linear" x1="98.0313" y1="239.996" x2="168.777" y2="439.464" gradientUnits="userSpaceOnUse">
<stop stop-color="#564298"/>
<stop offset="1" stop-color="#7D63E6"/>
</linearGradient>
<linearGradient id="paint10_linear" x1="142.916" y1="140.752" x2="356.542" y2="743.073" gradientUnits="userSpaceOnUse">
<stop stop-color="#564298"/>
<stop offset="1" stop-color="#7D63E6"/>
</linearGradient>
<linearGradient id="paint11_linear" x1="69.925" y1="270.714" x2="240.995" y2="47.1347" gradientUnits="userSpaceOnUse">
<stop stop-color="#FFA08F"/>
<stop offset="1" stop-color="#FFD1C9"/>
</linearGradient>
<linearGradient id="paint12_linear" x1="111.817" y1="59.6215" x2="110.221" y2="-17.1907" gradientUnits="userSpaceOnUse">
<stop stop-color="#18202E"/>
<stop offset="1" stop-color="#365986"/>
</linearGradient>
<linearGradient id="paint13_linear" x1="154.36" y1="29.4953" x2="120.013" y2="39.7932" gradientUnits="userSpaceOnUse">
<stop stop-color="#FFA08F"/>
<stop offset="1" stop-color="#FFD1C9"/>
</linearGradient>
</defs>
</svg>
