<svg width="193" height="471" viewBox="0 0 193 471" fill="none" xmlns="http://www.w3.org/2000/svg">
<path d="M144.456 241.961L102.71 183.686L137.324 120.9L177.559 47.8951L88.7796 53.1383L0 58.3593L48.5444 126.121L90.2903 184.419L55.6761 247.205L15.4409 320.188L104.22 314.967L193 309.724L144.456 241.961Z" fill="url(#paint0_linear)"/>
<path d="M189.067 457.112C189.067 459.623 182.935 466.865 181.269 468.265C179.603 469.665 174.315 472.442 172.627 469.709C170.96 466.976 166.495 466.865 164.829 465.754C164.451 465.51 164.162 464.133 163.918 462.089C163.096 455.046 162.851 440.005 161.763 434.806C160.363 428.119 156.186 425.053 155.919 421.987C155.631 418.921 156.186 413.344 155.919 409.456C155.631 405.546 141.701 379.641 136.413 362.911C131.125 346.182 130.57 320.543 130.57 311.901C130.57 303.259 124.171 298.237 120.261 272.599C116.351 246.96 101.865 201.815 100.754 200.971C100.31 200.638 98.5771 200.704 96.5331 200.927C95.1112 201.06 93.5338 201.282 92.1564 201.504C90.4679 201.749 89.0682 202.015 88.5127 202.104C86.8465 202.393 93.8004 241.117 99.6657 269C105.509 296.882 98.5549 313.034 99.1103 319.455C99.6657 325.853 103.843 331.719 103.843 348.448C103.843 365.178 107.464 402.525 110.819 410.323C114.174 418.121 111.085 436.806 111.085 440.427C111.085 444.048 114.44 451.847 115.818 454.357C117.217 456.868 115.818 462.155 115.818 466.065C115.818 469.976 113.018 470.531 108.441 468.865C103.843 467.199 97.5773 467.199 95.0668 464.599C94.3781 463.888 94.1781 462.355 94.2448 460.267C94.4225 454.69 96.6886 445.337 97.644 438.339C98.9548 428.719 96.3332 428.719 95.089 424.12C93.8449 419.521 96.3332 412.411 97.5995 406.146C98.8437 399.881 77.5375 353.891 76.7155 342.183C75.8934 330.474 80.048 319.188 80.048 309.99C80.048 300.792 71.2723 283.663 58.7196 246.449C46.1669 209.236 49.5217 196.283 54.1207 188.129C58.7196 179.976 57.4755 167.867 58.2975 163.668C58.6752 161.78 59.7194 159.825 61.2746 157.581C63.163 154.848 65.7624 151.693 68.7395 147.783C74.1827 140.674 71.45 127.721 71.45 126.677C71.45 126.61 71.45 126.544 71.4278 126.477C71.4278 126.455 71.4056 126.41 71.4056 126.388C71.0279 125.477 68.784 124.788 65.5181 123.522C56.1869 119.901 60.2082 105.86 60.3415 104.104C60.5414 101.727 60.1637 98.4834 58.4752 93.4179C55.5426 84.6422 15.7739 62.7583 4.55431 47.4285C1.6883 43.5627 -0.933314 38.675 0.932923 37.3864C2.82138 36.0978 5.13196 35.098 7.84244 33.6317C23.7499 25.0559 72.2276 27.9886 72.2276 27.9886L72.7164 32.0765L73.0719 35.0758C73.0719 35.0758 69.2283 35.6979 61.1635 36.8087C53.0765 37.9196 25.2162 45.4512 25.2162 45.4512C26.3271 46.2955 39.4352 54.9379 48.3442 60.781C55.4981 65.4688 59.3861 70.8454 66.8289 70.7565C68.4063 70.7343 69.917 70.5787 71.2723 70.3121C71.3389 70.2899 71.4056 70.2899 71.4722 70.2677C71.9832 70.1566 72.472 70.0233 72.9386 69.8678C76.5155 68.6681 78.9372 66.1353 80.3813 63.0916C81.6477 60.4033 82.1364 57.3151 81.9587 54.3825C81.6477 49.0726 81.8921 47.984 80.0703 46.3621C79.6037 45.94 78.9816 45.4734 78.1818 44.918C74.2716 42.1186 75.1158 33.2096 75.1158 33.2096C73.4496 31.8099 72.6053 26.2334 72.6053 23.1674C72.6053 20.1015 75.9601 23.1674 75.9601 23.1674C78.4706 8.68189 87.6685 7.28221 87.6685 7.28221C99.3103 5.81588 107.397 24.3227 107.397 24.3227C107.397 24.3227 110.108 22.5231 111.152 24.3227C113.374 28.1441 108.219 31.9432 108.219 31.9432C108.219 44.0737 101.332 47.2064 100.066 48.4505C98.8215 49.6947 99.4436 63.9136 101.732 66.2242C102.221 66.713 103.087 67.6683 104.198 68.6014C105.509 69.6901 107.153 70.7343 108.819 70.7565C109.019 70.7565 109.219 70.7565 109.419 70.7565C111.619 70.7565 114.018 70.5788 116.306 70.2455C117.639 70.0678 118.928 69.8234 120.105 69.5345C126.371 68.0682 138.501 57.404 144.766 54.0714C151.032 50.7167 157.586 41.2522 157.586 41.2522C149.788 37.1198 112.996 34.8759 112.996 34.8759L114.107 26.5222C134.147 24.3672 150.965 24.967 163.051 26.5C163.051 26.5 163.051 26.5 163.073 26.5C175.315 28.0552 182.669 30.5435 183.513 32.0987C185.179 35.1647 179.603 42.9629 175.426 48.2728C172.271 52.2496 123.571 93.9734 122.194 97.0393C121.994 97.4837 121.883 98.0613 121.816 98.7278C121.505 102.66 124.46 108.57 123.571 114.324C123.26 116.346 122.683 117.923 121.905 119.168C119.083 123.767 113.951 123.789 112.752 124.7C112.729 124.7 112.707 124.722 112.707 124.744C111.307 125.966 111.041 143.051 116.884 149.161C117.817 150.138 118.617 151.249 119.328 152.427C120.017 153.582 120.639 154.804 121.194 156.07C123.638 161.647 124.971 167.845 128.037 170.933C149.454 192.506 146.144 302.725 150.187 312.767C161.785 341.561 162.585 397.481 165.095 400.836C167.606 404.191 170.672 413.655 174.293 424.253C177.937 434.828 189.067 454.601 189.067 457.112Z" fill="url(#paint1_linear)"/>
<path d="M115.773 466.021C115.773 469.931 112.974 470.487 108.397 468.82C103.798 467.154 97.5332 467.154 95.0226 464.555C94.3339 463.844 94.134 462.311 94.2006 460.222C100.177 456.134 105.909 463.199 109.664 457.956C113.841 452.113 104.021 420.343 105.687 408.634C107.353 396.926 98.7995 350.114 96.5112 333.674C94.2228 317.233 94.6005 314.434 97.6665 301.059C100.732 287.684 91.5346 264.001 89.024 236.674C86.5135 209.369 73.2499 169.911 73.2499 169.911L83.7363 175.91L92.1122 201.504C90.4237 201.749 89.024 202.015 88.4686 202.104C86.8023 202.393 93.7563 241.117 99.6216 269C105.465 296.882 98.5107 313.034 99.0662 319.455C99.6216 325.853 103.798 331.719 103.798 348.448C103.798 365.178 107.42 402.525 110.775 410.323C114.129 418.121 111.041 436.806 111.041 440.427C111.041 444.048 114.396 451.847 115.773 454.357C117.173 456.845 115.773 462.133 115.773 466.021Z" fill="#EE988B"/>
<path d="M189.068 457.112C189.068 459.622 182.936 466.865 181.269 468.265C179.603 469.665 174.315 472.442 172.627 469.709C170.961 466.976 166.495 466.865 164.829 465.754C164.451 465.51 164.162 464.133 163.918 462.089C165.94 461.689 168.361 461.289 170.116 461.289C173.738 461.289 175.137 462.955 177.07 462.955C179.025 462.955 182.358 459.6 179.448 447.492C176.515 435.361 157.297 398.57 157.297 375.997C157.297 353.425 143.922 309.946 143.922 300.748C143.922 233.386 129.681 172.8 120.506 170.911C111.33 169.023 100.71 200.971 100.71 200.971C100.266 200.638 98.5329 200.704 96.4889 200.927L103.776 156.537L119.328 152.404C120.017 153.56 120.639 154.782 121.194 156.048C123.638 161.624 124.971 167.823 128.037 170.911C149.454 192.484 146.144 302.703 150.188 312.745C161.785 341.539 162.585 397.459 165.095 400.814C167.606 404.169 170.672 413.633 174.293 424.231C177.937 434.828 189.068 454.601 189.068 457.112Z" fill="#EE988B"/>
<path d="M175.426 48.2506C172.271 52.2497 123.572 93.9734 122.194 97.0394C121.994 97.4837 121.883 98.0613 121.816 98.7279C121.505 102.66 124.46 108.57 123.572 114.324C123.261 116.346 122.683 117.923 121.905 119.168L95.9779 120.567L110.197 83.909L109.397 70.8009C111.597 70.8009 113.996 70.6232 116.284 70.29C117.617 70.1122 118.906 69.8678 120.083 69.579C120.083 69.579 116.595 88.3969 122.461 88.1081C128.304 87.8415 172.894 48.5394 175.137 41.5632C177.359 34.5871 180.225 29.8104 163.074 26.5C175.315 28.0552 182.669 30.5435 183.513 32.0987C185.18 35.1647 179.603 42.9629 175.426 48.2506Z" fill="#EE988B"/>
<path d="M100.088 107.304L98.333 122.878C98.333 122.878 81.8035 119.523 81.9368 118.701C82.0479 117.857 70.1395 73.5114 70.1395 73.5114L69.8285 70.5565C70.3839 70.4898 70.9394 70.3788 71.4726 70.2677C71.9836 70.1566 72.4723 70.0233 72.9389 69.8678C72.9389 69.8678 72.9389 69.8678 72.9389 69.89C73.361 71.0675 83.0921 103.527 88.0465 106.215C88.6019 106.526 91.0014 98.2168 91.5346 98.3057C92.3122 98.439 89.6239 109.281 93.4897 111.658C96.0225 113.236 99.9549 107.57 100.088 107.304C100.088 107.326 100.088 107.304 100.088 107.304Z" fill="#EE988B"/>
<path d="M66.8068 70.7786C68.3842 70.7564 69.8949 70.6008 71.2502 70.3342C70.6503 74.3778 69.5839 77.777 67.6732 76.5773C63.4742 73.9556 61.5635 92.0181 59.875 92.9957C58.2087 93.9732 60.2305 89.041 55.6982 80.443C46.3226 62.6027 29.5265 51.894 24.2166 48.406C18.9289 44.9179 17.9513 44.4957 22.3948 42.0074C26.8604 39.4969 72.6943 32.0986 72.6943 32.0986L73.0498 35.0979C73.0498 35.0979 69.2062 35.72 61.1414 36.8308C53.0544 37.9417 25.1941 45.4733 25.1941 45.4733C26.305 46.3175 39.4131 54.96 48.3221 60.8031C55.4983 65.4909 59.364 70.8675 66.8068 70.7786Z" fill="#EE988B"/>
<path d="M112.707 124.722C111.308 125.944 111.041 143.029 116.884 149.138C118.728 151.071 120.061 153.493 121.194 156.048C103.198 174.666 100.732 200.971 100.732 200.971C99.6214 200.127 90.1347 201.815 88.4685 202.082C88.0019 200.393 87.5131 198.771 86.9799 197.194V197.172C77.471 168.023 61.2081 157.514 61.2081 157.514C63.0965 154.782 65.6959 151.627 68.673 147.717C74.1162 140.607 71.3835 127.655 71.3835 126.61C71.3835 126.544 71.3835 126.477 71.3613 126.41C71.3613 126.388 71.3391 126.344 71.3391 126.321C70.9614 125.411 68.7619 124.611 65.4515 123.455C56.1203 119.834 60.1416 105.793 60.2749 104.038C63.252 100.972 66.007 97.6392 67.2733 94.4844C69.4284 89.13 68.0509 77.977 66.8068 70.712C67.851 70.6898 68.873 70.6232 69.8283 70.5121C70.3837 70.4454 70.9392 70.3344 71.4724 70.2233C71.9834 70.1122 72.4721 69.9789 72.9387 69.8234C72.9387 69.8234 72.9387 69.8234 72.9387 69.8456C77.8265 87.5748 86.9133 117.146 93.0896 116.768C95.6224 116.613 97.9996 112.725 100.088 107.259V107.237C105.242 93.8623 108.753 71.0897 108.797 70.712C109.908 70.7343 111.085 70.712 112.263 70.6232C113.596 70.5343 114.973 70.401 116.284 70.2233C113.463 83.3314 121.794 98.6612 121.794 98.6612C121.483 102.594 124.438 108.503 123.549 114.258C122.105 123.766 114.24 123.455 112.73 124.633C112.752 124.7 112.73 124.7 112.707 124.722Z" fill="url(#paint2_linear)"/>
<path d="M104.176 68.6014C101.888 70.4898 97.1776 73.7113 92.8231 72.9115C86.8467 71.8006 92.8453 71.1119 80.3593 63.0693C81.6256 60.3811 82.1144 57.2929 81.9367 54.3602C81.6256 49.0503 81.87 47.9617 80.0482 46.3398C80.226 46.4287 85.0915 48.6504 90.8235 48.5171C96.6666 48.3838 98.4884 47.6729 100.021 48.4505C98.7772 49.6946 99.3993 63.9136 101.688 66.2242C102.176 66.7129 103.065 67.6905 104.176 68.6014Z" fill="#EE988B"/>
<path d="M112.707 124.722C111.308 125.944 111.041 143.029 116.884 149.138C118.728 151.071 120.061 153.493 121.194 156.048C103.198 174.666 100.732 200.971 100.732 200.971C99.6215 200.127 90.1348 201.815 88.4685 202.082C88.002 200.393 87.5132 198.771 86.98 197.194V197.172C86.98 197.172 96.8222 193.995 100.088 186.463C103.354 178.932 107.42 155.537 104.176 143.251C100.932 130.987 81.87 131.209 81.9367 128.277C81.9811 125.655 82.5143 122.745 92.1121 121.523C100.088 120.523 118.506 125.455 119.261 111.547C119.839 100.816 112.285 70.6454 112.285 70.6454C113.618 70.5566 114.996 70.4233 116.307 70.2455C113.485 83.3536 121.816 98.6834 121.816 98.6834C121.505 102.616 124.46 108.526 123.572 114.28C122.127 123.789 114.263 123.478 112.752 124.655C112.752 124.7 112.73 124.7 112.707 124.722Z" fill="#3D3A5F"/>
<path d="M87.291 2.06118C87.291 2.06118 74.7606 2.4833 72.25 14.5916C69.7395 26.7222 76.0047 134.52 78.0931 134.431C80.1815 134.364 86.2468 131.965 87.291 124.7C88.3352 117.435 83.5363 47.9617 81.0924 46.2954C74.0052 41.4743 76.2047 34.787 75.9381 33.7872C75.4493 32.0098 72.0279 25.1448 73.4275 23.7451C74.8272 22.3454 76.4935 24.3449 76.4935 24.3449C76.4935 24.3449 78.7596 10.6814 88.3352 7.99315C90.6236 7.34885 99.0661 9.65943 106.442 24.9892C106.442 24.9892 109.086 23.1452 109.797 24.3449C110.486 25.5447 110.352 28.4773 107.975 30.8546C107.975 30.8546 107.531 41.7409 102.332 45.3179C99.3993 47.3396 98.644 49.117 98.7773 51.2054C98.9106 53.2938 97.5331 125.477 101.288 129.943C105.042 134.408 107.553 134.831 109.375 134.475C111.197 134.12 128.77 30.8546 110.152 12.6143C91.5345 -5.67037 87.291 2.06118 87.291 2.06118Z" fill="url(#paint3_linear)"/>
<path d="M84.6694 32.0764C84.6694 32.0764 85.5803 33.054 86.7134 32.2986C87.8465 31.5432 88.1131 30.2991 89.6461 30.699C91.179 31.0989 90.7569 31.3877 92.0011 30.8101C93.2452 30.2546 94.6893 30.5435 94.956 31.3877C95.2448 32.2097 96.8666 32.5652 97.3554 32.0987C97.3554 32.0987 95.8446 36.0755 91.0013 35.7867C86.158 35.4979 84.6694 32.0764 84.6694 32.0764Z" fill="#FF8B80"/>
<defs>
<linearGradient id="paint0_linear" x1="53.9658" y1="359.968" x2="135.308" y2="23.5359" gradientUnits="userSpaceOnUse">
<stop offset="0.00119874" stop-color="#B3B3E8"/>
<stop offset="1" stop-color="#6F6FCA"/>
</linearGradient>
<linearGradient id="paint1_linear" x1="40.5" y1="400" x2="165.5" y2="42.9999" gradientUnits="userSpaceOnUse">
<stop stop-color="#F6AEA0"/>
<stop offset="1" stop-color="#FBD2CA"/>
</linearGradient>
<linearGradient id="paint2_linear" x1="86" y1="202" x2="92" y2="79.9999" gradientUnits="userSpaceOnUse">
<stop offset="0.00119874" stop-color="#46447C"/>
<stop offset="1" stop-color="#55539E"/>
</linearGradient>
<linearGradient id="paint3_linear" x1="92" y1="95.9999" x2="95" y2="6.49988" gradientUnits="userSpaceOnUse">
<stop stop-color="#18202E"/>
<stop offset="1" stop-color="#365986"/>
</linearGradient>
</defs>
</svg>
