<svg width="231" height="445" viewBox="0 0 231 445" fill="none" xmlns="http://www.w3.org/2000/svg">
<path d="M129.119 302.555L64.5597 187.157L0 71.781L115.489 65.1577L231 58.5118L180.048 180.533L129.119 302.555Z" fill="url(#paint0_linear)"/>
<path d="M74.1442 226.399C74.1442 226.399 73.0592 237.679 73.6695 239.035C74.3025 240.391 76.7664 244.347 76.9247 247.783C77.1055 251.219 76.676 254.045 76.2691 254.045C75.8622 254.045 74.4155 250.925 73.4661 249.772C72.5167 248.62 68.6512 236.119 68.6512 236.119L70.8439 226.399H74.1442Z" fill="#EE988B"/>
<path d="M89.2442 116.946C88.4079 120.698 85.0623 143.868 87.5715 152.797C90.0806 161.726 73.1269 204.065 75.4326 208.089C77.7383 212.112 82.0107 223.935 80.6318 226.286C79.2302 228.637 80.0666 236.842 80.3605 238.379C80.4509 238.854 80.4057 239.555 80.2249 240.233C79.8858 241.657 79.0268 242.946 77.987 241.725C76.4724 239.917 75.0709 222.149 74.5058 225.065C73.9407 227.981 70.0526 235.893 70.6178 237.995C71.1829 240.075 74.3702 247.987 74.6414 250.631C74.9127 253.276 74.2345 256.735 73.6694 257.164C73.1043 257.571 72.2905 257.729 71.861 254.791C71.4315 251.852 65.5995 238.945 64.6274 236.322C63.6554 233.678 69.3519 195.905 70.1883 186.591C71.0246 177.278 69.0806 153.52 72.1323 135.052C75.184 116.584 71.7254 92.5549 73.3756 87.1297C75.0483 81.7045 92.6802 77.6582 92.6802 77.6582C92.6802 77.6582 88.0914 95.2675 88.9278 106.773C89.3121 111.769 89.4929 115.793 89.2442 116.946Z" fill="url(#paint1_linear)"/>
<path d="M89.2442 116.946C88.4078 120.698 85.0623 143.868 87.5714 152.797C90.0806 161.726 73.1269 204.065 75.4326 208.089C77.7383 212.113 82.0106 223.935 80.6317 226.286C79.2302 228.637 80.0666 236.842 80.3605 238.379C80.4509 238.854 80.4057 239.555 80.2248 240.233C78.3034 237.498 77.1506 230.739 78.0774 226.421C78.9816 222.104 74.9353 211.57 72.833 203.975C70.7308 196.38 77.8739 150.876 82.1463 141.291C86.4412 131.707 80.27 113.713 80.27 113.713L80.5187 108.74L88.9503 106.773C89.312 111.769 89.4929 115.793 89.2442 116.946Z" fill="#EE988B"/>
<path d="M194.109 435.11C190.153 435.811 183.123 435.495 182.558 434.93C181.721 434.093 178.941 431.313 179.235 427.99C179.506 424.667 179.506 418.27 177.291 415.218C175.076 412.166 167.842 410.222 167.842 407.171C167.842 404.119 173.945 392.997 173.674 390.782C173.403 388.567 159.365 345.911 155.748 335.626C152.132 325.341 153.375 296.587 155.613 289.082C157.195 283.702 137.868 258.52 124.327 233.022C119.354 223.641 115.15 214.237 113.07 205.738V205.693C112.912 205.082 112.776 204.472 112.641 203.862C112.867 205.444 118.36 244.551 116.732 254.339C115.059 264.33 115.896 279.385 117.84 285.488C119.784 291.569 119.219 297.966 117.003 307.144C114.788 316.321 120.055 319.373 120.326 332.145C120.598 344.917 117.275 376.586 118.111 383.82C118.947 391.031 123.943 397.993 122.835 401.881C121.728 405.769 123.943 418.541 123.107 424.938C122.27 431.335 127.831 434.658 125.887 438.84C123.943 442.999 120.62 444.672 118.676 444.672C117.885 444.672 115.037 444.401 111.963 443.926C107.374 443.226 104.254 441.304 104.096 439.948C103.825 437.597 106.47 433.551 106.47 429.391C106.47 425.232 103.418 412.438 104.797 409.386C106.176 406.334 108.414 401.045 106.47 388.273C104.525 375.501 93.4038 319.102 92.8613 310.761C92.2962 302.419 97.3145 292.428 96.4781 286.867C95.6417 281.306 71.1832 201.85 71.7483 184.896C71.8839 180.601 72.449 177.346 73.2176 174.792C73.3306 174.385 73.4663 174.023 73.6019 173.639C74.6417 170.745 75.9528 168.801 77.2413 167.196C78.9367 165.094 80.5868 163.557 81.4684 161.251C82.8925 157.522 82.4856 155.578 83.5029 153.249C84.068 151.961 85.04 150.537 87.0292 148.615C92.5901 143.235 95.6417 141.562 95.913 138.24C96.1164 135.843 95.7321 128.293 94.8958 123.411C94.6923 122.213 94.4663 121.195 94.195 120.427C94.0368 119.952 93.8559 119.59 93.6977 119.342C93.2908 118.799 92.477 118.144 91.4824 117.33C88.4307 114.866 83.6385 111.114 83.4124 105.462C83.2994 102.569 83.9776 100.331 84.9496 98.4548C86.5319 95.4484 83.9098 93.6174 83.3898 91.176C81.9657 84.4624 79.1175 82.1567 81.0615 81.3429C83.0056 80.5065 105.588 75.4656 107.012 72.1427C107.012 72.1427 107.012 72.1201 107.035 72.1201C108.414 68.7971 108.707 63.5076 107.306 62.5356C105.904 61.5636 105.226 62.3999 102.988 58.5119C100.773 54.6238 94.6471 46.7121 95.2122 39.6142C95.7774 32.5388 98.6934 22.1179 100.072 21.1459C101.474 20.1739 100.344 20.739 102.581 19.9026C106.153 18.5689 121.886 21.4398 125.367 27.2718C128.848 33.1039 129.527 48.5205 128.148 52.4086C127.085 55.3698 124.169 57.9468 122.79 59.4839C122.79 59.4839 122.768 59.5291 122.7 59.5969C122.316 60.0264 122.09 60.3655 122.044 60.6142C121.909 61.7218 123.288 69.3623 124.124 70.6055C124.96 71.8488 145.237 66.4236 149.125 66.7853C149.125 66.7853 140.919 77.0253 141.485 86.9489C141.598 88.8929 141.869 90.8144 142.231 92.781C143.112 97.4828 144.491 102.275 145.147 107.429C145.599 111.023 145.734 114.776 145.079 118.822C143.135 131.051 140.354 157.069 140.083 161.297C140.06 161.636 140.128 162.246 140.264 163.128C140.58 165.162 141.304 168.53 142.321 172.735C142.366 172.961 142.434 173.164 142.479 173.39C143.361 176.984 144.446 181.144 145.644 185.574C150.052 201.759 156.2 221.448 160.654 229.699C168.43 244.144 174.533 277.192 179.823 284.968C185.09 292.767 178.15 301.651 178.15 305.268C178.15 308.884 175.437 370.551 181.789 384.181C188.141 397.79 187.87 420.304 190.65 425.029C193.431 429.753 195.917 431.132 196.754 433.641C196.957 434.297 195.827 434.794 194.109 435.11Z" fill="url(#paint2_linear)"/>
<path d="M194.109 435.11C191.916 433.664 189.588 431.855 187.825 429.776C183.1 424.237 183.665 407.691 181.563 396.433C179.483 385.176 175.731 365.171 173.222 350.997C170.713 336.824 174.465 296.813 175.301 288.495C176.138 280.153 165.31 254.745 158.709 241.815C152.109 228.885 143.519 195.724 138.84 193.463C134.16 191.203 125.706 199.725 121.954 202.415C118.201 205.128 113.025 205.693 113.025 205.693V205.648L109.363 188.038L142.434 173.277C143.315 176.871 144.4 181.031 145.599 185.461C150.006 201.646 156.155 221.335 160.608 229.586C168.384 244.031 174.488 277.079 179.777 284.855C185.044 292.654 178.104 301.538 178.104 305.155C178.104 308.771 175.392 370.438 181.744 384.068C188.096 397.677 187.825 420.191 190.605 424.916C193.385 429.64 195.872 431.019 196.708 433.528C196.957 434.297 195.827 434.794 194.109 435.11Z" fill="#EE988B"/>
<path d="M125.864 438.818C123.92 442.977 120.598 444.65 118.654 444.65C117.862 444.65 115.014 444.378 111.94 443.904C112.166 443.904 119.49 443.858 119.49 438.524C119.49 433.099 115.737 411.895 117.41 404.571C119.083 397.247 110.629 385.583 111.94 379.344C113.251 373.082 114.517 336.417 111.804 322.673C109.069 308.93 113.703 311.009 111.804 289.331C109.905 267.653 115.737 216.927 104.073 201.036C92.4092 185.145 88.815 179.81 77.4899 175.583C75.7945 174.95 74.506 174.272 73.5566 173.594C74.5965 170.7 75.9076 168.756 77.196 167.151L100.321 178.567L119.49 192.22C119.49 192.22 113.047 205.647 113.047 205.715V205.67C112.889 205.06 112.754 204.449 112.618 203.839C112.844 205.421 118.337 244.528 116.709 254.316C115.037 264.307 115.873 279.362 117.817 285.466C119.761 291.546 119.196 297.943 116.981 307.121C114.765 316.299 120.032 319.35 120.304 332.122C120.575 344.894 117.252 376.564 118.088 383.797C118.925 391.008 123.92 397.97 122.813 401.858C121.705 405.747 123.92 418.518 123.084 424.916C122.248 431.313 127.809 434.658 125.864 438.818Z" fill="#EE988B"/>
<path d="M140.038 161.229C140.015 161.568 140.083 162.178 140.219 163.06C140.535 165.094 141.259 168.462 142.276 172.667L121.185 167.92C121.185 167.92 122.248 165.049 127.266 162.382C132.284 159.714 137.823 130.712 136.15 125.716C134.477 120.721 117.84 118.505 113.681 120.653C109.566 122.8 95.1671 123.365 94.8732 123.388C94.6697 122.19 94.4437 121.173 94.1724 120.404C94.0142 119.929 93.8334 119.568 93.6751 119.319C93.2682 118.777 92.4545 118.121 91.4598 117.307L101.18 107.904L145.147 107.361C145.599 110.955 145.734 114.708 145.079 118.754C143.09 130.983 140.309 157.002 140.038 161.229Z" fill="#EE988B"/>
<path d="M145.599 185.484C145.599 185.484 126.746 193.802 121.637 198.369C116.529 202.957 114.065 204.404 112.595 203.794C110.787 203.025 109.951 197.758 106.899 192.627C105.61 190.457 103.892 188.287 101.564 186.524C93.9915 180.782 82.5986 175.583 73.1724 174.769C75.4781 167.174 79.773 165.569 81.4232 161.229C82.8473 157.499 82.4404 155.555 83.4576 153.227C88.9958 157.386 100.276 164.619 112.415 165.185C118.314 165.456 125.865 164.868 133.234 163.987C135.607 163.693 137.958 163.376 140.241 163.06C140.806 166.88 142.886 175.538 145.599 185.484Z" fill="url(#paint3_linear)"/>
<path d="M145.598 185.484C145.598 185.484 126.746 193.802 121.637 198.369C116.529 202.957 114.065 204.404 112.595 203.794C110.787 203.025 109.95 197.758 106.899 192.627C118.427 202.822 127.605 189.734 133.211 183.269C138.817 176.804 133.211 163.964 133.211 163.964C135.584 163.67 137.935 163.354 140.218 163.037C140.806 166.88 142.886 175.538 145.598 185.484Z" fill="url(#paint4_linear)"/>
<path d="M109.408 96.9402C109.408 96.9402 110.448 89.8875 109.408 90.2944C108.368 90.7012 107.125 95.3579 103.712 95.064C100.298 94.7701 105.158 101.529 105.158 101.529L109.86 100.195L109.408 96.9402Z" fill="#EE988B"/>
<path d="M145.034 118.754C145.034 118.754 120.891 118.754 114.63 115.002H114.607C114.607 115.002 105.068 122.009 94.1498 120.382C93.9916 119.907 93.8108 119.545 93.6525 119.297C92.9744 118.415 91.2338 117.194 89.3802 115.589C87.7978 114.233 86.1251 112.56 84.9496 110.571C84.068 109.056 83.4577 107.339 83.3673 105.417C83.2543 102.524 83.9324 100.286 84.9044 98.4096C84.9044 98.4096 91.1434 95.1544 98.49 94.7702C101.768 94.5893 105.271 94.9962 108.549 96.5107C108.843 96.6464 109.114 96.782 109.408 96.9402C109.408 96.9402 122.112 88.486 135.472 90.6335C137.71 90.9951 139.97 91.6507 142.185 92.6905C142.683 95.4031 143.361 98.1157 143.971 100.919C145.147 106.457 146.073 112.244 145.034 118.754Z" fill="url(#paint5_linear)"/>
<path d="M143.948 100.964C143.338 98.1609 142.682 95.4257 142.162 92.7357C139.947 91.6959 137.687 91.0178 135.449 90.6787C138.93 92.7809 140.399 101.506 138.161 108.469C136.082 114.934 117.387 115.567 112.799 112.04C112.414 112.108 101.021 120.404 89.3573 115.635C91.2109 117.239 92.9515 118.438 93.6296 119.342C93.8105 119.59 93.9687 119.952 94.1269 120.427C105.045 122.054 114.584 115.047 114.584 115.047C114.584 115.047 114.584 115.047 114.584 115.024V115.047C120.846 118.799 144.988 118.799 144.988 118.799C146.073 112.244 145.146 106.457 143.948 100.964Z" fill="url(#paint6_linear)"/>
<path d="M157.24 152.232C155.726 162.449 139.269 206.416 139.269 209.535C139.269 212.655 142.185 220.996 141.552 225.382C140.919 229.767 138.84 232.457 139.269 234.763C139.676 237.046 144.265 238.922 144.265 241.634C144.265 244.347 149.781 243.624 152.086 245.703C154.369 247.783 153.85 249.456 153.443 249.659C153.036 249.863 148.65 246.947 146.367 246.947H146.39C146.661 247.082 150.662 249.117 150.956 251.626C151.273 254.225 150.956 254.429 150.549 254.542C150.142 254.655 148.56 251.309 141.168 248.597C133.776 245.884 134.093 245.794 133.573 243.918C133.053 242.041 128.781 232.773 128.781 229.654C128.781 226.534 132.646 214.757 133.166 207.456C133.686 200.154 140.626 155.442 140.083 149.451C139.518 143.484 142.163 87.0844 140.784 81.388C139.405 75.6915 149.125 66.74 149.125 66.74C149.125 66.74 151.612 66.4009 154.098 67.3277C154.822 67.599 155.545 67.9606 156.2 68.4806C161.897 72.9337 156.472 109.938 155.635 117.646C154.754 125.355 158.755 142.014 157.24 152.232Z" fill="url(#paint7_linear)"/>
<path d="M106.447 62.0608C108.12 63.7788 107.6 67.6442 102.107 70.5603C98.5803 72.4365 88.069 72.007 82.802 68.2998C77.5124 64.5926 72.5168 65.2707 73.6244 55.2793C74.732 45.288 75.7041 46.3956 74.5964 42.7788C73.4888 39.162 71.4995 34.3019 73.4662 29.1706C75.4328 24.0393 80.4285 23.5194 82.1013 19.5409C83.774 15.5624 84.52 6.52046 88.9279 4.57644C93.3585 2.63241 98.083 6.92735 98.8967 6.65609C99.7331 6.38484 103.621 -2.65714 113.477 0.959647C123.333 4.57644 125.39 12.5786 128.713 15.359C132.036 18.1394 141.575 23.2029 143.7 32.2223C145.825 41.2417 139.021 55.9801 132.578 60.8628C127.402 64.7734 119.399 64.0727 123.627 57.6303C129.82 48.1588 129.73 40.4053 125.435 36.7885C121.117 33.1717 111.556 33.6464 106.537 26.9327C101.519 20.1965 102.423 24.8079 102.423 24.8079C102.423 24.8079 103.327 31.3407 98.196 36.8789C93.0873 42.4623 101.248 56.7035 106.447 62.0608Z" fill="url(#paint8_linear)"/>
<path d="M157.24 152.232C155.726 162.449 139.269 206.416 139.269 209.535C139.269 212.655 142.185 220.996 141.552 225.382C140.919 229.767 138.84 232.457 139.269 234.763C139.676 237.046 144.265 238.922 144.265 241.634C144.265 244.347 149.781 243.624 152.086 245.703C154.369 247.783 153.849 249.456 153.443 249.659C153.036 249.863 148.65 246.947 146.367 246.947C141.304 245.093 139.201 240.73 136.941 235.735C134.658 230.739 138.116 217.967 136.986 212.678C135.856 207.388 152.538 144.614 151.159 129.876C149.781 115.16 152.832 100.15 155.884 86.2481C158.936 72.346 154.053 67.3051 154.053 67.3051C154.776 67.5764 155.5 67.9381 156.155 68.458C161.852 72.9111 156.426 109.915 155.59 117.624C154.754 125.355 158.755 142.014 157.24 152.232Z" fill="#EE988B"/>
<path d="M124.056 70.5376C121.976 73.4537 120.936 76.5731 118.427 76.5731C116.325 76.5731 111.216 73.3406 106.944 72.0748C106.944 72.0748 106.944 72.0522 106.967 72.0522C108.345 68.7292 108.639 63.4397 107.238 62.4677C107.238 62.4677 113.206 64.6829 116.122 64.0726C118.766 63.5075 121.999 60.162 122.609 59.5064C122.225 59.9359 121.999 60.275 121.954 60.5236C121.841 61.6539 123.22 69.2944 124.056 70.5376Z" fill="#EE988B"/>
<path d="M110.9 50.1254C111.578 49.4473 112.776 49.2212 113.59 49.7411C113.793 49.8768 114.019 50.1028 114.268 50.0576C114.517 50.0124 114.675 49.7638 114.833 49.5603C115.353 48.8596 116.325 48.4075 117.139 48.6561C119.173 49.289 120.213 49.1986 121.502 47.7971C120.643 51.1427 119.331 52.8154 117.433 53.6744C115.76 54.4204 113.861 54.7594 112.098 54.2847C110.176 53.7648 107.441 51.1879 107.441 51.1879C107.441 51.1879 109.792 51.2557 110.9 50.1254Z" fill="#FF8B80"/>
<defs>
<linearGradient id="paint0_linear" x1="44.6317" y1="313.259" x2="133.224" y2="3.07291" gradientUnits="userSpaceOnUse">
<stop offset="0.00119874" stop-color="#6767C6"/>
<stop offset="1" stop-color="#C7C7FA"/>
</linearGradient>
<linearGradient id="paint1_linear" x1="83.0001" y1="97.5" x2="69.0001" y2="268.5" gradientUnits="userSpaceOnUse">
<stop stop-color="#FBCFC6"/>
<stop offset="1" stop-color="#F6AEA1"/>
</linearGradient>
<linearGradient id="paint2_linear" x1="96.0001" y1="61" x2="304.126" y2="277.464" gradientUnits="userSpaceOnUse">
<stop stop-color="#FBCFC6"/>
<stop offset="1" stop-color="#F6AEA1"/>
</linearGradient>
<linearGradient id="paint3_linear" x1="73.1523" y1="178.578" x2="145.595" y2="178.578" gradientUnits="userSpaceOnUse">
<stop offset="0.00119874" stop-color="#564298"/>
<stop offset="1" stop-color="#7D63E6"/>
</linearGradient>
<linearGradient id="paint4_linear" x1="112.568" y1="183.496" x2="151.271" y2="183.496" gradientUnits="userSpaceOnUse">
<stop offset="0.00119874" stop-color="#564298"/>
<stop offset="1" stop-color="#7D63E6"/>
</linearGradient>
<linearGradient id="paint5_linear" x1="83.3437" y1="105.463" x2="145.479" y2="105.463" gradientUnits="userSpaceOnUse">
<stop offset="0.00119874" stop-color="#564298"/>
<stop offset="1" stop-color="#7D63E6"/>
</linearGradient>
<linearGradient id="paint6_linear" x1="113.748" y1="103.215" x2="158.513" y2="137.059" gradientUnits="userSpaceOnUse">
<stop offset="0.00119874" stop-color="#564298"/>
<stop offset="1" stop-color="#7D63E6"/>
</linearGradient>
<linearGradient id="paint7_linear" x1="144" y1="73" x2="147.186" y2="244.941" gradientUnits="userSpaceOnUse">
<stop stop-color="#FBCFC6"/>
<stop offset="1" stop-color="#F6AEA1"/>
</linearGradient>
<linearGradient id="paint8_linear" x1="88.5001" y1="68.5" x2="108" y2="7.5" gradientUnits="userSpaceOnUse">
<stop stop-color="#18202E"/>
<stop offset="1" stop-color="#365986"/>
</linearGradient>
</defs>
</svg>
