<svg width="291" height="450" viewBox="0 0 291 450" fill="none" xmlns="http://www.w3.org/2000/svg">
<path d="M141.882 42.4617C145.874 35.1379 156.55 35.6328 159.847 43.2945L214.387 170.015L270.735 300.937C273.655 307.721 268.465 315.221 261.087 314.879L138.539 309.207L15.9666 303.534C8.58849 303.193 4.11389 295.246 7.64798 288.76L75.848 163.603L141.882 42.4617Z" fill="url(#paint0_linear)"/>
<path d="M143.925 444.302C143.155 447.074 137.392 447.778 136.204 444.5C135.016 441.222 121.774 441.002 121.884 434.095C121.994 427.187 125.183 405.145 124.831 399.711C124.149 389.504 104.198 334.442 102.504 321.529C100.81 308.616 111.105 301.466 111.127 290.709C111.149 279.952 84.378 217.872 85.3239 197.37C86.0058 182.499 91.7252 173.304 94.8268 169.366C95.9926 167.87 96.7846 167.144 96.7846 167.144C96.7846 167.144 124.347 177.813 134.422 200.934C140.427 214.727 130.551 296.187 132.442 306.196C138.712 339.194 135.346 398.59 135.368 401.779C135.456 411.019 142.627 426.439 143.529 429.189C144.453 431.895 144.695 441.53 143.925 444.302Z" fill="#FBD2C9"/>
<path d="M143.925 444.302C143.155 447.074 137.392 447.778 136.204 444.5C135.016 441.222 121.774 441.002 121.884 434.095C121.994 427.187 125.183 405.145 124.831 399.711C124.149 389.504 104.198 334.442 102.504 321.529C100.81 308.616 111.105 301.466 111.127 290.709C111.149 279.952 84.378 217.872 85.3239 197.37C86.0058 182.499 91.7252 173.304 94.8268 169.366C95.9926 167.87 96.7846 167.144 96.7846 167.144C96.7846 167.144 124.347 177.813 134.422 200.934C140.427 214.727 130.551 296.187 132.442 306.196C138.712 339.194 135.346 398.59 135.368 401.779C135.456 411.019 142.627 426.439 143.529 429.189C144.453 431.895 144.695 441.53 143.925 444.302Z" fill="url(#paint1_linear)"/>
<path d="M143.925 444.302C143.155 447.074 137.392 447.778 136.204 444.5C135.016 441.222 121.774 441.002 121.883 434.095C134.686 436.251 129.451 419.444 131.562 398.304C133.652 377.163 123.797 323.201 119.794 311.718C115.79 300.234 124.413 281.184 124.193 271.901C123.643 249.154 122.015 233.645 123.907 208.831C125.777 184.017 94.8488 169.366 94.8488 169.366C96.0146 167.87 96.8065 167.144 96.8065 167.144C96.8065 167.144 124.369 177.813 134.444 200.934C140.449 214.727 130.572 296.187 132.464 306.196C138.733 339.194 135.368 398.59 135.39 401.779C135.478 411.019 142.649 426.439 143.551 429.189C144.453 431.895 144.695 441.53 143.925 444.302Z" fill="#EE988B"/>
<path d="M186.072 219.918C181.298 250.1 154.682 289.631 154.704 301.774C154.726 313.918 164.052 323.047 163.305 337.412C162.557 351.777 147.708 387.986 148.5 397.622C149.292 407.257 159.301 433.215 158.025 437.373C156.749 441.53 146.301 443.312 145.817 445.732C145.333 448.152 139.349 451.606 138.733 449.142C138.25 447.206 138.953 442.212 138.294 439.221C138.118 438.407 137.832 437.747 137.392 437.329C135.346 435.437 138.184 426.528 139.459 422.92C140.757 419.312 142.055 402.307 140.845 399.447C139.635 396.588 129.891 336.554 130.704 324.125C131.496 311.696 124.897 312.4 124.897 300.828C124.897 289.235 130.836 284.132 130.44 257.118C130.089 232.413 119.53 196.182 165.152 180.365C169.42 178.891 174.171 177.593 179.473 176.493C179.495 176.493 190.845 189.736 186.072 219.918Z" fill="#FBD2C9"/>
<path d="M186.072 219.918C181.298 250.1 154.682 289.631 154.704 301.774C154.726 313.918 164.052 323.047 163.305 337.412C162.557 351.777 147.708 387.986 148.5 397.622C149.292 407.257 159.301 433.215 158.025 437.373C156.749 441.53 146.301 443.312 145.817 445.732C145.333 448.152 139.349 451.606 138.733 449.142C138.25 447.206 138.953 442.212 138.294 439.221C138.118 438.407 137.832 437.747 137.392 437.329C135.346 435.437 138.184 426.528 139.459 422.92C140.757 419.312 142.055 402.307 140.845 399.447C139.635 396.588 129.891 336.554 130.704 324.125C131.496 311.696 124.897 312.4 124.897 300.828C124.897 289.235 130.836 284.132 130.44 257.118C130.089 232.413 119.53 196.182 165.152 180.365C169.42 178.891 174.171 177.593 179.473 176.493C179.495 176.493 190.845 189.736 186.072 219.918Z" fill="url(#paint2_linear)"/>
<path d="M251.8 220.358C251.14 220.248 250.414 220.094 249.622 219.94C250.26 221.106 251.03 222.338 251.734 222.976C253.296 224.384 253.56 224.516 253.78 225C253.934 225.352 251.074 225.77 248.566 224.714C249.644 226.034 250.744 227.354 250.458 227.574C249.996 227.926 247.488 227.09 245.531 225.836C244.541 225.198 243.441 223.262 242.583 221.48C241.747 219.742 241.153 218.158 241.109 218.07C238.184 217.3 235.676 216.443 234.73 215.629C232.618 213.825 229.517 213.693 229.165 216.179C228.813 218.664 230.529 220.908 229.561 223.812C228.593 226.738 225.975 229.07 224.083 228.498C222.214 227.926 225.623 223.702 224.479 219.808C223.357 215.915 219.75 212.681 220.652 207.071C221.554 201.462 220.432 198.382 215.724 191.474C210.995 184.545 191.241 163.932 190.559 152.361C189.855 140.79 176.019 115.272 170.476 108.584C170.476 108.584 177.845 105.152 176.987 108.144C174.765 115.888 170.322 130.825 167.044 138.26C166.032 140.57 166.472 143.232 168.21 145.058C171.18 148.181 175.073 154.011 175.293 163.338C175.381 166.814 176.547 169.718 177.405 171.368C177.911 172.358 178.307 172.908 178.307 172.908C178.307 172.908 166.01 178.627 153.714 182.103C151.36 182.763 149.006 183.357 146.741 183.797C141.747 184.787 137.172 185.117 133.894 184.171C121.4 180.607 98.9183 163.25 98.9183 163.25C98.9183 163.25 103.736 146.026 108.113 144.552C110.071 143.892 112.645 142.704 114.888 141.604C116.494 140.812 117.528 139.36 117.836 137.732C118.056 136.588 117.924 135.378 117.352 134.256C114.118 127.745 108.751 115.888 107.805 107.066C107.783 106.912 107.783 106.78 107.761 106.648C107.673 105.636 107.629 104.668 107.673 103.767C107.673 103.767 107.211 104.712 106.485 106.318C106.375 106.56 106.265 106.802 106.155 107.066C105.473 108.584 104.638 110.542 103.758 112.742C101.338 118.725 98.6323 126.491 98.1704 132.145C97.3345 142.638 97.1585 147.059 86.4458 160.281C75.7331 173.524 66.7141 186.899 62.5126 197.018C59.631 203.947 64.9104 205.223 60.7089 213.891C58.9711 217.476 58.3111 220.512 57.9592 222.844V222.866C57.4752 226.144 57.6512 228.036 56.3754 228.058C54.1756 228.102 53.9117 217.916 54.6596 214.023C55.1875 211.295 50.964 213.627 47.1805 215.475C47.1805 215.475 44.3868 219.126 43.9689 222.25C43.5289 225.352 40.3613 231.445 38.5135 232.105C36.6657 232.765 38.8215 227.86 38.3595 225.792C38.3375 225.704 38.3375 225.616 38.3155 225.528C37.9416 226.452 37.4796 227.464 36.8637 228.52C34.884 231.885 30.8584 232.281 30.1325 232.347C29.4066 232.413 31.8923 228.102 33.4101 226.43C34.0701 225.704 34.752 224.054 35.3019 222.426C35.2139 222.47 35.1479 222.514 35.0599 222.558C32.6182 223.856 27.1409 225.638 27.2949 224.604C27.4269 223.57 34.752 218.004 36.9297 214.441C39.1075 210.877 49.0063 208.963 52.7458 201.22C56.4854 193.476 67.1101 154.319 73.2694 144.464C77.3389 137.952 82.4203 117.384 86.4458 100.841C88.5355 92.3054 97.0705 84.8259 98.3243 80.9322C98.5663 80.2062 98.8963 79.5243 99.3582 78.9083C104.77 71.3408 118.012 71.6268 126.635 66.8312C128.351 65.8632 129.627 64.7193 130.243 63.2454C132.75 57.2178 127.493 53.6101 123.775 48.9464C121.686 46.3286 120.058 43.3808 120.564 39.4871C121.95 28.7079 123.467 14.8049 135.478 14.4969C147.466 14.2109 151.536 19.8865 153.34 25.8481C155.144 31.8097 154.88 46.2846 150.194 49.9144C149.468 50.4863 148.896 51.1683 148.478 51.9162C146.147 56.0299 147.862 62.3875 150.348 64.5873C151.404 65.5113 155.342 65.9072 160.225 66.2152C169.024 66.7872 176.349 67.1171 179.495 69.9769C184.356 74.3986 197.972 125.897 204.044 137.336C210.115 148.775 211.787 141.494 218.056 160.171C224.303 178.847 224.853 193.102 228.703 197.546C232.134 201.528 238.448 209.557 242.737 212.483C243.243 212.835 243.727 213.121 244.189 213.297C248.368 215.057 257.519 217.52 258.773 217.498C259.939 217.454 257.167 220.82 252.724 220.468C252.394 220.468 252.108 220.424 251.8 220.358Z" fill="#FBD2C9"/>
<path d="M251.8 220.358C251.14 220.248 250.414 220.094 249.622 219.94C250.26 221.106 251.03 222.338 251.734 222.976C253.296 224.384 253.56 224.516 253.78 225C253.934 225.352 251.074 225.77 248.566 224.714C249.644 226.034 250.744 227.354 250.458 227.574C249.996 227.926 247.488 227.09 245.531 225.836C244.541 225.198 243.441 223.262 242.583 221.48C241.747 219.742 241.153 218.158 241.109 218.07C238.184 217.3 235.676 216.443 234.73 215.629C232.618 213.825 229.517 213.693 229.165 216.179C228.813 218.664 230.529 220.908 229.561 223.812C228.593 226.738 225.975 229.07 224.083 228.498C222.214 227.926 225.623 223.702 224.479 219.808C223.357 215.915 219.75 212.681 220.652 207.071C221.554 201.462 220.432 198.382 215.724 191.474C210.995 184.545 191.241 163.932 190.559 152.361C189.855 140.79 176.019 115.272 170.476 108.584C170.476 108.584 177.845 105.152 176.987 108.144C174.765 115.888 170.322 130.825 167.044 138.26C166.032 140.57 166.472 143.232 168.21 145.058C171.18 148.181 175.073 154.011 175.293 163.338C175.381 166.814 176.547 169.718 177.405 171.368C177.911 172.358 178.307 172.908 178.307 172.908C178.307 172.908 166.01 178.627 153.714 182.103C151.36 182.763 149.006 183.357 146.741 183.797C141.747 184.787 137.172 185.117 133.894 184.171C121.4 180.607 98.9183 163.25 98.9183 163.25C98.9183 163.25 103.736 146.026 108.113 144.552C110.071 143.892 112.645 142.704 114.888 141.604C116.494 140.812 117.528 139.36 117.836 137.732C118.056 136.588 117.924 135.378 117.352 134.256C114.118 127.745 108.751 115.888 107.805 107.066C107.783 106.912 107.783 106.78 107.761 106.648C107.673 105.636 107.629 104.668 107.673 103.767C107.673 103.767 107.211 104.712 106.485 106.318C106.375 106.56 106.265 106.802 106.155 107.066C105.473 108.584 104.638 110.542 103.758 112.742C101.338 118.725 98.6323 126.491 98.1704 132.145C97.3345 142.638 97.1585 147.059 86.4458 160.281C75.7331 173.524 66.7141 186.899 62.5126 197.018C59.631 203.947 64.9104 205.223 60.7089 213.891C58.9711 217.476 58.3111 220.512 57.9592 222.844V222.866C57.4752 226.144 57.6512 228.036 56.3754 228.058C54.1756 228.102 53.9117 217.916 54.6596 214.023C55.1875 211.295 50.964 213.627 47.1805 215.475C47.1805 215.475 44.3868 219.126 43.9689 222.25C43.5289 225.352 40.3613 231.445 38.5135 232.105C36.6657 232.765 38.8215 227.86 38.3595 225.792C38.3375 225.704 38.3375 225.616 38.3155 225.528C37.9416 226.452 37.4796 227.464 36.8637 228.52C34.884 231.885 30.8584 232.281 30.1325 232.347C29.4066 232.413 31.8923 228.102 33.4101 226.43C34.0701 225.704 34.752 224.054 35.3019 222.426C35.2139 222.47 35.1479 222.514 35.0599 222.558C32.6182 223.856 27.1409 225.638 27.2949 224.604C27.4269 223.57 34.752 218.004 36.9297 214.441C39.1075 210.877 49.0063 208.963 52.7458 201.22C56.4854 193.476 67.1101 154.319 73.2694 144.464C77.3389 137.952 82.4203 117.384 86.4458 100.841C88.5355 92.3054 97.0705 84.8259 98.3243 80.9322C98.5663 80.2062 98.8963 79.5243 99.3582 78.9083C104.77 71.3408 118.012 71.6268 126.635 66.8312C128.351 65.8632 129.627 64.7193 130.243 63.2454C132.75 57.2178 127.493 53.6101 123.775 48.9464C121.686 46.3286 120.058 43.3808 120.564 39.4871C121.95 28.7079 123.467 14.8049 135.478 14.4969C147.466 14.2109 151.536 19.8865 153.34 25.8481C155.144 31.8097 154.88 46.2846 150.194 49.9144C149.468 50.4863 148.896 51.1683 148.478 51.9162C146.147 56.0299 147.862 62.3875 150.348 64.5873C151.404 65.5113 155.342 65.9072 160.225 66.2152C169.024 66.7872 176.349 67.1171 179.495 69.9769C184.356 74.3986 197.972 125.897 204.044 137.336C210.115 148.775 211.787 141.494 218.056 160.171C224.303 178.847 224.853 193.102 228.703 197.546C232.134 201.528 238.448 209.557 242.737 212.483C243.243 212.835 243.727 213.121 244.189 213.297C248.368 215.057 257.519 217.52 258.773 217.498C259.939 217.454 257.167 220.82 252.724 220.468C252.394 220.468 252.108 220.424 251.8 220.358Z" fill="url(#paint3_linear)"/>
<path d="M242.715 212.505C239.437 211.471 236.094 210.085 233.036 208.281C221.465 201.374 207.695 153.681 199.138 139.338C190.581 124.995 179.495 69.9769 179.495 69.9769C184.356 74.3986 197.972 125.897 204.044 137.336C210.115 148.775 211.787 141.494 218.056 160.17C224.303 178.847 224.853 193.102 228.703 197.546C232.112 201.55 238.425 209.557 242.715 212.505Z" fill="#EE988B"/>
<path d="M160.225 66.2372C156.221 68.349 144.717 74.1346 140.845 73.3207C138.426 72.8147 132.156 69.7569 126.657 66.8311C128.373 65.8632 129.649 64.7193 130.265 63.2454C132.772 57.2178 127.515 53.5881 123.797 48.9464C123.797 48.9464 132.398 56.6679 137.964 56.5799C145.267 56.4699 148.5 51.9382 148.5 51.9382C146.169 56.0519 147.884 62.4095 150.37 64.6093C151.404 65.5552 155.364 65.9292 160.225 66.2372Z" fill="#EE988B"/>
<path d="M175.315 163.36C175.095 154.055 171.202 148.203 168.232 145.08C166.494 143.254 166.054 140.57 167.066 138.282C170.344 130.847 174.787 115.91 177.009 108.166L134.466 107.506C152.636 100.907 186.82 87.8397 168.034 89.4455C140.009 91.8434 108.817 85.8598 103.186 83.9899C97.7304 82.1861 99.2702 79.1063 99.3802 78.9083C98.9403 79.5243 98.5883 80.2062 98.3463 80.9321C97.1145 84.8259 88.5575 92.3053 86.4678 100.841L94.8487 103.129C94.8487 103.129 101.558 131.067 88.0516 148.709C74.5232 166.374 56.5953 198.338 56.8813 204.145C57.1673 209.931 58.5091 216.201 57.9812 222.844C58.3111 220.512 58.9931 217.476 60.7308 213.891C64.9323 205.245 59.653 203.947 62.5346 197.018C66.7361 186.899 75.755 173.524 86.4458 160.302C97.1585 147.081 97.3125 142.66 98.1703 132.166C98.6323 126.513 101.338 118.747 103.758 112.764C104.638 110.564 105.473 108.606 106.155 107.088C106.265 106.824 106.375 106.582 106.485 106.34L107.761 106.692L109.411 107.154L107.783 107.132C108.729 115.954 114.118 127.811 117.352 134.322C117.902 135.444 118.056 136.654 117.836 137.798C117.836 137.798 131.144 142.264 133.806 141.164C136.468 140.064 137.568 137.468 139.041 137.27C140.515 137.072 140.229 141.824 142.517 142.396C144.805 142.968 158.795 139.712 163.129 147.895C167.462 156.057 171.927 167.43 159.125 173.59C150.502 177.747 147.664 181.729 146.719 183.885C148.984 183.445 151.338 182.851 153.692 182.169L177.405 171.434C176.569 169.718 175.403 166.836 175.315 163.36Z" fill="#EE988B"/>
<path d="M134.84 44.2607C135.566 43.6888 136.776 43.6448 137.48 44.2607C137.656 44.4367 137.832 44.6567 138.096 44.6567C138.338 44.6567 138.514 44.4147 138.689 44.2387C139.283 43.6228 140.273 43.3148 141.043 43.6668C142.935 44.5467 143.551 44.8767 145.113 43.7108C143.749 46.3286 142.583 47.9785 140.647 48.5504C138.931 49.0344 137.062 49.1224 135.434 48.4184C133.652 47.6485 131.364 44.8107 131.364 44.8107C131.364 44.8107 133.608 45.1847 134.84 44.2607Z" fill="#FF8B80"/>
<path d="M136.49 17.7966C136.49 17.7966 122.785 13.7709 125.403 25.5181C126.745 31.5456 126.371 35.9673 123.797 40.367C121.224 44.7667 129.033 49.4744 131.188 57.3278C132.596 62.3655 132.398 81.7241 115.57 79.7442C108.795 78.9523 116.978 78.2703 112.073 63.9053C107.167 49.5404 103.802 46.7246 111.325 33.5255C118.87 20.3044 111.237 12.231 120.63 7.23737C130.023 2.24373 135.324 7.91932 135.324 7.91932C135.324 7.91932 137.37 -0.440084 144.431 0.0218834C151.47 0.461852 166.494 5.69748 165.46 13.7709C164.426 21.8663 167.638 23.9122 168.562 28.2239C169.486 32.5356 174.545 38.5631 170.652 48.3964C166.758 58.2077 172.103 69.9989 169.244 75.7405C165.57 83.132 152.746 77.3904 150.546 72.4847C148.368 67.5791 145.113 55.8539 149.138 50.9923C153.164 46.1306 154.902 37.4852 148.016 33.0855C143.881 30.4237 148.83 8.93125 136.49 17.7966Z" fill="url(#paint4_linear)"/>
<path d="M179.495 176.493C146.147 183.379 135.126 203.001 135.126 203.001C133.586 197.15 129.077 191.672 123.599 186.899L123.577 186.877C122.917 186.305 122.257 185.733 121.576 185.183C109.763 175.635 94.8488 169.344 94.8488 169.344L100.106 159.511C120.894 177.131 143.969 176.735 159.147 173.568C169.398 171.434 176.063 168.024 176.063 168.024L179.495 176.493Z" fill="url(#paint5_linear)"/>
<path d="M207.981 110.74C205.1 113.072 199.424 117.274 191.285 121.585C191.263 121.585 191.263 121.607 191.241 121.607C190.779 121.849 190.295 122.113 189.811 122.355C189.767 122.377 189.767 122.377 189.767 122.377C188.558 122.993 187.282 123.609 185.962 124.225C184.84 124.731 183.652 124.863 182.508 124.599C182.354 124.577 182.222 124.533 182.09 124.489C181.716 124.379 181.364 124.225 181.034 124.049C180.375 123.675 179.781 123.169 179.319 122.509C178.989 122.069 178.527 121.849 178.043 121.849C177.295 121.849 176.569 122.377 176.459 123.257C176.305 124.533 176.129 126.007 175.931 127.437C175.843 128.031 175.447 128.515 174.897 128.713C169.222 130.715 162.931 132.43 156.067 133.64C153.252 134.146 150.348 134.542 147.357 134.85C146.741 134.916 146.147 134.608 145.839 134.08L140.537 125.083C139.899 124.005 138.316 124.071 137.766 125.193L133.234 134.52C132.97 135.07 132.398 135.422 131.782 135.4C126.371 135.246 120.718 134.74 114.866 133.772C112.601 133.398 110.291 132.958 107.937 132.452L106.859 126.997C106.551 125.457 104.44 125.259 103.846 126.711L102.636 129.769C102.328 130.517 101.536 130.913 100.766 130.693C90.7793 127.965 80.2426 123.939 69.2439 118.263C68.342 117.801 68.122 116.614 68.782 115.844C72.9835 110.872 91.3293 93.4932 95.5527 82.912C95.5527 82.912 130.177 102.073 186.05 84.9578C187.106 84.6499 186.666 84.9138 187.722 84.5619C187.722 84.5619 194.849 102.909 207.563 108.034C208.685 108.496 208.927 109.97 207.981 110.74Z" fill="url(#paint6_linear)"/>
<path d="M186.072 219.918C181.298 250.1 154.682 289.631 154.704 301.774C154.726 313.918 164.052 323.047 163.304 337.412C162.557 351.777 147.708 387.986 148.5 397.622C149.292 407.257 159.301 433.215 158.025 437.373C156.749 441.53 146.301 443.312 145.817 445.732C145.333 448.152 139.349 451.606 138.733 449.142C138.25 447.206 138.953 442.212 138.294 439.221C153.186 440.739 154.132 430.839 147.774 409.897C141.417 388.954 153.978 356.793 158.223 341.372C162.469 325.951 148.83 315.545 149.138 294.845C149.468 274.144 178.769 220.886 180.044 199.768C181.32 178.627 164.58 180.849 164.58 180.849L165.152 180.365C169.42 178.891 174.171 177.593 179.473 176.493C179.495 176.493 190.845 189.736 186.072 219.918Z" fill="#EE988B"/>
<path d="M251.8 220.358C251.14 220.248 250.414 220.094 249.622 219.94C250.656 219.962 251.69 220.16 252.702 220.468C252.394 220.468 252.108 220.424 251.8 220.358Z" fill="#F8A99A"/>
<path d="M253.758 225C253.912 225.352 251.052 225.77 248.544 224.714C249.622 226.034 250.722 227.354 250.436 227.574C249.974 227.926 247.466 227.09 245.509 225.836C244.519 225.198 243.419 223.262 242.561 221.48C241.725 219.742 241.131 218.158 241.087 218.07C241.219 218.158 243.617 219.808 249.622 219.984C250.26 221.15 251.03 222.382 251.734 223.02C253.274 224.406 253.538 224.538 253.758 225Z" fill="url(#paint7_linear)"/>
<path d="M47.1805 215.497C47.1805 215.497 44.3868 219.148 43.9689 222.272C43.5289 225.374 40.3613 231.467 38.5136 232.127C36.6658 232.787 38.8215 227.882 38.3596 225.814C38.3376 225.726 38.3376 225.638 38.3156 225.55C37.9416 226.474 37.4797 227.486 36.8638 228.542C34.884 231.907 30.8585 232.303 30.1326 232.369C29.4066 232.435 31.8923 228.124 33.4102 226.452C34.0701 225.726 34.752 224.076 35.3019 222.448C35.2139 222.492 35.148 222.536 35.06 222.58C35.3239 222.338 43.353 215.189 47.1805 215.497Z" fill="url(#paint8_linear)"/>
<path d="M106.859 126.997C106.551 125.457 104.44 125.259 103.846 126.711L102.636 129.769C102.328 130.517 101.536 130.913 100.766 130.693C90.7793 127.965 80.2426 123.939 69.2439 118.263C68.342 117.801 68.122 116.614 68.782 115.844C68.782 115.844 91.6592 126.667 98.2584 120.595C104.88 114.524 110.951 91.2934 112.601 92.8553C114.229 94.4171 105.782 121.541 106.859 126.997Z" fill="#423C88"/>
<path d="M138.293 97.4969C138.249 98.0689 138.205 98.6189 138.161 99.1688C138.271 97.5849 138.337 96.859 138.293 97.4969Z" fill="#9898D8"/>
<path d="M140.537 125.083C139.899 124.005 138.316 124.071 137.766 125.193L133.234 134.52C132.97 135.07 132.398 135.422 131.782 135.4C126.371 135.246 120.718 134.74 114.866 133.772C123.841 131.771 136.644 125.303 136.776 97.7169C136.776 97.145 138.184 96.0671 138.25 98.1129C138.448 104.074 138.008 120.771 140.537 125.083Z" fill="#423C88"/>
<path d="M181.034 124.027C180.374 123.653 179.781 123.147 179.319 122.487C178.989 122.047 178.527 121.827 178.043 121.827C177.295 121.827 176.569 122.355 176.459 123.235C176.305 124.511 176.129 125.985 175.931 127.415C175.843 128.009 175.447 128.493 174.897 128.691C169.222 130.693 162.931 132.409 156.067 133.618C156.419 133.376 174.941 130.737 172.873 104.954C171.575 88.7416 174.523 94.6592 174.743 96.925C174.941 99.0369 175.447 120.397 181.034 124.027Z" fill="#423C88"/>
<path d="M182.508 124.599C182.354 124.577 182.222 124.533 182.09 124.489C182.112 124.489 182.134 124.511 182.156 124.511C182.288 124.533 182.398 124.555 182.508 124.599Z" fill="#9898D8"/>
<path d="M207.981 110.74C205.099 113.072 199.424 117.274 191.285 121.585C194.541 119.671 201.514 114.37 196.652 105.79C190.449 94.8352 188.029 90.6115 186.028 84.9799C187.084 84.6719 186.644 84.9359 187.7 84.5839C187.7 84.5839 194.827 102.931 207.541 108.056C208.685 108.496 208.927 109.97 207.981 110.74Z" fill="#423C88"/>
<path d="M179.495 176.493C146.147 183.379 135.126 203.001 135.126 203.001C133.586 197.15 129.077 191.672 123.599 186.899C125.909 188.724 129.935 191.606 134.092 193.124C140.515 195.478 161.391 179.617 159.147 173.568C169.398 171.434 176.063 168.024 176.063 168.024L179.495 176.493Z" fill="#423C88"/>
<path d="M137.348 164.086C137.326 164.504 137.348 164.944 137.502 165.318C137.678 165.692 138.052 166.022 138.47 166C138.536 166 138.58 165.978 138.624 165.956C138.69 165.912 138.712 165.846 138.734 165.802C139.217 164.79 139.657 163.712 139.569 162.59C139.547 162.282 139.481 161.974 139.283 161.754C138.909 161.336 138.052 161.402 137.7 161.842C137.304 162.348 137.37 163.448 137.348 164.086Z" fill="#F8A99A"/>
<defs>
<linearGradient id="paint0_linear" x1="145" y1="290" x2="163.012" y2="-2.99927" gradientUnits="userSpaceOnUse">
<stop offset="0.00119874" stop-color="#C5C5FF"/>
<stop offset="1" stop-color="#6767C6"/>
</linearGradient>
<linearGradient id="paint1_linear" x1="114.842" y1="167.144" x2="114.842" y2="446.682" gradientUnits="userSpaceOnUse">
<stop stop-color="#FBD1C9"/>
<stop offset="1" stop-color="#F6AFA1"/>
</linearGradient>
<linearGradient id="paint2_linear" x1="156.07" y1="176.493" x2="156.07" y2="449.99" gradientUnits="userSpaceOnUse">
<stop stop-color="#FBD1C9"/>
<stop offset="1" stop-color="#F6AFA1"/>
</linearGradient>
<linearGradient id="paint3_linear" x1="151" y1="176.5" x2="79.5001" y2="18.5001" gradientUnits="userSpaceOnUse">
<stop offset="6.21945e-05" stop-color="#FBD1C9"/>
<stop offset="1" stop-color="#F6AFA1"/>
</linearGradient>
<linearGradient id="paint4_linear" x1="106.907" y1="39.9406" x2="172.093" y2="39.9406" gradientUnits="userSpaceOnUse">
<stop stop-color="#18202E"/>
<stop offset="1" stop-color="#365986"/>
</linearGradient>
<linearGradient id="paint5_linear" x1="94.8416" y1="181.251" x2="179.494" y2="181.251" gradientUnits="userSpaceOnUse">
<stop offset="0.00119874" stop-color="#564298"/>
<stop offset="1" stop-color="#7D63E6"/>
</linearGradient>
<linearGradient id="paint6_linear" x1="68.3742" y1="109.156" x2="208.565" y2="109.156" gradientUnits="userSpaceOnUse">
<stop offset="0.00119874" stop-color="#564298"/>
<stop offset="1" stop-color="#7D63E6"/>
</linearGradient>
<linearGradient id="paint7_linear" x1="241.088" y1="222.852" x2="253.769" y2="222.852" gradientUnits="userSpaceOnUse">
<stop stop-color="#FFA08F"/>
<stop offset="1" stop-color="#FFD1C9"/>
</linearGradient>
<linearGradient id="paint8_linear" x1="38.1585" y1="218.008" x2="39.4663" y2="235.126" gradientUnits="userSpaceOnUse">
<stop stop-color="#FFA08F"/>
<stop offset="1" stop-color="#FFD1C9"/>
</linearGradient>
</defs>
</svg>
