<svg width="235" height="440" viewBox="0 0 235 440" fill="none" xmlns="http://www.w3.org/2000/svg">
<ellipse cx="117.231" cy="166.608" rx="99.2393" ry="128.75" transform="rotate(-8.52588 117.231 166.608)" fill="#C4C4C4"/>
<ellipse cx="117.231" cy="166.608" rx="99.2393" ry="128.75" transform="rotate(-8.52588 117.231 166.608)" fill="url(#paint0_linear)"/>
<path d="M104.774 49.2636C104.774 49.2636 103.016 47.3528 100.622 48.0556C98.2064 48.7585 98.2064 39.8192 95.6586 37.4251C93.1108 35.0091 89.2671 19.5466 90.6948 12.1668C92.1224 4.78694 100.491 4.94068 102.182 5.07246C103.873 5.20425 108.046 -0.879727 115.404 0.108644C122.74 1.09702 135.369 -1.20918 139.059 17.1086C142.749 35.4264 138.334 40.2365 133.81 44.0143C129.263 47.7701 104.774 49.2636 104.774 49.2636Z" fill="url(#paint1_linear)"/>
<path d="M120.478 378.435C116.788 388.077 125.859 400.575 126.43 404.814C127.001 409.075 117.908 410.48 113.999 416.169C110.089 421.836 110.265 430.358 104.862 431.5C99.4805 432.642 90.9585 433.213 90.1019 432.927C89.5308 432.73 88.0812 432.049 88.1911 431.258C88.257 430.863 88.6962 430.468 89.8164 430.094C93.2208 428.952 98.6019 423.571 99.173 412.501C99.744 401.431 106.267 399.74 106.553 369.364C106.838 339.01 109.386 299.3 109.386 289.504C109.386 279.73 94.3409 249.354 82.151 220.428C69.9611 191.479 76.682 170.921 76.682 170.921C78.7686 168.615 82.0412 167.253 86.0606 166.638C104.927 163.739 139.96 176.895 142.288 180.981C145.099 185.944 136.336 288.779 138.378 307.448C140.443 326.074 124.168 368.793 120.478 378.435Z" fill="url(#paint2_linear)"/>
<path d="M120.478 378.435C116.788 388.077 125.859 400.575 126.43 404.814C127.001 409.075 117.908 410.48 113.998 416.169C110.089 421.836 110.264 430.358 104.861 431.5C99.4803 432.642 90.9583 433.213 90.1017 432.927C89.5307 432.73 88.081 432.049 88.1909 431.258C92.1663 430.973 96.3834 430.292 99.8976 428.82C109.693 424.713 108.42 415.62 113.998 404.396C119.577 393.173 117.776 394.776 113.998 385.837C110.221 376.898 124.168 331.784 126.715 305.823C129.263 279.862 111.385 264.97 108.881 221.855C106.948 188.931 90.3653 174.391 90.3653 174.391L86.0823 166.616C104.949 163.717 139.982 176.873 142.31 180.959C145.121 185.922 136.357 288.757 138.4 307.426C140.443 326.073 124.168 368.793 120.478 378.435Z" fill="#EE988B"/>
<path d="M187.423 438.858C187.423 440.637 184.656 440.197 181.91 438.506C179.846 437.232 177.781 435.234 176.947 432.905C174.97 427.524 174.399 421.55 172.115 418.431C169.852 415.312 161.901 403.672 162.472 394.886C163.044 386.1 159.398 384.958 160.518 378.721C161.616 372.483 140.355 307.228 132.69 295.302C125.639 284.342 107.761 226.951 116.261 198.771C116.985 196.333 117.93 194.137 119.072 192.182C133.546 167.648 167.151 161.323 167.151 161.323C167.151 161.323 180.351 184.648 169.281 226.072C158.212 267.496 159.925 263.806 162.187 271.186C164.449 278.566 172.159 295.302 173.696 314.301C175.233 333.299 172.686 365.652 174.948 378.984C177.21 392.316 195.374 418.234 196.231 423.153C197.065 428.073 187.423 435.739 187.423 438.858Z" fill="url(#paint3_linear)"/>
<path d="M187.424 438.858C187.424 440.637 184.656 440.197 181.911 438.506C191.992 435.036 191.685 429.215 192.541 423.175C193.398 417.113 165.877 396.885 168.425 353.77C170.973 310.633 157.07 276.875 151.688 264.97C146.307 253.044 165.877 194.049 155.84 182.408C145.802 170.767 117.908 194.137 119.072 192.204C133.546 167.67 167.151 161.345 167.151 161.345C167.151 161.345 180.351 184.67 169.281 226.094C158.212 267.518 159.925 263.828 162.187 271.208C164.449 278.588 172.159 295.324 173.696 314.323C175.234 333.321 172.686 365.674 174.948 379.006C177.21 392.338 195.374 418.256 196.231 423.175C197.066 428.073 187.424 435.739 187.424 438.858Z" fill="#EE988B"/>
<path d="M167.217 158.248C167.239 159.28 167.217 160.313 167.129 161.323C167.129 161.323 147.867 166.55 119.05 192.182C118.962 192.248 118.874 192.336 118.808 192.38C118.743 192.446 118.655 192.49 118.589 192.534C118.391 192.643 118.193 192.687 117.974 192.643C117.93 192.643 117.886 192.621 117.842 192.621C117.798 192.599 117.754 192.599 117.71 192.578C117.688 192.578 117.666 192.556 117.644 192.556C117.6 192.534 117.578 192.512 117.535 192.49C117.491 192.468 117.425 192.424 117.359 192.402C117.337 192.402 117.337 192.38 117.315 192.38C117.293 192.38 117.293 192.358 117.271 192.358C116.876 192.116 116.37 191.743 115.69 191.216C115.492 191.062 115.316 190.908 115.097 190.755C114.965 190.667 114.833 190.557 114.701 190.447C114.547 190.315 114.372 190.183 114.196 190.052C114.13 190.008 114.064 189.942 113.998 189.898C113.867 189.788 113.713 189.678 113.559 189.568C112.812 188.997 111.956 188.36 110.945 187.614C110.748 187.46 110.528 187.306 110.308 187.152C110.199 187.087 110.089 186.999 109.979 186.911C109.759 186.757 109.54 186.603 109.32 186.428C109.078 186.252 108.837 186.076 108.573 185.901C108.354 185.747 108.134 185.593 107.914 185.439C107.431 185.11 106.948 184.78 106.443 184.407C106.223 184.253 106.004 184.1 105.784 183.946C105.608 183.836 105.433 183.704 105.257 183.594C104.927 183.375 104.598 183.133 104.246 182.913C103.851 182.65 103.456 182.386 103.038 182.123C102.204 181.574 101.325 181.003 100.403 180.41C100.183 180.278 99.9635 180.124 99.7439 179.992C99.5682 179.882 99.3925 179.773 99.2167 179.663C98.8873 179.465 98.5578 179.245 98.2284 179.026C79.1418 166.99 76.8576 170.746 76.7478 170.921C76.9455 170.35 86.1044 144.279 85.2478 139.645C84.3912 134.966 75.4519 118.581 76.7258 111.136C77.1651 108.522 77.4287 106.479 77.5604 104.92C77.802 101.999 77.6703 100.725 77.6483 100.439C77.5385 98.7701 75.0566 91.2146 78.0656 84.5595C80.9648 78.1681 86.2801 75.1371 87.2465 74.9613C87.4661 74.9174 87.7297 74.8735 88.0152 74.8076C88.3447 74.7417 88.6961 74.6539 89.0914 74.566C90.2555 74.2805 91.7051 73.8192 93.5062 73.1603C94.2749 72.8748 97.1522 72.6112 98.0527 72.2159C98.2943 72.1061 98.5359 72.0182 98.7555 71.9084C103.06 70.1074 106.135 69.0311 107.629 66.1978C108.42 64.7043 108.771 62.7056 108.617 59.8722C108.42 56.0286 108.573 54.7547 108.529 54.2056C108.464 53.5466 108.112 53.964 106.487 52.2288C103.522 48.9782 103.522 42.1694 102.885 41.3128C102.248 40.4562 96.0759 35.5583 97.7671 31.9562C99.4803 28.3322 102.028 33.8671 103.522 34.504C105.015 35.141 105.586 15.132 109.057 17.2624C112.527 19.3929 112.527 19.3929 112.527 19.3929C112.527 19.3929 113.383 17.2624 115.075 17.2624C116.788 17.2624 128.538 27.3438 132.799 28.6177C137.06 29.8916 134.513 31.1655 134.776 33.5815C135.062 35.9976 134.644 46.2107 130.669 50.889C127.506 54.6229 126.232 55.6552 125.837 56.5557C125.749 56.7753 125.705 57.0169 125.705 57.2585C125.705 58.4665 123.948 63.9355 127.638 67.9988C127.858 68.2404 128.121 68.504 128.385 68.7456C130.713 70.7882 133.48 72.1061 136.709 72.8968C136.951 72.9626 137.192 73.0066 137.434 73.0725C137.917 73.1823 138.4 73.2701 138.905 73.358C139.147 73.4019 139.411 73.4459 139.652 73.4898C139.894 73.5337 140.157 73.5557 140.399 73.5996C140.684 73.6435 140.948 73.6655 141.234 73.7094C141.497 73.7314 141.739 73.7533 142.002 73.7753C142.266 73.7973 142.551 73.8192 142.837 73.8412C143.232 73.8632 143.65 73.9071 144.067 73.9071C144.528 73.9291 145.011 73.951 145.494 73.973C146 73.9949 146.505 73.9949 147.01 73.9949C147.317 73.9949 147.647 73.9949 147.954 73.9949C147.954 73.9949 144.682 89.5892 150.37 101.23C156.037 112.871 152.347 110.016 155.093 130.025C155.137 130.047 167.041 144.74 167.217 158.248Z" fill="url(#paint4_linear)"/>
<path d="M97.2619 94.4871C97.2619 94.4871 103.5 102.899 106.904 101.516C110.308 100.132 110.199 97.8256 111.165 98.0672C112.131 98.3088 110.726 101.537 112.219 104.986C113.713 108.434 109.342 112.585 108.705 112.695C108.068 112.805 92.342 103.229 92.342 102.592C92.342 101.955 97.2619 94.4871 97.2619 94.4871Z" fill="#EE988B"/>
<path d="M167.151 161.323C167.151 161.323 147.889 166.55 119.072 192.182C118.984 192.248 118.896 192.336 118.831 192.38C118.765 192.446 118.677 192.49 118.611 192.534C118.413 192.643 118.216 192.687 117.996 192.643C117.952 192.643 117.908 192.621 117.864 192.621C117.82 192.599 117.776 192.599 117.732 192.578C117.71 192.578 117.688 192.556 117.666 192.556C117.623 192.534 117.601 192.512 117.557 192.49C117.513 192.468 117.447 192.424 117.381 192.402C117.359 192.38 117.315 192.38 117.293 192.358C116.898 192.116 116.393 191.743 115.712 191.216C115.514 191.062 115.338 190.908 115.119 190.755C114.987 190.667 114.855 190.557 114.723 190.447C114.57 190.315 114.394 190.183 114.218 190.052C114.152 190.008 114.086 189.942 114.02 189.898C113.889 189.788 113.735 189.678 113.581 189.568C112.834 188.997 111.978 188.36 110.967 187.614C110.77 187.46 110.55 187.306 110.331 187.152C110.221 187.087 110.111 186.999 110.001 186.911C109.781 186.757 109.562 186.603 109.342 186.428C109.101 186.252 108.859 186.076 108.595 185.901C108.376 185.747 108.156 185.593 107.936 185.439C107.453 185.11 106.97 184.78 106.465 184.407C106.245 184.253 106.026 184.099 105.806 183.946C105.63 183.836 105.455 183.704 105.279 183.594C104.949 183.375 104.62 183.133 104.269 182.913C103.873 182.65 103.478 182.386 103.061 182.123C102.226 181.574 101.347 181.003 100.425 180.41C100.205 180.278 99.9856 180.124 99.7659 179.992C99.5902 179.882 99.4145 179.773 99.2388 179.663C98.9093 179.465 98.5799 179.245 98.2504 179.026C79.1639 166.99 76.8797 170.746 76.7698 170.921C76.9675 170.35 86.1264 144.279 85.2698 139.645C84.4132 134.966 75.474 118.581 76.7479 111.136C77.1871 108.522 77.4507 106.479 77.5825 104.92C77.5825 104.92 89.0476 92.0053 89.1355 74.566C90.2995 74.2805 91.7491 73.8192 93.5502 73.1603C94.3189 72.8748 97.1962 72.6112 98.0967 72.2159C98.3383 72.1061 98.5799 72.0182 98.7995 71.9084C99.4145 85.3722 100.073 106.545 114.02 104.92C127.309 103.361 133.7 87.0634 136.753 72.9627C136.995 73.0285 137.236 73.0725 137.478 73.1384C137.961 73.2482 138.444 73.336 138.949 73.4239C139.191 73.4678 139.455 73.5117 139.696 73.5557C139.938 73.5996 140.201 73.6216 140.443 73.6655C140.728 73.7094 140.992 73.7314 141.278 73.7753C141.541 73.7973 141.783 73.8192 142.046 73.8412C142.31 73.8632 142.595 73.8851 142.881 73.9071C143.276 73.9291 143.694 73.973 144.111 73.973C144.572 73.9949 145.055 74.0169 145.539 74.0389C146.044 74.0608 146.549 74.0608 147.054 74.0608C147.361 74.0608 147.691 74.0608 147.998 74.0608C147.998 74.0608 144.726 89.6551 150.414 101.296C156.081 112.937 152.391 110.081 155.137 130.09C155.137 130.09 167.041 144.784 167.217 158.292C167.063 159.632 166.997 160.642 167.151 161.323Z" fill="url(#paint5_linear)"/>
<path d="M167.151 161.323C167.151 161.323 147.889 166.55 119.072 192.182C118.984 192.248 118.896 192.336 118.831 192.38C118.765 192.446 118.677 192.49 118.611 192.534C118.413 192.643 118.216 192.687 117.996 192.643C117.952 192.643 117.908 192.621 117.864 192.621C117.82 192.599 117.776 192.599 117.732 192.578C117.71 192.578 117.688 192.556 117.666 192.556C117.623 192.534 117.601 192.512 117.557 192.49C117.139 192.292 116.568 191.875 115.712 191.216C115.514 191.062 115.338 190.908 115.119 190.755C114.987 190.667 114.855 190.557 114.723 190.447C114.57 190.315 114.394 190.183 114.218 190.052C114.152 190.008 114.086 189.942 114.02 189.898C113.889 189.788 113.735 189.678 113.581 189.568C112.834 188.997 111.978 188.36 110.967 187.614C110.77 187.46 110.55 187.306 110.331 187.152C110.221 187.087 110.111 186.999 110.001 186.911C109.781 186.757 109.562 186.603 109.342 186.428C109.101 186.252 108.859 186.076 108.595 185.901C108.376 185.747 108.156 185.593 107.936 185.439C107.453 185.11 106.97 184.78 106.465 184.407C106.245 184.253 106.026 184.099 105.806 183.946C105.63 183.836 105.455 183.704 105.279 183.594C123.113 189.766 149.756 161.147 147.625 150.341C145.517 139.535 125.617 142.72 125.617 140.721C125.617 138.722 135.852 132.507 145.055 126.027C154.258 119.548 150.458 111.992 145.912 102.065C141.365 92.137 142.925 73.8632 142.925 73.8632C143.32 73.8851 143.737 73.9291 144.155 73.9291C144.616 73.951 145.099 73.973 145.582 73.9949C146.088 74.0169 146.593 74.0169 147.098 74.0169C147.405 74.0169 147.735 74.0169 148.042 74.0169C148.042 74.0169 144.77 89.6112 150.458 101.252C156.125 112.893 152.435 110.038 155.181 130.047C155.181 130.047 167.085 144.74 167.261 158.248C167.063 159.632 166.997 160.642 167.151 161.323Z" fill="#3D3A5F"/>
<path d="M114.328 45.0246C114.328 45.0246 115.865 45.4639 117.139 45.1564C118.413 44.827 119.05 43.2456 120.016 43.5531C120.983 43.8825 121.861 44.827 121.861 44.827C121.861 44.827 122.674 43.6849 123.838 43.5091C125.002 43.3334 125.639 45.42 126.496 45.2882C127.352 45.1564 128.407 44.3877 128.407 44.3877C128.407 44.3877 126.342 50.252 121.905 50.7792C117.447 51.3063 114.328 45.0246 114.328 45.0246Z" fill="#FF8B80"/>
<path d="M102.27 150.034C102.138 150.407 101.216 150.956 99.9416 150.912C98.9313 150.89 97.8551 150.627 95.7905 149.397C95.7905 149.397 92.9132 148.189 92.7155 148.123C92.7155 148.123 92.7155 148.123 92.7375 148.145C92.8913 148.342 94.1652 149.88 95.5049 150.736C96.2078 151.176 96.713 151.835 97.6135 152.186C99.0192 152.757 99.6561 152.955 99.8977 153.087C100.008 153.152 100.051 153.196 100.029 153.284C99.9197 153.943 98.6677 153.965 98.9313 154.075C99.4145 154.295 99.722 154.492 99.8757 154.668C100.381 155.217 99.5024 155.568 98.3163 155.744C98.0527 155.788 99.0192 156.183 98.9093 156.601C98.8654 156.776 98.6018 156.952 97.9649 157.084C96.5812 157.413 96.1199 157.15 95.0657 156.952C91.8809 156.315 90.3654 153.394 88.169 153.526C84.3913 153.723 82.7659 160.642 79.4055 162.86C79.3616 162.904 79.3176 162.926 79.2517 162.948C78.7026 163.3 78.2414 163.585 77.8021 163.827C77.6484 163.915 77.5166 163.981 77.3628 164.046C75.43 164.969 73.8706 164.705 68.5993 163.695C50.3254 160.225 26.275 128.773 27.1316 124.512C27.9882 120.251 57.0024 99.5827 67.2156 86.5362C77.4287 73.4897 89.0915 74.5 89.0915 74.5C85.5553 89.7649 78.7685 103.536 77.6703 104.964C77.5166 105.162 77.4727 105.118 77.5605 104.876C70.3344 114.298 44.8125 127.279 49.0735 130.046C52.5218 132.287 58.452 144.477 64.1846 149.55C65.9197 151.088 67.3474 152.34 68.797 152.823C70.9714 153.548 73.2117 152.581 76.6161 148.276C79.1639 145.048 81.7776 141.885 82.8318 140.457C83.6884 139.315 85.7311 140.304 86.368 140.853C87.4223 141.775 88.8938 142.544 90.1238 143.379C91.0902 144.015 92.7595 144.345 93.7478 145.026C95.0657 145.948 95.7465 146.475 97.0204 147.332C98.7117 148.474 100.403 148.694 101.984 149.638C102.204 149.814 102.336 149.858 102.27 150.034Z" fill="url(#paint6_linear)"/>
<path d="M177.364 163.761C177.232 163.959 177.035 164.112 176.815 164.244C173.85 166.045 171.522 167.034 166.712 166.594C166.338 166.55 165.965 166.506 165.592 166.44C161.177 165.672 162.561 165.145 157.838 164.09C154.917 163.431 155.422 162.201 153.27 161.674C150.788 161.081 149.822 161.894 147.845 161.894C146.241 161.894 144.66 162.751 142.881 161.894C142.705 161.828 142.617 161.74 142.573 161.652C142.573 161.652 142.573 161.652 142.573 161.63C142.398 161.235 143.496 160.796 143.869 160.576C144.001 160.488 143.694 160.378 142.947 160.554C141.102 160.993 139.74 159.917 139.477 159.127C139.323 158.687 139.499 158.336 140.114 158.38C141.805 158.49 147.779 156.447 147.23 156.139C146.681 155.81 142.771 156.996 140.794 156.732C139.455 156.557 138.159 155.503 137.917 154.822C137.807 154.492 137.939 154.251 138.378 154.207C139.806 154.031 144.133 153.13 146.044 152.252C147.955 151.373 148.306 152.252 150.568 152.537C152.457 152.779 154.741 151.922 154.851 151.527V151.505C154.851 151.439 154.785 151.395 154.654 151.351C154.61 151.351 154.566 151.329 154.5 151.307C152.655 150.868 150.151 148.782 147.867 147.947C145.495 147.09 140.092 147.31 138.84 146.805C137.588 146.3 136.336 143.796 138.137 144.345C139.96 144.894 147.911 142.544 149.8 144.235C151.688 145.926 156.696 147.508 158.541 147.618C160.386 147.727 164.691 151.417 167.502 154.009C168.93 155.327 170.819 155.942 172.334 156.227C174.882 155.942 187.138 134.176 188.258 129.915C189.4 125.654 164.625 113.793 156.696 111.026C151.93 109.357 140.926 90.3579 147.977 74.0388C147.977 74.0388 150.898 74.1046 155.115 76.0155L155.159 76.0375C155.598 76.2351 156.037 76.4548 156.52 76.6964L156.608 76.7403C160.276 78.6292 164.669 81.8798 168.996 87.3708C179.209 100.417 208.992 119.723 209.849 123.962C210.683 128.202 182.482 162.729 177.364 163.761Z" fill="url(#paint7_linear)"/>
<path d="M164.142 166.528C163.746 166.484 163.395 166.375 163.087 166.199C162.648 165.957 163.131 166.111 164.142 166.528Z" fill="#F8A99A"/>
<path d="M177.364 163.761C177.232 163.959 177.035 164.112 176.815 164.244C173.85 166.045 171.522 167.034 166.712 166.594C166.338 166.55 172.598 165.364 176.925 162.245C182.723 158.05 202.249 129.827 203.303 126.862C204.357 123.875 197.549 115.792 184.568 107.49C171.609 99.1873 155.137 75.9936 155.137 75.9936L155.181 76.0155L156.542 76.6744L156.63 76.7184C160.298 78.6073 164.691 81.8579 169.018 87.3489C179.231 100.395 209.014 119.702 209.87 123.941C210.683 128.202 182.482 162.729 177.364 163.761Z" fill="#EE988B"/>
<path d="M148.306 146.959C150.217 148.101 153.16 150.517 154.5 151.286C152.655 150.846 150.151 148.76 147.867 147.925C145.495 147.068 140.092 147.288 138.84 146.783C137.588 146.278 136.336 143.774 138.137 144.323C138.137 144.323 137.983 145.465 140.333 145.795C142.661 146.102 145.978 145.575 148.306 146.959Z" fill="#F8A99A"/>
<path d="M154.851 151.461C154.873 151.483 154.895 151.483 154.917 151.483C154.895 151.483 154.873 151.483 154.851 151.483C154.851 151.483 154.851 151.483 154.851 151.461Z" fill="#F8A99A"/>
<path d="M155.137 151.527C155.093 151.527 155.027 151.527 154.939 151.483C155.115 151.505 155.181 151.527 155.137 151.527Z" fill="#F8A99A"/>
<path d="M147.208 156.118C146.659 155.788 142.749 156.974 140.772 156.711C139.433 156.535 138.137 155.481 137.895 154.8C137.895 154.8 141.058 156.227 143.628 155.678C146.176 155.151 147.252 154.229 148.943 154.8C150.656 155.371 153.204 154.953 153.841 155.217C154.478 155.481 152.062 155.085 147.208 156.118Z" fill="#F8A99A"/>
<path d="M148.504 159.236C147.164 159.302 147.01 160.005 143.869 160.554C143.935 160.4 143.693 160.357 142.947 160.532C141.102 160.972 139.74 159.895 139.476 159.105C139.476 159.105 142.068 160.379 145.385 159.105C148.701 157.831 152.391 157.897 153.182 157.831C153.951 157.787 149.843 159.192 148.504 159.236Z" fill="#F8A99A"/>
<path d="M157.86 164.09C154.939 163.431 155.444 162.201 153.291 161.674C150.81 161.081 149.843 161.894 147.866 161.894C146.263 161.894 144.682 162.751 142.903 161.894C142.727 161.828 142.639 161.74 142.595 161.652C142.683 161.718 143.671 162.465 146.395 161.652C149.228 160.796 152.369 159.983 153.313 160.664C154.214 161.323 156.806 163.849 157.86 164.09Z" fill="#F8A99A"/>
<path d="M98.3382 155.766C98.3382 155.766 97.1742 155.393 95.8563 154.602C95.0656 154.119 94.3847 152.955 93.638 152.208C93.1108 151.659 89.377 149.199 87.576 148.979C82.1729 148.32 87.6419 147.903 88.8279 148.606C94.253 151.835 92.8253 150.736 96.5592 154.536C97.3718 155.371 99.7659 155.568 99.8757 154.712C100.403 155.239 99.5243 155.59 98.3382 155.766Z" fill="#F8A99A"/>
<path d="M98.9313 156.601C98.8874 156.776 98.6238 156.952 97.9868 157.106C96.6031 157.435 96.1419 157.172 95.0876 156.974C91.9029 156.337 90.3874 153.416 88.191 153.548C84.4132 153.745 82.7879 160.664 79.4274 162.882C79.3835 162.926 79.3396 162.948 79.2737 162.97C80.9869 161.455 81.9752 158.621 84.3693 155.019C87.3564 150.517 89.2452 152.559 90.4972 153.284C92.3421 154.36 92.7375 155.195 94.5825 156.161C96.4494 157.128 98.9313 156.601 98.9313 156.601Z" fill="#F8A99A"/>
<path d="M102.27 150.034C102.138 150.407 101.216 150.956 99.9417 150.912C98.9314 150.89 97.8552 150.627 95.7906 149.397C95.7906 149.397 92.9133 148.189 92.7156 148.123C91.7931 147.376 89.1355 146.146 88.1691 145.685C87.2027 145.223 84.9404 145.575 85.204 145.355C85.4676 145.136 87.1368 144.718 88.0593 144.674C88.9818 144.63 91.859 147.398 93.3526 147.574C94.8461 147.749 98.9533 150.275 100.008 150.583C101.106 150.934 102.27 150.034 102.27 150.034Z" fill="#F8A99A"/>
<path d="M100.052 153.284C99.9418 153.943 98.6899 153.965 98.9535 154.075C98.9535 154.075 97.438 153.57 96.7571 153.021C96.0762 152.45 94.1654 150.539 93.7481 150.363C93.3527 150.187 90.717 148.32 89.6847 147.793C88.6525 147.266 86.3463 146.695 85.9948 146.849C85.6434 146.981 87.2468 146.102 88.6305 146.827C90.0142 147.552 92.7597 148.935 93.7481 149.858C94.7364 150.78 96.801 152.647 98.0969 153.262C99.3928 153.877 99.9638 153.416 99.9199 153.087C100.03 153.152 100.052 153.218 100.052 153.284Z" fill="#F8A99A"/>
<path d="M77.5388 104.876C70.3127 114.299 44.7907 127.279 49.0517 130.047C52.5 132.287 58.4303 144.477 64.1628 149.55C65.898 151.088 67.3256 152.34 68.7752 152.823C61.044 153.482 44.7907 131.321 43.9561 128.333C43.0995 125.346 52.4781 120.251 67.1499 109.818C81.8217 99.4071 76.5065 101.538 77.5388 104.876Z" fill="#EE988B"/>
<path d="M127.66 68.0207C125.683 69.7778 120.302 74.2804 117.776 73.8411C116.019 73.5336 111.363 69.5582 107.629 66.1538C108.42 64.6602 108.771 62.6615 108.617 59.8282C108.42 55.9845 108.573 54.7106 108.529 54.1615C108.529 54.1615 116.48 57.2804 119.05 57.5659C121.598 57.8514 124.036 58.8398 125.859 56.5775C125.771 56.7972 125.727 57.0388 125.727 57.2804C125.727 58.4664 123.948 63.9574 127.66 68.0207Z" fill="#EE988B"/>
<defs>
<linearGradient id="paint0_linear" x1="75.4024" y1="65.7977" x2="136.106" y2="265.125" gradientUnits="userSpaceOnUse">
<stop offset="0.0117302" stop-color="#6767C6"/>
<stop offset="0.903226" stop-color="#B3B3E8"/>
</linearGradient>
<linearGradient id="paint1_linear" x1="118.603" y1="46.1706" x2="110.132" y2="2.11792" gradientUnits="userSpaceOnUse">
<stop stop-color="#18202E"/>
<stop offset="1" stop-color="#365986"/>
</linearGradient>
<linearGradient id="paint2_linear" x1="108.842" y1="166.225" x2="108.842" y2="433" gradientUnits="userSpaceOnUse">
<stop stop-color="#FBD3CB"/>
<stop offset="1" stop-color="#F6AC9E"/>
</linearGradient>
<linearGradient id="paint3_linear" x1="155.149" y1="161.323" x2="155.149" y2="440" gradientUnits="userSpaceOnUse">
<stop stop-color="#FBD1C9"/>
<stop offset="1" stop-color="#F6AD9F"/>
</linearGradient>
<linearGradient id="paint4_linear" x1="121.903" y1="17.1035" x2="121.903" y2="192.66" gradientUnits="userSpaceOnUse">
<stop stop-color="#F7B0A3"/>
<stop offset="1" stop-color="#FBD1C8"/>
</linearGradient>
<linearGradient id="paint5_linear" x1="166.892" y1="148.254" x2="88.9526" y2="115.215" gradientUnits="userSpaceOnUse">
<stop offset="0.00119874" stop-color="#494775"/>
<stop offset="1" stop-color="#55539E"/>
</linearGradient>
<linearGradient id="paint6_linear" x1="64.6981" y1="74.4819" x2="64.6981" y2="164.614" gradientUnits="userSpaceOnUse">
<stop stop-color="#F7B0A3"/>
<stop offset="1" stop-color="#FBD1C8"/>
</linearGradient>
<linearGradient id="paint7_linear" x1="173.551" y1="74.0388" x2="173.551" y2="166.698" gradientUnits="userSpaceOnUse">
<stop stop-color="#F7B0A3"/>
<stop offset="1" stop-color="#FBD1C8"/>
</linearGradient>
</defs>
</svg>
