<svg width="163" height="468" viewBox="0 0 163 468" fill="none" xmlns="http://www.w3.org/2000/svg">
<path d="M150.703 312.76L0 305.527L12.2974 49.2056L163 56.4389L150.703 312.76Z" fill="url(#paint0_linear)"/>
<path d="M89.2387 7.2196C89.2387 7.2196 101.112 -0.53201 106.813 5.16978C112.514 10.8716 108.227 14.3115 112.208 19.33C116.189 24.3485 121.231 21.6155 120.077 32.3358C118.922 43.0561 115.483 40.7707 117.791 46.0248C120.077 51.2789 125.99 57.2163 123.045 64.5203C120.1 71.8242 126.272 75.9239 123.846 80.7303C121.443 85.5132 112.773 85.7488 110.936 89.4008C109.098 93.0528 105.235 101.723 99.7457 97.8357C94.2566 93.9481 91.3118 98.6603 84.692 98.8253C78.0721 98.9902 76.7057 91.6862 72.8186 88.9532C68.9314 86.2201 63.7015 93.2413 59.5788 87.1154C55.4561 80.9895 59.7908 79.5287 58.2124 74.5338C56.634 69.5152 48.8597 69.5388 49.0953 61.7872C49.3309 54.0356 52.5113 54.0356 50.0141 47.1793C47.4934 40.323 50.4617 35.5401 55.5032 33.2547C60.5211 30.9692 54.3724 20.461 58.0239 18.4111C61.6755 16.3613 65.327 18.6468 67.6122 14.3115C69.8973 9.97626 66.0102 1.51781 74.5619 0.622486C83.0664 -0.296398 88.5555 1.51781 89.2387 7.2196Z" fill="url(#paint1_linear)"/>
<path d="M50.508 118.475C50.7201 134.968 50.9085 154.995 50.6494 158.034C50.6494 158.176 50.6258 158.341 50.5787 158.506C49.5186 163.524 37.8101 178.132 37.5038 183.48V183.504C37.4803 183.834 37.4332 183.952 37.5038 184.211L37.5981 184.423C37.6923 184.776 37.9043 185.036 38.2106 185.224C38.3048 185.271 38.4226 185.318 38.5404 185.365L38.2577 185.413L34.2528 185.931L34.0172 185.954L27.2795 186.661C30.9311 178.91 31.6849 159.754 33.0513 154.736C34.4177 149.717 37.8337 149.482 40.1188 143.097C42.404 136.712 30.7662 81.4608 36.4673 76.4423C42.1684 71.4238 49.7071 73.9212 49.7071 73.9212L51.2383 76.6543L50.1782 95.9745C50.2018 95.9509 50.3667 106.247 50.508 118.475Z" fill="url(#paint2_linear)"/>
<path d="M50.6735 158.034C50.6735 158.176 50.6499 158.341 50.6028 158.506C49.5427 163.524 37.8342 178.132 37.5279 183.48V183.504C37.5044 184.022 37.4808 184.211 37.6222 184.399V184.423C37.6457 184.47 37.6928 184.493 37.7164 184.541C37.9755 184.753 38.1404 184.988 38.2347 185.224C38.2582 185.295 38.2818 185.342 38.2818 185.412C38.5409 186.967 35.337 188.452 34.2769 185.931C34.1826 185.695 34.0884 185.412 34.0413 185.106C33.9235 184.423 33.8999 183.74 33.9942 183.103C34.6774 178.344 42.8992 155.443 46.3152 147.691C48.3648 143.026 49.7311 129.031 50.5086 118.546C50.7206 134.968 50.9091 154.971 50.6735 158.034Z" fill="url(#paint3_linear)"/>
<path d="M112.75 157.422C115.954 163.359 118.239 170.663 118.239 170.663C118.239 170.663 96.33 182.538 83.5379 187.109C83.1609 187.25 82.784 187.368 82.3835 187.486C69.2615 191.42 44.7373 187.109 44.7373 187.109C44.7373 187.109 44.596 185.601 44.6195 183.315C44.6195 182.891 44.6431 182.467 44.6666 181.996C44.808 178.745 45.3734 174.456 47.0225 170.687C47.8941 168.684 48.5302 166.493 48.9778 164.207C49.4961 161.474 49.7552 158.671 49.8259 155.985C49.8966 152.757 49.6846 149.741 49.3076 147.385C49.2134 146.701 49.0014 145.853 48.7658 144.911C48.3653 143.403 47.7999 141.659 47.1403 139.774C44.6902 132.847 40.9915 124.342 39.743 121.797C37.9054 118.145 41.1093 109.923 45.6796 96.3984C50.25 82.8743 49.7788 73.874 49.7788 73.874C50.9332 74.0389 52.0404 74.1567 53.1005 74.251C54.1606 74.3452 55.1736 74.4159 56.116 74.463C56.7049 74.4866 57.2703 74.5101 57.8122 74.5101C62.1705 74.5808 65.4922 74.0625 67.9658 73.3085C74.5386 71.3058 75.5516 67.4889 75.5516 67.4889C76.3526 65.9103 78.3315 63.6485 76.4704 60.6798C76.1877 60.2321 75.8107 59.7609 75.316 59.2661C71.6645 55.6141 69.6149 45.1059 69.6149 45.1059C69.6149 45.1059 65.0446 41.4539 64.1258 39.1684C63.4662 37.4956 64.3614 36.3176 68.0129 35.6343C69.3558 35.3751 71.0991 35.1866 73.2429 35.0688C81.2291 34.6211 80.546 25.4794 83.9619 20.0132C87.4014 14.5235 90.8409 16.5969 90.8409 16.5969C87.637 33.0426 100.877 39.6397 100.877 39.6397C100.877 39.6397 106.366 36.2233 107.944 40.5586C109.546 44.8938 100.877 49.229 100.877 49.229C99.746 55.4021 96.0944 59.7373 93.5737 61.3159C93.0083 61.6693 92.5843 61.9756 92.278 62.329C91.1943 63.5307 91.5006 65.2506 92.2073 71.6828C92.4665 74.1332 94.7516 76.2301 97.8378 77.9736C101.631 80.1177 106.649 81.7434 110.63 82.8272C114.423 83.8403 117.297 84.3587 117.297 84.3587C117.297 84.3587 115.012 93.5004 114.564 102.642C114.117 111.807 120.053 112.656 120.053 118.593C120.053 122.009 117.462 128.017 114.941 133.366C113.08 137.277 111.242 140.858 110.465 142.79C109.805 144.416 109.523 145.971 109.546 147.573C109.57 148.61 109.711 149.67 109.994 150.778C110.441 152.568 111.242 154.477 112.35 156.621C112.467 156.903 112.609 157.163 112.75 157.422Z" fill="url(#paint4_linear)"/>
<path d="M118.215 170.663C118.215 170.663 96.306 182.538 83.5138 187.109C83.1369 187.25 82.76 187.368 82.3595 187.486V180.394C82.3595 180.394 106.954 172.831 107.473 164.066C107.991 155.301 101.3 149.223 86.7177 146.042C72.1116 142.837 49.2836 147.408 49.2836 147.408C49.1893 146.725 48.9773 145.877 48.7417 144.934C48.3412 143.426 47.7758 141.683 47.1162 139.798L49.2836 138.95L67.9889 139.185L80.9931 136.217L108.839 128.23L114.917 133.413C113.056 137.324 111.218 140.905 110.441 142.837C109.781 144.463 109.499 146.018 109.522 147.62C109.546 148.657 109.687 149.717 109.97 150.825C110.417 152.615 111.218 154.524 112.326 156.668C112.443 156.927 112.585 157.163 112.726 157.422C115.93 163.359 118.215 170.663 118.215 170.663Z" fill="url(#paint5_linear)"/>
<path d="M64.3609 134.827L47.234 110.747C47.234 110.747 52.7231 78.4449 52.9351 77.5496C52.9822 77.3376 53.0294 76.1124 53.0529 74.2746C54.113 74.3689 55.126 74.4396 56.0684 74.4867C56.6573 74.5102 57.2227 74.5338 57.7646 74.5338C56.6102 82.9216 55.2674 96.3043 57.7175 100.145C61.369 105.847 71.5933 107.967 75.4804 117.556C79.3676 127.146 75.6925 131.363 77.106 136.028C78.4959 140.693 64.3609 134.827 64.3609 134.827Z" fill="url(#paint6_linear)"/>
<path d="M108.933 341.246C107.708 362.851 93.7147 399.371 92.7959 408.206C91.8771 417.042 96.1412 456.295 92.4897 461.879C88.8381 467.463 76.3522 467.557 73.6194 467.251C70.8867 466.944 70.8867 464.824 71.7819 461.879C72.7007 458.934 75.4334 438.954 75.4334 431.956C75.4334 424.958 78.1662 413.696 80.8283 406.392C83.4904 399.088 81.8177 376.87 80.899 365.608C79.9802 354.346 87.2833 331.515 88.202 326.944C89.1208 322.373 82.4303 307.765 86.6708 291.65C90.6757 276.5 84.5505 217.95 84.5269 208.785C84.5269 208.196 84.5505 207.796 84.5976 207.654C92.8902 184.871 119.982 173.655 119.982 173.655C132.633 197.169 106.13 277.372 104.292 288.021C102.455 298.671 110.158 319.64 108.933 341.246Z" fill="url(#paint7_linear)"/>
<path d="M108.933 341.246C107.708 362.851 93.7147 399.371 92.7959 408.206C91.8771 417.042 96.1412 456.295 92.4897 461.879C88.8381 467.463 76.3522 467.557 73.6194 467.251C70.8867 466.944 70.8867 464.824 71.7819 461.879C76.9647 461.667 80.9225 465.436 88.8146 455.988C96.7302 446.564 76.8705 428.846 89.1208 401.515C101.371 374.184 102.808 331.821 103.421 325.436C104.033 319.051 99.7692 314.787 97.3191 312.053C94.8691 309.32 100.382 302.912 101.136 289.223C101.889 275.534 106.672 242.807 109.97 232.158C113.268 221.508 118.215 194.342 109.829 190.007C101.465 185.648 84.5741 208.785 84.5741 208.785C84.5741 208.196 84.5976 207.796 84.6447 207.654C92.9373 184.871 120.029 173.655 120.029 173.655C132.68 197.169 106.177 277.372 104.34 288.021C102.502 298.671 110.158 319.64 108.933 341.246Z" fill="url(#paint8_linear)"/>
<path d="M37.3162 197.735C37.3162 197.735 41.3211 205.958 42.2163 207.089C43.1351 208.22 46.7867 211.094 47.7997 212.673C48.8362 214.275 50.2733 226.715 49.5901 226.951C48.9069 227.186 42.3341 220.99 42.3341 220.99C42.3341 220.99 35.9734 217.126 37.2927 211.872C37.5047 211.236 37.3162 197.735 37.3162 197.735Z" fill="url(#paint9_linear)"/>
<path d="M80.8518 406.369C76.0694 425.029 75.292 451.206 73.2424 453.75C71.1929 456.295 60.8507 442.582 59.932 438.035C59.8142 437.422 59.7906 436.668 59.8377 435.773C60.144 429.977 63.5835 419.068 63.5835 414.592C63.5835 409.408 66.9759 408.819 68.9313 401.798C70.8866 394.8 52.2755 332.245 71.2635 304.726C75.4569 298.647 34.3712 208.55 45.3258 191.821C45.3258 191.821 49.4956 192.033 54.9612 193.093C64.1018 194.884 76.8704 199.078 79.6032 208.714C83.9615 224.076 81.535 269.125 90.0631 292.545C98.5912 315.988 82.4537 342.471 81.2287 357.833C80.0272 373.195 85.6341 387.708 80.8518 406.369Z" fill="url(#paint10_linear)"/>
<path d="M80.8517 406.369C76.0693 425.029 75.2919 451.206 73.2423 453.75C71.1927 456.295 60.8506 442.582 59.9319 438.035C59.8141 437.422 59.7905 436.668 59.8376 435.773C63.3007 442.936 66.2691 444.302 69.8499 447.766C74.5851 452.337 71.6875 430.071 76.6818 408.819C81.5584 388.132 77.153 359.506 78.2602 334.979C79.391 309.862 94.8217 308.543 86.2465 292.804C81.3228 283.757 80.0036 235.975 76.0458 216.796C72.088 197.617 52.8879 195.143 52.8879 195.143L54.9611 193.117C64.1017 194.908 76.8703 199.102 79.6031 208.738C83.9614 224.1 81.5348 269.149 90.063 292.569C98.5911 316.012 82.4536 342.495 81.2286 357.856C80.0271 373.195 85.634 387.708 80.8517 406.369Z" fill="url(#paint11_linear)"/>
<path d="M54.4664 202.471C54.3015 202.848 53.689 203.13 52.8409 203.295C51.9692 203.46 50.8384 203.507 49.6134 203.39C48.7182 203.319 47.7759 203.154 46.8571 202.918C43.5118 202 40.6141 196.981 39.1771 198.96C37.74 200.939 36.4914 215.689 39.1771 216.914C51.0269 222.309 49.2836 234.255 47.1398 230.296C45.0195 226.338 32.9812 217.361 32.3923 216.749C31.7798 216.136 32.8399 215.217 31.0259 204.568C29.1884 193.918 23.9584 193.682 27.6099 185.931L34.0649 185.012L37.74 184.494C40.0252 186.331 40.0252 189.064 41.5329 190.879C43.0642 192.716 46.2446 192.999 48.0821 195.897C49.8961 198.819 54.914 201.387 54.4664 202.471Z" fill="url(#paint12_linear)"/>
<path d="M138.758 143.262C138.004 148.445 126.437 170.663 126.437 172.03C126.437 172.854 124.081 172.289 122.22 171.723C121.042 171.347 120.053 170.97 120.053 170.97C120.053 170.97 120.147 170.357 120.265 169.344C120.383 168.496 120.547 167.365 120.712 166.045C121.372 161.027 122.314 153.676 122.314 151.626C122.314 148.422 123.068 145.688 124.152 142.036C124.929 139.398 123.492 127.429 121.678 120.596C120.995 118.004 120.241 116.143 119.558 115.836C118.074 115.153 113.692 112.679 112.514 106.129C112.161 104.174 112.09 101.841 112.443 99.0845C112.985 95.1262 114.446 90.2726 117.32 84.3824C117.32 84.3824 119.228 84.0054 121.419 83.9583C123.634 83.9111 126.131 84.2174 127.356 85.584C127.356 85.584 127.379 85.6075 127.426 85.6547C129.853 88.3171 132.539 88.1993 132.986 107.943C133.434 127.9 139.512 138.102 138.758 143.262Z" fill="url(#paint13_linear)"/>
<path d="M138.758 143.262C138.004 148.445 126.437 170.663 126.437 172.03C126.437 172.854 124.081 172.289 122.22 171.723L120.288 169.344C120.406 168.496 120.571 167.365 120.736 166.045C122.55 164.278 125.353 161.074 127.356 156.503C130.56 149.199 134.894 144.18 135.46 141.212C136.025 138.243 129.853 121.821 130.772 106.035C131.62 91.38 127.945 86.3143 127.403 85.6546C129.829 88.317 132.515 88.1992 132.963 107.943C133.434 127.9 139.512 138.102 138.758 143.262Z" fill="url(#paint14_linear)"/>
<path d="M121.678 120.596C120.995 118.004 120.241 116.143 119.558 115.836C118.074 115.153 113.692 112.679 112.514 106.129C112.491 103.726 112.467 101.276 112.444 99.0845C112.985 95.1263 114.446 90.2727 117.32 84.3824C117.32 84.3824 119.228 84.0054 121.419 83.9583C121.302 84.2881 115.977 98.3541 118.003 104.221C119.464 108.509 121.278 114.894 121.678 120.596Z" fill="url(#paint15_linear)"/>
<path d="M134.094 182.114C134.541 183.787 134.989 185.342 132.256 189.135C129.523 192.928 127.121 194.177 126.32 196.463C125.519 198.748 116.401 201.481 115.483 202.965C114.564 204.45 113.551 199.549 117.65 196.345C121.749 193.14 122.338 174.197 122.338 174.197L134.094 182.114Z" fill="url(#paint16_linear)"/>
<path d="M117.179 167.647L110.182 171.346C79.6033 183.692 44.6192 182.632 44.6192 182.726L44.2188 194.271C44.2188 194.271 46.5275 194.271 50.0377 194.695C57.9297 195.661 71.9233 198.866 79.6033 209.468L84.5741 208.785C84.5741 208.785 95.0576 185.035 120.501 174.551L117.179 167.647Z" fill="url(#paint17_linear)"/>
<path d="M118.781 169.179C120.854 167.694 125.283 171.346 127.804 173.066C130.324 174.786 132.939 173.066 134.07 174.669C135.201 176.271 135.908 179.239 135.107 180.724C134.306 182.208 126.296 191.232 125.518 192.481C124.741 193.729 119.488 194.083 116.519 195.567C113.551 197.052 112.797 197.735 112.208 196.816C111.619 195.897 114.47 190.431 116.072 189.96C117.674 189.488 121.655 189.96 126.107 184.14C130.56 178.32 124.341 176.718 123.799 176.718C123.257 176.718 119.488 186.991 117.202 186.308C114.917 185.624 115.483 181.855 116.637 178.768C117.768 175.682 117.509 170.098 118.781 169.179Z" fill="url(#paint18_linear)"/>
<path d="M120.053 118.617C120.053 124.554 112.279 138.243 110.465 142.814C109.805 144.44 109.522 145.995 109.546 147.597C109.546 147.597 95.411 139.845 75.3157 140.764C63.1596 141.306 54.0426 143.379 48.7419 144.911C48.5064 144.063 48.2237 143.12 47.9174 142.154C45.5851 134.921 41.1326 124.648 39.7191 121.821C38.6354 119.653 39.3186 115.86 41.0148 110.323C41.0148 110.276 41.0384 110.229 41.0619 110.182C42.2163 106.412 43.8183 101.841 45.6558 96.422C50.2261 82.8744 49.755 73.8976 49.755 73.8976C52.0637 74.2274 54.1839 74.4159 56.0921 74.4866C54.9849 85.254 53.4536 102.1 54.1604 104.692C55.2205 108.58 73.2426 121.138 75.3157 130.939C77.3653 140.764 77.3653 134.143 78.2841 130.939C79.2029 127.735 87.7074 116.567 97.3663 112.679C102.431 110.653 107.214 96.1629 110.63 82.8273C112.137 83.2278 113.504 83.5576 114.587 83.7933C116.26 84.1702 117.297 84.3587 117.297 84.3587C117.297 84.3587 115.011 93.5004 114.564 102.642C114.116 111.831 120.053 112.679 120.053 118.617Z" fill="url(#paint19_linear)"/>
<path d="M54.4668 202.471C54.3019 202.848 53.6894 203.13 52.8413 203.295C51.5927 203.178 50.3206 202.965 49.6138 202.612C47.9647 201.764 41.8396 194.696 39.1775 193.093C36.5154 191.491 34.0417 185.035 34.0417 185.035L37.7168 184.517C40.002 186.355 40.002 189.088 41.5097 190.902C43.041 192.74 46.2214 193.023 48.059 195.921C49.8965 198.819 54.9144 201.387 54.4668 202.471Z" fill="url(#paint20_linear)"/>
<path d="M117.249 175.988C94.1623 187.062 84.5741 208.785 84.5741 208.785L79.6033 209.468C71.9233 198.889 57.9296 195.685 50.0376 194.696C53.642 194.672 59.0133 195.073 66.9289 196.533C85.9405 200.02 109.664 180.276 111.195 177.213C112.75 174.127 110.158 171.37 110.158 171.37C114.682 169.25 117.155 167.671 117.155 167.671L118.262 169.956C118.286 169.933 118.31 175.47 117.249 175.988Z" fill="#3D3A5F"/>
<path d="M120.053 118.617C120.053 124.554 112.279 138.243 110.465 142.814C109.805 144.44 109.522 145.995 109.546 147.597C109.546 147.597 95.411 139.845 75.3157 140.764C63.1596 141.306 54.0426 143.379 48.7419 144.911C48.5064 144.063 48.2237 143.12 47.9174 142.154C45.5851 134.921 41.1326 124.648 39.7191 121.821C38.6354 119.653 39.3186 115.86 41.0148 110.323C41.0384 110.276 41.0619 110.252 41.0619 110.229C41.1326 111.383 42.6639 135.84 54.7729 138.738C64.5496 141.094 75.622 135.816 85.328 137.843C102.502 141.424 108.651 137.136 112.373 131.198C116.095 125.261 115.271 123.211 112.137 112.255C109.004 101.299 114.682 83.9818 114.682 83.9818L114.611 83.8404C116.284 84.2174 117.32 84.4059 117.32 84.4059C117.32 84.4059 115.035 93.5476 114.587 102.689C114.116 111.831 120.053 112.679 120.053 118.617Z" fill="#3D3A5F"/>
<path d="M97.8373 77.9736C97.8373 77.9736 85.9639 78.8925 84.2912 80.1177C82.6186 81.3429 80.4748 79.67 78.6608 78.2799C77.4829 77.3846 72.3236 75.2405 67.9653 73.3085C74.5381 71.3058 75.5511 67.4889 75.5511 67.4889C76.3521 65.9103 78.331 63.6485 76.4699 60.6797C76.6583 60.8447 79.8623 63.3893 83.985 63.9783C88.249 64.5909 89.5919 62.9652 92.2775 62.329C91.1938 63.5306 91.5001 65.2506 92.2068 71.6828C92.466 74.1332 94.7511 76.2301 97.8373 77.9736Z" fill="url(#paint21_linear)"/>
<path d="M100.876 49.229C102.408 40.6999 100.876 39.6396 100.876 39.6396C100.876 39.6396 106.365 36.2233 107.944 40.5585C109.546 44.8938 100.876 49.229 100.876 49.229Z" fill="url(#paint22_linear)"/>
<path d="M69.6143 45.1294C69.6143 45.1294 65.0439 41.4774 64.1252 39.192C63.4655 37.5192 64.3608 36.3411 68.0123 35.6578C67.9181 40.5114 69.6143 45.1294 69.6143 45.1294Z" fill="url(#paint23_linear)"/>
<path d="M81.8886 50.6899C82.6896 50.0773 83.9617 50.0537 84.7156 50.7134C84.9041 50.9019 85.0925 51.1375 85.3752 51.1375C85.6344 51.1375 85.8464 50.9019 86.0349 50.6899C86.6709 50.0537 87.7546 49.7239 88.5556 50.1008C90.5581 51.0433 91.3591 50.5485 92.4899 50.1951C91.3826 52.5512 90.1811 54.7188 88.108 55.3079C86.2705 55.8262 84.268 55.8733 82.5247 55.1194C80.64 54.2947 78.1899 50.7606 78.1899 50.7606C78.1899 50.7606 80.5929 51.6794 81.8886 50.6899Z" fill="#995953"/>
<defs>
<linearGradient id="paint0_linear" x1="19" y1="297" x2="153.528" y2="59.5156" gradientUnits="userSpaceOnUse">
<stop stop-color="#C6C5FF"/>
<stop offset="1" stop-color="#7777D7"/>
</linearGradient>
<linearGradient id="paint1_linear" x1="80" y1="71" x2="108.5" y2="8" gradientUnits="userSpaceOnUse">
<stop stop-color="#18202E"/>
<stop offset="1" stop-color="#365986"/>
</linearGradient>
<linearGradient id="paint2_linear" x1="40.4998" y1="58.5" x2="33.4998" y2="185.5" gradientUnits="userSpaceOnUse">
<stop stop-color="#A5655B"/>
<stop offset="1" stop-color="#C7A0A0"/>
</linearGradient>
<linearGradient id="paint3_linear" x1="50.9869" y1="152.849" x2="67.8205" y2="152.849" gradientUnits="userSpaceOnUse">
<stop stop-color="#A5655B"/>
<stop offset="1" stop-color="#AF8282"/>
</linearGradient>
<linearGradient id="paint4_linear" x1="82.5" y1="-19.0001" x2="77" y2="194" gradientUnits="userSpaceOnUse">
<stop stop-color="#A5655B"/>
<stop offset="1" stop-color="#C7A0A0"/>
</linearGradient>
<linearGradient id="paint5_linear" x1="98.7462" y1="157.836" x2="169.848" y2="157.836" gradientUnits="userSpaceOnUse">
<stop stop-color="#A5655B"/>
<stop offset="1" stop-color="#AF8282"/>
</linearGradient>
<linearGradient id="paint6_linear" x1="72.3159" y1="106.043" x2="102.425" y2="106.043" gradientUnits="userSpaceOnUse">
<stop stop-color="#A5655B"/>
<stop offset="1" stop-color="#AF8282"/>
</linearGradient>
<linearGradient id="paint7_linear" x1="78" y1="470" x2="105" y2="210.5" gradientUnits="userSpaceOnUse">
<stop stop-color="#A5655B"/>
<stop offset="1" stop-color="#C7A0A0"/>
</linearGradient>
<linearGradient id="paint8_linear" x1="101.995" y1="320.479" x2="154.193" y2="320.479" gradientUnits="userSpaceOnUse">
<stop stop-color="#A5655B"/>
<stop offset="1" stop-color="#AF8282"/>
</linearGradient>
<linearGradient id="paint9_linear" x1="55.3914" y1="212.361" x2="68.0415" y2="212.361" gradientUnits="userSpaceOnUse">
<stop stop-color="#A5655B"/>
<stop offset="1" stop-color="#AF8282"/>
</linearGradient>
<linearGradient id="paint10_linear" x1="67.9999" y1="464.5" x2="59.4999" y2="182.5" gradientUnits="userSpaceOnUse">
<stop stop-color="#A5655B"/>
<stop offset="0.936769" stop-color="#C7A0A0"/>
</linearGradient>
<linearGradient id="paint11_linear" x1="87.5127" y1="323.575" x2="127.151" y2="323.575" gradientUnits="userSpaceOnUse">
<stop stop-color="#A5655B"/>
<stop offset="1" stop-color="#AF8282"/>
</linearGradient>
<linearGradient id="paint12_linear" x1="21" y1="238" x2="45" y2="194" gradientUnits="userSpaceOnUse">
<stop stop-color="#A5655B"/>
<stop offset="1" stop-color="#C7A0A0"/>
</linearGradient>
<linearGradient id="paint13_linear" x1="112.219" y1="128.193" x2="138.859" y2="128.193" gradientUnits="userSpaceOnUse">
<stop stop-color="#A5655B"/>
<stop offset="1" stop-color="#C7A0A0"/>
</linearGradient>
<linearGradient id="paint14_linear" x1="135.254" y1="129.059" x2="153.797" y2="129.059" gradientUnits="userSpaceOnUse">
<stop stop-color="#A5655B"/>
<stop offset="1" stop-color="#AF8282"/>
</linearGradient>
<linearGradient id="paint15_linear" x1="124.026" y1="102.286" x2="133.269" y2="102.286" gradientUnits="userSpaceOnUse">
<stop stop-color="#A5655B"/>
<stop offset="1" stop-color="#AF8282"/>
</linearGradient>
<linearGradient id="paint16_linear" x1="138.252" y1="188.713" x2="158.024" y2="188.713" gradientUnits="userSpaceOnUse">
<stop stop-color="#A5655B"/>
<stop offset="1" stop-color="#AF8282"/>
</linearGradient>
<linearGradient id="paint17_linear" x1="44.2074" y1="188.554" x2="120.504" y2="188.554" gradientUnits="userSpaceOnUse">
<stop offset="0.00119874" stop-color="#4E4C87"/>
<stop offset="1" stop-color="#55539E"/>
</linearGradient>
<linearGradient id="paint18_linear" x1="100.5" y1="203.5" x2="135.452" y2="183.016" gradientUnits="userSpaceOnUse">
<stop stop-color="#A5655B"/>
<stop offset="1" stop-color="#C7A0A0"/>
</linearGradient>
<linearGradient id="paint19_linear" x1="39.1844" y1="110.74" x2="120.057" y2="110.74" gradientUnits="userSpaceOnUse">
<stop offset="0.00119874" stop-color="#4E4C87"/>
<stop offset="1" stop-color="#55539E"/>
</linearGradient>
<linearGradient id="paint20_linear" x1="44.9707" y1="193.9" x2="65.4079" y2="193.9" gradientUnits="userSpaceOnUse">
<stop stop-color="#A5655B"/>
<stop offset="1" stop-color="#AF8282"/>
</linearGradient>
<linearGradient id="paint21_linear" x1="86.4927" y1="70.6153" x2="116.367" y2="70.6153" gradientUnits="userSpaceOnUse">
<stop stop-color="#A5655B"/>
<stop offset="1" stop-color="#AF8282"/>
</linearGradient>
<linearGradient id="paint22_linear" x1="102.32" y1="43.793" x2="109.591" y2="43.793" gradientUnits="userSpaceOnUse">
<stop stop-color="#A5655B"/>
<stop offset="1" stop-color="#AF8282"/>
</linearGradient>
<linearGradient id="paint23_linear" x1="71.7972" y1="40.3832" x2="77.4758" y2="40.3832" gradientUnits="userSpaceOnUse">
<stop stop-color="#A5655B"/>
<stop offset="1" stop-color="#AF8282"/>
</linearGradient>
</defs>
</svg>
