<svg width="7" height="32" viewBox="0 0 7 32" fill="none" xmlns="http://www.w3.org/2000/svg">
<path d="M3.64307 0.5C3.64307 0.223858 3.41921 0 3.14307 0C2.86692 0 2.64307 0.223858 2.64307 0.5H3.64307ZM3.14307 31.5L6.02982 26.5H0.256315L3.14307 31.5ZM2.64307 2.4375C2.64307 2.71364 2.86692 2.9375 3.14307 2.9375C3.41921 2.9375 3.64307 2.71364 3.64307 2.4375H2.64307ZM3.64307 6.3125C3.64307 6.03636 3.41921 5.8125 3.14307 5.8125C2.86692 5.8125 2.64307 6.03636 2.64307 6.3125H3.64307ZM2.64307 10.1875C2.64307 10.4636 2.86692 10.6875 3.14307 10.6875C3.41921 10.6875 3.64307 10.4636 3.64307 10.1875H2.64307ZM3.64307 14.0625C3.64307 13.7864 3.41921 13.5625 3.14307 13.5625C2.86692 13.5625 2.64307 13.7864 2.64307 14.0625H3.64307ZM2.64307 17.9375C2.64307 18.2136 2.86692 18.4375 3.14307 18.4375C3.41921 18.4375 3.64307 18.2136 3.64307 17.9375H2.64307ZM3.64307 21.8125C3.64307 21.5364 3.41921 21.3125 3.14307 21.3125C2.86692 21.3125 2.64307 21.5364 2.64307 21.8125H3.64307ZM2.64307 25.6875C2.64307 25.9636 2.86692 26.1875 3.14307 26.1875C3.41921 26.1875 3.64307 25.9636 3.64307 25.6875H2.64307ZM3.64307 29.5625C3.64307 29.2864 3.41921 29.0625 3.14307 29.0625C2.86692 29.0625 2.64307 29.2864 2.64307 29.5625H3.64307ZM2.64307 0.5V2.4375H3.64307V0.5H2.64307ZM2.64307 6.3125V10.1875H3.64307V6.3125H2.64307ZM2.64307 14.0625V17.9375H3.64307V14.0625H2.64307ZM2.64307 21.8125V25.6875H3.64307V21.8125H2.64307Z" fill="black" fill-opacity="0.35"/>
</svg>
