<svg width="272" height="270" viewBox="0 0 272 270" fill="none" xmlns="http://www.w3.org/2000/svg">
<path d="M270.85 135.001C270.85 209.083 210.416 269.145 135.86 269.145C61.3047 269.145 0.870789 209.083 0.870789 135.001C0.870789 60.9178 61.3047 0.856445 135.86 0.856445C210.416 0.856445 270.85 60.9178 270.85 135.001Z" stroke="#FF0000" stroke-opacity="0.5"/>
<path d="M236.347 134.999C236.347 190.145 191.361 234.855 135.861 234.855C80.3613 234.855 35.3752 190.145 35.3752 134.999C35.3752 79.8535 80.3613 35.1436 135.861 35.1436C191.361 35.1436 236.347 79.8535 236.347 134.999Z" stroke="#FF0000" stroke-opacity="0.7"/>
<path d="M205.208 135C205.208 173.056 174.163 203.913 135.86 203.913C97.5564 203.913 66.5109 173.056 66.5109 135C66.5109 96.9432 97.5564 66.0869 135.86 66.0869C174.163 66.0869 205.208 96.9432 205.208 135Z" stroke="#FF0000" stroke-opacity="0.9"/>
</svg>
